M48
; DRILL file {KiCad 7.0.5} date Wed Feb  5 18:21:10 2025
; FORMAT={-:-/ absolute / inch / decimal}
; #@! TF.CreationDate,2025-02-05T18:21:10+05:30
; #@! TF.GenerationSoftware,Kicad,Pcbnew,7.0.5
; #@! TF.FileFunction,Plated,1,2,PTH
FMAT,2
INCH
; #@! TA.AperFunction,Plated,PTH,ViaDrill
T1C0.0118
; #@! TA.AperFunction,Plated,PTH,ViaDrill
T2C0.0157
; #@! TA.AperFunction,Plated,PTH,ComponentDrill
T3C0.0197
; #@! TA.AperFunction,Plated,PTH,ComponentDrill
T4C0.0315
; #@! TA.AperFunction,Plated,PTH,ComponentDrill
T5C0.0335
; #@! TA.AperFunction,Plated,PTH,ComponentDrill
T6C0.0354
; #@! TA.AperFunction,Plated,PTH,ComponentDrill
T7C0.0394
; #@! TA.AperFunction,Plated,PTH,ComponentDrill
T8C0.0492
; #@! TA.AperFunction,Plated,PTH,ComponentDrill
T9C0.0728
%
G90
G05
T1
X9.6693Y-5.626
X9.7244Y-7.8189
X9.8898Y-4.4071
X9.9209Y-5.963
X9.9423Y-5.8731
X9.9742Y-5.8702
X10.0272Y-7.7795
X10.0675Y-7.8116
X10.0965Y-6.4665
X10.1043Y-7.7874
X10.1154Y-5.7734
X10.122Y-4.4764
X10.1286Y-5.8444
X10.1322Y-6.081
X10.137Y-6.0457
X10.1374Y-5.5315
X10.1531Y-7.6211
X10.1555Y-7.8098
X10.1564Y-6.3363
X10.1618Y-5.5049
X10.1729Y-5.5575
X10.1749Y-5.6535
X10.1749Y-5.8031
X10.19Y-5.75
X10.1969Y-5.8288
X10.2047Y-7.5026
X10.2047Y-4.4724
X10.2067Y-7.6368
X10.2146Y-7.5266
X10.2189Y-7.2177
X10.2201Y-5.7599
X10.2224Y-7.1063
X10.2445Y-6.0464
X10.2559Y-6.7756
X10.2776Y-4.561
X10.2799Y-5.3831
X10.285Y-7.3843
X10.3134Y-5.3996
X10.3236Y-5.3665
X10.3327Y-4.561
X10.3396Y-7.6201
X10.3587Y-5.3622
X10.3976Y-4.4685
X10.4Y-7.4208
X10.4383Y-5.331
X10.4488Y-4.5276
X10.4488Y-7.5039
X10.4508Y-7.8287
X10.4667Y-5.3175
X10.4966Y-5.3076
X10.5278Y-5.2881
X10.5512Y-7.8248
X10.5516Y-5.2675
X10.5689Y-5.2412
X10.5949Y-5.2208
X10.614Y-5.1954
X10.6392Y-5.1766
X10.6531Y-7.689
X10.6535Y-7.6614
X10.6589Y-5.1521
X10.6715Y-5.1232
X10.7Y-5.1004
X10.7114Y-7.3543
X10.7328Y-5.1084
X10.7756Y-7.565
X10.7933Y-7.4724
X11.0961Y-5.3328
X11.0961Y-6.0395
X11.0965Y-4.4477
X11.0965Y-4.6253
X11.0965Y-4.8021
X11.0965Y-5.1552
X11.0965Y-5.6863
X11.0965Y-5.8623
X11.0965Y-6.2166
X11.0969Y-4.0922
X11.0969Y-4.271
X11.0969Y-4.9788
X11.0969Y-5.5088
X11.0969Y-6.5257
X11.0976Y-6.3934
T2
X7.3689Y-3.7472
X7.374Y-4.3346
X7.3858Y-3.7795
X7.3865Y-7.4204
X7.3898Y-4.1378
X7.3917Y-6.8004
X7.3937Y-3.9764
X7.3949Y-6.8835
X7.3949Y-6.9815
X7.3961Y-7.0787
X7.3961Y-7.1732
X7.3965Y-7.3704
X7.3972Y-7.2705
X7.4043Y-3.7472
X7.4075Y-7.6457
X7.4075Y-7.6811
X7.4075Y-7.7165
X7.4075Y-7.752
X7.4075Y-7.7854
X7.4075Y-7.8209
X7.4075Y-7.8563
X7.4085Y-7.5394
X7.4085Y-7.5748
X7.4085Y-7.6102
X7.4085Y-8.0374
X7.4094Y-4.3346
X7.4094Y-7.8937
X7.4094Y-7.9291
X7.4094Y-7.9636
X7.4094Y-8.002
X7.4213Y-3.7795
X7.4354Y-7.3255
X7.4371Y-6.8374
X7.439Y-7.501
X7.4409Y-8.061
X7.4442Y-6.9328
X7.4442Y-7.0327
X7.4449Y-4.3346
X7.4518Y-7.6969
X7.4554Y-7.2244
X7.4565Y-7.1299
X7.4567Y-3.7795
X7.4567Y-7.874
X7.4646Y-4.1457
X7.4678Y-5.3859
X7.4687Y-5.4253
X7.4689Y-5.5403
X7.4697Y-5.4647
X7.4699Y-5.5796
X7.4709Y-5.2257
X7.4709Y-5.619
X7.4715Y-5.689
X7.4715Y-7.501
X7.4719Y-5.0714
X7.4719Y-5.2651
X7.4724Y-3.9724
X7.4729Y-5.1107
X7.4729Y-5.3044
X7.4734Y-5.7736
X7.4734Y-8.061
X7.4739Y-5.1501
X7.4744Y-5.8593
X7.4756Y-5.9425
X7.476Y-4.5974
X7.476Y-4.7552
X7.476Y-4.9127
X7.477Y-4.6367
X7.477Y-4.7946
X7.477Y-4.9521
X7.4776Y-6.0272
X7.478Y-4.6761
X7.478Y-4.834
X7.478Y-4.9915
X7.4786Y-6.1128
X7.4803Y-4.3346
X7.4823Y-6.1915
X7.4823Y-6.2707
X7.4827Y-6.6508
X7.4827Y-6.6894
X7.4846Y-6.6154
X7.485Y-7.4204
X7.4866Y-6.7276
X7.4902Y-6.8004
X7.4909Y-6.3657
X7.4921Y-6.3988
X7.4921Y-6.4343
X7.4933Y-6.8835
X7.4933Y-6.9815
X7.4941Y-6.3323
X7.4945Y-7.0787
X7.4945Y-7.1732
X7.495Y-7.3704
X7.4957Y-7.2705
X7.5039Y-7.501
X7.5059Y-8.061
X7.5072Y-5.7333
X7.5072Y-5.8179
X7.5081Y-5.3859
X7.5091Y-5.4253
X7.5093Y-5.5403
X7.5101Y-5.4647
X7.5103Y-5.5796
X7.5113Y-5.2257
X7.5113Y-5.619
X7.5122Y-5.0714
X7.5122Y-5.2651
X7.5132Y-5.1107
X7.5132Y-5.3044
X7.5142Y-5.1501
X7.5157Y-4.1575
X7.5157Y-4.3346
X7.5164Y-4.5974
X7.5164Y-4.7552
X7.5164Y-4.9127
X7.5172Y-5.8978
X7.5172Y-5.9868
X7.5172Y-6.0715
X7.5172Y-6.1506
X7.5174Y-4.6367
X7.5174Y-4.7946
X7.5174Y-4.9521
X7.5183Y-4.6761
X7.5183Y-4.834
X7.5183Y-4.9915
X7.5236Y-3.8307
X7.5236Y-6.7441
X7.5268Y-6.3201
X7.5272Y-6.2329
X7.5276Y-3.9528
X7.5276Y-4.2953
X7.5338Y-7.3255
X7.5355Y-6.8374
X7.5364Y-7.501
X7.5384Y-8.061
X7.5426Y-6.9328
X7.5426Y-7.0327
X7.5467Y-5.6911
X7.5475Y-5.3869
X7.5485Y-5.4263
X7.5486Y-5.7758
X7.5487Y-5.5413
X7.5494Y-5.4657
X7.5496Y-5.8614
X7.5496Y-5.5806
X7.5506Y-5.2267
X7.5506Y-5.62
X7.5508Y-5.9447
X7.5512Y-4.3346
X7.5516Y-5.0724
X7.5516Y-5.2661
X7.5526Y-5.1117
X7.5526Y-5.3054
X7.5528Y-6.0293
X7.5536Y-5.1511
X7.5538Y-6.115
X7.5538Y-7.2244
X7.555Y-7.1299
X7.5557Y-4.5983
X7.5557Y-4.7562
X7.5557Y-4.9137
X7.5567Y-4.6377
X7.5567Y-4.7956
X7.5567Y-4.9531
X7.5575Y-6.1937
X7.5575Y-6.2728
X7.5577Y-4.6771
X7.5577Y-4.835
X7.5577Y-4.9924
X7.5598Y-6.7469
X7.5622Y-6.3205
X7.5689Y-7.502
X7.5709Y-8.062
X7.5794Y-7.4204
X7.5824Y-5.7354
X7.5824Y-5.8201
X7.5846Y-6.8004
X7.5856Y-7.8947
X7.5866Y-4.3346
X7.5869Y-5.3869
X7.5878Y-6.8835
X7.5878Y-6.9815
X7.5878Y-5.4263
X7.588Y-5.5413
X7.5888Y-5.4657
X7.589Y-7.0787
X7.589Y-7.1732
X7.589Y-5.5806
X7.5894Y-7.3704
X7.59Y-5.2267
X7.59Y-5.62
X7.5902Y-7.2705
X7.591Y-5.0724
X7.591Y-5.2661
X7.592Y-5.1117
X7.592Y-5.3054
X7.5924Y-5.9
X7.5924Y-5.989
X7.5924Y-6.0736
X7.5924Y-6.1528
X7.593Y-5.1511
X7.5945Y-7.6791
X7.5951Y-4.5983
X7.5951Y-4.7562
X7.5951Y-4.9137
X7.5953Y-6.3209
X7.5957Y-6.7492
X7.5961Y-4.6377
X7.5961Y-4.7956
X7.5961Y-4.9531
X7.5971Y-4.6771
X7.5971Y-4.835
X7.5971Y-4.9924
X7.6014Y-7.502
X7.6024Y-6.235
X7.6033Y-8.062
X7.6191Y-5.689
X7.6211Y-5.7736
X7.622Y-4.3346
X7.622Y-5.8593
X7.6233Y-5.9425
X7.6252Y-6.0272
X7.6262Y-6.1128
X7.6283Y-7.3255
X7.6291Y-6.322
X7.6299Y-6.1915
X7.6299Y-6.2707
X7.63Y-6.8374
X7.6331Y-6.7488
X7.6339Y-7.502
X7.6358Y-8.062
X7.6371Y-6.9328
X7.6371Y-7.0327
X7.6483Y-7.2244
X7.6494Y-7.1299
X7.6548Y-5.7333
X7.6548Y-5.8179
X7.6575Y-4.3346
X7.6614Y-6.3213
X7.6648Y-5.8978
X7.6648Y-5.9868
X7.6648Y-6.0715
X7.6648Y-6.1506
X7.6663Y-7.502
X7.6673Y-6.7343
X7.6683Y-8.062
X7.672Y-6.6606
X7.672Y-6.6996
X7.6744Y-6.3535
X7.6748Y-6.2329
X7.6748Y-6.3866
X7.6748Y-6.622
X7.6752Y-6.4232
X7.6771Y-7.42
X7.6846Y-6.7976
X7.6866Y-7.0783
X7.6866Y-7.1728
X7.6871Y-7.37
X7.6878Y-6.8807
X7.6878Y-6.9787
X7.6878Y-7.2701
X7.6929Y-4.3346
X7.6943Y-5.6911
X7.6963Y-5.7758
X7.6972Y-5.8614
X7.6984Y-3.7421
X7.6985Y-5.9447
X7.6998Y-7.503
X7.7Y-8.47
X7.7004Y-6.0293
X7.7008Y-4.1929
X7.7008Y-8.3632
X7.7014Y-6.115
X7.7018Y-8.063
X7.7047Y-3.7795
X7.7051Y-6.1937
X7.7051Y-6.2728
X7.7126Y-4.2992
X7.7136Y-3.3524
X7.7146Y-3.3967
X7.7156Y-3.437
X7.7165Y-3.4813
X7.7165Y-3.5226
X7.7175Y-3.5669
X7.7205Y-3.8268
X7.7205Y-3.9488
X7.7271Y-7.32
X7.7283Y-4.3346
X7.73Y-5.7354
X7.73Y-5.8201
X7.73Y-6.8346
X7.7323Y-7.503
X7.7339Y-3.7421
X7.7343Y-8.063
X7.7362Y-4.1614
X7.7371Y-6.93
X7.7371Y-7.0299
X7.74Y-5.9
X7.74Y-5.989
X7.74Y-6.0736
X7.74Y-6.1528
X7.74Y-8.15
X7.7402Y-3.7795
X7.7471Y-7.1217
X7.7471Y-7.2189
X7.75Y-6.235
X7.7514Y-4.5199
X7.7524Y-4.5642
X7.7533Y-4.6045
X7.7537Y-4.7864
X7.7547Y-4.8307
X7.7557Y-4.6388
X7.7557Y-4.6801
X7.7557Y-4.8711
X7.7563Y-5.05
X7.7567Y-4.7244
X7.7567Y-4.9154
X7.7567Y-4.9567
X7.7573Y-5.0943
X7.7577Y-5.001
X7.7583Y-5.1346
X7.7587Y-5.3087
X7.7593Y-5.1789
X7.7593Y-5.2203
X7.7596Y-5.353
X7.7602Y-5.2646
X7.7606Y-5.3933
X7.761Y-5.5673
X7.7616Y-5.4376
X7.7616Y-5.4789
X7.762Y-5.6116
X7.7626Y-5.5232
X7.7638Y-3.9724
X7.7638Y-4.3346
X7.7648Y-7.503
X7.7667Y-8.063
X7.7693Y-3.7421
X7.77Y-8.42
X7.7717Y-3.3524
X7.7726Y-3.3967
X7.7736Y-3.437
X7.7746Y-3.4813
X7.7746Y-3.5226
X7.7755Y-7.42
X7.7756Y-3.5669
X7.7756Y-3.7795
X7.78Y-6.44
X7.7844Y-7.8927
X7.785Y-7.0783
X7.785Y-7.1728
X7.7852Y-4.5222
X7.7855Y-7.37
X7.7862Y-4.5665
X7.7862Y-6.8807
X7.7862Y-6.9787
X7.7862Y-7.2701
X7.7872Y-4.6069
X7.7876Y-4.7888
X7.7886Y-4.8331
X7.7896Y-4.6411
X7.7896Y-4.6825
X7.7896Y-4.8734
X7.7902Y-5.0524
X7.7904Y-7.6811
X7.7906Y-4.7268
X7.7906Y-4.9177
X7.7906Y-4.9591
X7.7911Y-5.0967
X7.7915Y-5.0033
X7.7921Y-5.137
X7.7925Y-5.311
X7.7931Y-5.1813
X7.7931Y-5.2226
X7.7935Y-5.3553
X7.7941Y-5.2669
X7.7945Y-5.3957
X7.7949Y-5.5697
X7.7955Y-5.44
X7.7955Y-5.4813
X7.7959Y-5.614
X7.7965Y-5.5256
X7.7969Y-5.6543
X7.7969Y-5.998
X7.7972Y-7.503
X7.7978Y-5.6986
X7.7978Y-5.74
X7.7978Y-6.0423
X7.7978Y-6.0837
X7.7982Y-5.8246
X7.7982Y-6.1683
X7.7988Y-5.7843
X7.7988Y-6.128
X7.7992Y-4.3346
X7.7992Y-5.8689
X7.7992Y-5.9102
X7.7992Y-6.2126
X7.7992Y-6.2539
X7.7992Y-8.063
X7.7992Y-8.3632
X7.8002Y-5.9545
X7.8002Y-6.2982
X7.8008Y-8.47
X7.8047Y-3.7421
X7.811Y-3.7795
X7.8114Y-6.7961
X7.8179Y-4.5211
X7.8189Y-4.5654
X7.8199Y-4.6057
X7.82Y-6.42
X7.8203Y-4.7876
X7.8213Y-4.8319
X7.8222Y-4.64
X7.8222Y-4.6813
X7.8222Y-4.8722
X7.8228Y-5.0512
X7.8232Y-4.7256
X7.8232Y-4.9165
X7.8232Y-4.9579
X7.8238Y-5.0955
X7.8242Y-5.0022
X7.8248Y-5.1358
X7.8252Y-5.3098
X7.8255Y-7.32
X7.8258Y-5.1801
X7.8258Y-5.2215
X7.8262Y-5.3541
X7.8268Y-5.2657
X7.8272Y-5.3945
X7.8276Y-5.5685
X7.8281Y-5.4388
X7.8281Y-5.4801
X7.8284Y-6.8346
X7.8285Y-5.6128
X7.8291Y-5.5244
X7.8307Y-3.3543
X7.8307Y-7.503
X7.8317Y-3.3986
X7.8327Y-3.439
X7.8327Y-8.063
X7.8337Y-3.4833
X7.8337Y-3.5246
X7.8346Y-3.5689
X7.8355Y-6.93
X7.8355Y-7.0299
X7.8392Y-5.6561
X7.8392Y-5.9998
X7.8402Y-5.7004
X7.8402Y-5.7417
X7.8402Y-6.0441
X7.8402Y-6.0854
X7.8406Y-5.8264
X7.8406Y-6.1701
X7.8411Y-5.786
X7.8411Y-6.1297
X7.8415Y-5.8707
X7.8415Y-5.912
X7.8415Y-6.2144
X7.8415Y-6.2557
X7.8425Y-3.9724
X7.8425Y-5.9563
X7.8425Y-6.3
X7.8435Y-8.1506
X7.8445Y-8.2569
X7.8455Y-7.1217
X7.8455Y-7.2189
X7.8465Y-4.1535
X7.8632Y-7.503
X7.8652Y-8.063
X7.87Y-7.42
X7.8716Y-8.3081
X7.8716Y-8.4144
X7.8795Y-7.0783
X7.8795Y-7.1728
X7.88Y-7.37
X7.8807Y-6.8807
X7.8807Y-6.9787
X7.8807Y-7.2701
X7.89Y-8.2
X7.8927Y-3.3533
X7.8937Y-3.3976
X7.8947Y-3.438
X7.8957Y-3.4823
X7.8957Y-3.5236
X7.8957Y-7.503
X7.8967Y-3.5679
X7.8976Y-8.063
X7.91Y-8.47
X7.9173Y-3.8661
X7.92Y-7.32
X7.9222Y-7.6919
X7.9242Y-7.8701
X7.9276Y-3.9957
X7.9281Y-7.503
X7.9287Y-3.9638
X7.9299Y-4.028
X7.9299Y-4.8433
X7.9299Y-7.2701
X7.93Y-6.93
X7.93Y-7.0299
X7.93Y-8.15
X7.9301Y-8.063
X7.9311Y-4.8114
X7.9319Y-5.4063
X7.9323Y-4.8756
X7.9331Y-4.563
X7.9331Y-5.3744
X7.9339Y-5.974
X7.9343Y-4.5311
X7.9343Y-5.4386
X7.935Y-4.2783
X7.935Y-5.1256
X7.935Y-5.9421
X7.935Y-6.2602
X7.9354Y-4.5953
X7.9362Y-4.2465
X7.9362Y-5.0937
X7.9362Y-6.0063
X7.9362Y-6.2283
X7.937Y-5.689
X7.9374Y-4.3106
X7.9374Y-5.1579
X7.9374Y-6.2925
X7.9382Y-5.6571
X7.9394Y-5.7213
X7.94Y-7.1217
X7.94Y-7.2189
X7.9429Y-8.2569
X7.9429Y-8.3632
X7.95Y-7.42
X7.9602Y-3.9965
X7.9614Y-3.9646
X7.9626Y-4.0287
X7.9626Y-4.8445
X7.9638Y-4.8126
X7.965Y-4.8768
X7.9661Y-4.5626
X7.9661Y-5.4067
X7.9669Y-5.974
X7.9673Y-4.5307
X7.9673Y-5.3748
X7.9677Y-4.2795
X7.9681Y-5.126
X7.9681Y-5.9421
X7.9681Y-6.2606
X7.9685Y-4.5949
X7.9685Y-5.439
X7.9689Y-4.2476
X7.9693Y-5.0941
X7.9693Y-6.0063
X7.9693Y-6.2287
X7.97Y-8.2
X7.97Y-8.3081
X7.97Y-8.4144
X7.9701Y-4.3118
X7.9705Y-5.1583
X7.9705Y-6.2929
X7.9713Y-5.6902
X7.9724Y-5.6583
X7.9736Y-5.7224
X7.989Y-4.0472
X7.9909Y-3.9484
X7.9913Y-4.8953
X7.9933Y-4.7965
X7.9949Y-4.6134
X7.9949Y-5.4575
X7.9957Y-6.0248
X7.9965Y-4.3303
X7.9969Y-4.5146
X7.9969Y-5.1768
X7.9969Y-5.3587
X7.9969Y-6.3114
X7.9976Y-5.926
X7.9984Y-4.2315
X7.9988Y-5.078
X7.9988Y-6.2126
X8.0Y-5.7409
X8.002Y-5.6421
X8.01Y-7.22
X8.0118Y-7.3071
X8.0118Y-7.3425
X8.0118Y-7.378
X8.0118Y-7.4134
X8.0118Y-7.4488
X8.0118Y-7.4843
X8.0118Y-7.5197
X8.0118Y-7.5551
X8.0118Y-7.5906
X8.0118Y-7.626
X8.0118Y-7.6614
X8.0118Y-7.6969
X8.0118Y-7.7323
X8.0118Y-7.7677
X8.0118Y-7.8031
X8.0118Y-7.8386
X8.0118Y-7.874
X8.0118Y-7.9094
X8.0118Y-7.9449
X8.0118Y-7.9803
X8.0118Y-8.0157
X8.0118Y-8.0512
X8.0118Y-8.0866
X8.0118Y-8.122
X8.0118Y-8.1575
X8.0118Y-8.1929
X8.0118Y-8.2283
X8.0118Y-8.2638
X8.0118Y-8.2992
X8.0118Y-8.3346
X8.0118Y-8.3701
X8.0118Y-8.4134
X8.0118Y-8.4488
X8.02Y-7.03
X8.0224Y-4.0472
X8.0248Y-3.9457
X8.0248Y-4.8953
X8.0272Y-4.7937
X8.0283Y-4.6134
X8.0283Y-5.4575
X8.0291Y-6.0248
X8.0299Y-4.3303
X8.0303Y-5.1768
X8.0307Y-4.5118
X8.0307Y-5.3559
X8.0315Y-5.9232
X8.0323Y-4.2287
X8.0327Y-5.0752
X8.0327Y-6.2098
X8.0335Y-5.7409
X8.0358Y-5.6394
X8.0398Y-6.5202
X8.04Y-7.15
X8.0472Y-7.3071
X8.0472Y-7.3425
X8.0472Y-7.378
X8.0472Y-7.4134
X8.0472Y-7.4488
X8.0472Y-7.4843
X8.0472Y-7.5197
X8.0472Y-7.5551
X8.0472Y-7.5906
X8.0472Y-7.626
X8.0472Y-7.6614
X8.0472Y-7.6969
X8.0472Y-7.7323
X8.0472Y-7.7677
X8.0472Y-7.8031
X8.0472Y-7.8386
X8.0472Y-7.874
X8.0472Y-7.9094
X8.0472Y-7.9449
X8.0472Y-7.9803
X8.0472Y-8.0157
X8.0472Y-8.0512
X8.0472Y-8.0866
X8.0472Y-8.122
X8.0472Y-8.1575
X8.0472Y-8.1929
X8.0472Y-8.2283
X8.0472Y-8.2638
X8.0472Y-8.2992
X8.0472Y-8.3346
X8.0472Y-8.3701
X8.0472Y-8.4134
X8.0472Y-8.4488
X8.05Y-6.69
X8.0567Y-4.0476
X8.0579Y-3.9465
X8.0591Y-4.8957
X8.0602Y-4.7945
X8.0626Y-4.6138
X8.0626Y-5.4579
X8.0634Y-6.0252
X8.0638Y-4.5126
X8.0638Y-5.3567
X8.0642Y-4.3307
X8.0646Y-5.1772
X8.0646Y-5.924
X8.0654Y-4.2295
X8.0657Y-5.076
X8.0657Y-6.2106
X8.0673Y-7.0799
X8.0677Y-5.7413
X8.0689Y-5.6402
X8.0827Y-7.3071
X8.0827Y-7.3425
X8.0827Y-8.4134
X8.0827Y-8.4488
X8.09Y-7.22
X8.1083Y-6.3683
X8.11Y-6.68
X8.1142Y-8.4134
X8.1142Y-8.4488
X8.1181Y-7.3071
X8.1181Y-7.3425
X8.1457Y-8.4134
X8.1457Y-8.4488
X8.1535Y-7.3071
X8.1535Y-7.3425
X8.1581Y-5.745
X8.1581Y-5.7774
X8.1581Y-5.8099
X8.1591Y-5.8444
X8.1591Y-5.8769
X8.1591Y-5.9093
X8.1591Y-5.9418
X8.1591Y-5.9753
X8.1591Y-6.0078
X8.1591Y-6.0402
X8.1591Y-6.0727
X8.1591Y-6.1072
X8.1591Y-6.1396
X8.1591Y-6.1721
X8.1591Y-6.2046
X8.1591Y-6.2381
X8.1591Y-6.2706
X8.1624Y-3.7059
X8.1624Y-3.7384
X8.1624Y-3.7709
X8.1624Y-3.8033
X8.1624Y-3.8368
X8.1624Y-3.8693
X8.1624Y-3.9018
X8.1624Y-3.9343
X8.1624Y-3.9687
X8.1624Y-4.0012
X8.1624Y-4.0337
X8.1624Y-4.0661
X8.1624Y-4.0996
X8.1624Y-4.1321
X8.1624Y-4.1646
X8.1624Y-4.197
X8.1634Y-4.2315
X8.1634Y-4.264
X8.1634Y-4.2965
X8.1634Y-4.3289
X8.1634Y-4.3624
X8.1634Y-4.3949
X8.1634Y-4.4274
X8.1634Y-4.4598
X8.1634Y-4.4943
X8.1634Y-4.5268
X8.1634Y-4.5593
X8.1634Y-4.5917
X8.1634Y-4.6252
X8.1634Y-4.6577
X8.1634Y-4.6902
X8.1634Y-4.7226
X8.1654Y-4.7591
X8.1654Y-4.7915
X8.1654Y-4.824
X8.1654Y-4.8565
X8.1654Y-4.89
X8.1654Y-4.9224
X8.1654Y-4.9549
X8.1654Y-4.9874
X8.1654Y-5.0219
X8.1654Y-5.0543
X8.1654Y-5.0868
X8.1654Y-5.1193
X8.1654Y-5.1528
X8.1654Y-5.1852
X8.1654Y-5.2177
X8.1654Y-5.2502
X8.1663Y-5.2846
X8.1663Y-5.3171
X8.1663Y-5.3496
X8.1663Y-5.3821
X8.1663Y-5.4156
X8.1663Y-5.448
X8.1663Y-5.4805
X8.1663Y-5.513
X8.1663Y-5.5474
X8.1663Y-5.5799
X8.1663Y-5.6124
X8.1663Y-5.6449
X8.1663Y-5.6783
X8.1663Y-5.7108
X8.1811Y-8.4134
X8.1811Y-8.4488
X8.189Y-7.3071
X8.189Y-7.3425
X8.1915Y-5.745
X8.1915Y-5.7774
X8.1915Y-5.8099
X8.1925Y-5.8444
X8.1925Y-5.8769
X8.1925Y-5.9093
X8.1925Y-5.9418
X8.1925Y-5.9753
X8.1925Y-6.0078
X8.1925Y-6.0402
X8.1925Y-6.0727
X8.1925Y-6.1072
X8.1925Y-6.1396
X8.1925Y-6.1721
X8.1925Y-6.2046
X8.1925Y-6.2381
X8.1925Y-6.2706
X8.1959Y-3.7059
X8.1959Y-3.7384
X8.1959Y-3.7709
X8.1959Y-3.8033
X8.1959Y-3.8368
X8.1959Y-3.8693
X8.1959Y-3.9018
X8.1959Y-3.9343
X8.1959Y-3.9687
X8.1959Y-4.0012
X8.1959Y-4.0337
X8.1959Y-4.0661
X8.1959Y-4.0996
X8.1959Y-4.1321
X8.1959Y-4.1646
X8.1959Y-4.197
X8.1969Y-4.2315
X8.1969Y-4.264
X8.1969Y-4.2965
X8.1969Y-4.3289
X8.1969Y-4.3624
X8.1969Y-4.3949
X8.1969Y-4.4274
X8.1969Y-4.4598
X8.1969Y-4.4943
X8.1969Y-4.5268
X8.1969Y-4.5593
X8.1969Y-4.5917
X8.1969Y-4.6252
X8.1969Y-4.6577
X8.1969Y-4.6902
X8.1969Y-4.7226
X8.1988Y-4.7591
X8.1988Y-4.7915
X8.1988Y-4.824
X8.1988Y-4.8565
X8.1988Y-4.89
X8.1988Y-4.9224
X8.1988Y-4.9549
X8.1988Y-4.9874
X8.1988Y-5.0219
X8.1988Y-5.0543
X8.1988Y-5.0868
X8.1988Y-5.1193
X8.1988Y-5.1528
X8.1988Y-5.1852
X8.1988Y-5.2177
X8.1988Y-5.2502
X8.1998Y-5.2846
X8.1998Y-5.3171
X8.1998Y-5.3496
X8.1998Y-5.3821
X8.1998Y-5.4156
X8.1998Y-5.448
X8.1998Y-5.4805
X8.1998Y-5.513
X8.1998Y-5.5474
X8.1998Y-5.5799
X8.1998Y-5.6124
X8.1998Y-5.6449
X8.1998Y-5.6783
X8.1998Y-5.7108
X8.2126Y-8.4134
X8.2126Y-8.4488
X8.2244Y-7.3071
X8.2244Y-7.3425
X8.225Y-5.745
X8.225Y-5.7774
X8.225Y-5.8099
X8.226Y-5.8444
X8.226Y-5.8769
X8.226Y-5.9093
X8.226Y-5.9418
X8.226Y-5.9753
X8.226Y-6.0078
X8.226Y-6.0402
X8.226Y-6.0727
X8.226Y-6.1072
X8.226Y-6.1396
X8.226Y-6.1721
X8.226Y-6.2046
X8.226Y-6.2381
X8.226Y-6.2706
X8.2293Y-3.7059
X8.2293Y-3.7384
X8.2293Y-3.7709
X8.2293Y-3.8033
X8.2293Y-3.8368
X8.2293Y-3.8693
X8.2293Y-3.9018
X8.2293Y-3.9343
X8.2293Y-3.9687
X8.2293Y-4.0012
X8.2293Y-4.0337
X8.2293Y-4.0661
X8.2293Y-4.0996
X8.2293Y-4.1321
X8.2293Y-4.1646
X8.2293Y-4.197
X8.2303Y-4.2315
X8.2303Y-4.264
X8.2303Y-4.2965
X8.2303Y-4.3289
X8.2303Y-4.3624
X8.2303Y-4.3949
X8.2303Y-4.4274
X8.2303Y-4.4598
X8.2303Y-4.4943
X8.2303Y-4.5268
X8.2303Y-4.5593
X8.2303Y-4.5917
X8.2303Y-4.6252
X8.2303Y-4.6577
X8.2303Y-4.6902
X8.2303Y-4.7226
X8.2323Y-4.7591
X8.2323Y-4.7915
X8.2323Y-4.824
X8.2323Y-4.8565
X8.2323Y-4.89
X8.2323Y-4.9224
X8.2323Y-4.9549
X8.2323Y-4.9874
X8.2323Y-5.0219
X8.2323Y-5.0543
X8.2323Y-5.0868
X8.2323Y-5.1193
X8.2323Y-5.1528
X8.2323Y-5.1852
X8.2323Y-5.2177
X8.2323Y-5.2502
X8.2333Y-5.2846
X8.2333Y-5.3171
X8.2333Y-5.3496
X8.2333Y-5.3821
X8.2333Y-5.4156
X8.2333Y-5.448
X8.2333Y-5.4805
X8.2333Y-5.513
X8.2333Y-5.5474
X8.2333Y-5.5799
X8.2333Y-5.6124
X8.2333Y-5.6449
X8.2333Y-5.6783
X8.2333Y-5.7108
X8.24Y-6.745
X8.248Y-8.4134
X8.248Y-8.4488
X8.2575Y-5.745
X8.2575Y-5.7774
X8.2575Y-5.8099
X8.2585Y-5.8444
X8.2585Y-5.8769
X8.2585Y-5.9093
X8.2585Y-5.9418
X8.2585Y-5.9753
X8.2585Y-6.0078
X8.2585Y-6.0402
X8.2585Y-6.0727
X8.2585Y-6.1072
X8.2585Y-6.1396
X8.2585Y-6.1721
X8.2585Y-6.2046
X8.2585Y-6.2381
X8.2585Y-6.2706
X8.2618Y-3.7059
X8.2618Y-3.7384
X8.2618Y-3.7709
X8.2618Y-3.8033
X8.2618Y-3.8368
X8.2618Y-3.8693
X8.2618Y-3.9018
X8.2618Y-3.9343
X8.2618Y-3.9687
X8.2618Y-4.0012
X8.2618Y-4.0337
X8.2618Y-4.0661
X8.2618Y-4.0996
X8.2618Y-4.1321
X8.2618Y-4.1646
X8.2618Y-4.197
X8.2628Y-4.2315
X8.2628Y-4.264
X8.2628Y-4.2965
X8.2628Y-4.3289
X8.2628Y-4.3624
X8.2628Y-4.3949
X8.2628Y-4.4274
X8.2628Y-4.4598
X8.2628Y-4.4943
X8.2628Y-4.5268
X8.2628Y-4.5593
X8.2628Y-4.5917
X8.2628Y-4.6252
X8.2628Y-4.6577
X8.2628Y-4.6902
X8.2628Y-4.7226
X8.2648Y-4.7591
X8.2648Y-4.7915
X8.2648Y-4.824
X8.2648Y-4.8565
X8.2648Y-4.89
X8.2648Y-4.9224
X8.2648Y-4.9549
X8.2648Y-4.9874
X8.2648Y-5.0219
X8.2648Y-5.0543
X8.2648Y-5.0868
X8.2648Y-5.1193
X8.2648Y-5.1528
X8.2648Y-5.1852
X8.2648Y-5.2177
X8.2648Y-5.2502
X8.2657Y-5.2846
X8.2657Y-5.3171
X8.2657Y-5.3496
X8.2657Y-5.3821
X8.2657Y-5.4156
X8.2657Y-5.448
X8.2657Y-5.4805
X8.2657Y-5.513
X8.2657Y-5.5474
X8.2657Y-5.5799
X8.2657Y-5.6124
X8.2657Y-5.6449
X8.2657Y-5.6783
X8.2657Y-5.7108
X8.289Y-5.745
X8.289Y-5.7774
X8.289Y-5.8099
X8.29Y-5.8444
X8.29Y-5.8769
X8.29Y-5.9093
X8.29Y-5.9418
X8.29Y-5.9753
X8.29Y-6.0078
X8.29Y-6.0402
X8.29Y-6.0727
X8.29Y-6.1072
X8.29Y-6.1396
X8.29Y-6.1721
X8.29Y-6.2046
X8.29Y-6.2381
X8.29Y-6.2706
X8.2933Y-3.7059
X8.2933Y-3.7384
X8.2933Y-3.7709
X8.2933Y-3.8033
X8.2933Y-3.8368
X8.2933Y-3.8693
X8.2933Y-3.9018
X8.2933Y-3.9343
X8.2933Y-3.9687
X8.2933Y-4.0012
X8.2933Y-4.0337
X8.2933Y-4.0661
X8.2933Y-4.0996
X8.2933Y-4.1321
X8.2933Y-4.1646
X8.2933Y-4.197
X8.2943Y-4.2315
X8.2943Y-4.264
X8.2943Y-4.2965
X8.2943Y-4.3289
X8.2943Y-4.3624
X8.2943Y-4.3949
X8.2943Y-4.4274
X8.2943Y-4.4598
X8.2943Y-4.4943
X8.2943Y-4.5268
X8.2943Y-4.5593
X8.2943Y-4.5917
X8.2943Y-4.6252
X8.2943Y-4.6577
X8.2943Y-4.6902
X8.2943Y-4.7226
X8.2963Y-4.7591
X8.2963Y-4.7915
X8.2963Y-4.824
X8.2963Y-4.8565
X8.2963Y-4.89
X8.2963Y-4.9224
X8.2963Y-4.9549
X8.2963Y-4.9874
X8.2963Y-5.0219
X8.2963Y-5.0543
X8.2963Y-5.0868
X8.2963Y-5.1193
X8.2963Y-5.1528
X8.2963Y-5.1852
X8.2963Y-5.2177
X8.2963Y-5.2502
X8.2972Y-5.2846
X8.2972Y-5.3171
X8.2972Y-5.3496
X8.2972Y-5.3821
X8.2972Y-5.4156
X8.2972Y-5.448
X8.2972Y-5.4805
X8.2972Y-5.513
X8.2972Y-5.5474
X8.2972Y-5.5799
X8.2972Y-5.6124
X8.2972Y-5.6449
X8.2972Y-5.6783
X8.2972Y-5.7108
X8.3001Y-6.68
X8.3215Y-5.745
X8.3215Y-5.7774
X8.3215Y-5.8099
X8.3224Y-5.8444
X8.3224Y-5.8769
X8.3224Y-5.9093
X8.3224Y-5.9418
X8.3224Y-5.9753
X8.3224Y-6.0078
X8.3224Y-6.0402
X8.3224Y-6.0727
X8.3224Y-6.1072
X8.3224Y-6.1396
X8.3224Y-6.1721
X8.3224Y-6.2046
X8.3224Y-6.2381
X8.3224Y-6.2706
X8.3258Y-3.7059
X8.3258Y-3.7384
X8.3258Y-3.7709
X8.3258Y-3.8033
X8.3258Y-3.8368
X8.3258Y-3.8693
X8.3258Y-3.9018
X8.3258Y-3.9343
X8.3258Y-3.9687
X8.3258Y-4.0012
X8.3258Y-4.0337
X8.3258Y-4.0661
X8.3258Y-4.0996
X8.3258Y-4.1321
X8.3258Y-4.1646
X8.3258Y-4.197
X8.3268Y-4.2315
X8.3268Y-4.264
X8.3268Y-4.2965
X8.3268Y-4.3289
X8.3268Y-4.3624
X8.3268Y-4.3949
X8.3268Y-4.4274
X8.3268Y-4.4598
X8.3268Y-4.4943
X8.3268Y-4.5268
X8.3268Y-4.5593
X8.3268Y-4.5917
X8.3268Y-4.6252
X8.3268Y-4.6577
X8.3268Y-4.6902
X8.3268Y-4.7226
X8.3287Y-4.7591
X8.3287Y-4.7915
X8.3287Y-4.824
X8.3287Y-4.8565
X8.3287Y-4.89
X8.3287Y-4.9224
X8.3287Y-4.9549
X8.3287Y-4.9874
X8.3287Y-5.0219
X8.3287Y-5.0543
X8.3287Y-5.0868
X8.3287Y-5.1193
X8.3287Y-5.1528
X8.3287Y-5.1852
X8.3287Y-5.2177
X8.3287Y-5.2502
X8.3297Y-5.2846
X8.3297Y-5.3171
X8.3297Y-5.3496
X8.3297Y-5.3821
X8.3297Y-5.4156
X8.3297Y-5.448
X8.3297Y-5.4805
X8.3297Y-5.513
X8.3297Y-5.5474
X8.3297Y-5.5799
X8.3297Y-5.6124
X8.3297Y-5.6449
X8.3297Y-5.6783
X8.3297Y-5.7108
X8.3539Y-5.745
X8.3539Y-5.7774
X8.3539Y-5.8099
X8.3549Y-5.8444
X8.3549Y-5.8769
X8.3549Y-5.9093
X8.3549Y-5.9418
X8.3549Y-5.9753
X8.3549Y-6.0078
X8.3549Y-6.0402
X8.3549Y-6.0727
X8.3549Y-6.1072
X8.3549Y-6.1396
X8.3549Y-6.1721
X8.3549Y-6.2046
X8.3549Y-6.2381
X8.3549Y-6.2706
X8.3583Y-3.7059
X8.3583Y-3.7384
X8.3583Y-3.7709
X8.3583Y-3.8033
X8.3583Y-3.8368
X8.3583Y-3.8693
X8.3583Y-3.9018
X8.3583Y-3.9343
X8.3583Y-3.9687
X8.3583Y-4.0012
X8.3583Y-4.0337
X8.3583Y-4.0661
X8.3583Y-4.0996
X8.3583Y-4.1321
X8.3583Y-4.1646
X8.3583Y-4.197
X8.3593Y-4.2315
X8.3593Y-4.264
X8.3593Y-4.2965
X8.3593Y-4.3289
X8.3593Y-4.3624
X8.3593Y-4.3949
X8.3593Y-4.4274
X8.3593Y-4.4598
X8.3593Y-4.4943
X8.3593Y-4.5268
X8.3593Y-4.5593
X8.3593Y-4.5917
X8.3593Y-4.6252
X8.3593Y-4.6577
X8.3593Y-4.6902
X8.3593Y-4.7226
X8.3612Y-4.7591
X8.3612Y-4.7915
X8.3612Y-4.824
X8.3612Y-4.8565
X8.3612Y-4.89
X8.3612Y-4.9224
X8.3612Y-4.9549
X8.3612Y-4.9874
X8.3612Y-5.0219
X8.3612Y-5.0543
X8.3612Y-5.0868
X8.3612Y-5.1193
X8.3612Y-5.1528
X8.3612Y-5.1852
X8.3612Y-5.2177
X8.3612Y-5.2502
X8.3622Y-5.2846
X8.3622Y-5.3171
X8.3622Y-5.3496
X8.3622Y-5.3821
X8.3622Y-5.4156
X8.3622Y-5.448
X8.3622Y-5.4805
X8.3622Y-5.513
X8.3622Y-5.5474
X8.3622Y-5.5799
X8.3622Y-5.6124
X8.3622Y-5.6449
X8.3622Y-5.6783
X8.3622Y-5.7108
X8.3864Y-5.745
X8.3864Y-5.7774
X8.3864Y-5.8099
X8.3874Y-5.8444
X8.3874Y-5.8769
X8.3874Y-5.9093
X8.3874Y-5.9418
X8.3874Y-5.9753
X8.3874Y-6.0078
X8.3874Y-6.0402
X8.3874Y-6.0727
X8.3874Y-6.1072
X8.3874Y-6.1396
X8.3874Y-6.1721
X8.3874Y-6.2046
X8.3874Y-6.2381
X8.3874Y-6.2706
X8.3907Y-3.7059
X8.3907Y-3.7384
X8.3907Y-3.7709
X8.3907Y-3.8033
X8.3907Y-3.8368
X8.3907Y-3.8693
X8.3907Y-3.9018
X8.3907Y-3.9343
X8.3907Y-3.9687
X8.3907Y-4.0012
X8.3907Y-4.0337
X8.3907Y-4.0661
X8.3907Y-4.0996
X8.3907Y-4.1321
X8.3907Y-4.1646
X8.3907Y-4.197
X8.3917Y-4.2315
X8.3917Y-4.264
X8.3917Y-4.2965
X8.3917Y-4.3289
X8.3917Y-4.3624
X8.3917Y-4.3949
X8.3917Y-4.4274
X8.3917Y-4.4598
X8.3917Y-4.4943
X8.3917Y-4.5268
X8.3917Y-4.5593
X8.3917Y-4.5917
X8.3917Y-4.6252
X8.3917Y-4.6577
X8.3917Y-4.6902
X8.3917Y-4.7226
X8.3937Y-4.7591
X8.3937Y-4.7915
X8.3937Y-4.824
X8.3937Y-4.8565
X8.3937Y-4.89
X8.3937Y-4.9224
X8.3937Y-4.9549
X8.3937Y-4.9874
X8.3937Y-5.0219
X8.3937Y-5.0543
X8.3937Y-5.0868
X8.3937Y-5.1193
X8.3937Y-5.1528
X8.3937Y-5.1852
X8.3937Y-5.2177
X8.3937Y-5.2502
X8.3947Y-5.2846
X8.3947Y-5.3171
X8.3947Y-5.3496
X8.3947Y-5.3821
X8.3947Y-5.4156
X8.3947Y-5.448
X8.3947Y-5.4805
X8.3947Y-5.513
X8.3947Y-5.5474
X8.3947Y-5.5799
X8.3947Y-5.6124
X8.3947Y-5.6449
X8.3947Y-5.6783
X8.3947Y-5.7108
X8.4189Y-5.7459
X8.4189Y-5.7784
X8.4189Y-5.8109
X8.4199Y-5.8454
X8.4199Y-5.8778
X8.4199Y-5.9103
X8.4199Y-5.9428
X8.4199Y-5.9763
X8.4199Y-6.0087
X8.4199Y-6.0412
X8.4199Y-6.0737
X8.4199Y-6.1081
X8.4199Y-6.1406
X8.4199Y-6.1731
X8.4199Y-6.2056
X8.4199Y-6.2391
X8.4199Y-6.2715
X8.4232Y-3.7069
X8.4232Y-3.7394
X8.4232Y-3.7719
X8.4232Y-3.8043
X8.4232Y-3.8378
X8.4232Y-3.8703
X8.4232Y-3.9028
X8.4232Y-3.9352
X8.4232Y-3.9697
X8.4232Y-4.0022
X8.4232Y-4.0346
X8.4232Y-4.0671
X8.4232Y-4.1006
X8.4232Y-4.1331
X8.4232Y-4.1656
X8.4232Y-4.198
X8.4242Y-4.2325
X8.4242Y-4.265
X8.4242Y-4.2974
X8.4242Y-4.3299
X8.4242Y-4.3634
X8.4242Y-4.3959
X8.4242Y-4.4283
X8.4242Y-4.4608
X8.4242Y-4.4953
X8.4242Y-4.5278
X8.4242Y-4.5602
X8.4242Y-4.5927
X8.4242Y-4.6262
X8.4242Y-4.6587
X8.4242Y-4.6911
X8.4242Y-4.7236
X8.4262Y-4.76
X8.4262Y-4.7925
X8.4262Y-4.825
X8.4262Y-4.8575
X8.4262Y-4.8909
X8.4262Y-4.9234
X8.4262Y-4.9559
X8.4262Y-4.9884
X8.4262Y-5.0228
X8.4262Y-5.0553
X8.4262Y-5.0878
X8.4262Y-5.1203
X8.4262Y-5.1537
X8.4262Y-5.1862
X8.4262Y-5.2187
X8.4262Y-5.2512
X8.4272Y-5.2856
X8.4272Y-5.3181
X8.4272Y-5.3506
X8.4272Y-5.3831
X8.4272Y-5.4165
X8.4272Y-5.449
X8.4272Y-5.4815
X8.4272Y-5.514
X8.4272Y-5.5484
X8.4272Y-5.5809
X8.4272Y-5.6134
X8.4272Y-5.6459
X8.4272Y-5.6793
X8.4272Y-5.7118
X8.43Y-6.68
X8.4313Y-3.6513
X8.4514Y-5.7459
X8.4514Y-5.7784
X8.4514Y-5.8109
X8.4524Y-5.8454
X8.4524Y-5.8778
X8.4524Y-5.9103
X8.4524Y-5.9428
X8.4524Y-5.9763
X8.4524Y-6.0087
X8.4524Y-6.0412
X8.4524Y-6.0737
X8.4524Y-6.1081
X8.4524Y-6.1406
X8.4524Y-6.1731
X8.4524Y-6.2056
X8.4524Y-6.2391
X8.4524Y-6.2715
X8.4557Y-3.7069
X8.4557Y-3.7394
X8.4557Y-3.7719
X8.4557Y-3.8043
X8.4557Y-3.8378
X8.4557Y-3.8703
X8.4557Y-3.9028
X8.4557Y-3.9352
X8.4557Y-3.9697
X8.4557Y-4.0022
X8.4557Y-4.0346
X8.4557Y-4.0671
X8.4557Y-4.1006
X8.4557Y-4.1331
X8.4557Y-4.1656
X8.4557Y-4.198
X8.4567Y-4.2325
X8.4567Y-4.265
X8.4567Y-4.2974
X8.4567Y-4.3299
X8.4567Y-4.3634
X8.4567Y-4.3959
X8.4567Y-4.4283
X8.4567Y-4.4608
X8.4567Y-4.4953
X8.4567Y-4.5278
X8.4567Y-4.5602
X8.4567Y-4.5927
X8.4567Y-4.6262
X8.4567Y-4.6587
X8.4567Y-4.6911
X8.4567Y-4.7236
X8.4587Y-4.76
X8.4587Y-4.7925
X8.4587Y-4.825
X8.4587Y-4.8575
X8.4587Y-4.8909
X8.4587Y-4.9234
X8.4587Y-4.9559
X8.4587Y-4.9884
X8.4587Y-5.0228
X8.4587Y-5.0553
X8.4587Y-5.0878
X8.4587Y-5.1203
X8.4587Y-5.1537
X8.4587Y-5.1862
X8.4587Y-5.2187
X8.4587Y-5.2512
X8.4596Y-5.2856
X8.4596Y-5.3181
X8.4596Y-5.3506
X8.4596Y-5.3831
X8.4596Y-5.4165
X8.4596Y-5.449
X8.4596Y-5.4815
X8.4596Y-5.514
X8.4596Y-5.5484
X8.4596Y-5.5809
X8.4596Y-5.6134
X8.4596Y-5.6459
X8.4596Y-5.6793
X8.4596Y-5.7118
X8.4839Y-5.7459
X8.4839Y-5.7784
X8.4839Y-5.8109
X8.4848Y-5.8454
X8.4848Y-5.8778
X8.4848Y-5.9103
X8.4848Y-5.9428
X8.4848Y-5.9763
X8.4848Y-6.0087
X8.4848Y-6.0412
X8.4848Y-6.0737
X8.4848Y-6.1081
X8.4848Y-6.1406
X8.4848Y-6.1731
X8.4848Y-6.2056
X8.4848Y-6.2391
X8.4848Y-6.2715
X8.4882Y-3.7069
X8.4882Y-3.7394
X8.4882Y-3.7719
X8.4882Y-3.8043
X8.4882Y-3.8378
X8.4882Y-3.8703
X8.4882Y-3.9028
X8.4882Y-3.9352
X8.4882Y-3.9697
X8.4882Y-4.0022
X8.4882Y-4.0346
X8.4882Y-4.0671
X8.4882Y-4.1006
X8.4882Y-4.1331
X8.4882Y-4.1656
X8.4882Y-4.198
X8.4892Y-4.2325
X8.4892Y-4.265
X8.4892Y-4.2974
X8.4892Y-4.3299
X8.4892Y-4.3634
X8.4892Y-4.3959
X8.4892Y-4.4283
X8.4892Y-4.4608
X8.4892Y-4.4953
X8.4892Y-4.5278
X8.4892Y-4.5602
X8.4892Y-4.5927
X8.4892Y-4.6262
X8.4892Y-4.6587
X8.4892Y-4.6911
X8.4892Y-4.7236
X8.4911Y-4.76
X8.4911Y-4.7925
X8.4911Y-4.825
X8.4911Y-4.8575
X8.4911Y-4.8909
X8.4911Y-4.9234
X8.4911Y-4.9559
X8.4911Y-4.9884
X8.4911Y-5.0228
X8.4911Y-5.0553
X8.4911Y-5.0878
X8.4911Y-5.1203
X8.4911Y-5.1537
X8.4911Y-5.1862
X8.4911Y-5.2187
X8.4911Y-5.2512
X8.4921Y-5.2856
X8.4921Y-5.3181
X8.4921Y-5.3506
X8.4921Y-5.3831
X8.4921Y-5.4165
X8.4921Y-5.449
X8.4921Y-5.4815
X8.4921Y-5.514
X8.4921Y-5.5484
X8.4921Y-5.5809
X8.4921Y-5.6134
X8.4921Y-5.6459
X8.4921Y-5.6793
X8.4921Y-5.7118
X8.5195Y-5.7457
X8.5195Y-5.7782
X8.5195Y-5.8107
X8.5205Y-5.8452
X8.5205Y-5.8776
X8.5205Y-5.9101
X8.5205Y-5.9426
X8.5205Y-5.9761
X8.5205Y-6.0085
X8.5205Y-6.041
X8.5205Y-6.0735
X8.5205Y-6.108
X8.5205Y-6.1404
X8.5205Y-6.1729
X8.5205Y-6.2054
X8.5205Y-6.2389
X8.5205Y-6.2713
X8.5238Y-3.7067
X8.5238Y-3.7392
X8.5238Y-3.7717
X8.5238Y-3.8041
X8.5238Y-3.8376
X8.5238Y-3.8701
X8.5238Y-3.9026
X8.5238Y-3.935
X8.5238Y-3.9695
X8.5238Y-4.002
X8.5238Y-4.0344
X8.5238Y-4.0669
X8.5238Y-4.1004
X8.5238Y-4.1329
X8.5238Y-4.1654
X8.5238Y-4.1978
X8.5248Y-4.2323
X8.5248Y-4.2648
X8.5248Y-4.2972
X8.5248Y-4.3297
X8.5248Y-4.3632
X8.5248Y-4.3957
X8.5248Y-4.4281
X8.5248Y-4.4606
X8.5248Y-4.4951
X8.5248Y-4.5276
X8.5248Y-4.56
X8.5248Y-4.5925
X8.5248Y-4.626
X8.5248Y-4.6585
X8.5248Y-4.6909
X8.5248Y-4.7234
X8.5268Y-4.7598
X8.5268Y-4.7923
X8.5268Y-4.8248
X8.5268Y-4.8573
X8.5268Y-4.8907
X8.5268Y-4.9232
X8.5268Y-4.9557
X8.5268Y-4.9882
X8.5268Y-5.0226
X8.5268Y-5.0551
X8.5268Y-5.0876
X8.5268Y-5.1201
X8.5268Y-5.1535
X8.5268Y-5.186
X8.5268Y-5.2185
X8.5268Y-5.251
X8.5278Y-5.2854
X8.5278Y-5.3179
X8.5278Y-5.3504
X8.5278Y-5.3829
X8.5278Y-5.4163
X8.5278Y-5.4488
X8.5278Y-5.4813
X8.5278Y-5.5138
X8.5278Y-5.5482
X8.5278Y-5.5807
X8.5278Y-5.6132
X8.5278Y-5.6457
X8.5278Y-5.6791
X8.5278Y-5.7116
X8.5299Y-6.6105
X8.5404Y-7.3514
X8.5463Y-8.4144
X8.5463Y-8.4469
X8.553Y-5.7457
X8.553Y-5.7782
X8.553Y-5.8107
X8.5539Y-5.8452
X8.5539Y-5.8776
X8.5539Y-5.9101
X8.5539Y-5.9426
X8.5539Y-5.9761
X8.5539Y-6.0085
X8.5539Y-6.041
X8.5539Y-6.0735
X8.5539Y-6.108
X8.5539Y-6.1404
X8.5539Y-6.1729
X8.5539Y-6.2054
X8.5539Y-6.2389
X8.5539Y-6.2713
X8.5573Y-3.7067
X8.5573Y-3.7392
X8.5573Y-3.7717
X8.5573Y-3.8041
X8.5573Y-3.8376
X8.5573Y-3.8701
X8.5573Y-3.9026
X8.5573Y-3.935
X8.5573Y-3.9695
X8.5573Y-4.002
X8.5573Y-4.0344
X8.5573Y-4.0669
X8.5573Y-4.1004
X8.5573Y-4.1329
X8.5573Y-4.1654
X8.5573Y-4.1978
X8.5583Y-4.2323
X8.5583Y-4.2648
X8.5583Y-4.2972
X8.5583Y-4.3297
X8.5583Y-4.3632
X8.5583Y-4.3957
X8.5583Y-4.4281
X8.5583Y-4.4606
X8.5583Y-4.4951
X8.5583Y-4.5276
X8.5583Y-4.56
X8.5583Y-4.5925
X8.5583Y-4.626
X8.5583Y-4.6585
X8.5583Y-4.6909
X8.5583Y-4.7234
X8.5602Y-4.7598
X8.5602Y-4.7923
X8.5602Y-4.8248
X8.5602Y-4.8573
X8.5602Y-4.8907
X8.5602Y-4.9232
X8.5602Y-4.9557
X8.5602Y-4.9882
X8.5602Y-5.0226
X8.5602Y-5.0551
X8.5602Y-5.0876
X8.5602Y-5.1201
X8.5602Y-5.1535
X8.5602Y-5.186
X8.5602Y-5.2185
X8.5602Y-5.251
X8.5612Y-5.2854
X8.5612Y-5.3179
X8.5612Y-5.3504
X8.5612Y-5.3829
X8.5612Y-5.4163
X8.5612Y-5.4488
X8.5612Y-5.4813
X8.5612Y-5.5138
X8.5612Y-5.5482
X8.5612Y-5.5807
X8.5612Y-5.6132
X8.5612Y-5.6457
X8.5612Y-5.6791
X8.5612Y-5.7116
X8.5728Y-7.3494
X8.5748Y-7.3159
X8.5787Y-8.4144
X8.5797Y-8.4478
X8.5872Y-5.7459
X8.5872Y-5.7784
X8.5872Y-5.8109
X8.5882Y-5.8454
X8.5882Y-5.8778
X8.5882Y-5.9103
X8.5882Y-5.9428
X8.5882Y-5.9763
X8.5882Y-6.0087
X8.5882Y-6.0412
X8.5882Y-6.0737
X8.5882Y-6.1081
X8.5882Y-6.1406
X8.5882Y-6.1731
X8.5882Y-6.2056
X8.5882Y-6.2391
X8.5882Y-6.2715
X8.5915Y-3.7069
X8.5915Y-3.7394
X8.5915Y-3.7719
X8.5915Y-3.8043
X8.5915Y-3.8378
X8.5915Y-3.8703
X8.5915Y-3.9028
X8.5915Y-3.9352
X8.5915Y-3.9697
X8.5915Y-4.0022
X8.5915Y-4.0346
X8.5915Y-4.0671
X8.5915Y-4.1006
X8.5915Y-4.1331
X8.5915Y-4.1656
X8.5915Y-4.198
X8.5925Y-4.2325
X8.5925Y-4.265
X8.5925Y-4.2974
X8.5925Y-4.3299
X8.5925Y-4.3634
X8.5925Y-4.3959
X8.5925Y-4.4283
X8.5925Y-4.4608
X8.5925Y-4.4953
X8.5925Y-4.5278
X8.5925Y-4.5602
X8.5925Y-4.5927
X8.5925Y-4.6262
X8.5925Y-4.6587
X8.5925Y-4.6911
X8.5925Y-4.7236
X8.5945Y-4.76
X8.5945Y-4.7925
X8.5945Y-4.825
X8.5945Y-4.8575
X8.5945Y-4.8909
X8.5945Y-4.9234
X8.5945Y-4.9559
X8.5945Y-4.9884
X8.5945Y-5.0228
X8.5945Y-5.0553
X8.5945Y-5.0878
X8.5945Y-5.1203
X8.5945Y-5.1537
X8.5945Y-5.1862
X8.5945Y-5.2187
X8.5945Y-5.2512
X8.5955Y-5.2856
X8.5955Y-5.3181
X8.5955Y-5.3506
X8.5955Y-5.3831
X8.5955Y-5.4165
X8.5955Y-5.449
X8.5955Y-5.4815
X8.5955Y-5.514
X8.5955Y-5.5484
X8.5955Y-5.5809
X8.5955Y-5.6134
X8.5955Y-5.6459
X8.5955Y-5.6793
X8.5955Y-5.7118
X8.6015Y-6.88
X8.6063Y-7.3494
X8.6073Y-7.315
X8.6122Y-8.4154
X8.6122Y-8.4478
X8.62Y-6.6
X8.6207Y-5.7459
X8.6207Y-5.7784
X8.6207Y-5.8109
X8.6217Y-5.8454
X8.6217Y-5.8778
X8.6217Y-5.9103
X8.6217Y-5.9428
X8.6217Y-5.9763
X8.6217Y-6.0087
X8.6217Y-6.0412
X8.6217Y-6.0737
X8.6217Y-6.1081
X8.6217Y-6.1406
X8.6217Y-6.1731
X8.6217Y-6.2056
X8.6217Y-6.2391
X8.6217Y-6.2715
X8.625Y-3.7069
X8.625Y-3.7394
X8.625Y-3.7719
X8.625Y-3.8043
X8.625Y-3.8378
X8.625Y-3.8703
X8.625Y-3.9028
X8.625Y-3.9352
X8.625Y-3.9697
X8.625Y-4.0022
X8.625Y-4.0346
X8.625Y-4.0671
X8.625Y-4.1006
X8.625Y-4.1331
X8.625Y-4.1656
X8.625Y-4.198
X8.626Y-4.2325
X8.626Y-4.265
X8.626Y-4.2974
X8.626Y-4.3299
X8.626Y-4.3634
X8.626Y-4.3959
X8.626Y-4.4283
X8.626Y-4.4608
X8.626Y-4.4953
X8.626Y-4.5278
X8.626Y-4.5602
X8.626Y-4.5927
X8.626Y-4.6262
X8.626Y-4.6587
X8.626Y-4.6911
X8.626Y-4.7236
X8.628Y-4.76
X8.628Y-4.7925
X8.628Y-4.825
X8.628Y-4.8575
X8.628Y-4.8909
X8.628Y-4.9234
X8.628Y-4.9559
X8.628Y-4.9884
X8.628Y-5.0228
X8.628Y-5.0553
X8.628Y-5.0878
X8.628Y-5.1203
X8.628Y-5.1537
X8.628Y-5.1862
X8.628Y-5.2187
X8.628Y-5.2512
X8.6289Y-5.2856
X8.6289Y-5.3181
X8.6289Y-5.3506
X8.6289Y-5.3831
X8.6289Y-5.4165
X8.6289Y-5.449
X8.6289Y-5.4815
X8.6289Y-5.514
X8.6289Y-5.5484
X8.6289Y-5.5809
X8.6289Y-5.6134
X8.6289Y-5.6459
X8.6289Y-5.6793
X8.6289Y-5.7118
X8.6398Y-7.3494
X8.6407Y-7.3159
X8.6443Y-7.2559
X8.6447Y-8.4154
X8.6447Y-8.4478
X8.6541Y-5.7459
X8.6541Y-5.7784
X8.6541Y-5.8109
X8.6551Y-5.8454
X8.6551Y-5.8778
X8.6551Y-5.9103
X8.6551Y-5.9428
X8.6551Y-5.9763
X8.6551Y-6.0087
X8.6551Y-6.0412
X8.6551Y-6.0737
X8.6551Y-6.1081
X8.6551Y-6.1406
X8.6551Y-6.1731
X8.6551Y-6.2056
X8.6551Y-6.2391
X8.6551Y-6.2715
X8.6585Y-3.7069
X8.6585Y-3.7394
X8.6585Y-3.7719
X8.6585Y-3.8043
X8.6585Y-3.8378
X8.6585Y-3.8703
X8.6585Y-3.9028
X8.6585Y-3.9352
X8.6585Y-3.9697
X8.6585Y-4.0022
X8.6585Y-4.0346
X8.6585Y-4.0671
X8.6585Y-4.1006
X8.6585Y-4.1331
X8.6585Y-4.1656
X8.6585Y-4.198
X8.6594Y-4.2325
X8.6594Y-4.265
X8.6594Y-4.2974
X8.6594Y-4.3299
X8.6594Y-4.3634
X8.6594Y-4.3959
X8.6594Y-4.4283
X8.6594Y-4.4608
X8.6594Y-4.4953
X8.6594Y-4.5278
X8.6594Y-4.5602
X8.6594Y-4.5927
X8.6594Y-4.6262
X8.6594Y-4.6587
X8.6594Y-4.6911
X8.6594Y-4.7236
X8.6614Y-4.76
X8.6614Y-4.7925
X8.6614Y-4.825
X8.6614Y-4.8575
X8.6614Y-4.8909
X8.6614Y-4.9234
X8.6614Y-4.9559
X8.6614Y-4.9884
X8.6614Y-5.0228
X8.6614Y-5.0553
X8.6614Y-5.0878
X8.6614Y-5.1203
X8.6614Y-5.1537
X8.6614Y-5.1862
X8.6614Y-5.2187
X8.6614Y-5.2512
X8.6624Y-5.2856
X8.6624Y-5.3181
X8.6624Y-5.3506
X8.6624Y-5.3831
X8.6624Y-5.4165
X8.6624Y-5.449
X8.6624Y-5.4815
X8.6624Y-5.514
X8.6624Y-5.5484
X8.6624Y-5.5809
X8.6624Y-5.6134
X8.6624Y-5.6459
X8.6624Y-5.6793
X8.6624Y-5.7118
X8.6742Y-7.3494
X8.6752Y-7.3159
X8.6772Y-8.4154
X8.6772Y-8.4478
X8.6866Y-5.7459
X8.6866Y-5.7784
X8.6866Y-5.8109
X8.6876Y-5.8454
X8.6876Y-5.8778
X8.6876Y-5.9103
X8.6876Y-5.9428
X8.6876Y-5.9763
X8.6876Y-6.0087
X8.6876Y-6.0412
X8.6876Y-6.0737
X8.6876Y-6.1081
X8.6876Y-6.1406
X8.6876Y-6.1731
X8.6876Y-6.2056
X8.6876Y-6.2391
X8.6876Y-6.2715
X8.6909Y-3.7069
X8.6909Y-3.7394
X8.6909Y-3.7719
X8.6909Y-3.8043
X8.6909Y-3.8378
X8.6909Y-3.8703
X8.6909Y-3.9028
X8.6909Y-3.9352
X8.6909Y-3.9697
X8.6909Y-4.0022
X8.6909Y-4.0346
X8.6909Y-4.0671
X8.6909Y-4.1006
X8.6909Y-4.1331
X8.6909Y-4.1656
X8.6909Y-4.198
X8.6919Y-4.2325
X8.6919Y-4.265
X8.6919Y-4.2974
X8.6919Y-4.3299
X8.6919Y-4.3634
X8.6919Y-4.3959
X8.6919Y-4.4283
X8.6919Y-4.4608
X8.6919Y-4.4953
X8.6919Y-4.5278
X8.6919Y-4.5602
X8.6919Y-4.5927
X8.6919Y-4.6262
X8.6919Y-4.6587
X8.6919Y-4.6911
X8.6919Y-4.7236
X8.6935Y-7.2569
X8.6939Y-4.76
X8.6939Y-4.7925
X8.6939Y-4.825
X8.6939Y-4.8575
X8.6939Y-4.8909
X8.6939Y-4.9234
X8.6939Y-4.9559
X8.6939Y-4.9884
X8.6939Y-5.0228
X8.6939Y-5.0553
X8.6939Y-5.0878
X8.6939Y-5.1203
X8.6939Y-5.1537
X8.6939Y-5.1862
X8.6939Y-5.2187
X8.6939Y-5.2512
X8.6949Y-5.2856
X8.6949Y-5.3181
X8.6949Y-5.3506
X8.6949Y-5.3831
X8.6949Y-5.4165
X8.6949Y-5.449
X8.6949Y-5.4815
X8.6949Y-5.514
X8.6949Y-5.5484
X8.6949Y-5.5809
X8.6949Y-5.6134
X8.6949Y-5.6459
X8.6949Y-5.6793
X8.6949Y-5.7118
X8.7077Y-7.3169
X8.7087Y-7.3494
X8.7106Y-8.4154
X8.7126Y-8.4508
X8.7181Y-5.7459
X8.7181Y-5.7784
X8.7181Y-5.8109
X8.7191Y-5.8454
X8.7191Y-5.8778
X8.7191Y-5.9103
X8.7191Y-5.9428
X8.7191Y-5.9763
X8.7191Y-6.0087
X8.7191Y-6.0412
X8.7191Y-6.0737
X8.7191Y-6.1081
X8.7191Y-6.1406
X8.7191Y-6.1731
X8.7191Y-6.2056
X8.7191Y-6.2391
X8.7191Y-6.2715
X8.7224Y-3.7069
X8.7224Y-3.7394
X8.7224Y-3.7719
X8.7224Y-3.8043
X8.7224Y-3.8378
X8.7224Y-3.8703
X8.7224Y-3.9028
X8.7224Y-3.9352
X8.7224Y-3.9697
X8.7224Y-4.0022
X8.7224Y-4.0346
X8.7224Y-4.0671
X8.7224Y-4.1006
X8.7224Y-4.1331
X8.7224Y-4.1656
X8.7224Y-4.198
X8.7234Y-4.2325
X8.7234Y-4.265
X8.7234Y-4.2974
X8.7234Y-4.3299
X8.7234Y-4.3634
X8.7234Y-4.3959
X8.7234Y-4.4283
X8.7234Y-4.4608
X8.7234Y-4.4953
X8.7234Y-4.5278
X8.7234Y-4.5602
X8.7234Y-4.5927
X8.7234Y-4.6262
X8.7234Y-4.6587
X8.7234Y-4.6911
X8.7234Y-4.7236
X8.7254Y-4.76
X8.7254Y-4.7925
X8.7254Y-4.825
X8.7254Y-4.8575
X8.7254Y-4.8909
X8.7254Y-4.9234
X8.7254Y-4.9559
X8.7254Y-4.9884
X8.7254Y-5.0228
X8.7254Y-5.0553
X8.7254Y-5.0878
X8.7254Y-5.1203
X8.7254Y-5.1537
X8.7254Y-5.1862
X8.7254Y-5.2187
X8.7254Y-5.2512
X8.7264Y-5.2856
X8.7264Y-5.3181
X8.7264Y-5.3506
X8.7264Y-5.3831
X8.7264Y-5.4165
X8.7264Y-5.449
X8.7264Y-5.4815
X8.7264Y-5.514
X8.7264Y-5.5484
X8.7264Y-5.5809
X8.7264Y-5.6134
X8.7264Y-5.6459
X8.7264Y-5.6793
X8.7264Y-5.7118
X8.74Y-7.19
X8.7402Y-8.1742
X8.7402Y-8.2077
X8.7402Y-8.2766
X8.7411Y-7.7618
X8.7411Y-7.8642
X8.7411Y-8.0699
X8.7411Y-8.1388
X8.7411Y-8.2421
X8.7411Y-8.3091
X8.7421Y-7.3169
X8.7421Y-7.4518
X8.7421Y-7.6575
X8.7421Y-7.7264
X8.7421Y-7.7953
X8.7421Y-7.8307
X8.7421Y-7.8996
X8.7421Y-7.9331
X8.7421Y-7.9685
X8.7421Y-8.003
X8.7421Y-8.0374
X8.7421Y-8.1043
X8.7421Y-8.3415
X8.7421Y-8.375
X8.7431Y-7.3504
X8.7431Y-7.3829
X8.7431Y-7.4183
X8.7431Y-7.4872
X8.7431Y-7.5207
X8.7431Y-7.5561
X8.7431Y-7.5906
X8.7431Y-7.625
X8.7431Y-7.6919
X8.747Y-8.4144
X8.7476Y-7.2559
X8.748Y-8.4498
X8.7506Y-5.7459
X8.7506Y-5.7784
X8.7506Y-5.8109
X8.7516Y-5.8454
X8.7516Y-5.8778
X8.7516Y-5.9103
X8.7516Y-5.9428
X8.7516Y-5.9763
X8.7516Y-6.0087
X8.7516Y-6.0412
X8.7516Y-6.0737
X8.7516Y-6.1081
X8.7516Y-6.1406
X8.7516Y-6.1731
X8.7516Y-6.2056
X8.7516Y-6.2391
X8.7516Y-6.2715
X8.7549Y-3.7069
X8.7549Y-3.7394
X8.7549Y-3.7719
X8.7549Y-3.8043
X8.7549Y-3.8378
X8.7549Y-3.8703
X8.7549Y-3.9028
X8.7549Y-3.9352
X8.7549Y-3.9697
X8.7549Y-4.0022
X8.7549Y-4.0346
X8.7549Y-4.0671
X8.7549Y-4.1006
X8.7549Y-4.1331
X8.7549Y-4.1656
X8.7549Y-4.198
X8.7559Y-4.2325
X8.7559Y-4.265
X8.7559Y-4.2974
X8.7559Y-4.3299
X8.7559Y-4.3634
X8.7559Y-4.3959
X8.7559Y-4.4283
X8.7559Y-4.4608
X8.7559Y-4.4953
X8.7559Y-4.5278
X8.7559Y-4.5602
X8.7559Y-4.5927
X8.7559Y-4.6262
X8.7559Y-4.6587
X8.7559Y-4.6911
X8.7559Y-4.7236
X8.7569Y-3.3258
X8.7579Y-4.76
X8.7579Y-4.7925
X8.7579Y-4.825
X8.7579Y-4.8575
X8.7579Y-4.8909
X8.7579Y-4.9234
X8.7579Y-4.9559
X8.7579Y-4.9884
X8.7579Y-5.0228
X8.7579Y-5.0553
X8.7579Y-5.0878
X8.7579Y-5.1203
X8.7579Y-5.1537
X8.7579Y-5.1862
X8.7579Y-5.2187
X8.7579Y-5.2512
X8.7589Y-5.2856
X8.7589Y-5.3181
X8.7589Y-5.3506
X8.7589Y-5.3831
X8.7589Y-5.4165
X8.7589Y-5.449
X8.7589Y-5.4815
X8.7589Y-5.514
X8.7589Y-5.5484
X8.7589Y-5.5809
X8.7589Y-5.6134
X8.7589Y-5.6459
X8.7589Y-5.6793
X8.7589Y-5.7118
X8.7756Y-8.1781
X8.7756Y-8.2116
X8.7756Y-8.2805
X8.7766Y-7.3169
X8.7766Y-7.7657
X8.7766Y-7.8681
X8.7766Y-8.0738
X8.7766Y-8.1427
X8.7766Y-8.2461
X8.7766Y-8.313
X8.7776Y-7.3514
X8.7776Y-7.4557
X8.7776Y-7.6614
X8.7776Y-7.7303
X8.7776Y-7.7992
X8.7776Y-7.8346
X8.7776Y-7.9035
X8.7776Y-7.937
X8.7776Y-7.9724
X8.7776Y-8.0069
X8.7776Y-8.0413
X8.7776Y-8.1083
X8.7776Y-8.3455
X8.7776Y-8.3789
X8.7785Y-7.3868
X8.7785Y-7.4222
X8.7785Y-7.4911
X8.7785Y-7.5246
X8.7785Y-7.56
X8.7785Y-7.5945
X8.7785Y-7.6289
X8.7785Y-7.6959
X8.7815Y-8.4213
X8.7831Y-5.7459
X8.7831Y-5.7784
X8.7831Y-5.8109
X8.7841Y-5.8454
X8.7841Y-5.8778
X8.7841Y-5.9103
X8.7841Y-5.9428
X8.7841Y-5.9763
X8.7841Y-6.0087
X8.7841Y-6.0412
X8.7841Y-6.0737
X8.7841Y-6.1081
X8.7841Y-6.1406
X8.7841Y-6.1731
X8.7841Y-6.2056
X8.7841Y-6.2391
X8.7841Y-6.2715
X8.7874Y-3.7069
X8.7874Y-3.7394
X8.7874Y-3.7719
X8.7874Y-3.8043
X8.7874Y-3.8378
X8.7874Y-3.8703
X8.7874Y-3.9028
X8.7874Y-3.9352
X8.7874Y-3.9697
X8.7874Y-4.0022
X8.7874Y-4.0346
X8.7874Y-4.0671
X8.7874Y-4.1006
X8.7874Y-4.1331
X8.7874Y-4.1656
X8.7874Y-4.198
X8.7884Y-4.2325
X8.7884Y-4.265
X8.7884Y-4.2974
X8.7884Y-4.3299
X8.7884Y-4.3634
X8.7884Y-4.3959
X8.7884Y-4.4283
X8.7884Y-4.4608
X8.7884Y-4.4953
X8.7884Y-4.5278
X8.7884Y-4.5602
X8.7884Y-4.5927
X8.7884Y-4.6262
X8.7884Y-4.6587
X8.7884Y-4.6911
X8.7884Y-4.7236
X8.79Y-6.6726
X8.7904Y-4.76
X8.7904Y-4.7925
X8.7904Y-4.825
X8.7904Y-4.8575
X8.7904Y-4.8909
X8.7904Y-4.9234
X8.7904Y-4.9559
X8.7904Y-4.9884
X8.7904Y-5.0228
X8.7904Y-5.0553
X8.7904Y-5.0878
X8.7904Y-5.1203
X8.7904Y-5.1537
X8.7904Y-5.1862
X8.7904Y-5.2187
X8.7904Y-5.2512
X8.7913Y-5.2856
X8.7913Y-5.3181
X8.7913Y-5.3506
X8.7913Y-5.3831
X8.7913Y-5.4165
X8.7913Y-5.449
X8.7913Y-5.4815
X8.7913Y-5.514
X8.7913Y-5.5484
X8.7913Y-5.5809
X8.7913Y-5.6134
X8.7913Y-5.6459
X8.7913Y-5.6793
X8.7913Y-5.7118
X8.8Y-7.13
X8.8Y-7.21
X8.8156Y-5.7459
X8.8156Y-5.7784
X8.8156Y-5.8109
X8.8165Y-5.8454
X8.8165Y-5.8778
X8.8165Y-5.9103
X8.8165Y-5.9428
X8.8165Y-5.9763
X8.8165Y-6.0087
X8.8165Y-6.0412
X8.8165Y-6.0737
X8.8165Y-6.1081
X8.8165Y-6.1406
X8.8165Y-6.1731
X8.8165Y-6.2056
X8.8165Y-6.2391
X8.8165Y-6.2715
X8.8199Y-3.7069
X8.8199Y-3.7394
X8.8199Y-3.7719
X8.8199Y-3.8043
X8.8199Y-3.8378
X8.8199Y-3.8703
X8.8199Y-3.9028
X8.8199Y-3.9352
X8.8199Y-3.9697
X8.8199Y-4.0022
X8.8199Y-4.0346
X8.8199Y-4.0671
X8.8199Y-4.1006
X8.8199Y-4.1331
X8.8199Y-4.1656
X8.8199Y-4.198
X8.8209Y-4.2325
X8.8209Y-4.265
X8.8209Y-4.2974
X8.8209Y-4.3299
X8.8209Y-4.3634
X8.8209Y-4.3959
X8.8209Y-4.4283
X8.8209Y-4.4608
X8.8209Y-4.4953
X8.8209Y-4.5278
X8.8209Y-4.5602
X8.8209Y-4.5927
X8.8209Y-4.6262
X8.8209Y-4.6587
X8.8209Y-4.6911
X8.8209Y-4.7236
X8.8228Y-4.76
X8.8228Y-4.7925
X8.8228Y-4.825
X8.8228Y-4.8575
X8.8228Y-4.8909
X8.8228Y-4.9234
X8.8228Y-4.9559
X8.8228Y-4.9884
X8.8228Y-5.0228
X8.8228Y-5.0553
X8.8228Y-5.0878
X8.8228Y-5.1203
X8.8228Y-5.1537
X8.8228Y-5.1862
X8.8228Y-5.2187
X8.8228Y-5.2512
X8.8238Y-5.2856
X8.8238Y-5.3181
X8.8238Y-5.3506
X8.8238Y-5.3831
X8.8238Y-5.4165
X8.8238Y-5.449
X8.8238Y-5.4815
X8.8238Y-5.514
X8.8238Y-5.5484
X8.8238Y-5.5809
X8.8238Y-5.6134
X8.8238Y-5.6459
X8.8238Y-5.6793
X8.8238Y-5.7118
X8.8246Y-8.1742
X8.8246Y-8.2704
X8.8346Y-8.3704
X8.8421Y-7.1671
X8.8421Y-7.2596
X8.8431Y-7.0746
X8.8446Y-8.4804
X8.848Y-5.7469
X8.848Y-5.7794
X8.848Y-5.8119
X8.849Y-5.8463
X8.849Y-5.8788
X8.849Y-5.9113
X8.849Y-5.9438
X8.849Y-5.9772
X8.849Y-6.0097
X8.849Y-6.0422
X8.849Y-6.0747
X8.849Y-6.1091
X8.849Y-6.1416
X8.849Y-6.1741
X8.849Y-6.2066
X8.849Y-6.24
X8.849Y-6.2725
X8.8524Y-3.7079
X8.8524Y-3.7404
X8.8524Y-3.7728
X8.8524Y-3.8053
X8.8524Y-3.8388
X8.8524Y-3.8713
X8.8524Y-3.9037
X8.8524Y-3.9362
X8.8524Y-3.9707
X8.8524Y-4.0031
X8.8524Y-4.0356
X8.8524Y-4.0681
X8.8524Y-4.1016
X8.8524Y-4.1341
X8.8524Y-4.1665
X8.8524Y-4.199
X8.8533Y-4.2335
X8.8533Y-4.2659
X8.8533Y-4.2984
X8.8533Y-4.3309
X8.8533Y-4.3644
X8.8533Y-4.3969
X8.8533Y-4.4293
X8.8533Y-4.4618
X8.8533Y-4.4963
X8.8533Y-4.5287
X8.8533Y-4.5612
X8.8533Y-4.5937
X8.8533Y-4.6272
X8.8533Y-4.6596
X8.8533Y-4.6921
X8.8533Y-4.7246
X8.8553Y-4.761
X8.8553Y-4.7935
X8.8553Y-4.826
X8.8553Y-4.8585
X8.8553Y-4.8919
X8.8553Y-4.9244
X8.8553Y-4.9569
X8.8553Y-4.9894
X8.8553Y-5.0238
X8.8553Y-5.0563
X8.8553Y-5.0888
X8.8553Y-5.1213
X8.8553Y-5.1547
X8.8553Y-5.1872
X8.8553Y-5.2197
X8.8553Y-5.2522
X8.8563Y-5.2866
X8.8563Y-5.3191
X8.8563Y-5.3516
X8.8563Y-5.3841
X8.8563Y-5.4175
X8.8563Y-5.45
X8.8563Y-5.4825
X8.8563Y-5.515
X8.8563Y-5.5494
X8.8563Y-5.5819
X8.8563Y-5.6144
X8.8563Y-5.6469
X8.8563Y-5.6803
X8.8563Y-5.7128
X8.8671Y-7.502
X8.872Y-8.2264
X8.872Y-8.3189
X8.873Y-8.1339
X8.874Y-8.065
X8.8799Y-7.6969
X8.88Y-7.32
X8.8805Y-5.7469
X8.8805Y-5.7794
X8.8805Y-5.8119
X8.8815Y-5.8463
X8.8815Y-5.8788
X8.8815Y-5.9113
X8.8815Y-5.9438
X8.8815Y-5.9772
X8.8815Y-6.0097
X8.8815Y-6.0422
X8.8815Y-6.0747
X8.8815Y-6.1091
X8.8815Y-6.1416
X8.8815Y-6.1741
X8.8815Y-6.2066
X8.8815Y-6.24
X8.8815Y-6.2725
X8.882Y-8.4289
X8.8848Y-3.7079
X8.8848Y-3.7404
X8.8848Y-3.7728
X8.8848Y-3.8053
X8.8848Y-3.8388
X8.8848Y-3.8713
X8.8848Y-3.9037
X8.8848Y-3.9362
X8.8848Y-3.9707
X8.8848Y-4.0031
X8.8848Y-4.0356
X8.8848Y-4.0681
X8.8848Y-4.1016
X8.8848Y-4.1341
X8.8848Y-4.1665
X8.8848Y-4.199
X8.8858Y-4.2335
X8.8858Y-4.2659
X8.8858Y-4.2984
X8.8858Y-4.3309
X8.8858Y-4.3644
X8.8858Y-4.3969
X8.8858Y-4.4293
X8.8858Y-4.4618
X8.8858Y-4.4963
X8.8858Y-4.5287
X8.8858Y-4.5612
X8.8858Y-4.5937
X8.8858Y-4.6272
X8.8858Y-4.6596
X8.8858Y-4.6921
X8.8858Y-4.7246
X8.8878Y-4.761
X8.8878Y-4.7935
X8.8878Y-4.826
X8.8878Y-4.8585
X8.8878Y-4.8919
X8.8878Y-4.9244
X8.8878Y-4.9569
X8.8878Y-4.9894
X8.8878Y-5.0238
X8.8878Y-5.0563
X8.8878Y-5.0888
X8.8878Y-5.1213
X8.8878Y-5.1547
X8.8878Y-5.1872
X8.8878Y-5.2197
X8.8878Y-5.2522
X8.8878Y-7.874
X8.8888Y-5.2866
X8.8888Y-5.3191
X8.8888Y-5.3516
X8.8888Y-5.3841
X8.8888Y-5.4175
X8.8888Y-5.45
X8.8888Y-5.4825
X8.8888Y-5.515
X8.8888Y-5.5494
X8.8888Y-5.5819
X8.8888Y-5.6144
X8.8888Y-5.6469
X8.8888Y-5.6803
X8.8888Y-5.7128
X8.89Y-7.02
X8.89Y-7.12
X8.89Y-7.22
X8.9006Y-7.501
X8.9041Y-7.3941
X8.9075Y-8.064
X8.913Y-5.7469
X8.913Y-5.7794
X8.913Y-5.8119
X8.914Y-5.8463
X8.914Y-5.8788
X8.914Y-5.9113
X8.914Y-5.9438
X8.914Y-5.9772
X8.914Y-6.0097
X8.914Y-6.0422
X8.914Y-6.0747
X8.914Y-6.1091
X8.914Y-6.1416
X8.914Y-6.1741
X8.914Y-6.2066
X8.914Y-6.24
X8.914Y-6.2725
X8.9173Y-3.7079
X8.9173Y-3.7404
X8.9173Y-3.7728
X8.9173Y-3.8053
X8.9173Y-3.8388
X8.9173Y-3.8713
X8.9173Y-3.9037
X8.9173Y-3.9362
X8.9173Y-3.9707
X8.9173Y-4.0031
X8.9173Y-4.0356
X8.9173Y-4.0681
X8.9173Y-4.1016
X8.9173Y-4.1341
X8.9173Y-4.1665
X8.9173Y-4.199
X8.9183Y-4.2335
X8.9183Y-4.2659
X8.9183Y-4.2984
X8.9183Y-4.3309
X8.9183Y-4.3644
X8.9183Y-4.3969
X8.9183Y-4.4293
X8.9183Y-4.4618
X8.9183Y-4.4963
X8.9183Y-4.5287
X8.9183Y-4.5612
X8.9183Y-4.5937
X8.9183Y-4.6272
X8.9183Y-4.6596
X8.9183Y-4.6921
X8.9183Y-4.7246
X8.9203Y-4.761
X8.9203Y-4.7935
X8.9203Y-4.826
X8.9203Y-4.8585
X8.9203Y-4.8919
X8.9203Y-4.9244
X8.9203Y-4.9569
X8.9203Y-4.9894
X8.9203Y-5.0238
X8.9203Y-5.0563
X8.9203Y-5.0888
X8.9203Y-5.1213
X8.9203Y-5.1547
X8.9203Y-5.1872
X8.9203Y-5.2197
X8.9203Y-5.2522
X8.9213Y-5.2866
X8.9213Y-5.3191
X8.9213Y-5.3516
X8.9213Y-5.3841
X8.9213Y-5.4175
X8.9213Y-5.45
X8.9213Y-5.4825
X8.9213Y-5.515
X8.9213Y-5.5494
X8.9213Y-5.5819
X8.9213Y-5.6144
X8.9213Y-5.6469
X8.9213Y-5.6803
X8.9213Y-5.7128
X8.928Y-8.1742
X8.928Y-8.2704
X8.9341Y-7.501
X8.938Y-8.3704
X8.9409Y-8.064
X8.9423Y-7.3469
X8.9455Y-7.25
X8.9465Y-7.16
X8.9476Y-6.8939
X8.9476Y-7.07
X8.948Y-8.4804
X8.95Y-6.99
X8.9519Y-6.283
X8.9656Y-7.501
X8.9724Y-8.064
X8.9754Y-8.2264
X8.9754Y-8.3189
X8.9764Y-8.1339
X8.9854Y-8.4289
X8.9917Y-3.8728
X8.9917Y-6.0299
X8.9923Y-6.94
X8.9923Y-7.03
X8.9929Y-6.1283
X8.9933Y-5.1874
X8.9933Y-5.7524
X8.9935Y-3.7455
X8.9941Y-5.4677
X8.9945Y-5.2858
X8.9945Y-5.8508
X8.9949Y-4.6244
X8.9949Y-4.9051
X8.9953Y-4.0555
X8.9953Y-5.5661
X8.9961Y-4.3378
X8.9961Y-4.7228
X8.9961Y-5.0035
X8.9965Y-4.1539
X8.9972Y-4.4362
X8.9978Y-6.8451
X8.9984Y-7.2075
X8.999Y-7.501
X9.0059Y-8.064
X9.0084Y-7.115
X9.0084Y-7.3
X9.0084Y-7.3941
X9.0118Y-7.8848
X9.0226Y-7.6811
X9.0244Y-3.8728
X9.0272Y-6.0299
X9.0272Y-6.1283
X9.028Y-3.7465
X9.0287Y-5.1874
X9.0287Y-5.2858
X9.0287Y-5.7524
X9.0287Y-5.8508
X9.0295Y-5.4677
X9.0295Y-5.5661
X9.0303Y-4.6244
X9.0303Y-4.7228
X9.0303Y-4.9051
X9.0303Y-5.0035
X9.0307Y-4.0555
X9.0307Y-4.1539
X9.0315Y-4.3378
X9.0315Y-4.4362
X9.0315Y-7.501
X9.0323Y-8.1742
X9.0323Y-8.2704
X9.0384Y-8.064
X9.0423Y-8.3704
X9.0467Y-7.3469
X9.0498Y-7.1671
X9.0498Y-7.2596
X9.0508Y-7.0746
X9.051Y-6.8939
X9.051Y-6.9864
X9.052Y-6.8014
X9.0523Y-8.4804
X9.0587Y-3.8717
X9.0614Y-3.7465
X9.0614Y-6.1283
X9.0626Y-6.0299
X9.063Y-5.2858
X9.063Y-5.8508
X9.0638Y-5.5661
X9.0642Y-5.1874
X9.0642Y-5.7524
X9.0646Y-4.7228
X9.0646Y-5.0035
X9.065Y-4.1539
X9.065Y-5.4677
X9.065Y-7.501
X9.0657Y-4.4362
X9.0657Y-4.6244
X9.0657Y-4.9051
X9.0661Y-4.0555
X9.0669Y-4.3378
X9.0719Y-8.064
X9.0728Y-3.4163
X9.0728Y-3.4695
X9.0728Y-3.6181
X9.0738Y-3.3219
X9.0738Y-3.375
X9.0738Y-3.5128
X9.0738Y-3.5659
X9.0764Y-6.7488
X9.0793Y-6.3791
X9.0797Y-8.2264
X9.0797Y-8.3189
X9.0807Y-8.1339
X9.0897Y-8.4289
X9.0937Y-3.7559
X9.0937Y-6.0445
X9.0949Y-6.0795
X9.0949Y-6.1122
X9.0953Y-3.8622
X9.0953Y-5.202
X9.0953Y-5.7669
X9.0961Y-3.7906
X9.0961Y-3.8264
X9.0961Y-5.4823
X9.0965Y-5.237
X9.0965Y-5.2697
X9.0965Y-5.802
X9.0965Y-5.8346
X9.0965Y-7.501
X9.0967Y-6.94
X9.0967Y-7.03
X9.0969Y-4.639
X9.0969Y-4.9197
X9.0972Y-4.0701
X9.0972Y-5.5173
X9.0972Y-5.55
X9.098Y-4.3524
X9.098Y-4.674
X9.098Y-4.7067
X9.098Y-4.9547
X9.098Y-4.9874
X9.0984Y-4.1051
X9.0984Y-4.1378
X9.0992Y-4.3874
X9.0992Y-4.4201
X9.1017Y-7.2075
X9.1021Y-6.8451
X9.1033Y-8.064
X9.1117Y-7.115
X9.1117Y-7.3
X9.1117Y-7.3941
X9.1181Y-3.4183
X9.1181Y-3.4715
X9.1191Y-3.3238
X9.1191Y-3.377
X9.1191Y-3.5148
X9.1191Y-3.5679
X9.1201Y-3.6181
X9.1258Y-6.748
X9.1264Y-6.0457
X9.1272Y-3.7571
X9.1276Y-6.0807
X9.1276Y-6.1134
X9.1283Y-5.4831
X9.1287Y-3.8634
X9.1287Y-5.2028
X9.1291Y-4.9201
X9.1291Y-5.7677
X9.1295Y-3.7917
X9.1295Y-3.8276
X9.1295Y-4.6394
X9.1295Y-5.5181
X9.1295Y-5.5508
X9.1299Y-5.2378
X9.1299Y-5.2705
X9.1299Y-7.501
X9.1303Y-4.9551
X9.1303Y-4.9878
X9.1303Y-5.8028
X9.1303Y-5.8358
X9.1307Y-4.0713
X9.1307Y-4.3535
X9.1307Y-4.6744
X9.1307Y-4.7071
X9.1319Y-4.1063
X9.1319Y-4.139
X9.1319Y-4.3886
X9.1319Y-4.4213
X9.1357Y-8.1742
X9.1357Y-8.2704
X9.1368Y-8.064
X9.1457Y-8.3704
X9.15Y-7.3469
X9.1531Y-7.1671
X9.1531Y-7.2596
X9.1541Y-7.0746
X9.1553Y-6.8939
X9.1553Y-6.9864
X9.1557Y-8.4804
X9.1563Y-6.8014
X9.1624Y-3.4183
X9.1624Y-3.4715
X9.1634Y-3.3238
X9.1634Y-3.377
X9.1634Y-3.5148
X9.1634Y-3.5679
X9.1644Y-7.502
X9.1661Y-6.0014
X9.1673Y-3.6181
X9.1713Y-8.065
X9.1791Y-6.3319
X9.1795Y-6.6008
X9.1795Y-6.635
X9.1799Y-6.747
X9.1807Y-6.2945
X9.1831Y-8.2264
X9.1831Y-8.3189
X9.1841Y-8.1339
X9.1862Y-6.2594
X9.1931Y-8.4289
X9.1976Y-6.665
X9.1978Y-5.5108
X9.1978Y-5.7657
X9.1978Y-7.502
X9.1988Y-5.4272
X9.1998Y-5.6841
X9.2Y-6.94
X9.2Y-7.03
X9.2004Y-4.3195
X9.2004Y-4.5744
X9.2008Y-4.9163
X9.2008Y-5.1713
X9.2008Y-5.3455
X9.2008Y-5.6004
X9.2014Y-4.2358
X9.2018Y-4.8327
X9.2018Y-5.2618
X9.2024Y-4.4927
X9.2028Y-5.0896
X9.2033Y-4.1541
X9.2033Y-4.4091
X9.2037Y-4.751
X9.2037Y-5.0059
X9.2047Y-4.6673
X9.2047Y-8.065
X9.2049Y-5.9654
X9.2055Y-6.8451
X9.2055Y-7.2085
X9.2055Y-4.0738
X9.2057Y-5.9303
X9.2081Y-5.8533
X9.2087Y-3.4193
X9.2087Y-3.4724
X9.2096Y-3.3248
X9.2096Y-3.378
X9.2096Y-3.5157
X9.2096Y-3.5689
X9.2116Y-7.6821
X9.2136Y-3.623
X9.2155Y-7.1159
X9.2155Y-7.301
X9.2155Y-7.3951
X9.2165Y-6.2402
X9.2185Y-7.8848
X9.2288Y-6.0004
X9.2293Y-7.502
X9.2301Y-6.748
X9.2315Y-6.6661
X9.2362Y-8.065
X9.2367Y-8.1738
X9.2367Y-8.27
X9.2388Y-5.812
X9.2388Y-5.8872
X9.2407Y-5.5551
X9.2407Y-5.6417
X9.2407Y-5.7251
X9.2422Y-4.3598
X9.2422Y-4.4504
X9.2457Y-4.2772
X9.2467Y-8.37
X9.2488Y-6.2402
X9.2497Y-4.7087
X9.2497Y-5.3021
X9.2507Y-4.7923
X9.2507Y-4.8751
X9.2507Y-4.9577
X9.2507Y-5.0472
X9.2507Y-5.1309
X9.2507Y-5.2151
X9.2507Y-5.3868
X9.2507Y-5.4685
X9.2522Y-4.1118
X9.2522Y-4.1955
X9.2522Y-4.5341
X9.2522Y-4.6157
X9.2537Y-7.3478
X9.2559Y-3.7657
X9.2567Y-8.48
X9.2569Y-3.8012
X9.2569Y-7.1681
X9.2569Y-7.2606
X9.2579Y-3.8346
X9.2579Y-7.0756
X9.2587Y-6.8939
X9.2587Y-6.9864
X9.2596Y-6.8014
X9.2628Y-7.502
X9.2638Y-3.3031
X9.2638Y-3.3346
X9.2638Y-3.3701
X9.2638Y-3.4055
X9.2638Y-3.4409
X9.2638Y-3.4764
X9.2638Y-3.5118
X9.2638Y-3.5118
X9.2638Y-3.5433
X9.2638Y-3.5787
X9.2638Y-3.6142
X9.2638Y-3.6457
X9.2638Y-3.6811
X9.2638Y-3.7126
X9.2681Y-6.6677
X9.2697Y-8.065
X9.2805Y-5.5118
X9.2805Y-5.7667
X9.2815Y-5.4281
X9.2825Y-5.685
X9.2831Y-6.2402
X9.2835Y-4.9173
X9.2835Y-5.1722
X9.2835Y-5.3465
X9.2835Y-5.6014
X9.2835Y-5.9671
X9.2841Y-8.226
X9.2841Y-8.3185
X9.2843Y-5.9321
X9.2843Y-6.747
X9.2844Y-4.8337
X9.2844Y-5.2628
X9.285Y-8.1335
X9.2854Y-5.0906
X9.2864Y-4.752
X9.2864Y-5.0069
X9.2866Y-5.8551
X9.2874Y-4.6683
X9.29Y-4.3215
X9.29Y-4.5764
X9.2909Y-4.2378
X9.2919Y-4.4947
X9.2929Y-4.1561
X9.2929Y-4.411
X9.2941Y-8.4285
X9.2953Y-7.502
X9.2961Y-4.0748
X9.2992Y-3.3031
X9.2992Y-3.8583
X9.3022Y-8.065
X9.3045Y-6.9349
X9.3045Y-7.03
X9.3055Y-6.6689
X9.3071Y-3.8189
X9.3073Y-6.0022
X9.31Y-6.84
X9.31Y-7.2033
X9.3173Y-5.8138
X9.3173Y-5.889
X9.3181Y-6.239
X9.3189Y-3.6693
X9.32Y-7.1108
X9.32Y-7.2959
X9.32Y-7.39
X9.3234Y-5.5561
X9.3234Y-5.6427
X9.3234Y-5.7261
X9.3287Y-7.502
X9.3307Y-3.8583
X9.3318Y-4.3617
X9.3318Y-4.4524
X9.3324Y-4.7096
X9.3324Y-5.3031
X9.3334Y-4.7933
X9.3334Y-4.8761
X9.3334Y-4.9587
X9.3334Y-5.0482
X9.3334Y-5.1319
X9.3334Y-5.2161
X9.3334Y-5.3878
X9.3334Y-5.4695
X9.3335Y-6.748
X9.3346Y-3.3031
X9.3353Y-4.2791
X9.3356Y-8.065
X9.3398Y-6.6677
X9.34Y-8.1738
X9.34Y-8.27
X9.3418Y-4.1138
X9.3418Y-4.1974
X9.3418Y-4.536
X9.3418Y-4.6177
X9.35Y-6.2449
X9.35Y-8.37
X9.3514Y-7.8691
X9.3543Y-7.6929
X9.3583Y-7.3427
X9.36Y-8.48
X9.3602Y-7.502
X9.3614Y-7.163
X9.3614Y-7.2555
X9.3622Y-3.8583
X9.3624Y-7.0705
X9.3632Y-6.8888
X9.3632Y-6.9813
X9.3642Y-6.7963
X9.3657Y-6.6437
X9.3661Y-5.9681
X9.3669Y-5.9331
X9.3669Y-6.3398
X9.3671Y-5.5157
X9.3671Y-5.7707
X9.3671Y-8.065
X9.3673Y-6.6083
X9.3677Y-6.274
X9.3677Y-6.3067
X9.3677Y-6.5713
X9.3681Y-5.4321
X9.3691Y-5.689
X9.3693Y-5.8561
X9.3701Y-3.3031
X9.3701Y-4.9213
X9.3701Y-5.1762
X9.3701Y-5.3504
X9.3701Y-5.6053
X9.3711Y-4.8376
X9.372Y-5.0945
X9.372Y-5.2697
X9.373Y-4.7559
X9.373Y-5.0108
X9.3746Y-4.3274
X9.3746Y-4.5823
X9.375Y-4.6752
X9.3756Y-4.2437
X9.3766Y-4.5006
X9.3776Y-4.162
X9.3776Y-4.4169
X9.3787Y-4.0797
X9.3874Y-8.226
X9.3874Y-8.3185
X9.3884Y-8.1335
X9.39Y-6.0031
X9.3937Y-3.8583
X9.3974Y-8.4285
X9.3986Y-7.5325
X9.4Y-5.8148
X9.4Y-5.89
X9.4006Y-8.0246
X9.4016Y-7.5738
X9.4016Y-7.6781
X9.4016Y-7.8839
X9.4026Y-7.6093
X9.4026Y-7.6447
X9.4026Y-7.7136
X9.4026Y-7.747
X9.4026Y-7.7825
X9.4026Y-7.8169
X9.4026Y-7.8514
X9.4026Y-7.9183
X9.4026Y-7.9528
X9.4026Y-7.9872
X9.4055Y-3.3031
X9.41Y-5.56
X9.41Y-5.6467
X9.41Y-5.73
X9.4164Y-4.3676
X9.4164Y-4.4583
X9.4199Y-4.285
X9.42Y-4.7165
X9.42Y-4.7972
X9.42Y-4.88
X9.42Y-4.9626
X9.42Y-5.0522
X9.42Y-5.1358
X9.42Y-5.22
X9.42Y-5.31
X9.42Y-5.3917
X9.42Y-5.4734
X9.4252Y-3.6732
X9.4252Y-3.8583
X9.4264Y-4.1197
X9.4264Y-4.2033
X9.4264Y-4.5419
X9.4264Y-4.6236
X9.44Y-5.8567
X9.4409Y-3.3031
X9.4488Y-3.3465
X9.4488Y-3.8189
X9.4567Y-3.8583
X9.4606Y-3.4685
X9.4646Y-4.3278
X9.4646Y-4.5827
X9.4656Y-4.2441
X9.4665Y-4.501
X9.4675Y-4.1624
X9.4675Y-4.4173
X9.4693Y-4.0787
X9.4764Y-3.3031
X9.4882Y-3.8583
X9.5039Y-5.8434
X9.5064Y-4.368
X9.5064Y-4.4587
X9.5099Y-4.2854
X9.5118Y-3.3031
X9.5164Y-4.1201
X9.5164Y-4.2037
X9.5164Y-4.5423
X9.5164Y-4.624
X9.5197Y-3.8583
X9.5374Y-5.9768
X9.5472Y-3.3031
X9.5512Y-3.8583
X9.5512Y-6.5654
X9.5541Y-4.3297
X9.5541Y-4.5846
X9.5551Y-4.2461
X9.5559Y-6.6228
X9.5561Y-4.503
X9.5571Y-4.1644
X9.5571Y-4.4193
X9.5581Y-4.0807
X9.5827Y-3.3031
X9.5827Y-3.8583
X9.5959Y-4.37
X9.5959Y-4.4606
X9.5984Y-4.9331
X9.5984Y-5.0974
X9.5984Y-5.2589
X9.5994Y-4.2874
X9.6004Y-4.8524
X9.6004Y-4.8937
X9.6004Y-5.0167
X9.6004Y-5.0581
X9.6004Y-5.1781
X9.6004Y-5.2195
X9.6014Y-4.7707
X9.6033Y-4.69
X9.6033Y-4.7313
X9.6059Y-4.122
X9.6059Y-4.2057
X9.6059Y-4.5443
X9.6059Y-4.626
X9.6142Y-3.8583
X9.6151Y-6.0839
X9.6181Y-3.3031
X9.622Y-3.4685
X9.626Y-3.3465
X9.626Y-3.7126
X9.6299Y-3.8189
X9.6407Y-4.935
X9.6407Y-5.0994
X9.6407Y-5.2608
X9.6417Y-4.8514
X9.6417Y-4.8927
X9.6417Y-5.0157
X9.6417Y-5.0571
X9.6417Y-5.1772
X9.6417Y-5.2185
X9.6437Y-4.7726
X9.6447Y-4.3287
X9.6447Y-4.5837
X9.6447Y-4.689
X9.6447Y-4.7303
X9.6457Y-3.8583
X9.6457Y-4.2451
X9.6467Y-4.502
X9.6476Y-4.1634
X9.6476Y-4.4183
X9.6486Y-4.0797
X9.6535Y-3.3031
X9.6575Y-3.6732
X9.6654Y-3.4882
X9.6772Y-3.8583
X9.6772Y-4.9331
X9.6772Y-5.0974
X9.6772Y-5.2589
X9.6791Y-4.8524
X9.6791Y-4.8937
X9.6791Y-5.0167
X9.6791Y-5.0581
X9.6791Y-5.1781
X9.6791Y-5.2195
X9.6801Y-4.7707
X9.6821Y-4.69
X9.6821Y-4.7313
X9.6865Y-4.369
X9.6865Y-4.4596
X9.689Y-3.3031
X9.69Y-4.2864
X9.6965Y-4.1211
X9.6965Y-4.2047
X9.6965Y-4.5433
X9.6965Y-4.625
X9.7087Y-3.8583
X9.7195Y-4.935
X9.7195Y-5.0994
X9.7195Y-5.2608
X9.7205Y-4.8514
X9.7205Y-4.8927
X9.7205Y-5.0157
X9.7205Y-5.0571
X9.7205Y-5.1772
X9.7205Y-5.2185
X9.7224Y-4.7726
X9.7234Y-4.689
X9.7234Y-4.7303
X9.7244Y-3.3031
X9.7382Y-4.3297
X9.7382Y-4.5846
X9.7392Y-4.2461
X9.7402Y-3.8583
X9.7402Y-4.503
X9.7411Y-4.1644
X9.7411Y-4.4193
X9.7421Y-4.0807
X9.7433Y-5.4437
X9.7598Y-3.3031
X9.7717Y-3.4961
X9.7717Y-3.6654
X9.7717Y-3.8583
X9.78Y-4.37
X9.78Y-4.4606
X9.7835Y-4.2874
X9.79Y-4.122
X9.79Y-4.2057
X9.79Y-4.5443
X9.79Y-4.626
X9.7953Y-3.3031
X9.7996Y-5.4535
X9.8031Y-3.8583
X9.8097Y-6.0077
X9.8128Y-5.8834
X9.8454Y-6.6334
X9.8579Y-5.6161
X9.874Y-7.0886
X9.8754Y-6.5934
X9.8756Y-7.165
X9.8851Y-6.29
X9.9142Y-6.587
X9.9169Y-6.7665
X9.9248Y-6.5472
X9.9409Y-4.9591
X9.9413Y-5.3091
X9.957Y-6.0392
X9.9578Y-6.5082
X9.9689Y-4.9059
X9.9754Y-5.1834
X9.9925Y-6.5268
X10.0004Y-5.3071
X10.02Y-5.44
X10.0235Y-6.8904
X10.0272Y-5.574
X10.0315Y-4.622
X10.0334Y-4.5234
X10.0374Y-7.5646
X10.0406Y-7.0717
X10.0441Y-7.1339
X10.0654Y-4.9634
X10.0734Y-5.1554
X10.0965Y-4.313
X10.0994Y-4.6224
X10.1004Y-4.5217
X10.1122Y-4.7972
X10.1211Y-6.8473
X10.1389Y-4.8406
X10.1457Y-5.0539
X10.1488Y-6.7256
X10.1498Y-6.2853
X10.1555Y-4.3642
X10.1634Y-4.5714
X10.1886Y-6.8256
X10.1917Y-6.7382
X10.2154Y-6.8834
X10.2205Y-6.2598
X10.2232Y-4.8516
X10.2264Y-5.176
X10.2449Y-5.0303
X10.285Y-4.8516
X10.2925Y-4.9866
X10.3Y-5.61
X10.3189Y-6.2579
X10.3197Y-7.1713
X10.3254Y-7.2734
X10.33Y-5.58
X10.33Y-5.64
X10.3484Y-4.9409
X10.36Y-5.55
X10.36Y-5.61
X10.36Y-5.67
X10.36Y-6.72
X10.37Y-6.86
X10.37Y-6.9
X10.37Y-6.94
X10.37Y-6.98
X10.37Y-7.02
X10.3815Y-5.0937
X10.39Y-5.52
X10.39Y-5.58
X10.39Y-5.64
X10.39Y-5.7
X10.4035Y-4.7894
X10.41Y-6.86
X10.41Y-6.9
X10.41Y-6.94
X10.41Y-6.98
X10.41Y-7.02
X10.42Y-5.49
X10.42Y-5.55
X10.42Y-5.61
X10.42Y-5.67
X10.42Y-5.73
X10.4254Y-7.3034
X10.4255Y-7.2632
X10.4353Y-7.5958
X10.4444Y-7.2049
X10.45Y-5.52
X10.45Y-5.58
X10.45Y-5.64
X10.45Y-5.7
X10.45Y-6.86
X10.45Y-6.9
X10.45Y-6.94
X10.45Y-6.98
X10.45Y-7.02
X10.4551Y-7.6815
X10.4554Y-6.1134
X10.478Y-6.4915
X10.48Y-5.55
X10.48Y-5.61
X10.48Y-5.67
X10.4854Y-7.2347
X10.4862Y-8.002
X10.487Y-6.7201
X10.49Y-6.86
X10.49Y-6.9
X10.49Y-6.94
X10.49Y-6.98
X10.49Y-7.02
X10.4961Y-4.7913
X10.51Y-5.58
X10.51Y-5.64
X10.5118Y-7.4173
X10.5209Y-6.2583
X10.53Y-6.86
X10.53Y-6.9
X10.53Y-6.94
X10.53Y-6.98
X10.53Y-7.02
X10.54Y-5.61
X10.5439Y-7.2373
X10.5555Y-5.0362
X10.5654Y-7.4034
X10.59Y-5.86
X10.6079Y-6.5016
X10.6189Y-7.3898
X10.6285Y-7.8017
X10.6319Y-4.8406
X10.6417Y-4.2323
X10.643Y-6.0079
X10.6697Y-6.4862
X10.685Y-4.8386
X10.6969Y-4.2894
X10.7091Y-6.4448
X10.71Y-6.65
X10.7354Y-5.9934
X10.7621Y-7.5977
X10.7681Y-4.9327
X10.7791Y-6.7876
X10.7815Y-4.5551
X10.7852Y-6.7142
X10.8015Y-6.75
X10.8026Y-6.5383
X10.8063Y-7.4315
X10.8102Y-5.6902
X10.813Y-7.2323
X10.815Y-5.8461
X10.8189Y-4.2106
X10.8272Y-6.8071
X10.85Y-7.0
X10.9193Y-7.8157
X10.9254Y-7.3425
X10.9254Y-7.7469
X10.94Y-6.03
X10.9461Y-4.0061
X10.9549Y-7.498
X10.98Y-7.62
X10.9839Y-8.2339
X10.9898Y-5.2022
X11.0059Y-7.7866
X11.01Y-8.32
X11.0346Y-5.5476
X11.0496Y-6.3004
X11.1365Y-6.2184
X11.1693Y-6.5618
X11.2679Y-6.8477
X11.2787Y-6.8098
X11.2815Y-8.3402
X11.3504Y-7.5315
X11.3827Y-6.8055
X11.4303Y-6.9
X11.4428Y-6.8535
X11.5184Y-6.8133
X11.5354Y-7.7598
X11.58Y-7.09
X11.622Y-7.739
X11.6561Y-5.2033
X11.6573Y-5.1323
X11.6575Y-4.4494
X11.6585Y-4.523
X11.6585Y-4.2933
X11.6589Y-4.3693
X11.6592Y-4.2077
X11.6593Y-4.9626
X11.6595Y-4.7908
X11.6597Y-5.0337
X11.6598Y-4.8631
X11.6601Y-5.4699
X11.6604Y-5.3032
X11.6605Y-4.1357
X11.6608Y-3.9641
X11.6612Y-4.6235
X11.6614Y-5.3759
X11.6614Y-4.0364
X11.6615Y-5.5416
X11.6624Y-6.4871
X11.6625Y-6.065
X11.6628Y-6.5607
X11.663Y-6.168
X11.6631Y-4.6986
X11.6634Y-6.3209
X11.6637Y-5.6452
X11.6641Y-6.2376
X11.6646Y-5.9962
X11.6647Y-5.7184
X11.6647Y-6.3971
X11.6653Y-5.8192
X11.6663Y-5.8914
X11.7188Y-7.4987
X11.7338Y-7.2317
X11.742Y-7.3699
X11.8531Y-7.635
X11.8702Y-7.0904
X11.9016Y-4.0039
X11.9226Y-6.6947
X11.9397Y-4.4429
X11.9403Y-4.5544
X11.953Y-4.2337
X11.9611Y-4.7953
X11.9848Y-5.9277
X11.9891Y-6.2726
X11.9957Y-5.0837
X11.9995Y-6.126
X12.0Y-5.3543
X12.005Y-5.2864
X12.0059Y-5.4337
X12.009Y-5.2406
X12.0315Y-5.9843
X12.0532Y-6.4709
X12.0551Y-5.1181
X12.0551Y-6.2756
X12.063Y-6.9134
X12.3929Y-7.9291
T3
X10.7707Y-7.3297
X10.8455Y-7.3297
X10.89Y-5.97
X10.9Y-6.11
T4
X9.8882Y-6.8602
X9.8882Y-6.939
X10.0314Y-4.103
X10.0314Y-4.2014
X10.4854Y-4.2646
X10.4854Y-4.3434
X12.1904Y-4.189
X12.1904Y-4.2677
X12.1904Y-4.3465
X12.1904Y-4.4252
X12.1904Y-4.5039
X12.1904Y-4.5827
X12.1904Y-4.6614
X12.1904Y-4.7402
X12.1904Y-4.8189
T5
X12.1839Y-6.5366
X12.1839Y-6.6154
X12.1839Y-6.6941
X12.1839Y-6.7728
X12.1839Y-6.8516
X12.1839Y-6.9303
X12.1839Y-7.0091
X12.1839Y-7.0878
T6
X10.2469Y-8.4417
X10.3469Y-8.4417
X10.4469Y-8.4417
X12.0886Y-7.3437
X12.0886Y-7.4224
X12.0886Y-7.5012
X12.0886Y-7.5799
X12.0886Y-7.6587
X12.0886Y-7.7374
X12.0886Y-7.8161
X12.0886Y-7.8949
X12.1673Y-7.3437
X12.1673Y-7.4224
X12.1673Y-7.5012
X12.1673Y-7.5799
X12.1673Y-7.6587
X12.1673Y-7.7374
X12.1673Y-7.8161
X12.1673Y-7.8949
X12.2311Y-5.1535
X12.2311Y-5.2323
X12.2311Y-5.311
X12.2311Y-5.3898
X12.2374Y-6.0031
X12.2374Y-6.0819
X12.2374Y-6.1606
X12.2374Y-6.2394
X12.3098Y-5.1535
X12.3098Y-5.2323
X12.3098Y-5.311
X12.3098Y-5.3898
X12.3161Y-6.0031
X12.3161Y-6.0819
X12.3161Y-6.1606
X12.3161Y-6.2394
T7
X9.5315Y-7.0417
X9.6315Y-7.0417
X9.7315Y-7.0417
X9.9402Y-4.7988
X10.06Y-5.64
X10.12Y-5.97
X10.72Y-5.79
X10.7424Y-4.49
X10.7559Y-4.752
X10.77Y-5.55
X11.05Y-8.44
X11.15Y-8.44
X11.25Y-8.44
X11.3504Y-8.1
X11.6496Y-8.1
T8
X12.2783Y-6.4579
X12.2783Y-7.1665
T9
X7.4435Y-3.8831
X7.4435Y-4.0577
X7.4435Y-4.2323
X7.5124Y-7.6079
X7.5124Y-7.7825
X7.5124Y-7.9571
X7.6181Y-3.8831
X7.6181Y-4.2323
X7.687Y-7.6079
X7.687Y-7.9571
X7.7927Y-3.8831
X7.7927Y-4.0577
X7.7927Y-4.2323
X7.8616Y-7.6079
X7.8616Y-7.7825
X7.8616Y-7.9571
X8.9435Y-7.6079
X8.9435Y-7.7825
X8.9435Y-7.9571
X9.1181Y-7.6079
X9.1181Y-7.9571
X9.2927Y-7.6079
X9.2927Y-7.7825
X9.2927Y-7.9571
X9.3673Y-3.4057
X9.3673Y-3.5803
X9.3673Y-3.7549
X9.5419Y-3.4057
X9.5419Y-3.7549
X9.7165Y-3.4057
X9.7165Y-3.5803
X9.7165Y-3.7549
X10.7846Y-3.4057
X10.7846Y-3.5803
X10.7846Y-3.7549
X10.9593Y-3.4057
X10.9593Y-3.7549
X11.1339Y-3.4057
X11.1339Y-3.5803
X11.1339Y-3.7549
T0
M30
