%TF.GenerationSoftware,KiCad,Pcbnew,7.0.5*%
%TF.CreationDate,2025-02-05T18:21:14+05:30*%
%TF.ProjectId,NewSparky_V1.3.4,4e657753-7061-4726-9b79-5f56312e332e,rev?*%
%TF.SameCoordinates,Original*%
%TF.FileFunction,Drillmap*%
%TF.FilePolarity,Positive*%
%FSLAX45Y45*%
G04 Gerber Fmt 4.5, Leading zero omitted, Abs format (unit mm)*
G04 Created by KiCad (PCBNEW 7.0.5) date 2025-02-05 18:21:14*
%MOMM*%
%LPD*%
G01*
G04 APERTURE LIST*
%ADD10C,0.050000*%
%ADD11C,0.200000*%
%ADD12C,0.100000*%
%ADD13C,0.120000*%
%ADD14C,0.320000*%
%ADD15C,0.350000*%
%ADD16C,0.400000*%
%ADD17C,0.530000*%
G04 APERTURE END LIST*
D10*
X31365078Y-21749262D02*
G75*
G03*
X32051212Y-21056600I-3268J689402D01*
G01*
X19231722Y-8253968D02*
G75*
G03*
X18545588Y-8946635I3268J-689402D01*
G01*
X31412000Y-18642000D02*
X31779000Y-18642000D01*
X31779000Y-19982000D01*
X31412000Y-19982000D01*
X31412000Y-18642000D01*
X31339000Y-16347250D02*
X31858400Y-16347250D01*
X31858400Y-18258750D01*
X31339000Y-18258750D01*
X31339000Y-16347250D01*
X31237000Y-10517250D02*
X31756400Y-10517250D01*
X31756400Y-12428750D01*
X31237000Y-12428750D01*
X31237000Y-10517250D01*
X32030432Y-8944722D02*
G75*
G03*
X31337765Y-8258588I-689402J-3268D01*
G01*
X31337765Y-8258588D02*
X19231722Y-8253971D01*
X32030429Y-8944722D02*
X32051212Y-21056600D01*
X31365078Y-21749263D02*
X19233635Y-21745999D01*
X18540971Y-21059865D02*
X18545588Y-8946635D01*
X18540971Y-21059865D02*
G75*
G03*
X19233635Y-21745999I689399J3265D01*
G01*
D11*
D12*
X26017000Y-21208000D02*
X26117000Y-21308000D01*
X26117000Y-21208000D02*
X26017000Y-21308000D01*
X26817000Y-21208000D02*
X26917000Y-21308000D01*
X26917000Y-21208000D02*
X26817000Y-21308000D01*
D13*
X31263500Y-10440000D02*
G75*
G03*
X31263500Y-10440000I-60000J0D01*
G01*
X31263500Y-12440000D02*
G75*
G03*
X31263500Y-12440000I-60000J0D01*
G01*
D14*
X21155000Y-8770000D02*
X21155000Y-9090000D01*
X20995000Y-8930000D02*
X21315000Y-8930000D01*
X21156000Y-16318000D02*
X21156000Y-16638000D01*
X20996000Y-16478000D02*
X21316000Y-16478000D01*
X22354000Y-16325000D02*
X22354000Y-16645000D01*
X22194000Y-16485000D02*
X22514000Y-16485000D01*
D15*
X22478745Y-9053745D02*
X22478745Y-8806255D01*
X22231255Y-8806255D01*
X22231255Y-9053745D01*
X22478745Y-9053745D01*
D16*
X19160000Y-9380000D02*
X19360000Y-9180000D01*
X19160000Y-8980000D01*
X18960000Y-9180000D01*
X19160000Y-9380000D01*
X19160000Y-21180000D02*
X19360000Y-20980000D01*
X19160000Y-20780000D01*
X18960000Y-20980000D01*
X19160000Y-21180000D01*
X31460000Y-9380000D02*
X31660000Y-9180000D01*
X31460000Y-8980000D01*
X31260000Y-9180000D01*
X31460000Y-9380000D01*
X31460000Y-21180000D02*
X31660000Y-20980000D01*
X31460000Y-20780000D01*
X31260000Y-20980000D01*
X31460000Y-21180000D01*
D17*
X19085000Y-10041500D02*
X19615000Y-10571500D01*
X19615000Y-10041500D02*
X19085000Y-10571500D01*
X19615000Y-10306500D02*
G75*
G03*
X19615000Y-10306500I-265000J0D01*
G01*
X19260000Y-19502500D02*
X19790000Y-20032500D01*
X19790000Y-19502500D02*
X19260000Y-20032500D01*
X19790000Y-19767500D02*
G75*
G03*
X19790000Y-19767500I-265000J0D01*
G01*
X22895000Y-19502500D02*
X23425000Y-20032500D01*
X23425000Y-19502500D02*
X22895000Y-20032500D01*
X23425000Y-19767500D02*
G75*
G03*
X23425000Y-19767500I-265000J0D01*
G01*
X23971500Y-8829000D02*
X24501500Y-9359000D01*
X24501500Y-8829000D02*
X23971500Y-9359000D01*
X24501500Y-9094000D02*
G75*
G03*
X24501500Y-9094000I-265000J0D01*
G01*
X27571500Y-8829000D02*
X28101500Y-9359000D01*
X28101500Y-8829000D02*
X27571500Y-9359000D01*
X28101500Y-9094000D02*
G75*
G03*
X28101500Y-9094000I-265000J0D01*
G01*
D11*
X18799248Y-22063247D02*
X18799248Y-21863247D01*
X18799248Y-21863247D02*
X18846867Y-21863247D01*
X18846867Y-21863247D02*
X18875439Y-21872771D01*
X18875439Y-21872771D02*
X18894486Y-21891819D01*
X18894486Y-21891819D02*
X18904010Y-21910866D01*
X18904010Y-21910866D02*
X18913534Y-21948961D01*
X18913534Y-21948961D02*
X18913534Y-21977533D01*
X18913534Y-21977533D02*
X18904010Y-22015628D01*
X18904010Y-22015628D02*
X18894486Y-22034676D01*
X18894486Y-22034676D02*
X18875439Y-22053723D01*
X18875439Y-22053723D02*
X18846867Y-22063247D01*
X18846867Y-22063247D02*
X18799248Y-22063247D01*
X18999248Y-22063247D02*
X18999248Y-21929914D01*
X18999248Y-21968009D02*
X19008772Y-21948961D01*
X19008772Y-21948961D02*
X19018296Y-21939438D01*
X19018296Y-21939438D02*
X19037343Y-21929914D01*
X19037343Y-21929914D02*
X19056391Y-21929914D01*
X19123058Y-22063247D02*
X19123058Y-21929914D01*
X19123058Y-21863247D02*
X19113534Y-21872771D01*
X19113534Y-21872771D02*
X19123058Y-21882295D01*
X19123058Y-21882295D02*
X19132581Y-21872771D01*
X19132581Y-21872771D02*
X19123058Y-21863247D01*
X19123058Y-21863247D02*
X19123058Y-21882295D01*
X19246867Y-22063247D02*
X19227819Y-22053723D01*
X19227819Y-22053723D02*
X19218296Y-22034676D01*
X19218296Y-22034676D02*
X19218296Y-21863247D01*
X19351629Y-22063247D02*
X19332581Y-22053723D01*
X19332581Y-22053723D02*
X19323058Y-22034676D01*
X19323058Y-22034676D02*
X19323058Y-21863247D01*
X19580200Y-22063247D02*
X19580200Y-21863247D01*
X19580200Y-21863247D02*
X19646867Y-22006104D01*
X19646867Y-22006104D02*
X19713534Y-21863247D01*
X19713534Y-21863247D02*
X19713534Y-22063247D01*
X19894486Y-22063247D02*
X19894486Y-21958485D01*
X19894486Y-21958485D02*
X19884962Y-21939438D01*
X19884962Y-21939438D02*
X19865915Y-21929914D01*
X19865915Y-21929914D02*
X19827819Y-21929914D01*
X19827819Y-21929914D02*
X19808772Y-21939438D01*
X19894486Y-22053723D02*
X19875439Y-22063247D01*
X19875439Y-22063247D02*
X19827819Y-22063247D01*
X19827819Y-22063247D02*
X19808772Y-22053723D01*
X19808772Y-22053723D02*
X19799248Y-22034676D01*
X19799248Y-22034676D02*
X19799248Y-22015628D01*
X19799248Y-22015628D02*
X19808772Y-21996581D01*
X19808772Y-21996581D02*
X19827819Y-21987057D01*
X19827819Y-21987057D02*
X19875439Y-21987057D01*
X19875439Y-21987057D02*
X19894486Y-21977533D01*
X19989724Y-21929914D02*
X19989724Y-22129914D01*
X19989724Y-21939438D02*
X20008772Y-21929914D01*
X20008772Y-21929914D02*
X20046867Y-21929914D01*
X20046867Y-21929914D02*
X20065915Y-21939438D01*
X20065915Y-21939438D02*
X20075439Y-21948961D01*
X20075439Y-21948961D02*
X20084962Y-21968009D01*
X20084962Y-21968009D02*
X20084962Y-22025152D01*
X20084962Y-22025152D02*
X20075439Y-22044200D01*
X20075439Y-22044200D02*
X20065915Y-22053723D01*
X20065915Y-22053723D02*
X20046867Y-22063247D01*
X20046867Y-22063247D02*
X20008772Y-22063247D01*
X20008772Y-22063247D02*
X19989724Y-22053723D01*
X20170677Y-22044200D02*
X20180200Y-22053723D01*
X20180200Y-22053723D02*
X20170677Y-22063247D01*
X20170677Y-22063247D02*
X20161153Y-22053723D01*
X20161153Y-22053723D02*
X20170677Y-22044200D01*
X20170677Y-22044200D02*
X20170677Y-22063247D01*
X20170677Y-21939438D02*
X20180200Y-21948961D01*
X20180200Y-21948961D02*
X20170677Y-21958485D01*
X20170677Y-21958485D02*
X20161153Y-21948961D01*
X20161153Y-21948961D02*
X20170677Y-21939438D01*
X20170677Y-21939438D02*
X20170677Y-21958485D01*
D12*
X18438471Y-22341763D02*
X18538471Y-22441763D01*
X18538471Y-22341763D02*
X18438471Y-22441763D01*
D11*
X18904010Y-22483247D02*
X18789724Y-22483247D01*
X18846867Y-22483247D02*
X18846867Y-22283247D01*
X18846867Y-22283247D02*
X18827819Y-22311819D01*
X18827819Y-22311819D02*
X18808772Y-22330866D01*
X18808772Y-22330866D02*
X18789724Y-22340390D01*
X18989724Y-22464199D02*
X18999248Y-22473723D01*
X18999248Y-22473723D02*
X18989724Y-22483247D01*
X18989724Y-22483247D02*
X18980200Y-22473723D01*
X18980200Y-22473723D02*
X18989724Y-22464199D01*
X18989724Y-22464199D02*
X18989724Y-22483247D01*
X19123058Y-22283247D02*
X19142105Y-22283247D01*
X19142105Y-22283247D02*
X19161153Y-22292771D01*
X19161153Y-22292771D02*
X19170677Y-22302295D01*
X19170677Y-22302295D02*
X19180200Y-22321342D01*
X19180200Y-22321342D02*
X19189724Y-22359438D01*
X19189724Y-22359438D02*
X19189724Y-22407057D01*
X19189724Y-22407057D02*
X19180200Y-22445152D01*
X19180200Y-22445152D02*
X19170677Y-22464199D01*
X19170677Y-22464199D02*
X19161153Y-22473723D01*
X19161153Y-22473723D02*
X19142105Y-22483247D01*
X19142105Y-22483247D02*
X19123058Y-22483247D01*
X19123058Y-22483247D02*
X19104010Y-22473723D01*
X19104010Y-22473723D02*
X19094486Y-22464199D01*
X19094486Y-22464199D02*
X19084962Y-22445152D01*
X19084962Y-22445152D02*
X19075439Y-22407057D01*
X19075439Y-22407057D02*
X19075439Y-22359438D01*
X19075439Y-22359438D02*
X19084962Y-22321342D01*
X19084962Y-22321342D02*
X19094486Y-22302295D01*
X19094486Y-22302295D02*
X19104010Y-22292771D01*
X19104010Y-22292771D02*
X19123058Y-22283247D01*
X19313534Y-22283247D02*
X19332581Y-22283247D01*
X19332581Y-22283247D02*
X19351629Y-22292771D01*
X19351629Y-22292771D02*
X19361153Y-22302295D01*
X19361153Y-22302295D02*
X19370677Y-22321342D01*
X19370677Y-22321342D02*
X19380200Y-22359438D01*
X19380200Y-22359438D02*
X19380200Y-22407057D01*
X19380200Y-22407057D02*
X19370677Y-22445152D01*
X19370677Y-22445152D02*
X19361153Y-22464199D01*
X19361153Y-22464199D02*
X19351629Y-22473723D01*
X19351629Y-22473723D02*
X19332581Y-22483247D01*
X19332581Y-22483247D02*
X19313534Y-22483247D01*
X19313534Y-22483247D02*
X19294486Y-22473723D01*
X19294486Y-22473723D02*
X19284962Y-22464199D01*
X19284962Y-22464199D02*
X19275439Y-22445152D01*
X19275439Y-22445152D02*
X19265915Y-22407057D01*
X19265915Y-22407057D02*
X19265915Y-22359438D01*
X19265915Y-22359438D02*
X19275439Y-22321342D01*
X19275439Y-22321342D02*
X19284962Y-22302295D01*
X19284962Y-22302295D02*
X19294486Y-22292771D01*
X19294486Y-22292771D02*
X19313534Y-22283247D01*
X19504010Y-22283247D02*
X19523058Y-22283247D01*
X19523058Y-22283247D02*
X19542105Y-22292771D01*
X19542105Y-22292771D02*
X19551629Y-22302295D01*
X19551629Y-22302295D02*
X19561153Y-22321342D01*
X19561153Y-22321342D02*
X19570677Y-22359438D01*
X19570677Y-22359438D02*
X19570677Y-22407057D01*
X19570677Y-22407057D02*
X19561153Y-22445152D01*
X19561153Y-22445152D02*
X19551629Y-22464199D01*
X19551629Y-22464199D02*
X19542105Y-22473723D01*
X19542105Y-22473723D02*
X19523058Y-22483247D01*
X19523058Y-22483247D02*
X19504010Y-22483247D01*
X19504010Y-22483247D02*
X19484962Y-22473723D01*
X19484962Y-22473723D02*
X19475439Y-22464199D01*
X19475439Y-22464199D02*
X19465915Y-22445152D01*
X19465915Y-22445152D02*
X19456391Y-22407057D01*
X19456391Y-22407057D02*
X19456391Y-22359438D01*
X19456391Y-22359438D02*
X19465915Y-22321342D01*
X19465915Y-22321342D02*
X19475439Y-22302295D01*
X19475439Y-22302295D02*
X19484962Y-22292771D01*
X19484962Y-22292771D02*
X19504010Y-22283247D01*
X19656391Y-22483247D02*
X19656391Y-22349914D01*
X19656391Y-22368961D02*
X19665915Y-22359438D01*
X19665915Y-22359438D02*
X19684962Y-22349914D01*
X19684962Y-22349914D02*
X19713534Y-22349914D01*
X19713534Y-22349914D02*
X19732581Y-22359438D01*
X19732581Y-22359438D02*
X19742105Y-22378485D01*
X19742105Y-22378485D02*
X19742105Y-22483247D01*
X19742105Y-22378485D02*
X19751629Y-22359438D01*
X19751629Y-22359438D02*
X19770677Y-22349914D01*
X19770677Y-22349914D02*
X19799248Y-22349914D01*
X19799248Y-22349914D02*
X19818296Y-22359438D01*
X19818296Y-22359438D02*
X19827820Y-22378485D01*
X19827820Y-22378485D02*
X19827820Y-22483247D01*
X19923058Y-22483247D02*
X19923058Y-22349914D01*
X19923058Y-22368961D02*
X19932581Y-22359438D01*
X19932581Y-22359438D02*
X19951629Y-22349914D01*
X19951629Y-22349914D02*
X19980201Y-22349914D01*
X19980201Y-22349914D02*
X19999248Y-22359438D01*
X19999248Y-22359438D02*
X20008772Y-22378485D01*
X20008772Y-22378485D02*
X20008772Y-22483247D01*
X20008772Y-22378485D02*
X20018296Y-22359438D01*
X20018296Y-22359438D02*
X20037343Y-22349914D01*
X20037343Y-22349914D02*
X20065915Y-22349914D01*
X20065915Y-22349914D02*
X20084962Y-22359438D01*
X20084962Y-22359438D02*
X20094486Y-22378485D01*
X20094486Y-22378485D02*
X20094486Y-22483247D01*
X20484962Y-22273723D02*
X20313534Y-22530866D01*
X20742105Y-22283247D02*
X20761153Y-22283247D01*
X20761153Y-22283247D02*
X20780201Y-22292771D01*
X20780201Y-22292771D02*
X20789724Y-22302295D01*
X20789724Y-22302295D02*
X20799248Y-22321342D01*
X20799248Y-22321342D02*
X20808772Y-22359438D01*
X20808772Y-22359438D02*
X20808772Y-22407057D01*
X20808772Y-22407057D02*
X20799248Y-22445152D01*
X20799248Y-22445152D02*
X20789724Y-22464199D01*
X20789724Y-22464199D02*
X20780201Y-22473723D01*
X20780201Y-22473723D02*
X20761153Y-22483247D01*
X20761153Y-22483247D02*
X20742105Y-22483247D01*
X20742105Y-22483247D02*
X20723058Y-22473723D01*
X20723058Y-22473723D02*
X20713534Y-22464199D01*
X20713534Y-22464199D02*
X20704010Y-22445152D01*
X20704010Y-22445152D02*
X20694486Y-22407057D01*
X20694486Y-22407057D02*
X20694486Y-22359438D01*
X20694486Y-22359438D02*
X20704010Y-22321342D01*
X20704010Y-22321342D02*
X20713534Y-22302295D01*
X20713534Y-22302295D02*
X20723058Y-22292771D01*
X20723058Y-22292771D02*
X20742105Y-22283247D01*
X20894486Y-22464199D02*
X20904010Y-22473723D01*
X20904010Y-22473723D02*
X20894486Y-22483247D01*
X20894486Y-22483247D02*
X20884963Y-22473723D01*
X20884963Y-22473723D02*
X20894486Y-22464199D01*
X20894486Y-22464199D02*
X20894486Y-22483247D01*
X21027820Y-22283247D02*
X21046867Y-22283247D01*
X21046867Y-22283247D02*
X21065915Y-22292771D01*
X21065915Y-22292771D02*
X21075439Y-22302295D01*
X21075439Y-22302295D02*
X21084963Y-22321342D01*
X21084963Y-22321342D02*
X21094486Y-22359438D01*
X21094486Y-22359438D02*
X21094486Y-22407057D01*
X21094486Y-22407057D02*
X21084963Y-22445152D01*
X21084963Y-22445152D02*
X21075439Y-22464199D01*
X21075439Y-22464199D02*
X21065915Y-22473723D01*
X21065915Y-22473723D02*
X21046867Y-22483247D01*
X21046867Y-22483247D02*
X21027820Y-22483247D01*
X21027820Y-22483247D02*
X21008772Y-22473723D01*
X21008772Y-22473723D02*
X20999248Y-22464199D01*
X20999248Y-22464199D02*
X20989724Y-22445152D01*
X20989724Y-22445152D02*
X20980201Y-22407057D01*
X20980201Y-22407057D02*
X20980201Y-22359438D01*
X20980201Y-22359438D02*
X20989724Y-22321342D01*
X20989724Y-22321342D02*
X20999248Y-22302295D01*
X20999248Y-22302295D02*
X21008772Y-22292771D01*
X21008772Y-22292771D02*
X21027820Y-22283247D01*
X21161153Y-22283247D02*
X21284963Y-22283247D01*
X21284963Y-22283247D02*
X21218296Y-22359438D01*
X21218296Y-22359438D02*
X21246867Y-22359438D01*
X21246867Y-22359438D02*
X21265915Y-22368961D01*
X21265915Y-22368961D02*
X21275439Y-22378485D01*
X21275439Y-22378485D02*
X21284963Y-22397533D01*
X21284963Y-22397533D02*
X21284963Y-22445152D01*
X21284963Y-22445152D02*
X21275439Y-22464199D01*
X21275439Y-22464199D02*
X21265915Y-22473723D01*
X21265915Y-22473723D02*
X21246867Y-22483247D01*
X21246867Y-22483247D02*
X21189724Y-22483247D01*
X21189724Y-22483247D02*
X21170677Y-22473723D01*
X21170677Y-22473723D02*
X21161153Y-22464199D01*
X21380201Y-22483247D02*
X21418296Y-22483247D01*
X21418296Y-22483247D02*
X21437344Y-22473723D01*
X21437344Y-22473723D02*
X21446867Y-22464199D01*
X21446867Y-22464199D02*
X21465915Y-22435628D01*
X21465915Y-22435628D02*
X21475439Y-22397533D01*
X21475439Y-22397533D02*
X21475439Y-22321342D01*
X21475439Y-22321342D02*
X21465915Y-22302295D01*
X21465915Y-22302295D02*
X21456391Y-22292771D01*
X21456391Y-22292771D02*
X21437344Y-22283247D01*
X21437344Y-22283247D02*
X21399248Y-22283247D01*
X21399248Y-22283247D02*
X21380201Y-22292771D01*
X21380201Y-22292771D02*
X21370677Y-22302295D01*
X21370677Y-22302295D02*
X21361153Y-22321342D01*
X21361153Y-22321342D02*
X21361153Y-22368961D01*
X21361153Y-22368961D02*
X21370677Y-22388009D01*
X21370677Y-22388009D02*
X21380201Y-22397533D01*
X21380201Y-22397533D02*
X21399248Y-22407057D01*
X21399248Y-22407057D02*
X21437344Y-22407057D01*
X21437344Y-22407057D02*
X21456391Y-22397533D01*
X21456391Y-22397533D02*
X21465915Y-22388009D01*
X21465915Y-22388009D02*
X21475439Y-22368961D01*
X21646867Y-22349914D02*
X21646867Y-22483247D01*
X21599248Y-22273723D02*
X21551629Y-22416580D01*
X21551629Y-22416580D02*
X21675439Y-22416580D01*
X21742105Y-22283247D02*
X21742105Y-22321342D01*
X21818296Y-22283247D02*
X21818296Y-22321342D01*
X22113534Y-22559438D02*
X22104010Y-22549914D01*
X22104010Y-22549914D02*
X22084963Y-22521342D01*
X22084963Y-22521342D02*
X22075439Y-22502295D01*
X22075439Y-22502295D02*
X22065915Y-22473723D01*
X22065915Y-22473723D02*
X22056391Y-22426104D01*
X22056391Y-22426104D02*
X22056391Y-22388009D01*
X22056391Y-22388009D02*
X22065915Y-22340390D01*
X22065915Y-22340390D02*
X22075439Y-22311819D01*
X22075439Y-22311819D02*
X22084963Y-22292771D01*
X22084963Y-22292771D02*
X22104010Y-22264200D01*
X22104010Y-22264200D02*
X22113534Y-22254676D01*
X22180201Y-22302295D02*
X22189725Y-22292771D01*
X22189725Y-22292771D02*
X22208772Y-22283247D01*
X22208772Y-22283247D02*
X22256391Y-22283247D01*
X22256391Y-22283247D02*
X22275439Y-22292771D01*
X22275439Y-22292771D02*
X22284963Y-22302295D01*
X22284963Y-22302295D02*
X22294486Y-22321342D01*
X22294486Y-22321342D02*
X22294486Y-22340390D01*
X22294486Y-22340390D02*
X22284963Y-22368961D01*
X22284963Y-22368961D02*
X22170677Y-22483247D01*
X22170677Y-22483247D02*
X22294486Y-22483247D01*
X22532582Y-22483247D02*
X22532582Y-22283247D01*
X22618296Y-22483247D02*
X22618296Y-22378485D01*
X22618296Y-22378485D02*
X22608772Y-22359438D01*
X22608772Y-22359438D02*
X22589725Y-22349914D01*
X22589725Y-22349914D02*
X22561153Y-22349914D01*
X22561153Y-22349914D02*
X22542105Y-22359438D01*
X22542105Y-22359438D02*
X22532582Y-22368961D01*
X22742105Y-22483247D02*
X22723058Y-22473723D01*
X22723058Y-22473723D02*
X22713534Y-22464199D01*
X22713534Y-22464199D02*
X22704010Y-22445152D01*
X22704010Y-22445152D02*
X22704010Y-22388009D01*
X22704010Y-22388009D02*
X22713534Y-22368961D01*
X22713534Y-22368961D02*
X22723058Y-22359438D01*
X22723058Y-22359438D02*
X22742105Y-22349914D01*
X22742105Y-22349914D02*
X22770677Y-22349914D01*
X22770677Y-22349914D02*
X22789725Y-22359438D01*
X22789725Y-22359438D02*
X22799248Y-22368961D01*
X22799248Y-22368961D02*
X22808772Y-22388009D01*
X22808772Y-22388009D02*
X22808772Y-22445152D01*
X22808772Y-22445152D02*
X22799248Y-22464199D01*
X22799248Y-22464199D02*
X22789725Y-22473723D01*
X22789725Y-22473723D02*
X22770677Y-22483247D01*
X22770677Y-22483247D02*
X22742105Y-22483247D01*
X22923058Y-22483247D02*
X22904010Y-22473723D01*
X22904010Y-22473723D02*
X22894486Y-22454676D01*
X22894486Y-22454676D02*
X22894486Y-22283247D01*
X23075439Y-22473723D02*
X23056391Y-22483247D01*
X23056391Y-22483247D02*
X23018296Y-22483247D01*
X23018296Y-22483247D02*
X22999248Y-22473723D01*
X22999248Y-22473723D02*
X22989725Y-22454676D01*
X22989725Y-22454676D02*
X22989725Y-22378485D01*
X22989725Y-22378485D02*
X22999248Y-22359438D01*
X22999248Y-22359438D02*
X23018296Y-22349914D01*
X23018296Y-22349914D02*
X23056391Y-22349914D01*
X23056391Y-22349914D02*
X23075439Y-22359438D01*
X23075439Y-22359438D02*
X23084963Y-22378485D01*
X23084963Y-22378485D02*
X23084963Y-22397533D01*
X23084963Y-22397533D02*
X22989725Y-22416580D01*
X23161153Y-22473723D02*
X23180201Y-22483247D01*
X23180201Y-22483247D02*
X23218296Y-22483247D01*
X23218296Y-22483247D02*
X23237344Y-22473723D01*
X23237344Y-22473723D02*
X23246867Y-22454676D01*
X23246867Y-22454676D02*
X23246867Y-22445152D01*
X23246867Y-22445152D02*
X23237344Y-22426104D01*
X23237344Y-22426104D02*
X23218296Y-22416580D01*
X23218296Y-22416580D02*
X23189725Y-22416580D01*
X23189725Y-22416580D02*
X23170677Y-22407057D01*
X23170677Y-22407057D02*
X23161153Y-22388009D01*
X23161153Y-22388009D02*
X23161153Y-22378485D01*
X23161153Y-22378485D02*
X23170677Y-22359438D01*
X23170677Y-22359438D02*
X23189725Y-22349914D01*
X23189725Y-22349914D02*
X23218296Y-22349914D01*
X23218296Y-22349914D02*
X23237344Y-22359438D01*
X23313534Y-22559438D02*
X23323058Y-22549914D01*
X23323058Y-22549914D02*
X23342106Y-22521342D01*
X23342106Y-22521342D02*
X23351629Y-22502295D01*
X23351629Y-22502295D02*
X23361153Y-22473723D01*
X23361153Y-22473723D02*
X23370677Y-22426104D01*
X23370677Y-22426104D02*
X23370677Y-22388009D01*
X23370677Y-22388009D02*
X23361153Y-22340390D01*
X23361153Y-22340390D02*
X23351629Y-22311819D01*
X23351629Y-22311819D02*
X23342106Y-22292771D01*
X23342106Y-22292771D02*
X23323058Y-22264200D01*
X23323058Y-22264200D02*
X23313534Y-22254676D01*
X23675439Y-22559438D02*
X23665915Y-22549914D01*
X23665915Y-22549914D02*
X23646867Y-22521342D01*
X23646867Y-22521342D02*
X23637344Y-22502295D01*
X23637344Y-22502295D02*
X23627820Y-22473723D01*
X23627820Y-22473723D02*
X23618296Y-22426104D01*
X23618296Y-22426104D02*
X23618296Y-22388009D01*
X23618296Y-22388009D02*
X23627820Y-22340390D01*
X23627820Y-22340390D02*
X23637344Y-22311819D01*
X23637344Y-22311819D02*
X23646867Y-22292771D01*
X23646867Y-22292771D02*
X23665915Y-22264200D01*
X23665915Y-22264200D02*
X23675439Y-22254676D01*
X23751629Y-22349914D02*
X23751629Y-22483247D01*
X23751629Y-22368961D02*
X23761153Y-22359438D01*
X23761153Y-22359438D02*
X23780201Y-22349914D01*
X23780201Y-22349914D02*
X23808772Y-22349914D01*
X23808772Y-22349914D02*
X23827820Y-22359438D01*
X23827820Y-22359438D02*
X23837344Y-22378485D01*
X23837344Y-22378485D02*
X23837344Y-22483247D01*
X23961153Y-22483247D02*
X23942106Y-22473723D01*
X23942106Y-22473723D02*
X23932582Y-22464199D01*
X23932582Y-22464199D02*
X23923058Y-22445152D01*
X23923058Y-22445152D02*
X23923058Y-22388009D01*
X23923058Y-22388009D02*
X23932582Y-22368961D01*
X23932582Y-22368961D02*
X23942106Y-22359438D01*
X23942106Y-22359438D02*
X23961153Y-22349914D01*
X23961153Y-22349914D02*
X23989725Y-22349914D01*
X23989725Y-22349914D02*
X24008772Y-22359438D01*
X24008772Y-22359438D02*
X24018296Y-22368961D01*
X24018296Y-22368961D02*
X24027820Y-22388009D01*
X24027820Y-22388009D02*
X24027820Y-22445152D01*
X24027820Y-22445152D02*
X24018296Y-22464199D01*
X24018296Y-22464199D02*
X24008772Y-22473723D01*
X24008772Y-22473723D02*
X23989725Y-22483247D01*
X23989725Y-22483247D02*
X23961153Y-22483247D01*
X24084963Y-22349914D02*
X24161153Y-22349914D01*
X24113534Y-22283247D02*
X24113534Y-22454676D01*
X24113534Y-22454676D02*
X24123058Y-22473723D01*
X24123058Y-22473723D02*
X24142106Y-22483247D01*
X24142106Y-22483247D02*
X24161153Y-22483247D01*
X24380201Y-22349914D02*
X24380201Y-22549914D01*
X24380201Y-22359438D02*
X24399248Y-22349914D01*
X24399248Y-22349914D02*
X24437344Y-22349914D01*
X24437344Y-22349914D02*
X24456391Y-22359438D01*
X24456391Y-22359438D02*
X24465915Y-22368961D01*
X24465915Y-22368961D02*
X24475439Y-22388009D01*
X24475439Y-22388009D02*
X24475439Y-22445152D01*
X24475439Y-22445152D02*
X24465915Y-22464199D01*
X24465915Y-22464199D02*
X24456391Y-22473723D01*
X24456391Y-22473723D02*
X24437344Y-22483247D01*
X24437344Y-22483247D02*
X24399248Y-22483247D01*
X24399248Y-22483247D02*
X24380201Y-22473723D01*
X24589725Y-22483247D02*
X24570677Y-22473723D01*
X24570677Y-22473723D02*
X24561153Y-22454676D01*
X24561153Y-22454676D02*
X24561153Y-22283247D01*
X24751629Y-22483247D02*
X24751629Y-22378485D01*
X24751629Y-22378485D02*
X24742106Y-22359438D01*
X24742106Y-22359438D02*
X24723058Y-22349914D01*
X24723058Y-22349914D02*
X24684963Y-22349914D01*
X24684963Y-22349914D02*
X24665915Y-22359438D01*
X24751629Y-22473723D02*
X24732582Y-22483247D01*
X24732582Y-22483247D02*
X24684963Y-22483247D01*
X24684963Y-22483247D02*
X24665915Y-22473723D01*
X24665915Y-22473723D02*
X24656391Y-22454676D01*
X24656391Y-22454676D02*
X24656391Y-22435628D01*
X24656391Y-22435628D02*
X24665915Y-22416580D01*
X24665915Y-22416580D02*
X24684963Y-22407057D01*
X24684963Y-22407057D02*
X24732582Y-22407057D01*
X24732582Y-22407057D02*
X24751629Y-22397533D01*
X24818296Y-22349914D02*
X24894487Y-22349914D01*
X24846868Y-22283247D02*
X24846868Y-22454676D01*
X24846868Y-22454676D02*
X24856391Y-22473723D01*
X24856391Y-22473723D02*
X24875439Y-22483247D01*
X24875439Y-22483247D02*
X24894487Y-22483247D01*
X25037344Y-22473723D02*
X25018296Y-22483247D01*
X25018296Y-22483247D02*
X24980201Y-22483247D01*
X24980201Y-22483247D02*
X24961153Y-22473723D01*
X24961153Y-22473723D02*
X24951629Y-22454676D01*
X24951629Y-22454676D02*
X24951629Y-22378485D01*
X24951629Y-22378485D02*
X24961153Y-22359438D01*
X24961153Y-22359438D02*
X24980201Y-22349914D01*
X24980201Y-22349914D02*
X25018296Y-22349914D01*
X25018296Y-22349914D02*
X25037344Y-22359438D01*
X25037344Y-22359438D02*
X25046868Y-22378485D01*
X25046868Y-22378485D02*
X25046868Y-22397533D01*
X25046868Y-22397533D02*
X24951629Y-22416580D01*
X25218296Y-22483247D02*
X25218296Y-22283247D01*
X25218296Y-22473723D02*
X25199249Y-22483247D01*
X25199249Y-22483247D02*
X25161153Y-22483247D01*
X25161153Y-22483247D02*
X25142106Y-22473723D01*
X25142106Y-22473723D02*
X25132582Y-22464199D01*
X25132582Y-22464199D02*
X25123058Y-22445152D01*
X25123058Y-22445152D02*
X25123058Y-22388009D01*
X25123058Y-22388009D02*
X25132582Y-22368961D01*
X25132582Y-22368961D02*
X25142106Y-22359438D01*
X25142106Y-22359438D02*
X25161153Y-22349914D01*
X25161153Y-22349914D02*
X25199249Y-22349914D01*
X25199249Y-22349914D02*
X25218296Y-22359438D01*
X25294487Y-22559438D02*
X25304010Y-22549914D01*
X25304010Y-22549914D02*
X25323058Y-22521342D01*
X25323058Y-22521342D02*
X25332582Y-22502295D01*
X25332582Y-22502295D02*
X25342106Y-22473723D01*
X25342106Y-22473723D02*
X25351629Y-22426104D01*
X25351629Y-22426104D02*
X25351629Y-22388009D01*
X25351629Y-22388009D02*
X25342106Y-22340390D01*
X25342106Y-22340390D02*
X25332582Y-22311819D01*
X25332582Y-22311819D02*
X25323058Y-22292771D01*
X25323058Y-22292771D02*
X25304010Y-22264200D01*
X25304010Y-22264200D02*
X25294487Y-22254676D01*
D13*
X18538471Y-22655763D02*
G75*
G03*
X18538471Y-22655763I-60000J0D01*
G01*
D11*
X18904010Y-22747247D02*
X18789724Y-22747247D01*
X18846867Y-22747247D02*
X18846867Y-22547247D01*
X18846867Y-22547247D02*
X18827819Y-22575819D01*
X18827819Y-22575819D02*
X18808772Y-22594866D01*
X18808772Y-22594866D02*
X18789724Y-22604390D01*
X18989724Y-22728199D02*
X18999248Y-22737723D01*
X18999248Y-22737723D02*
X18989724Y-22747247D01*
X18989724Y-22747247D02*
X18980200Y-22737723D01*
X18980200Y-22737723D02*
X18989724Y-22728199D01*
X18989724Y-22728199D02*
X18989724Y-22747247D01*
X19075439Y-22566295D02*
X19084962Y-22556771D01*
X19084962Y-22556771D02*
X19104010Y-22547247D01*
X19104010Y-22547247D02*
X19151629Y-22547247D01*
X19151629Y-22547247D02*
X19170677Y-22556771D01*
X19170677Y-22556771D02*
X19180200Y-22566295D01*
X19180200Y-22566295D02*
X19189724Y-22585342D01*
X19189724Y-22585342D02*
X19189724Y-22604390D01*
X19189724Y-22604390D02*
X19180200Y-22632961D01*
X19180200Y-22632961D02*
X19065915Y-22747247D01*
X19065915Y-22747247D02*
X19189724Y-22747247D01*
X19313534Y-22547247D02*
X19332581Y-22547247D01*
X19332581Y-22547247D02*
X19351629Y-22556771D01*
X19351629Y-22556771D02*
X19361153Y-22566295D01*
X19361153Y-22566295D02*
X19370677Y-22585342D01*
X19370677Y-22585342D02*
X19380200Y-22623438D01*
X19380200Y-22623438D02*
X19380200Y-22671057D01*
X19380200Y-22671057D02*
X19370677Y-22709152D01*
X19370677Y-22709152D02*
X19361153Y-22728199D01*
X19361153Y-22728199D02*
X19351629Y-22737723D01*
X19351629Y-22737723D02*
X19332581Y-22747247D01*
X19332581Y-22747247D02*
X19313534Y-22747247D01*
X19313534Y-22747247D02*
X19294486Y-22737723D01*
X19294486Y-22737723D02*
X19284962Y-22728199D01*
X19284962Y-22728199D02*
X19275439Y-22709152D01*
X19275439Y-22709152D02*
X19265915Y-22671057D01*
X19265915Y-22671057D02*
X19265915Y-22623438D01*
X19265915Y-22623438D02*
X19275439Y-22585342D01*
X19275439Y-22585342D02*
X19284962Y-22566295D01*
X19284962Y-22566295D02*
X19294486Y-22556771D01*
X19294486Y-22556771D02*
X19313534Y-22547247D01*
X19504010Y-22547247D02*
X19523058Y-22547247D01*
X19523058Y-22547247D02*
X19542105Y-22556771D01*
X19542105Y-22556771D02*
X19551629Y-22566295D01*
X19551629Y-22566295D02*
X19561153Y-22585342D01*
X19561153Y-22585342D02*
X19570677Y-22623438D01*
X19570677Y-22623438D02*
X19570677Y-22671057D01*
X19570677Y-22671057D02*
X19561153Y-22709152D01*
X19561153Y-22709152D02*
X19551629Y-22728199D01*
X19551629Y-22728199D02*
X19542105Y-22737723D01*
X19542105Y-22737723D02*
X19523058Y-22747247D01*
X19523058Y-22747247D02*
X19504010Y-22747247D01*
X19504010Y-22747247D02*
X19484962Y-22737723D01*
X19484962Y-22737723D02*
X19475439Y-22728199D01*
X19475439Y-22728199D02*
X19465915Y-22709152D01*
X19465915Y-22709152D02*
X19456391Y-22671057D01*
X19456391Y-22671057D02*
X19456391Y-22623438D01*
X19456391Y-22623438D02*
X19465915Y-22585342D01*
X19465915Y-22585342D02*
X19475439Y-22566295D01*
X19475439Y-22566295D02*
X19484962Y-22556771D01*
X19484962Y-22556771D02*
X19504010Y-22547247D01*
X19656391Y-22747247D02*
X19656391Y-22613914D01*
X19656391Y-22632961D02*
X19665915Y-22623438D01*
X19665915Y-22623438D02*
X19684962Y-22613914D01*
X19684962Y-22613914D02*
X19713534Y-22613914D01*
X19713534Y-22613914D02*
X19732581Y-22623438D01*
X19732581Y-22623438D02*
X19742105Y-22642485D01*
X19742105Y-22642485D02*
X19742105Y-22747247D01*
X19742105Y-22642485D02*
X19751629Y-22623438D01*
X19751629Y-22623438D02*
X19770677Y-22613914D01*
X19770677Y-22613914D02*
X19799248Y-22613914D01*
X19799248Y-22613914D02*
X19818296Y-22623438D01*
X19818296Y-22623438D02*
X19827820Y-22642485D01*
X19827820Y-22642485D02*
X19827820Y-22747247D01*
X19923058Y-22747247D02*
X19923058Y-22613914D01*
X19923058Y-22632961D02*
X19932581Y-22623438D01*
X19932581Y-22623438D02*
X19951629Y-22613914D01*
X19951629Y-22613914D02*
X19980201Y-22613914D01*
X19980201Y-22613914D02*
X19999248Y-22623438D01*
X19999248Y-22623438D02*
X20008772Y-22642485D01*
X20008772Y-22642485D02*
X20008772Y-22747247D01*
X20008772Y-22642485D02*
X20018296Y-22623438D01*
X20018296Y-22623438D02*
X20037343Y-22613914D01*
X20037343Y-22613914D02*
X20065915Y-22613914D01*
X20065915Y-22613914D02*
X20084962Y-22623438D01*
X20084962Y-22623438D02*
X20094486Y-22642485D01*
X20094486Y-22642485D02*
X20094486Y-22747247D01*
X20484962Y-22537723D02*
X20313534Y-22794866D01*
X20742105Y-22547247D02*
X20761153Y-22547247D01*
X20761153Y-22547247D02*
X20780201Y-22556771D01*
X20780201Y-22556771D02*
X20789724Y-22566295D01*
X20789724Y-22566295D02*
X20799248Y-22585342D01*
X20799248Y-22585342D02*
X20808772Y-22623438D01*
X20808772Y-22623438D02*
X20808772Y-22671057D01*
X20808772Y-22671057D02*
X20799248Y-22709152D01*
X20799248Y-22709152D02*
X20789724Y-22728199D01*
X20789724Y-22728199D02*
X20780201Y-22737723D01*
X20780201Y-22737723D02*
X20761153Y-22747247D01*
X20761153Y-22747247D02*
X20742105Y-22747247D01*
X20742105Y-22747247D02*
X20723058Y-22737723D01*
X20723058Y-22737723D02*
X20713534Y-22728199D01*
X20713534Y-22728199D02*
X20704010Y-22709152D01*
X20704010Y-22709152D02*
X20694486Y-22671057D01*
X20694486Y-22671057D02*
X20694486Y-22623438D01*
X20694486Y-22623438D02*
X20704010Y-22585342D01*
X20704010Y-22585342D02*
X20713534Y-22566295D01*
X20713534Y-22566295D02*
X20723058Y-22556771D01*
X20723058Y-22556771D02*
X20742105Y-22547247D01*
X20894486Y-22728199D02*
X20904010Y-22737723D01*
X20904010Y-22737723D02*
X20894486Y-22747247D01*
X20894486Y-22747247D02*
X20884963Y-22737723D01*
X20884963Y-22737723D02*
X20894486Y-22728199D01*
X20894486Y-22728199D02*
X20894486Y-22747247D01*
X21027820Y-22547247D02*
X21046867Y-22547247D01*
X21046867Y-22547247D02*
X21065915Y-22556771D01*
X21065915Y-22556771D02*
X21075439Y-22566295D01*
X21075439Y-22566295D02*
X21084963Y-22585342D01*
X21084963Y-22585342D02*
X21094486Y-22623438D01*
X21094486Y-22623438D02*
X21094486Y-22671057D01*
X21094486Y-22671057D02*
X21084963Y-22709152D01*
X21084963Y-22709152D02*
X21075439Y-22728199D01*
X21075439Y-22728199D02*
X21065915Y-22737723D01*
X21065915Y-22737723D02*
X21046867Y-22747247D01*
X21046867Y-22747247D02*
X21027820Y-22747247D01*
X21027820Y-22747247D02*
X21008772Y-22737723D01*
X21008772Y-22737723D02*
X20999248Y-22728199D01*
X20999248Y-22728199D02*
X20989724Y-22709152D01*
X20989724Y-22709152D02*
X20980201Y-22671057D01*
X20980201Y-22671057D02*
X20980201Y-22623438D01*
X20980201Y-22623438D02*
X20989724Y-22585342D01*
X20989724Y-22585342D02*
X20999248Y-22566295D01*
X20999248Y-22566295D02*
X21008772Y-22556771D01*
X21008772Y-22556771D02*
X21027820Y-22547247D01*
X21265915Y-22613914D02*
X21265915Y-22747247D01*
X21218296Y-22537723D02*
X21170677Y-22680580D01*
X21170677Y-22680580D02*
X21294486Y-22680580D01*
X21351629Y-22547247D02*
X21484963Y-22547247D01*
X21484963Y-22547247D02*
X21399248Y-22747247D01*
X21551629Y-22566295D02*
X21561153Y-22556771D01*
X21561153Y-22556771D02*
X21580201Y-22547247D01*
X21580201Y-22547247D02*
X21627820Y-22547247D01*
X21627820Y-22547247D02*
X21646867Y-22556771D01*
X21646867Y-22556771D02*
X21656391Y-22566295D01*
X21656391Y-22566295D02*
X21665915Y-22585342D01*
X21665915Y-22585342D02*
X21665915Y-22604390D01*
X21665915Y-22604390D02*
X21656391Y-22632961D01*
X21656391Y-22632961D02*
X21542105Y-22747247D01*
X21542105Y-22747247D02*
X21665915Y-22747247D01*
X21742105Y-22547247D02*
X21742105Y-22585342D01*
X21818296Y-22547247D02*
X21818296Y-22585342D01*
X22113534Y-22823438D02*
X22104010Y-22813914D01*
X22104010Y-22813914D02*
X22084963Y-22785342D01*
X22084963Y-22785342D02*
X22075439Y-22766295D01*
X22075439Y-22766295D02*
X22065915Y-22737723D01*
X22065915Y-22737723D02*
X22056391Y-22690104D01*
X22056391Y-22690104D02*
X22056391Y-22652009D01*
X22056391Y-22652009D02*
X22065915Y-22604390D01*
X22065915Y-22604390D02*
X22075439Y-22575819D01*
X22075439Y-22575819D02*
X22084963Y-22556771D01*
X22084963Y-22556771D02*
X22104010Y-22528199D01*
X22104010Y-22528199D02*
X22113534Y-22518676D01*
X22180201Y-22566295D02*
X22189725Y-22556771D01*
X22189725Y-22556771D02*
X22208772Y-22547247D01*
X22208772Y-22547247D02*
X22256391Y-22547247D01*
X22256391Y-22547247D02*
X22275439Y-22556771D01*
X22275439Y-22556771D02*
X22284963Y-22566295D01*
X22284963Y-22566295D02*
X22294486Y-22585342D01*
X22294486Y-22585342D02*
X22294486Y-22604390D01*
X22294486Y-22604390D02*
X22284963Y-22632961D01*
X22284963Y-22632961D02*
X22170677Y-22747247D01*
X22170677Y-22747247D02*
X22294486Y-22747247D01*
X22532582Y-22747247D02*
X22532582Y-22547247D01*
X22618296Y-22747247D02*
X22618296Y-22642485D01*
X22618296Y-22642485D02*
X22608772Y-22623438D01*
X22608772Y-22623438D02*
X22589725Y-22613914D01*
X22589725Y-22613914D02*
X22561153Y-22613914D01*
X22561153Y-22613914D02*
X22542105Y-22623438D01*
X22542105Y-22623438D02*
X22532582Y-22632961D01*
X22742105Y-22747247D02*
X22723058Y-22737723D01*
X22723058Y-22737723D02*
X22713534Y-22728199D01*
X22713534Y-22728199D02*
X22704010Y-22709152D01*
X22704010Y-22709152D02*
X22704010Y-22652009D01*
X22704010Y-22652009D02*
X22713534Y-22632961D01*
X22713534Y-22632961D02*
X22723058Y-22623438D01*
X22723058Y-22623438D02*
X22742105Y-22613914D01*
X22742105Y-22613914D02*
X22770677Y-22613914D01*
X22770677Y-22613914D02*
X22789725Y-22623438D01*
X22789725Y-22623438D02*
X22799248Y-22632961D01*
X22799248Y-22632961D02*
X22808772Y-22652009D01*
X22808772Y-22652009D02*
X22808772Y-22709152D01*
X22808772Y-22709152D02*
X22799248Y-22728199D01*
X22799248Y-22728199D02*
X22789725Y-22737723D01*
X22789725Y-22737723D02*
X22770677Y-22747247D01*
X22770677Y-22747247D02*
X22742105Y-22747247D01*
X22923058Y-22747247D02*
X22904010Y-22737723D01*
X22904010Y-22737723D02*
X22894486Y-22718676D01*
X22894486Y-22718676D02*
X22894486Y-22547247D01*
X23075439Y-22737723D02*
X23056391Y-22747247D01*
X23056391Y-22747247D02*
X23018296Y-22747247D01*
X23018296Y-22747247D02*
X22999248Y-22737723D01*
X22999248Y-22737723D02*
X22989725Y-22718676D01*
X22989725Y-22718676D02*
X22989725Y-22642485D01*
X22989725Y-22642485D02*
X22999248Y-22623438D01*
X22999248Y-22623438D02*
X23018296Y-22613914D01*
X23018296Y-22613914D02*
X23056391Y-22613914D01*
X23056391Y-22613914D02*
X23075439Y-22623438D01*
X23075439Y-22623438D02*
X23084963Y-22642485D01*
X23084963Y-22642485D02*
X23084963Y-22661533D01*
X23084963Y-22661533D02*
X22989725Y-22680580D01*
X23161153Y-22737723D02*
X23180201Y-22747247D01*
X23180201Y-22747247D02*
X23218296Y-22747247D01*
X23218296Y-22747247D02*
X23237344Y-22737723D01*
X23237344Y-22737723D02*
X23246867Y-22718676D01*
X23246867Y-22718676D02*
X23246867Y-22709152D01*
X23246867Y-22709152D02*
X23237344Y-22690104D01*
X23237344Y-22690104D02*
X23218296Y-22680580D01*
X23218296Y-22680580D02*
X23189725Y-22680580D01*
X23189725Y-22680580D02*
X23170677Y-22671057D01*
X23170677Y-22671057D02*
X23161153Y-22652009D01*
X23161153Y-22652009D02*
X23161153Y-22642485D01*
X23161153Y-22642485D02*
X23170677Y-22623438D01*
X23170677Y-22623438D02*
X23189725Y-22613914D01*
X23189725Y-22613914D02*
X23218296Y-22613914D01*
X23218296Y-22613914D02*
X23237344Y-22623438D01*
X23313534Y-22823438D02*
X23323058Y-22813914D01*
X23323058Y-22813914D02*
X23342106Y-22785342D01*
X23342106Y-22785342D02*
X23351629Y-22766295D01*
X23351629Y-22766295D02*
X23361153Y-22737723D01*
X23361153Y-22737723D02*
X23370677Y-22690104D01*
X23370677Y-22690104D02*
X23370677Y-22652009D01*
X23370677Y-22652009D02*
X23361153Y-22604390D01*
X23361153Y-22604390D02*
X23351629Y-22575819D01*
X23351629Y-22575819D02*
X23342106Y-22556771D01*
X23342106Y-22556771D02*
X23323058Y-22528199D01*
X23323058Y-22528199D02*
X23313534Y-22518676D01*
X23675439Y-22823438D02*
X23665915Y-22813914D01*
X23665915Y-22813914D02*
X23646867Y-22785342D01*
X23646867Y-22785342D02*
X23637344Y-22766295D01*
X23637344Y-22766295D02*
X23627820Y-22737723D01*
X23627820Y-22737723D02*
X23618296Y-22690104D01*
X23618296Y-22690104D02*
X23618296Y-22652009D01*
X23618296Y-22652009D02*
X23627820Y-22604390D01*
X23627820Y-22604390D02*
X23637344Y-22575819D01*
X23637344Y-22575819D02*
X23646867Y-22556771D01*
X23646867Y-22556771D02*
X23665915Y-22528199D01*
X23665915Y-22528199D02*
X23675439Y-22518676D01*
X23751629Y-22613914D02*
X23751629Y-22747247D01*
X23751629Y-22632961D02*
X23761153Y-22623438D01*
X23761153Y-22623438D02*
X23780201Y-22613914D01*
X23780201Y-22613914D02*
X23808772Y-22613914D01*
X23808772Y-22613914D02*
X23827820Y-22623438D01*
X23827820Y-22623438D02*
X23837344Y-22642485D01*
X23837344Y-22642485D02*
X23837344Y-22747247D01*
X23961153Y-22747247D02*
X23942106Y-22737723D01*
X23942106Y-22737723D02*
X23932582Y-22728199D01*
X23932582Y-22728199D02*
X23923058Y-22709152D01*
X23923058Y-22709152D02*
X23923058Y-22652009D01*
X23923058Y-22652009D02*
X23932582Y-22632961D01*
X23932582Y-22632961D02*
X23942106Y-22623438D01*
X23942106Y-22623438D02*
X23961153Y-22613914D01*
X23961153Y-22613914D02*
X23989725Y-22613914D01*
X23989725Y-22613914D02*
X24008772Y-22623438D01*
X24008772Y-22623438D02*
X24018296Y-22632961D01*
X24018296Y-22632961D02*
X24027820Y-22652009D01*
X24027820Y-22652009D02*
X24027820Y-22709152D01*
X24027820Y-22709152D02*
X24018296Y-22728199D01*
X24018296Y-22728199D02*
X24008772Y-22737723D01*
X24008772Y-22737723D02*
X23989725Y-22747247D01*
X23989725Y-22747247D02*
X23961153Y-22747247D01*
X24084963Y-22613914D02*
X24161153Y-22613914D01*
X24113534Y-22547247D02*
X24113534Y-22718676D01*
X24113534Y-22718676D02*
X24123058Y-22737723D01*
X24123058Y-22737723D02*
X24142106Y-22747247D01*
X24142106Y-22747247D02*
X24161153Y-22747247D01*
X24380201Y-22613914D02*
X24380201Y-22813914D01*
X24380201Y-22623438D02*
X24399248Y-22613914D01*
X24399248Y-22613914D02*
X24437344Y-22613914D01*
X24437344Y-22613914D02*
X24456391Y-22623438D01*
X24456391Y-22623438D02*
X24465915Y-22632961D01*
X24465915Y-22632961D02*
X24475439Y-22652009D01*
X24475439Y-22652009D02*
X24475439Y-22709152D01*
X24475439Y-22709152D02*
X24465915Y-22728199D01*
X24465915Y-22728199D02*
X24456391Y-22737723D01*
X24456391Y-22737723D02*
X24437344Y-22747247D01*
X24437344Y-22747247D02*
X24399248Y-22747247D01*
X24399248Y-22747247D02*
X24380201Y-22737723D01*
X24589725Y-22747247D02*
X24570677Y-22737723D01*
X24570677Y-22737723D02*
X24561153Y-22718676D01*
X24561153Y-22718676D02*
X24561153Y-22547247D01*
X24751629Y-22747247D02*
X24751629Y-22642485D01*
X24751629Y-22642485D02*
X24742106Y-22623438D01*
X24742106Y-22623438D02*
X24723058Y-22613914D01*
X24723058Y-22613914D02*
X24684963Y-22613914D01*
X24684963Y-22613914D02*
X24665915Y-22623438D01*
X24751629Y-22737723D02*
X24732582Y-22747247D01*
X24732582Y-22747247D02*
X24684963Y-22747247D01*
X24684963Y-22747247D02*
X24665915Y-22737723D01*
X24665915Y-22737723D02*
X24656391Y-22718676D01*
X24656391Y-22718676D02*
X24656391Y-22699628D01*
X24656391Y-22699628D02*
X24665915Y-22680580D01*
X24665915Y-22680580D02*
X24684963Y-22671057D01*
X24684963Y-22671057D02*
X24732582Y-22671057D01*
X24732582Y-22671057D02*
X24751629Y-22661533D01*
X24818296Y-22613914D02*
X24894487Y-22613914D01*
X24846868Y-22547247D02*
X24846868Y-22718676D01*
X24846868Y-22718676D02*
X24856391Y-22737723D01*
X24856391Y-22737723D02*
X24875439Y-22747247D01*
X24875439Y-22747247D02*
X24894487Y-22747247D01*
X25037344Y-22737723D02*
X25018296Y-22747247D01*
X25018296Y-22747247D02*
X24980201Y-22747247D01*
X24980201Y-22747247D02*
X24961153Y-22737723D01*
X24961153Y-22737723D02*
X24951629Y-22718676D01*
X24951629Y-22718676D02*
X24951629Y-22642485D01*
X24951629Y-22642485D02*
X24961153Y-22623438D01*
X24961153Y-22623438D02*
X24980201Y-22613914D01*
X24980201Y-22613914D02*
X25018296Y-22613914D01*
X25018296Y-22613914D02*
X25037344Y-22623438D01*
X25037344Y-22623438D02*
X25046868Y-22642485D01*
X25046868Y-22642485D02*
X25046868Y-22661533D01*
X25046868Y-22661533D02*
X24951629Y-22680580D01*
X25218296Y-22747247D02*
X25218296Y-22547247D01*
X25218296Y-22737723D02*
X25199249Y-22747247D01*
X25199249Y-22747247D02*
X25161153Y-22747247D01*
X25161153Y-22747247D02*
X25142106Y-22737723D01*
X25142106Y-22737723D02*
X25132582Y-22728199D01*
X25132582Y-22728199D02*
X25123058Y-22709152D01*
X25123058Y-22709152D02*
X25123058Y-22652009D01*
X25123058Y-22652009D02*
X25132582Y-22632961D01*
X25132582Y-22632961D02*
X25142106Y-22623438D01*
X25142106Y-22623438D02*
X25161153Y-22613914D01*
X25161153Y-22613914D02*
X25199249Y-22613914D01*
X25199249Y-22613914D02*
X25218296Y-22623438D01*
X25294487Y-22823438D02*
X25304010Y-22813914D01*
X25304010Y-22813914D02*
X25323058Y-22785342D01*
X25323058Y-22785342D02*
X25332582Y-22766295D01*
X25332582Y-22766295D02*
X25342106Y-22737723D01*
X25342106Y-22737723D02*
X25351629Y-22690104D01*
X25351629Y-22690104D02*
X25351629Y-22652009D01*
X25351629Y-22652009D02*
X25342106Y-22604390D01*
X25342106Y-22604390D02*
X25332582Y-22575819D01*
X25332582Y-22575819D02*
X25323058Y-22556771D01*
X25323058Y-22556771D02*
X25304010Y-22528199D01*
X25304010Y-22528199D02*
X25294487Y-22518676D01*
X18438471Y-22819763D02*
X18438471Y-23019763D01*
X18338471Y-22919763D02*
X18538471Y-22919763D01*
X18780200Y-22811247D02*
X18904010Y-22811247D01*
X18904010Y-22811247D02*
X18837343Y-22887438D01*
X18837343Y-22887438D02*
X18865915Y-22887438D01*
X18865915Y-22887438D02*
X18884962Y-22896961D01*
X18884962Y-22896961D02*
X18894486Y-22906485D01*
X18894486Y-22906485D02*
X18904010Y-22925533D01*
X18904010Y-22925533D02*
X18904010Y-22973152D01*
X18904010Y-22973152D02*
X18894486Y-22992199D01*
X18894486Y-22992199D02*
X18884962Y-23001723D01*
X18884962Y-23001723D02*
X18865915Y-23011247D01*
X18865915Y-23011247D02*
X18808772Y-23011247D01*
X18808772Y-23011247D02*
X18789724Y-23001723D01*
X18789724Y-23001723D02*
X18780200Y-22992199D01*
X18989724Y-22992199D02*
X18999248Y-23001723D01*
X18999248Y-23001723D02*
X18989724Y-23011247D01*
X18989724Y-23011247D02*
X18980200Y-23001723D01*
X18980200Y-23001723D02*
X18989724Y-22992199D01*
X18989724Y-22992199D02*
X18989724Y-23011247D01*
X19075439Y-22830295D02*
X19084962Y-22820771D01*
X19084962Y-22820771D02*
X19104010Y-22811247D01*
X19104010Y-22811247D02*
X19151629Y-22811247D01*
X19151629Y-22811247D02*
X19170677Y-22820771D01*
X19170677Y-22820771D02*
X19180200Y-22830295D01*
X19180200Y-22830295D02*
X19189724Y-22849342D01*
X19189724Y-22849342D02*
X19189724Y-22868390D01*
X19189724Y-22868390D02*
X19180200Y-22896961D01*
X19180200Y-22896961D02*
X19065915Y-23011247D01*
X19065915Y-23011247D02*
X19189724Y-23011247D01*
X19313534Y-22811247D02*
X19332581Y-22811247D01*
X19332581Y-22811247D02*
X19351629Y-22820771D01*
X19351629Y-22820771D02*
X19361153Y-22830295D01*
X19361153Y-22830295D02*
X19370677Y-22849342D01*
X19370677Y-22849342D02*
X19380200Y-22887438D01*
X19380200Y-22887438D02*
X19380200Y-22935057D01*
X19380200Y-22935057D02*
X19370677Y-22973152D01*
X19370677Y-22973152D02*
X19361153Y-22992199D01*
X19361153Y-22992199D02*
X19351629Y-23001723D01*
X19351629Y-23001723D02*
X19332581Y-23011247D01*
X19332581Y-23011247D02*
X19313534Y-23011247D01*
X19313534Y-23011247D02*
X19294486Y-23001723D01*
X19294486Y-23001723D02*
X19284962Y-22992199D01*
X19284962Y-22992199D02*
X19275439Y-22973152D01*
X19275439Y-22973152D02*
X19265915Y-22935057D01*
X19265915Y-22935057D02*
X19265915Y-22887438D01*
X19265915Y-22887438D02*
X19275439Y-22849342D01*
X19275439Y-22849342D02*
X19284962Y-22830295D01*
X19284962Y-22830295D02*
X19294486Y-22820771D01*
X19294486Y-22820771D02*
X19313534Y-22811247D01*
X19504010Y-22811247D02*
X19523058Y-22811247D01*
X19523058Y-22811247D02*
X19542105Y-22820771D01*
X19542105Y-22820771D02*
X19551629Y-22830295D01*
X19551629Y-22830295D02*
X19561153Y-22849342D01*
X19561153Y-22849342D02*
X19570677Y-22887438D01*
X19570677Y-22887438D02*
X19570677Y-22935057D01*
X19570677Y-22935057D02*
X19561153Y-22973152D01*
X19561153Y-22973152D02*
X19551629Y-22992199D01*
X19551629Y-22992199D02*
X19542105Y-23001723D01*
X19542105Y-23001723D02*
X19523058Y-23011247D01*
X19523058Y-23011247D02*
X19504010Y-23011247D01*
X19504010Y-23011247D02*
X19484962Y-23001723D01*
X19484962Y-23001723D02*
X19475439Y-22992199D01*
X19475439Y-22992199D02*
X19465915Y-22973152D01*
X19465915Y-22973152D02*
X19456391Y-22935057D01*
X19456391Y-22935057D02*
X19456391Y-22887438D01*
X19456391Y-22887438D02*
X19465915Y-22849342D01*
X19465915Y-22849342D02*
X19475439Y-22830295D01*
X19475439Y-22830295D02*
X19484962Y-22820771D01*
X19484962Y-22820771D02*
X19504010Y-22811247D01*
X19656391Y-23011247D02*
X19656391Y-22877914D01*
X19656391Y-22896961D02*
X19665915Y-22887438D01*
X19665915Y-22887438D02*
X19684962Y-22877914D01*
X19684962Y-22877914D02*
X19713534Y-22877914D01*
X19713534Y-22877914D02*
X19732581Y-22887438D01*
X19732581Y-22887438D02*
X19742105Y-22906485D01*
X19742105Y-22906485D02*
X19742105Y-23011247D01*
X19742105Y-22906485D02*
X19751629Y-22887438D01*
X19751629Y-22887438D02*
X19770677Y-22877914D01*
X19770677Y-22877914D02*
X19799248Y-22877914D01*
X19799248Y-22877914D02*
X19818296Y-22887438D01*
X19818296Y-22887438D02*
X19827820Y-22906485D01*
X19827820Y-22906485D02*
X19827820Y-23011247D01*
X19923058Y-23011247D02*
X19923058Y-22877914D01*
X19923058Y-22896961D02*
X19932581Y-22887438D01*
X19932581Y-22887438D02*
X19951629Y-22877914D01*
X19951629Y-22877914D02*
X19980201Y-22877914D01*
X19980201Y-22877914D02*
X19999248Y-22887438D01*
X19999248Y-22887438D02*
X20008772Y-22906485D01*
X20008772Y-22906485D02*
X20008772Y-23011247D01*
X20008772Y-22906485D02*
X20018296Y-22887438D01*
X20018296Y-22887438D02*
X20037343Y-22877914D01*
X20037343Y-22877914D02*
X20065915Y-22877914D01*
X20065915Y-22877914D02*
X20084962Y-22887438D01*
X20084962Y-22887438D02*
X20094486Y-22906485D01*
X20094486Y-22906485D02*
X20094486Y-23011247D01*
X20484962Y-22801723D02*
X20313534Y-23058866D01*
X20742105Y-22811247D02*
X20761153Y-22811247D01*
X20761153Y-22811247D02*
X20780201Y-22820771D01*
X20780201Y-22820771D02*
X20789724Y-22830295D01*
X20789724Y-22830295D02*
X20799248Y-22849342D01*
X20799248Y-22849342D02*
X20808772Y-22887438D01*
X20808772Y-22887438D02*
X20808772Y-22935057D01*
X20808772Y-22935057D02*
X20799248Y-22973152D01*
X20799248Y-22973152D02*
X20789724Y-22992199D01*
X20789724Y-22992199D02*
X20780201Y-23001723D01*
X20780201Y-23001723D02*
X20761153Y-23011247D01*
X20761153Y-23011247D02*
X20742105Y-23011247D01*
X20742105Y-23011247D02*
X20723058Y-23001723D01*
X20723058Y-23001723D02*
X20713534Y-22992199D01*
X20713534Y-22992199D02*
X20704010Y-22973152D01*
X20704010Y-22973152D02*
X20694486Y-22935057D01*
X20694486Y-22935057D02*
X20694486Y-22887438D01*
X20694486Y-22887438D02*
X20704010Y-22849342D01*
X20704010Y-22849342D02*
X20713534Y-22830295D01*
X20713534Y-22830295D02*
X20723058Y-22820771D01*
X20723058Y-22820771D02*
X20742105Y-22811247D01*
X20894486Y-22992199D02*
X20904010Y-23001723D01*
X20904010Y-23001723D02*
X20894486Y-23011247D01*
X20894486Y-23011247D02*
X20884963Y-23001723D01*
X20884963Y-23001723D02*
X20894486Y-22992199D01*
X20894486Y-22992199D02*
X20894486Y-23011247D01*
X21094486Y-23011247D02*
X20980201Y-23011247D01*
X21037343Y-23011247D02*
X21037343Y-22811247D01*
X21037343Y-22811247D02*
X21018296Y-22839819D01*
X21018296Y-22839819D02*
X20999248Y-22858866D01*
X20999248Y-22858866D02*
X20980201Y-22868390D01*
X21170677Y-22830295D02*
X21180201Y-22820771D01*
X21180201Y-22820771D02*
X21199248Y-22811247D01*
X21199248Y-22811247D02*
X21246867Y-22811247D01*
X21246867Y-22811247D02*
X21265915Y-22820771D01*
X21265915Y-22820771D02*
X21275439Y-22830295D01*
X21275439Y-22830295D02*
X21284963Y-22849342D01*
X21284963Y-22849342D02*
X21284963Y-22868390D01*
X21284963Y-22868390D02*
X21275439Y-22896961D01*
X21275439Y-22896961D02*
X21161153Y-23011247D01*
X21161153Y-23011247D02*
X21284963Y-23011247D01*
X21456391Y-22811247D02*
X21418296Y-22811247D01*
X21418296Y-22811247D02*
X21399248Y-22820771D01*
X21399248Y-22820771D02*
X21389724Y-22830295D01*
X21389724Y-22830295D02*
X21370677Y-22858866D01*
X21370677Y-22858866D02*
X21361153Y-22896961D01*
X21361153Y-22896961D02*
X21361153Y-22973152D01*
X21361153Y-22973152D02*
X21370677Y-22992199D01*
X21370677Y-22992199D02*
X21380201Y-23001723D01*
X21380201Y-23001723D02*
X21399248Y-23011247D01*
X21399248Y-23011247D02*
X21437344Y-23011247D01*
X21437344Y-23011247D02*
X21456391Y-23001723D01*
X21456391Y-23001723D02*
X21465915Y-22992199D01*
X21465915Y-22992199D02*
X21475439Y-22973152D01*
X21475439Y-22973152D02*
X21475439Y-22925533D01*
X21475439Y-22925533D02*
X21465915Y-22906485D01*
X21465915Y-22906485D02*
X21456391Y-22896961D01*
X21456391Y-22896961D02*
X21437344Y-22887438D01*
X21437344Y-22887438D02*
X21399248Y-22887438D01*
X21399248Y-22887438D02*
X21380201Y-22896961D01*
X21380201Y-22896961D02*
X21370677Y-22906485D01*
X21370677Y-22906485D02*
X21361153Y-22925533D01*
X21599248Y-22811247D02*
X21618296Y-22811247D01*
X21618296Y-22811247D02*
X21637344Y-22820771D01*
X21637344Y-22820771D02*
X21646867Y-22830295D01*
X21646867Y-22830295D02*
X21656391Y-22849342D01*
X21656391Y-22849342D02*
X21665915Y-22887438D01*
X21665915Y-22887438D02*
X21665915Y-22935057D01*
X21665915Y-22935057D02*
X21656391Y-22973152D01*
X21656391Y-22973152D02*
X21646867Y-22992199D01*
X21646867Y-22992199D02*
X21637344Y-23001723D01*
X21637344Y-23001723D02*
X21618296Y-23011247D01*
X21618296Y-23011247D02*
X21599248Y-23011247D01*
X21599248Y-23011247D02*
X21580201Y-23001723D01*
X21580201Y-23001723D02*
X21570677Y-22992199D01*
X21570677Y-22992199D02*
X21561153Y-22973152D01*
X21561153Y-22973152D02*
X21551629Y-22935057D01*
X21551629Y-22935057D02*
X21551629Y-22887438D01*
X21551629Y-22887438D02*
X21561153Y-22849342D01*
X21561153Y-22849342D02*
X21570677Y-22830295D01*
X21570677Y-22830295D02*
X21580201Y-22820771D01*
X21580201Y-22820771D02*
X21599248Y-22811247D01*
X21742105Y-22811247D02*
X21742105Y-22849342D01*
X21818296Y-22811247D02*
X21818296Y-22849342D01*
X22113534Y-23087438D02*
X22104010Y-23077914D01*
X22104010Y-23077914D02*
X22084963Y-23049342D01*
X22084963Y-23049342D02*
X22075439Y-23030295D01*
X22075439Y-23030295D02*
X22065915Y-23001723D01*
X22065915Y-23001723D02*
X22056391Y-22954104D01*
X22056391Y-22954104D02*
X22056391Y-22916009D01*
X22056391Y-22916009D02*
X22065915Y-22868390D01*
X22065915Y-22868390D02*
X22075439Y-22839819D01*
X22075439Y-22839819D02*
X22084963Y-22820771D01*
X22084963Y-22820771D02*
X22104010Y-22792199D01*
X22104010Y-22792199D02*
X22113534Y-22782676D01*
X22170677Y-22811247D02*
X22294486Y-22811247D01*
X22294486Y-22811247D02*
X22227820Y-22887438D01*
X22227820Y-22887438D02*
X22256391Y-22887438D01*
X22256391Y-22887438D02*
X22275439Y-22896961D01*
X22275439Y-22896961D02*
X22284963Y-22906485D01*
X22284963Y-22906485D02*
X22294486Y-22925533D01*
X22294486Y-22925533D02*
X22294486Y-22973152D01*
X22294486Y-22973152D02*
X22284963Y-22992199D01*
X22284963Y-22992199D02*
X22275439Y-23001723D01*
X22275439Y-23001723D02*
X22256391Y-23011247D01*
X22256391Y-23011247D02*
X22199248Y-23011247D01*
X22199248Y-23011247D02*
X22180201Y-23001723D01*
X22180201Y-23001723D02*
X22170677Y-22992199D01*
X22532582Y-23011247D02*
X22532582Y-22811247D01*
X22618296Y-23011247D02*
X22618296Y-22906485D01*
X22618296Y-22906485D02*
X22608772Y-22887438D01*
X22608772Y-22887438D02*
X22589725Y-22877914D01*
X22589725Y-22877914D02*
X22561153Y-22877914D01*
X22561153Y-22877914D02*
X22542105Y-22887438D01*
X22542105Y-22887438D02*
X22532582Y-22896961D01*
X22742105Y-23011247D02*
X22723058Y-23001723D01*
X22723058Y-23001723D02*
X22713534Y-22992199D01*
X22713534Y-22992199D02*
X22704010Y-22973152D01*
X22704010Y-22973152D02*
X22704010Y-22916009D01*
X22704010Y-22916009D02*
X22713534Y-22896961D01*
X22713534Y-22896961D02*
X22723058Y-22887438D01*
X22723058Y-22887438D02*
X22742105Y-22877914D01*
X22742105Y-22877914D02*
X22770677Y-22877914D01*
X22770677Y-22877914D02*
X22789725Y-22887438D01*
X22789725Y-22887438D02*
X22799248Y-22896961D01*
X22799248Y-22896961D02*
X22808772Y-22916009D01*
X22808772Y-22916009D02*
X22808772Y-22973152D01*
X22808772Y-22973152D02*
X22799248Y-22992199D01*
X22799248Y-22992199D02*
X22789725Y-23001723D01*
X22789725Y-23001723D02*
X22770677Y-23011247D01*
X22770677Y-23011247D02*
X22742105Y-23011247D01*
X22923058Y-23011247D02*
X22904010Y-23001723D01*
X22904010Y-23001723D02*
X22894486Y-22982676D01*
X22894486Y-22982676D02*
X22894486Y-22811247D01*
X23075439Y-23001723D02*
X23056391Y-23011247D01*
X23056391Y-23011247D02*
X23018296Y-23011247D01*
X23018296Y-23011247D02*
X22999248Y-23001723D01*
X22999248Y-23001723D02*
X22989725Y-22982676D01*
X22989725Y-22982676D02*
X22989725Y-22906485D01*
X22989725Y-22906485D02*
X22999248Y-22887438D01*
X22999248Y-22887438D02*
X23018296Y-22877914D01*
X23018296Y-22877914D02*
X23056391Y-22877914D01*
X23056391Y-22877914D02*
X23075439Y-22887438D01*
X23075439Y-22887438D02*
X23084963Y-22906485D01*
X23084963Y-22906485D02*
X23084963Y-22925533D01*
X23084963Y-22925533D02*
X22989725Y-22944580D01*
X23161153Y-23001723D02*
X23180201Y-23011247D01*
X23180201Y-23011247D02*
X23218296Y-23011247D01*
X23218296Y-23011247D02*
X23237344Y-23001723D01*
X23237344Y-23001723D02*
X23246867Y-22982676D01*
X23246867Y-22982676D02*
X23246867Y-22973152D01*
X23246867Y-22973152D02*
X23237344Y-22954104D01*
X23237344Y-22954104D02*
X23218296Y-22944580D01*
X23218296Y-22944580D02*
X23189725Y-22944580D01*
X23189725Y-22944580D02*
X23170677Y-22935057D01*
X23170677Y-22935057D02*
X23161153Y-22916009D01*
X23161153Y-22916009D02*
X23161153Y-22906485D01*
X23161153Y-22906485D02*
X23170677Y-22887438D01*
X23170677Y-22887438D02*
X23189725Y-22877914D01*
X23189725Y-22877914D02*
X23218296Y-22877914D01*
X23218296Y-22877914D02*
X23237344Y-22887438D01*
X23313534Y-23087438D02*
X23323058Y-23077914D01*
X23323058Y-23077914D02*
X23342106Y-23049342D01*
X23342106Y-23049342D02*
X23351629Y-23030295D01*
X23351629Y-23030295D02*
X23361153Y-23001723D01*
X23361153Y-23001723D02*
X23370677Y-22954104D01*
X23370677Y-22954104D02*
X23370677Y-22916009D01*
X23370677Y-22916009D02*
X23361153Y-22868390D01*
X23361153Y-22868390D02*
X23351629Y-22839819D01*
X23351629Y-22839819D02*
X23342106Y-22820771D01*
X23342106Y-22820771D02*
X23323058Y-22792199D01*
X23323058Y-22792199D02*
X23313534Y-22782676D01*
X23675439Y-23087438D02*
X23665915Y-23077914D01*
X23665915Y-23077914D02*
X23646867Y-23049342D01*
X23646867Y-23049342D02*
X23637344Y-23030295D01*
X23637344Y-23030295D02*
X23627820Y-23001723D01*
X23627820Y-23001723D02*
X23618296Y-22954104D01*
X23618296Y-22954104D02*
X23618296Y-22916009D01*
X23618296Y-22916009D02*
X23627820Y-22868390D01*
X23627820Y-22868390D02*
X23637344Y-22839819D01*
X23637344Y-22839819D02*
X23646867Y-22820771D01*
X23646867Y-22820771D02*
X23665915Y-22792199D01*
X23665915Y-22792199D02*
X23675439Y-22782676D01*
X23751629Y-22877914D02*
X23751629Y-23011247D01*
X23751629Y-22896961D02*
X23761153Y-22887438D01*
X23761153Y-22887438D02*
X23780201Y-22877914D01*
X23780201Y-22877914D02*
X23808772Y-22877914D01*
X23808772Y-22877914D02*
X23827820Y-22887438D01*
X23827820Y-22887438D02*
X23837344Y-22906485D01*
X23837344Y-22906485D02*
X23837344Y-23011247D01*
X23961153Y-23011247D02*
X23942106Y-23001723D01*
X23942106Y-23001723D02*
X23932582Y-22992199D01*
X23932582Y-22992199D02*
X23923058Y-22973152D01*
X23923058Y-22973152D02*
X23923058Y-22916009D01*
X23923058Y-22916009D02*
X23932582Y-22896961D01*
X23932582Y-22896961D02*
X23942106Y-22887438D01*
X23942106Y-22887438D02*
X23961153Y-22877914D01*
X23961153Y-22877914D02*
X23989725Y-22877914D01*
X23989725Y-22877914D02*
X24008772Y-22887438D01*
X24008772Y-22887438D02*
X24018296Y-22896961D01*
X24018296Y-22896961D02*
X24027820Y-22916009D01*
X24027820Y-22916009D02*
X24027820Y-22973152D01*
X24027820Y-22973152D02*
X24018296Y-22992199D01*
X24018296Y-22992199D02*
X24008772Y-23001723D01*
X24008772Y-23001723D02*
X23989725Y-23011247D01*
X23989725Y-23011247D02*
X23961153Y-23011247D01*
X24084963Y-22877914D02*
X24161153Y-22877914D01*
X24113534Y-22811247D02*
X24113534Y-22982676D01*
X24113534Y-22982676D02*
X24123058Y-23001723D01*
X24123058Y-23001723D02*
X24142106Y-23011247D01*
X24142106Y-23011247D02*
X24161153Y-23011247D01*
X24380201Y-22877914D02*
X24380201Y-23077914D01*
X24380201Y-22887438D02*
X24399248Y-22877914D01*
X24399248Y-22877914D02*
X24437344Y-22877914D01*
X24437344Y-22877914D02*
X24456391Y-22887438D01*
X24456391Y-22887438D02*
X24465915Y-22896961D01*
X24465915Y-22896961D02*
X24475439Y-22916009D01*
X24475439Y-22916009D02*
X24475439Y-22973152D01*
X24475439Y-22973152D02*
X24465915Y-22992199D01*
X24465915Y-22992199D02*
X24456391Y-23001723D01*
X24456391Y-23001723D02*
X24437344Y-23011247D01*
X24437344Y-23011247D02*
X24399248Y-23011247D01*
X24399248Y-23011247D02*
X24380201Y-23001723D01*
X24589725Y-23011247D02*
X24570677Y-23001723D01*
X24570677Y-23001723D02*
X24561153Y-22982676D01*
X24561153Y-22982676D02*
X24561153Y-22811247D01*
X24751629Y-23011247D02*
X24751629Y-22906485D01*
X24751629Y-22906485D02*
X24742106Y-22887438D01*
X24742106Y-22887438D02*
X24723058Y-22877914D01*
X24723058Y-22877914D02*
X24684963Y-22877914D01*
X24684963Y-22877914D02*
X24665915Y-22887438D01*
X24751629Y-23001723D02*
X24732582Y-23011247D01*
X24732582Y-23011247D02*
X24684963Y-23011247D01*
X24684963Y-23011247D02*
X24665915Y-23001723D01*
X24665915Y-23001723D02*
X24656391Y-22982676D01*
X24656391Y-22982676D02*
X24656391Y-22963628D01*
X24656391Y-22963628D02*
X24665915Y-22944580D01*
X24665915Y-22944580D02*
X24684963Y-22935057D01*
X24684963Y-22935057D02*
X24732582Y-22935057D01*
X24732582Y-22935057D02*
X24751629Y-22925533D01*
X24818296Y-22877914D02*
X24894487Y-22877914D01*
X24846868Y-22811247D02*
X24846868Y-22982676D01*
X24846868Y-22982676D02*
X24856391Y-23001723D01*
X24856391Y-23001723D02*
X24875439Y-23011247D01*
X24875439Y-23011247D02*
X24894487Y-23011247D01*
X25037344Y-23001723D02*
X25018296Y-23011247D01*
X25018296Y-23011247D02*
X24980201Y-23011247D01*
X24980201Y-23011247D02*
X24961153Y-23001723D01*
X24961153Y-23001723D02*
X24951629Y-22982676D01*
X24951629Y-22982676D02*
X24951629Y-22906485D01*
X24951629Y-22906485D02*
X24961153Y-22887438D01*
X24961153Y-22887438D02*
X24980201Y-22877914D01*
X24980201Y-22877914D02*
X25018296Y-22877914D01*
X25018296Y-22877914D02*
X25037344Y-22887438D01*
X25037344Y-22887438D02*
X25046868Y-22906485D01*
X25046868Y-22906485D02*
X25046868Y-22925533D01*
X25046868Y-22925533D02*
X24951629Y-22944580D01*
X25218296Y-23011247D02*
X25218296Y-22811247D01*
X25218296Y-23001723D02*
X25199249Y-23011247D01*
X25199249Y-23011247D02*
X25161153Y-23011247D01*
X25161153Y-23011247D02*
X25142106Y-23001723D01*
X25142106Y-23001723D02*
X25132582Y-22992199D01*
X25132582Y-22992199D02*
X25123058Y-22973152D01*
X25123058Y-22973152D02*
X25123058Y-22916009D01*
X25123058Y-22916009D02*
X25132582Y-22896961D01*
X25132582Y-22896961D02*
X25142106Y-22887438D01*
X25142106Y-22887438D02*
X25161153Y-22877914D01*
X25161153Y-22877914D02*
X25199249Y-22877914D01*
X25199249Y-22877914D02*
X25218296Y-22887438D01*
X25294487Y-23087438D02*
X25304010Y-23077914D01*
X25304010Y-23077914D02*
X25323058Y-23049342D01*
X25323058Y-23049342D02*
X25332582Y-23030295D01*
X25332582Y-23030295D02*
X25342106Y-23001723D01*
X25342106Y-23001723D02*
X25351629Y-22954104D01*
X25351629Y-22954104D02*
X25351629Y-22916009D01*
X25351629Y-22916009D02*
X25342106Y-22868390D01*
X25342106Y-22868390D02*
X25332582Y-22839819D01*
X25332582Y-22839819D02*
X25323058Y-22820771D01*
X25323058Y-22820771D02*
X25304010Y-22792199D01*
X25304010Y-22792199D02*
X25294487Y-22782676D01*
X18509183Y-23310475D02*
X18509183Y-23169052D01*
X18367760Y-23169052D01*
X18367760Y-23310475D01*
X18509183Y-23310475D01*
X18780200Y-23131247D02*
X18904010Y-23131247D01*
X18904010Y-23131247D02*
X18837343Y-23207438D01*
X18837343Y-23207438D02*
X18865915Y-23207438D01*
X18865915Y-23207438D02*
X18884962Y-23216961D01*
X18884962Y-23216961D02*
X18894486Y-23226485D01*
X18894486Y-23226485D02*
X18904010Y-23245533D01*
X18904010Y-23245533D02*
X18904010Y-23293152D01*
X18904010Y-23293152D02*
X18894486Y-23312199D01*
X18894486Y-23312199D02*
X18884962Y-23321723D01*
X18884962Y-23321723D02*
X18865915Y-23331247D01*
X18865915Y-23331247D02*
X18808772Y-23331247D01*
X18808772Y-23331247D02*
X18789724Y-23321723D01*
X18789724Y-23321723D02*
X18780200Y-23312199D01*
X18989724Y-23312199D02*
X18999248Y-23321723D01*
X18999248Y-23321723D02*
X18989724Y-23331247D01*
X18989724Y-23331247D02*
X18980200Y-23321723D01*
X18980200Y-23321723D02*
X18989724Y-23312199D01*
X18989724Y-23312199D02*
X18989724Y-23331247D01*
X19180200Y-23131247D02*
X19084962Y-23131247D01*
X19084962Y-23131247D02*
X19075439Y-23226485D01*
X19075439Y-23226485D02*
X19084962Y-23216961D01*
X19084962Y-23216961D02*
X19104010Y-23207438D01*
X19104010Y-23207438D02*
X19151629Y-23207438D01*
X19151629Y-23207438D02*
X19170677Y-23216961D01*
X19170677Y-23216961D02*
X19180200Y-23226485D01*
X19180200Y-23226485D02*
X19189724Y-23245533D01*
X19189724Y-23245533D02*
X19189724Y-23293152D01*
X19189724Y-23293152D02*
X19180200Y-23312199D01*
X19180200Y-23312199D02*
X19170677Y-23321723D01*
X19170677Y-23321723D02*
X19151629Y-23331247D01*
X19151629Y-23331247D02*
X19104010Y-23331247D01*
X19104010Y-23331247D02*
X19084962Y-23321723D01*
X19084962Y-23321723D02*
X19075439Y-23312199D01*
X19313534Y-23131247D02*
X19332581Y-23131247D01*
X19332581Y-23131247D02*
X19351629Y-23140771D01*
X19351629Y-23140771D02*
X19361153Y-23150295D01*
X19361153Y-23150295D02*
X19370677Y-23169342D01*
X19370677Y-23169342D02*
X19380200Y-23207438D01*
X19380200Y-23207438D02*
X19380200Y-23255057D01*
X19380200Y-23255057D02*
X19370677Y-23293152D01*
X19370677Y-23293152D02*
X19361153Y-23312199D01*
X19361153Y-23312199D02*
X19351629Y-23321723D01*
X19351629Y-23321723D02*
X19332581Y-23331247D01*
X19332581Y-23331247D02*
X19313534Y-23331247D01*
X19313534Y-23331247D02*
X19294486Y-23321723D01*
X19294486Y-23321723D02*
X19284962Y-23312199D01*
X19284962Y-23312199D02*
X19275439Y-23293152D01*
X19275439Y-23293152D02*
X19265915Y-23255057D01*
X19265915Y-23255057D02*
X19265915Y-23207438D01*
X19265915Y-23207438D02*
X19275439Y-23169342D01*
X19275439Y-23169342D02*
X19284962Y-23150295D01*
X19284962Y-23150295D02*
X19294486Y-23140771D01*
X19294486Y-23140771D02*
X19313534Y-23131247D01*
X19504010Y-23131247D02*
X19523058Y-23131247D01*
X19523058Y-23131247D02*
X19542105Y-23140771D01*
X19542105Y-23140771D02*
X19551629Y-23150295D01*
X19551629Y-23150295D02*
X19561153Y-23169342D01*
X19561153Y-23169342D02*
X19570677Y-23207438D01*
X19570677Y-23207438D02*
X19570677Y-23255057D01*
X19570677Y-23255057D02*
X19561153Y-23293152D01*
X19561153Y-23293152D02*
X19551629Y-23312199D01*
X19551629Y-23312199D02*
X19542105Y-23321723D01*
X19542105Y-23321723D02*
X19523058Y-23331247D01*
X19523058Y-23331247D02*
X19504010Y-23331247D01*
X19504010Y-23331247D02*
X19484962Y-23321723D01*
X19484962Y-23321723D02*
X19475439Y-23312199D01*
X19475439Y-23312199D02*
X19465915Y-23293152D01*
X19465915Y-23293152D02*
X19456391Y-23255057D01*
X19456391Y-23255057D02*
X19456391Y-23207438D01*
X19456391Y-23207438D02*
X19465915Y-23169342D01*
X19465915Y-23169342D02*
X19475439Y-23150295D01*
X19475439Y-23150295D02*
X19484962Y-23140771D01*
X19484962Y-23140771D02*
X19504010Y-23131247D01*
X19656391Y-23331247D02*
X19656391Y-23197914D01*
X19656391Y-23216961D02*
X19665915Y-23207438D01*
X19665915Y-23207438D02*
X19684962Y-23197914D01*
X19684962Y-23197914D02*
X19713534Y-23197914D01*
X19713534Y-23197914D02*
X19732581Y-23207438D01*
X19732581Y-23207438D02*
X19742105Y-23226485D01*
X19742105Y-23226485D02*
X19742105Y-23331247D01*
X19742105Y-23226485D02*
X19751629Y-23207438D01*
X19751629Y-23207438D02*
X19770677Y-23197914D01*
X19770677Y-23197914D02*
X19799248Y-23197914D01*
X19799248Y-23197914D02*
X19818296Y-23207438D01*
X19818296Y-23207438D02*
X19827820Y-23226485D01*
X19827820Y-23226485D02*
X19827820Y-23331247D01*
X19923058Y-23331247D02*
X19923058Y-23197914D01*
X19923058Y-23216961D02*
X19932581Y-23207438D01*
X19932581Y-23207438D02*
X19951629Y-23197914D01*
X19951629Y-23197914D02*
X19980201Y-23197914D01*
X19980201Y-23197914D02*
X19999248Y-23207438D01*
X19999248Y-23207438D02*
X20008772Y-23226485D01*
X20008772Y-23226485D02*
X20008772Y-23331247D01*
X20008772Y-23226485D02*
X20018296Y-23207438D01*
X20018296Y-23207438D02*
X20037343Y-23197914D01*
X20037343Y-23197914D02*
X20065915Y-23197914D01*
X20065915Y-23197914D02*
X20084962Y-23207438D01*
X20084962Y-23207438D02*
X20094486Y-23226485D01*
X20094486Y-23226485D02*
X20094486Y-23331247D01*
X20484962Y-23121723D02*
X20313534Y-23378866D01*
X20742105Y-23131247D02*
X20761153Y-23131247D01*
X20761153Y-23131247D02*
X20780201Y-23140771D01*
X20780201Y-23140771D02*
X20789724Y-23150295D01*
X20789724Y-23150295D02*
X20799248Y-23169342D01*
X20799248Y-23169342D02*
X20808772Y-23207438D01*
X20808772Y-23207438D02*
X20808772Y-23255057D01*
X20808772Y-23255057D02*
X20799248Y-23293152D01*
X20799248Y-23293152D02*
X20789724Y-23312199D01*
X20789724Y-23312199D02*
X20780201Y-23321723D01*
X20780201Y-23321723D02*
X20761153Y-23331247D01*
X20761153Y-23331247D02*
X20742105Y-23331247D01*
X20742105Y-23331247D02*
X20723058Y-23321723D01*
X20723058Y-23321723D02*
X20713534Y-23312199D01*
X20713534Y-23312199D02*
X20704010Y-23293152D01*
X20704010Y-23293152D02*
X20694486Y-23255057D01*
X20694486Y-23255057D02*
X20694486Y-23207438D01*
X20694486Y-23207438D02*
X20704010Y-23169342D01*
X20704010Y-23169342D02*
X20713534Y-23150295D01*
X20713534Y-23150295D02*
X20723058Y-23140771D01*
X20723058Y-23140771D02*
X20742105Y-23131247D01*
X20894486Y-23312199D02*
X20904010Y-23321723D01*
X20904010Y-23321723D02*
X20894486Y-23331247D01*
X20894486Y-23331247D02*
X20884963Y-23321723D01*
X20884963Y-23321723D02*
X20894486Y-23312199D01*
X20894486Y-23312199D02*
X20894486Y-23331247D01*
X21094486Y-23331247D02*
X20980201Y-23331247D01*
X21037343Y-23331247D02*
X21037343Y-23131247D01*
X21037343Y-23131247D02*
X21018296Y-23159819D01*
X21018296Y-23159819D02*
X20999248Y-23178866D01*
X20999248Y-23178866D02*
X20980201Y-23188390D01*
X21161153Y-23131247D02*
X21284963Y-23131247D01*
X21284963Y-23131247D02*
X21218296Y-23207438D01*
X21218296Y-23207438D02*
X21246867Y-23207438D01*
X21246867Y-23207438D02*
X21265915Y-23216961D01*
X21265915Y-23216961D02*
X21275439Y-23226485D01*
X21275439Y-23226485D02*
X21284963Y-23245533D01*
X21284963Y-23245533D02*
X21284963Y-23293152D01*
X21284963Y-23293152D02*
X21275439Y-23312199D01*
X21275439Y-23312199D02*
X21265915Y-23321723D01*
X21265915Y-23321723D02*
X21246867Y-23331247D01*
X21246867Y-23331247D02*
X21189724Y-23331247D01*
X21189724Y-23331247D02*
X21170677Y-23321723D01*
X21170677Y-23321723D02*
X21161153Y-23312199D01*
X21351629Y-23131247D02*
X21484963Y-23131247D01*
X21484963Y-23131247D02*
X21399248Y-23331247D01*
X21589724Y-23216961D02*
X21570677Y-23207438D01*
X21570677Y-23207438D02*
X21561153Y-23197914D01*
X21561153Y-23197914D02*
X21551629Y-23178866D01*
X21551629Y-23178866D02*
X21551629Y-23169342D01*
X21551629Y-23169342D02*
X21561153Y-23150295D01*
X21561153Y-23150295D02*
X21570677Y-23140771D01*
X21570677Y-23140771D02*
X21589724Y-23131247D01*
X21589724Y-23131247D02*
X21627820Y-23131247D01*
X21627820Y-23131247D02*
X21646867Y-23140771D01*
X21646867Y-23140771D02*
X21656391Y-23150295D01*
X21656391Y-23150295D02*
X21665915Y-23169342D01*
X21665915Y-23169342D02*
X21665915Y-23178866D01*
X21665915Y-23178866D02*
X21656391Y-23197914D01*
X21656391Y-23197914D02*
X21646867Y-23207438D01*
X21646867Y-23207438D02*
X21627820Y-23216961D01*
X21627820Y-23216961D02*
X21589724Y-23216961D01*
X21589724Y-23216961D02*
X21570677Y-23226485D01*
X21570677Y-23226485D02*
X21561153Y-23236009D01*
X21561153Y-23236009D02*
X21551629Y-23255057D01*
X21551629Y-23255057D02*
X21551629Y-23293152D01*
X21551629Y-23293152D02*
X21561153Y-23312199D01*
X21561153Y-23312199D02*
X21570677Y-23321723D01*
X21570677Y-23321723D02*
X21589724Y-23331247D01*
X21589724Y-23331247D02*
X21627820Y-23331247D01*
X21627820Y-23331247D02*
X21646867Y-23321723D01*
X21646867Y-23321723D02*
X21656391Y-23312199D01*
X21656391Y-23312199D02*
X21665915Y-23293152D01*
X21665915Y-23293152D02*
X21665915Y-23255057D01*
X21665915Y-23255057D02*
X21656391Y-23236009D01*
X21656391Y-23236009D02*
X21646867Y-23226485D01*
X21646867Y-23226485D02*
X21627820Y-23216961D01*
X21742105Y-23131247D02*
X21742105Y-23169342D01*
X21818296Y-23131247D02*
X21818296Y-23169342D01*
X22113534Y-23407438D02*
X22104010Y-23397914D01*
X22104010Y-23397914D02*
X22084963Y-23369342D01*
X22084963Y-23369342D02*
X22075439Y-23350295D01*
X22075439Y-23350295D02*
X22065915Y-23321723D01*
X22065915Y-23321723D02*
X22056391Y-23274104D01*
X22056391Y-23274104D02*
X22056391Y-23236009D01*
X22056391Y-23236009D02*
X22065915Y-23188390D01*
X22065915Y-23188390D02*
X22075439Y-23159819D01*
X22075439Y-23159819D02*
X22084963Y-23140771D01*
X22084963Y-23140771D02*
X22104010Y-23112199D01*
X22104010Y-23112199D02*
X22113534Y-23102676D01*
X22294486Y-23331247D02*
X22180201Y-23331247D01*
X22237344Y-23331247D02*
X22237344Y-23131247D01*
X22237344Y-23131247D02*
X22218296Y-23159819D01*
X22218296Y-23159819D02*
X22199248Y-23178866D01*
X22199248Y-23178866D02*
X22180201Y-23188390D01*
X22532582Y-23331247D02*
X22532582Y-23131247D01*
X22618296Y-23331247D02*
X22618296Y-23226485D01*
X22618296Y-23226485D02*
X22608772Y-23207438D01*
X22608772Y-23207438D02*
X22589725Y-23197914D01*
X22589725Y-23197914D02*
X22561153Y-23197914D01*
X22561153Y-23197914D02*
X22542105Y-23207438D01*
X22542105Y-23207438D02*
X22532582Y-23216961D01*
X22742105Y-23331247D02*
X22723058Y-23321723D01*
X22723058Y-23321723D02*
X22713534Y-23312199D01*
X22713534Y-23312199D02*
X22704010Y-23293152D01*
X22704010Y-23293152D02*
X22704010Y-23236009D01*
X22704010Y-23236009D02*
X22713534Y-23216961D01*
X22713534Y-23216961D02*
X22723058Y-23207438D01*
X22723058Y-23207438D02*
X22742105Y-23197914D01*
X22742105Y-23197914D02*
X22770677Y-23197914D01*
X22770677Y-23197914D02*
X22789725Y-23207438D01*
X22789725Y-23207438D02*
X22799248Y-23216961D01*
X22799248Y-23216961D02*
X22808772Y-23236009D01*
X22808772Y-23236009D02*
X22808772Y-23293152D01*
X22808772Y-23293152D02*
X22799248Y-23312199D01*
X22799248Y-23312199D02*
X22789725Y-23321723D01*
X22789725Y-23321723D02*
X22770677Y-23331247D01*
X22770677Y-23331247D02*
X22742105Y-23331247D01*
X22923058Y-23331247D02*
X22904010Y-23321723D01*
X22904010Y-23321723D02*
X22894486Y-23302676D01*
X22894486Y-23302676D02*
X22894486Y-23131247D01*
X23075439Y-23321723D02*
X23056391Y-23331247D01*
X23056391Y-23331247D02*
X23018296Y-23331247D01*
X23018296Y-23331247D02*
X22999248Y-23321723D01*
X22999248Y-23321723D02*
X22989725Y-23302676D01*
X22989725Y-23302676D02*
X22989725Y-23226485D01*
X22989725Y-23226485D02*
X22999248Y-23207438D01*
X22999248Y-23207438D02*
X23018296Y-23197914D01*
X23018296Y-23197914D02*
X23056391Y-23197914D01*
X23056391Y-23197914D02*
X23075439Y-23207438D01*
X23075439Y-23207438D02*
X23084963Y-23226485D01*
X23084963Y-23226485D02*
X23084963Y-23245533D01*
X23084963Y-23245533D02*
X22989725Y-23264580D01*
X23151629Y-23407438D02*
X23161153Y-23397914D01*
X23161153Y-23397914D02*
X23180201Y-23369342D01*
X23180201Y-23369342D02*
X23189725Y-23350295D01*
X23189725Y-23350295D02*
X23199248Y-23321723D01*
X23199248Y-23321723D02*
X23208772Y-23274104D01*
X23208772Y-23274104D02*
X23208772Y-23236009D01*
X23208772Y-23236009D02*
X23199248Y-23188390D01*
X23199248Y-23188390D02*
X23189725Y-23159819D01*
X23189725Y-23159819D02*
X23180201Y-23140771D01*
X23180201Y-23140771D02*
X23161153Y-23112199D01*
X23161153Y-23112199D02*
X23151629Y-23102676D01*
X23513534Y-23407438D02*
X23504010Y-23397914D01*
X23504010Y-23397914D02*
X23484963Y-23369342D01*
X23484963Y-23369342D02*
X23475439Y-23350295D01*
X23475439Y-23350295D02*
X23465915Y-23321723D01*
X23465915Y-23321723D02*
X23456391Y-23274104D01*
X23456391Y-23274104D02*
X23456391Y-23236009D01*
X23456391Y-23236009D02*
X23465915Y-23188390D01*
X23465915Y-23188390D02*
X23475439Y-23159819D01*
X23475439Y-23159819D02*
X23484963Y-23140771D01*
X23484963Y-23140771D02*
X23504010Y-23112199D01*
X23504010Y-23112199D02*
X23513534Y-23102676D01*
X23589725Y-23197914D02*
X23589725Y-23331247D01*
X23589725Y-23216961D02*
X23599248Y-23207438D01*
X23599248Y-23207438D02*
X23618296Y-23197914D01*
X23618296Y-23197914D02*
X23646867Y-23197914D01*
X23646867Y-23197914D02*
X23665915Y-23207438D01*
X23665915Y-23207438D02*
X23675439Y-23226485D01*
X23675439Y-23226485D02*
X23675439Y-23331247D01*
X23799248Y-23331247D02*
X23780201Y-23321723D01*
X23780201Y-23321723D02*
X23770677Y-23312199D01*
X23770677Y-23312199D02*
X23761153Y-23293152D01*
X23761153Y-23293152D02*
X23761153Y-23236009D01*
X23761153Y-23236009D02*
X23770677Y-23216961D01*
X23770677Y-23216961D02*
X23780201Y-23207438D01*
X23780201Y-23207438D02*
X23799248Y-23197914D01*
X23799248Y-23197914D02*
X23827820Y-23197914D01*
X23827820Y-23197914D02*
X23846867Y-23207438D01*
X23846867Y-23207438D02*
X23856391Y-23216961D01*
X23856391Y-23216961D02*
X23865915Y-23236009D01*
X23865915Y-23236009D02*
X23865915Y-23293152D01*
X23865915Y-23293152D02*
X23856391Y-23312199D01*
X23856391Y-23312199D02*
X23846867Y-23321723D01*
X23846867Y-23321723D02*
X23827820Y-23331247D01*
X23827820Y-23331247D02*
X23799248Y-23331247D01*
X23923058Y-23197914D02*
X23999248Y-23197914D01*
X23951629Y-23131247D02*
X23951629Y-23302676D01*
X23951629Y-23302676D02*
X23961153Y-23321723D01*
X23961153Y-23321723D02*
X23980201Y-23331247D01*
X23980201Y-23331247D02*
X23999248Y-23331247D01*
X24218296Y-23197914D02*
X24218296Y-23397914D01*
X24218296Y-23207438D02*
X24237344Y-23197914D01*
X24237344Y-23197914D02*
X24275439Y-23197914D01*
X24275439Y-23197914D02*
X24294487Y-23207438D01*
X24294487Y-23207438D02*
X24304010Y-23216961D01*
X24304010Y-23216961D02*
X24313534Y-23236009D01*
X24313534Y-23236009D02*
X24313534Y-23293152D01*
X24313534Y-23293152D02*
X24304010Y-23312199D01*
X24304010Y-23312199D02*
X24294487Y-23321723D01*
X24294487Y-23321723D02*
X24275439Y-23331247D01*
X24275439Y-23331247D02*
X24237344Y-23331247D01*
X24237344Y-23331247D02*
X24218296Y-23321723D01*
X24427820Y-23331247D02*
X24408772Y-23321723D01*
X24408772Y-23321723D02*
X24399248Y-23302676D01*
X24399248Y-23302676D02*
X24399248Y-23131247D01*
X24589725Y-23331247D02*
X24589725Y-23226485D01*
X24589725Y-23226485D02*
X24580201Y-23207438D01*
X24580201Y-23207438D02*
X24561153Y-23197914D01*
X24561153Y-23197914D02*
X24523058Y-23197914D01*
X24523058Y-23197914D02*
X24504010Y-23207438D01*
X24589725Y-23321723D02*
X24570677Y-23331247D01*
X24570677Y-23331247D02*
X24523058Y-23331247D01*
X24523058Y-23331247D02*
X24504010Y-23321723D01*
X24504010Y-23321723D02*
X24494487Y-23302676D01*
X24494487Y-23302676D02*
X24494487Y-23283628D01*
X24494487Y-23283628D02*
X24504010Y-23264580D01*
X24504010Y-23264580D02*
X24523058Y-23255057D01*
X24523058Y-23255057D02*
X24570677Y-23255057D01*
X24570677Y-23255057D02*
X24589725Y-23245533D01*
X24656391Y-23197914D02*
X24732582Y-23197914D01*
X24684963Y-23131247D02*
X24684963Y-23302676D01*
X24684963Y-23302676D02*
X24694487Y-23321723D01*
X24694487Y-23321723D02*
X24713534Y-23331247D01*
X24713534Y-23331247D02*
X24732582Y-23331247D01*
X24875439Y-23321723D02*
X24856391Y-23331247D01*
X24856391Y-23331247D02*
X24818296Y-23331247D01*
X24818296Y-23331247D02*
X24799248Y-23321723D01*
X24799248Y-23321723D02*
X24789725Y-23302676D01*
X24789725Y-23302676D02*
X24789725Y-23226485D01*
X24789725Y-23226485D02*
X24799248Y-23207438D01*
X24799248Y-23207438D02*
X24818296Y-23197914D01*
X24818296Y-23197914D02*
X24856391Y-23197914D01*
X24856391Y-23197914D02*
X24875439Y-23207438D01*
X24875439Y-23207438D02*
X24884963Y-23226485D01*
X24884963Y-23226485D02*
X24884963Y-23245533D01*
X24884963Y-23245533D02*
X24789725Y-23264580D01*
X25056391Y-23331247D02*
X25056391Y-23131247D01*
X25056391Y-23321723D02*
X25037344Y-23331247D01*
X25037344Y-23331247D02*
X24999248Y-23331247D01*
X24999248Y-23331247D02*
X24980201Y-23321723D01*
X24980201Y-23321723D02*
X24970677Y-23312199D01*
X24970677Y-23312199D02*
X24961153Y-23293152D01*
X24961153Y-23293152D02*
X24961153Y-23236009D01*
X24961153Y-23236009D02*
X24970677Y-23216961D01*
X24970677Y-23216961D02*
X24980201Y-23207438D01*
X24980201Y-23207438D02*
X24999248Y-23197914D01*
X24999248Y-23197914D02*
X25037344Y-23197914D01*
X25037344Y-23197914D02*
X25056391Y-23207438D01*
X25132582Y-23407438D02*
X25142106Y-23397914D01*
X25142106Y-23397914D02*
X25161153Y-23369342D01*
X25161153Y-23369342D02*
X25170677Y-23350295D01*
X25170677Y-23350295D02*
X25180201Y-23321723D01*
X25180201Y-23321723D02*
X25189725Y-23274104D01*
X25189725Y-23274104D02*
X25189725Y-23236009D01*
X25189725Y-23236009D02*
X25180201Y-23188390D01*
X25180201Y-23188390D02*
X25170677Y-23159819D01*
X25170677Y-23159819D02*
X25161153Y-23140771D01*
X25161153Y-23140771D02*
X25142106Y-23112199D01*
X25142106Y-23112199D02*
X25132582Y-23102676D01*
X18438471Y-23659763D02*
X18538471Y-23559763D01*
X18438471Y-23459763D01*
X18338471Y-23559763D01*
X18438471Y-23659763D01*
X18884962Y-23517914D02*
X18884962Y-23651247D01*
X18837343Y-23441723D02*
X18789724Y-23584580D01*
X18789724Y-23584580D02*
X18913534Y-23584580D01*
X18989724Y-23632199D02*
X18999248Y-23641723D01*
X18999248Y-23641723D02*
X18989724Y-23651247D01*
X18989724Y-23651247D02*
X18980200Y-23641723D01*
X18980200Y-23641723D02*
X18989724Y-23632199D01*
X18989724Y-23632199D02*
X18989724Y-23651247D01*
X19123058Y-23451247D02*
X19142105Y-23451247D01*
X19142105Y-23451247D02*
X19161153Y-23460771D01*
X19161153Y-23460771D02*
X19170677Y-23470295D01*
X19170677Y-23470295D02*
X19180200Y-23489342D01*
X19180200Y-23489342D02*
X19189724Y-23527438D01*
X19189724Y-23527438D02*
X19189724Y-23575057D01*
X19189724Y-23575057D02*
X19180200Y-23613152D01*
X19180200Y-23613152D02*
X19170677Y-23632199D01*
X19170677Y-23632199D02*
X19161153Y-23641723D01*
X19161153Y-23641723D02*
X19142105Y-23651247D01*
X19142105Y-23651247D02*
X19123058Y-23651247D01*
X19123058Y-23651247D02*
X19104010Y-23641723D01*
X19104010Y-23641723D02*
X19094486Y-23632199D01*
X19094486Y-23632199D02*
X19084962Y-23613152D01*
X19084962Y-23613152D02*
X19075439Y-23575057D01*
X19075439Y-23575057D02*
X19075439Y-23527438D01*
X19075439Y-23527438D02*
X19084962Y-23489342D01*
X19084962Y-23489342D02*
X19094486Y-23470295D01*
X19094486Y-23470295D02*
X19104010Y-23460771D01*
X19104010Y-23460771D02*
X19123058Y-23451247D01*
X19313534Y-23451247D02*
X19332581Y-23451247D01*
X19332581Y-23451247D02*
X19351629Y-23460771D01*
X19351629Y-23460771D02*
X19361153Y-23470295D01*
X19361153Y-23470295D02*
X19370677Y-23489342D01*
X19370677Y-23489342D02*
X19380200Y-23527438D01*
X19380200Y-23527438D02*
X19380200Y-23575057D01*
X19380200Y-23575057D02*
X19370677Y-23613152D01*
X19370677Y-23613152D02*
X19361153Y-23632199D01*
X19361153Y-23632199D02*
X19351629Y-23641723D01*
X19351629Y-23641723D02*
X19332581Y-23651247D01*
X19332581Y-23651247D02*
X19313534Y-23651247D01*
X19313534Y-23651247D02*
X19294486Y-23641723D01*
X19294486Y-23641723D02*
X19284962Y-23632199D01*
X19284962Y-23632199D02*
X19275439Y-23613152D01*
X19275439Y-23613152D02*
X19265915Y-23575057D01*
X19265915Y-23575057D02*
X19265915Y-23527438D01*
X19265915Y-23527438D02*
X19275439Y-23489342D01*
X19275439Y-23489342D02*
X19284962Y-23470295D01*
X19284962Y-23470295D02*
X19294486Y-23460771D01*
X19294486Y-23460771D02*
X19313534Y-23451247D01*
X19504010Y-23451247D02*
X19523058Y-23451247D01*
X19523058Y-23451247D02*
X19542105Y-23460771D01*
X19542105Y-23460771D02*
X19551629Y-23470295D01*
X19551629Y-23470295D02*
X19561153Y-23489342D01*
X19561153Y-23489342D02*
X19570677Y-23527438D01*
X19570677Y-23527438D02*
X19570677Y-23575057D01*
X19570677Y-23575057D02*
X19561153Y-23613152D01*
X19561153Y-23613152D02*
X19551629Y-23632199D01*
X19551629Y-23632199D02*
X19542105Y-23641723D01*
X19542105Y-23641723D02*
X19523058Y-23651247D01*
X19523058Y-23651247D02*
X19504010Y-23651247D01*
X19504010Y-23651247D02*
X19484962Y-23641723D01*
X19484962Y-23641723D02*
X19475439Y-23632199D01*
X19475439Y-23632199D02*
X19465915Y-23613152D01*
X19465915Y-23613152D02*
X19456391Y-23575057D01*
X19456391Y-23575057D02*
X19456391Y-23527438D01*
X19456391Y-23527438D02*
X19465915Y-23489342D01*
X19465915Y-23489342D02*
X19475439Y-23470295D01*
X19475439Y-23470295D02*
X19484962Y-23460771D01*
X19484962Y-23460771D02*
X19504010Y-23451247D01*
X19656391Y-23651247D02*
X19656391Y-23517914D01*
X19656391Y-23536961D02*
X19665915Y-23527438D01*
X19665915Y-23527438D02*
X19684962Y-23517914D01*
X19684962Y-23517914D02*
X19713534Y-23517914D01*
X19713534Y-23517914D02*
X19732581Y-23527438D01*
X19732581Y-23527438D02*
X19742105Y-23546485D01*
X19742105Y-23546485D02*
X19742105Y-23651247D01*
X19742105Y-23546485D02*
X19751629Y-23527438D01*
X19751629Y-23527438D02*
X19770677Y-23517914D01*
X19770677Y-23517914D02*
X19799248Y-23517914D01*
X19799248Y-23517914D02*
X19818296Y-23527438D01*
X19818296Y-23527438D02*
X19827820Y-23546485D01*
X19827820Y-23546485D02*
X19827820Y-23651247D01*
X19923058Y-23651247D02*
X19923058Y-23517914D01*
X19923058Y-23536961D02*
X19932581Y-23527438D01*
X19932581Y-23527438D02*
X19951629Y-23517914D01*
X19951629Y-23517914D02*
X19980201Y-23517914D01*
X19980201Y-23517914D02*
X19999248Y-23527438D01*
X19999248Y-23527438D02*
X20008772Y-23546485D01*
X20008772Y-23546485D02*
X20008772Y-23651247D01*
X20008772Y-23546485D02*
X20018296Y-23527438D01*
X20018296Y-23527438D02*
X20037343Y-23517914D01*
X20037343Y-23517914D02*
X20065915Y-23517914D01*
X20065915Y-23517914D02*
X20084962Y-23527438D01*
X20084962Y-23527438D02*
X20094486Y-23546485D01*
X20094486Y-23546485D02*
X20094486Y-23651247D01*
X20484962Y-23441723D02*
X20313534Y-23698866D01*
X20742105Y-23451247D02*
X20761153Y-23451247D01*
X20761153Y-23451247D02*
X20780201Y-23460771D01*
X20780201Y-23460771D02*
X20789724Y-23470295D01*
X20789724Y-23470295D02*
X20799248Y-23489342D01*
X20799248Y-23489342D02*
X20808772Y-23527438D01*
X20808772Y-23527438D02*
X20808772Y-23575057D01*
X20808772Y-23575057D02*
X20799248Y-23613152D01*
X20799248Y-23613152D02*
X20789724Y-23632199D01*
X20789724Y-23632199D02*
X20780201Y-23641723D01*
X20780201Y-23641723D02*
X20761153Y-23651247D01*
X20761153Y-23651247D02*
X20742105Y-23651247D01*
X20742105Y-23651247D02*
X20723058Y-23641723D01*
X20723058Y-23641723D02*
X20713534Y-23632199D01*
X20713534Y-23632199D02*
X20704010Y-23613152D01*
X20704010Y-23613152D02*
X20694486Y-23575057D01*
X20694486Y-23575057D02*
X20694486Y-23527438D01*
X20694486Y-23527438D02*
X20704010Y-23489342D01*
X20704010Y-23489342D02*
X20713534Y-23470295D01*
X20713534Y-23470295D02*
X20723058Y-23460771D01*
X20723058Y-23460771D02*
X20742105Y-23451247D01*
X20894486Y-23632199D02*
X20904010Y-23641723D01*
X20904010Y-23641723D02*
X20894486Y-23651247D01*
X20894486Y-23651247D02*
X20884963Y-23641723D01*
X20884963Y-23641723D02*
X20894486Y-23632199D01*
X20894486Y-23632199D02*
X20894486Y-23651247D01*
X21094486Y-23651247D02*
X20980201Y-23651247D01*
X21037343Y-23651247D02*
X21037343Y-23451247D01*
X21037343Y-23451247D02*
X21018296Y-23479819D01*
X21018296Y-23479819D02*
X20999248Y-23498866D01*
X20999248Y-23498866D02*
X20980201Y-23508390D01*
X21275439Y-23451247D02*
X21180201Y-23451247D01*
X21180201Y-23451247D02*
X21170677Y-23546485D01*
X21170677Y-23546485D02*
X21180201Y-23536961D01*
X21180201Y-23536961D02*
X21199248Y-23527438D01*
X21199248Y-23527438D02*
X21246867Y-23527438D01*
X21246867Y-23527438D02*
X21265915Y-23536961D01*
X21265915Y-23536961D02*
X21275439Y-23546485D01*
X21275439Y-23546485D02*
X21284963Y-23565533D01*
X21284963Y-23565533D02*
X21284963Y-23613152D01*
X21284963Y-23613152D02*
X21275439Y-23632199D01*
X21275439Y-23632199D02*
X21265915Y-23641723D01*
X21265915Y-23641723D02*
X21246867Y-23651247D01*
X21246867Y-23651247D02*
X21199248Y-23651247D01*
X21199248Y-23651247D02*
X21180201Y-23641723D01*
X21180201Y-23641723D02*
X21170677Y-23632199D01*
X21351629Y-23451247D02*
X21484963Y-23451247D01*
X21484963Y-23451247D02*
X21399248Y-23651247D01*
X21656391Y-23451247D02*
X21561153Y-23451247D01*
X21561153Y-23451247D02*
X21551629Y-23546485D01*
X21551629Y-23546485D02*
X21561153Y-23536961D01*
X21561153Y-23536961D02*
X21580201Y-23527438D01*
X21580201Y-23527438D02*
X21627820Y-23527438D01*
X21627820Y-23527438D02*
X21646867Y-23536961D01*
X21646867Y-23536961D02*
X21656391Y-23546485D01*
X21656391Y-23546485D02*
X21665915Y-23565533D01*
X21665915Y-23565533D02*
X21665915Y-23613152D01*
X21665915Y-23613152D02*
X21656391Y-23632199D01*
X21656391Y-23632199D02*
X21646867Y-23641723D01*
X21646867Y-23641723D02*
X21627820Y-23651247D01*
X21627820Y-23651247D02*
X21580201Y-23651247D01*
X21580201Y-23651247D02*
X21561153Y-23641723D01*
X21561153Y-23641723D02*
X21551629Y-23632199D01*
X21742105Y-23451247D02*
X21742105Y-23489342D01*
X21818296Y-23451247D02*
X21818296Y-23489342D01*
X22113534Y-23727438D02*
X22104010Y-23717914D01*
X22104010Y-23717914D02*
X22084963Y-23689342D01*
X22084963Y-23689342D02*
X22075439Y-23670295D01*
X22075439Y-23670295D02*
X22065915Y-23641723D01*
X22065915Y-23641723D02*
X22056391Y-23594104D01*
X22056391Y-23594104D02*
X22056391Y-23556009D01*
X22056391Y-23556009D02*
X22065915Y-23508390D01*
X22065915Y-23508390D02*
X22075439Y-23479819D01*
X22075439Y-23479819D02*
X22084963Y-23460771D01*
X22084963Y-23460771D02*
X22104010Y-23432199D01*
X22104010Y-23432199D02*
X22113534Y-23422676D01*
X22275439Y-23517914D02*
X22275439Y-23651247D01*
X22227820Y-23441723D02*
X22180201Y-23584580D01*
X22180201Y-23584580D02*
X22304010Y-23584580D01*
X22532582Y-23651247D02*
X22532582Y-23451247D01*
X22618296Y-23651247D02*
X22618296Y-23546485D01*
X22618296Y-23546485D02*
X22608772Y-23527438D01*
X22608772Y-23527438D02*
X22589725Y-23517914D01*
X22589725Y-23517914D02*
X22561153Y-23517914D01*
X22561153Y-23517914D02*
X22542105Y-23527438D01*
X22542105Y-23527438D02*
X22532582Y-23536961D01*
X22742105Y-23651247D02*
X22723058Y-23641723D01*
X22723058Y-23641723D02*
X22713534Y-23632199D01*
X22713534Y-23632199D02*
X22704010Y-23613152D01*
X22704010Y-23613152D02*
X22704010Y-23556009D01*
X22704010Y-23556009D02*
X22713534Y-23536961D01*
X22713534Y-23536961D02*
X22723058Y-23527438D01*
X22723058Y-23527438D02*
X22742105Y-23517914D01*
X22742105Y-23517914D02*
X22770677Y-23517914D01*
X22770677Y-23517914D02*
X22789725Y-23527438D01*
X22789725Y-23527438D02*
X22799248Y-23536961D01*
X22799248Y-23536961D02*
X22808772Y-23556009D01*
X22808772Y-23556009D02*
X22808772Y-23613152D01*
X22808772Y-23613152D02*
X22799248Y-23632199D01*
X22799248Y-23632199D02*
X22789725Y-23641723D01*
X22789725Y-23641723D02*
X22770677Y-23651247D01*
X22770677Y-23651247D02*
X22742105Y-23651247D01*
X22923058Y-23651247D02*
X22904010Y-23641723D01*
X22904010Y-23641723D02*
X22894486Y-23622676D01*
X22894486Y-23622676D02*
X22894486Y-23451247D01*
X23075439Y-23641723D02*
X23056391Y-23651247D01*
X23056391Y-23651247D02*
X23018296Y-23651247D01*
X23018296Y-23651247D02*
X22999248Y-23641723D01*
X22999248Y-23641723D02*
X22989725Y-23622676D01*
X22989725Y-23622676D02*
X22989725Y-23546485D01*
X22989725Y-23546485D02*
X22999248Y-23527438D01*
X22999248Y-23527438D02*
X23018296Y-23517914D01*
X23018296Y-23517914D02*
X23056391Y-23517914D01*
X23056391Y-23517914D02*
X23075439Y-23527438D01*
X23075439Y-23527438D02*
X23084963Y-23546485D01*
X23084963Y-23546485D02*
X23084963Y-23565533D01*
X23084963Y-23565533D02*
X22989725Y-23584580D01*
X23161153Y-23641723D02*
X23180201Y-23651247D01*
X23180201Y-23651247D02*
X23218296Y-23651247D01*
X23218296Y-23651247D02*
X23237344Y-23641723D01*
X23237344Y-23641723D02*
X23246867Y-23622676D01*
X23246867Y-23622676D02*
X23246867Y-23613152D01*
X23246867Y-23613152D02*
X23237344Y-23594104D01*
X23237344Y-23594104D02*
X23218296Y-23584580D01*
X23218296Y-23584580D02*
X23189725Y-23584580D01*
X23189725Y-23584580D02*
X23170677Y-23575057D01*
X23170677Y-23575057D02*
X23161153Y-23556009D01*
X23161153Y-23556009D02*
X23161153Y-23546485D01*
X23161153Y-23546485D02*
X23170677Y-23527438D01*
X23170677Y-23527438D02*
X23189725Y-23517914D01*
X23189725Y-23517914D02*
X23218296Y-23517914D01*
X23218296Y-23517914D02*
X23237344Y-23527438D01*
X23313534Y-23727438D02*
X23323058Y-23717914D01*
X23323058Y-23717914D02*
X23342106Y-23689342D01*
X23342106Y-23689342D02*
X23351629Y-23670295D01*
X23351629Y-23670295D02*
X23361153Y-23641723D01*
X23361153Y-23641723D02*
X23370677Y-23594104D01*
X23370677Y-23594104D02*
X23370677Y-23556009D01*
X23370677Y-23556009D02*
X23361153Y-23508390D01*
X23361153Y-23508390D02*
X23351629Y-23479819D01*
X23351629Y-23479819D02*
X23342106Y-23460771D01*
X23342106Y-23460771D02*
X23323058Y-23432199D01*
X23323058Y-23432199D02*
X23313534Y-23422676D01*
X23675439Y-23727438D02*
X23665915Y-23717914D01*
X23665915Y-23717914D02*
X23646867Y-23689342D01*
X23646867Y-23689342D02*
X23637344Y-23670295D01*
X23637344Y-23670295D02*
X23627820Y-23641723D01*
X23627820Y-23641723D02*
X23618296Y-23594104D01*
X23618296Y-23594104D02*
X23618296Y-23556009D01*
X23618296Y-23556009D02*
X23627820Y-23508390D01*
X23627820Y-23508390D02*
X23637344Y-23479819D01*
X23637344Y-23479819D02*
X23646867Y-23460771D01*
X23646867Y-23460771D02*
X23665915Y-23432199D01*
X23665915Y-23432199D02*
X23675439Y-23422676D01*
X23751629Y-23517914D02*
X23751629Y-23651247D01*
X23751629Y-23536961D02*
X23761153Y-23527438D01*
X23761153Y-23527438D02*
X23780201Y-23517914D01*
X23780201Y-23517914D02*
X23808772Y-23517914D01*
X23808772Y-23517914D02*
X23827820Y-23527438D01*
X23827820Y-23527438D02*
X23837344Y-23546485D01*
X23837344Y-23546485D02*
X23837344Y-23651247D01*
X23961153Y-23651247D02*
X23942106Y-23641723D01*
X23942106Y-23641723D02*
X23932582Y-23632199D01*
X23932582Y-23632199D02*
X23923058Y-23613152D01*
X23923058Y-23613152D02*
X23923058Y-23556009D01*
X23923058Y-23556009D02*
X23932582Y-23536961D01*
X23932582Y-23536961D02*
X23942106Y-23527438D01*
X23942106Y-23527438D02*
X23961153Y-23517914D01*
X23961153Y-23517914D02*
X23989725Y-23517914D01*
X23989725Y-23517914D02*
X24008772Y-23527438D01*
X24008772Y-23527438D02*
X24018296Y-23536961D01*
X24018296Y-23536961D02*
X24027820Y-23556009D01*
X24027820Y-23556009D02*
X24027820Y-23613152D01*
X24027820Y-23613152D02*
X24018296Y-23632199D01*
X24018296Y-23632199D02*
X24008772Y-23641723D01*
X24008772Y-23641723D02*
X23989725Y-23651247D01*
X23989725Y-23651247D02*
X23961153Y-23651247D01*
X24084963Y-23517914D02*
X24161153Y-23517914D01*
X24113534Y-23451247D02*
X24113534Y-23622676D01*
X24113534Y-23622676D02*
X24123058Y-23641723D01*
X24123058Y-23641723D02*
X24142106Y-23651247D01*
X24142106Y-23651247D02*
X24161153Y-23651247D01*
X24380201Y-23517914D02*
X24380201Y-23717914D01*
X24380201Y-23527438D02*
X24399248Y-23517914D01*
X24399248Y-23517914D02*
X24437344Y-23517914D01*
X24437344Y-23517914D02*
X24456391Y-23527438D01*
X24456391Y-23527438D02*
X24465915Y-23536961D01*
X24465915Y-23536961D02*
X24475439Y-23556009D01*
X24475439Y-23556009D02*
X24475439Y-23613152D01*
X24475439Y-23613152D02*
X24465915Y-23632199D01*
X24465915Y-23632199D02*
X24456391Y-23641723D01*
X24456391Y-23641723D02*
X24437344Y-23651247D01*
X24437344Y-23651247D02*
X24399248Y-23651247D01*
X24399248Y-23651247D02*
X24380201Y-23641723D01*
X24589725Y-23651247D02*
X24570677Y-23641723D01*
X24570677Y-23641723D02*
X24561153Y-23622676D01*
X24561153Y-23622676D02*
X24561153Y-23451247D01*
X24751629Y-23651247D02*
X24751629Y-23546485D01*
X24751629Y-23546485D02*
X24742106Y-23527438D01*
X24742106Y-23527438D02*
X24723058Y-23517914D01*
X24723058Y-23517914D02*
X24684963Y-23517914D01*
X24684963Y-23517914D02*
X24665915Y-23527438D01*
X24751629Y-23641723D02*
X24732582Y-23651247D01*
X24732582Y-23651247D02*
X24684963Y-23651247D01*
X24684963Y-23651247D02*
X24665915Y-23641723D01*
X24665915Y-23641723D02*
X24656391Y-23622676D01*
X24656391Y-23622676D02*
X24656391Y-23603628D01*
X24656391Y-23603628D02*
X24665915Y-23584580D01*
X24665915Y-23584580D02*
X24684963Y-23575057D01*
X24684963Y-23575057D02*
X24732582Y-23575057D01*
X24732582Y-23575057D02*
X24751629Y-23565533D01*
X24818296Y-23517914D02*
X24894487Y-23517914D01*
X24846868Y-23451247D02*
X24846868Y-23622676D01*
X24846868Y-23622676D02*
X24856391Y-23641723D01*
X24856391Y-23641723D02*
X24875439Y-23651247D01*
X24875439Y-23651247D02*
X24894487Y-23651247D01*
X25037344Y-23641723D02*
X25018296Y-23651247D01*
X25018296Y-23651247D02*
X24980201Y-23651247D01*
X24980201Y-23651247D02*
X24961153Y-23641723D01*
X24961153Y-23641723D02*
X24951629Y-23622676D01*
X24951629Y-23622676D02*
X24951629Y-23546485D01*
X24951629Y-23546485D02*
X24961153Y-23527438D01*
X24961153Y-23527438D02*
X24980201Y-23517914D01*
X24980201Y-23517914D02*
X25018296Y-23517914D01*
X25018296Y-23517914D02*
X25037344Y-23527438D01*
X25037344Y-23527438D02*
X25046868Y-23546485D01*
X25046868Y-23546485D02*
X25046868Y-23565533D01*
X25046868Y-23565533D02*
X24951629Y-23584580D01*
X25218296Y-23651247D02*
X25218296Y-23451247D01*
X25218296Y-23641723D02*
X25199249Y-23651247D01*
X25199249Y-23651247D02*
X25161153Y-23651247D01*
X25161153Y-23651247D02*
X25142106Y-23641723D01*
X25142106Y-23641723D02*
X25132582Y-23632199D01*
X25132582Y-23632199D02*
X25123058Y-23613152D01*
X25123058Y-23613152D02*
X25123058Y-23556009D01*
X25123058Y-23556009D02*
X25132582Y-23536961D01*
X25132582Y-23536961D02*
X25142106Y-23527438D01*
X25142106Y-23527438D02*
X25161153Y-23517914D01*
X25161153Y-23517914D02*
X25199249Y-23517914D01*
X25199249Y-23517914D02*
X25218296Y-23527438D01*
X25294487Y-23727438D02*
X25304010Y-23717914D01*
X25304010Y-23717914D02*
X25323058Y-23689342D01*
X25323058Y-23689342D02*
X25332582Y-23670295D01*
X25332582Y-23670295D02*
X25342106Y-23641723D01*
X25342106Y-23641723D02*
X25351629Y-23594104D01*
X25351629Y-23594104D02*
X25351629Y-23556009D01*
X25351629Y-23556009D02*
X25342106Y-23508390D01*
X25342106Y-23508390D02*
X25332582Y-23479819D01*
X25332582Y-23479819D02*
X25323058Y-23460771D01*
X25323058Y-23460771D02*
X25304010Y-23432199D01*
X25304010Y-23432199D02*
X25294487Y-23422676D01*
X18338471Y-23779763D02*
X18538471Y-23979763D01*
X18538471Y-23779763D02*
X18338471Y-23979763D01*
X18538471Y-23879763D02*
G75*
G03*
X18538471Y-23879763I-100000J0D01*
G01*
X18894486Y-23771247D02*
X18799248Y-23771247D01*
X18799248Y-23771247D02*
X18789724Y-23866485D01*
X18789724Y-23866485D02*
X18799248Y-23856961D01*
X18799248Y-23856961D02*
X18818296Y-23847438D01*
X18818296Y-23847438D02*
X18865915Y-23847438D01*
X18865915Y-23847438D02*
X18884962Y-23856961D01*
X18884962Y-23856961D02*
X18894486Y-23866485D01*
X18894486Y-23866485D02*
X18904010Y-23885533D01*
X18904010Y-23885533D02*
X18904010Y-23933152D01*
X18904010Y-23933152D02*
X18894486Y-23952199D01*
X18894486Y-23952199D02*
X18884962Y-23961723D01*
X18884962Y-23961723D02*
X18865915Y-23971247D01*
X18865915Y-23971247D02*
X18818296Y-23971247D01*
X18818296Y-23971247D02*
X18799248Y-23961723D01*
X18799248Y-23961723D02*
X18789724Y-23952199D01*
X18989724Y-23952199D02*
X18999248Y-23961723D01*
X18999248Y-23961723D02*
X18989724Y-23971247D01*
X18989724Y-23971247D02*
X18980200Y-23961723D01*
X18980200Y-23961723D02*
X18989724Y-23952199D01*
X18989724Y-23952199D02*
X18989724Y-23971247D01*
X19065915Y-23771247D02*
X19189724Y-23771247D01*
X19189724Y-23771247D02*
X19123058Y-23847438D01*
X19123058Y-23847438D02*
X19151629Y-23847438D01*
X19151629Y-23847438D02*
X19170677Y-23856961D01*
X19170677Y-23856961D02*
X19180200Y-23866485D01*
X19180200Y-23866485D02*
X19189724Y-23885533D01*
X19189724Y-23885533D02*
X19189724Y-23933152D01*
X19189724Y-23933152D02*
X19180200Y-23952199D01*
X19180200Y-23952199D02*
X19170677Y-23961723D01*
X19170677Y-23961723D02*
X19151629Y-23971247D01*
X19151629Y-23971247D02*
X19094486Y-23971247D01*
X19094486Y-23971247D02*
X19075439Y-23961723D01*
X19075439Y-23961723D02*
X19065915Y-23952199D01*
X19313534Y-23771247D02*
X19332581Y-23771247D01*
X19332581Y-23771247D02*
X19351629Y-23780771D01*
X19351629Y-23780771D02*
X19361153Y-23790295D01*
X19361153Y-23790295D02*
X19370677Y-23809342D01*
X19370677Y-23809342D02*
X19380200Y-23847438D01*
X19380200Y-23847438D02*
X19380200Y-23895057D01*
X19380200Y-23895057D02*
X19370677Y-23933152D01*
X19370677Y-23933152D02*
X19361153Y-23952199D01*
X19361153Y-23952199D02*
X19351629Y-23961723D01*
X19351629Y-23961723D02*
X19332581Y-23971247D01*
X19332581Y-23971247D02*
X19313534Y-23971247D01*
X19313534Y-23971247D02*
X19294486Y-23961723D01*
X19294486Y-23961723D02*
X19284962Y-23952199D01*
X19284962Y-23952199D02*
X19275439Y-23933152D01*
X19275439Y-23933152D02*
X19265915Y-23895057D01*
X19265915Y-23895057D02*
X19265915Y-23847438D01*
X19265915Y-23847438D02*
X19275439Y-23809342D01*
X19275439Y-23809342D02*
X19284962Y-23790295D01*
X19284962Y-23790295D02*
X19294486Y-23780771D01*
X19294486Y-23780771D02*
X19313534Y-23771247D01*
X19504010Y-23771247D02*
X19523058Y-23771247D01*
X19523058Y-23771247D02*
X19542105Y-23780771D01*
X19542105Y-23780771D02*
X19551629Y-23790295D01*
X19551629Y-23790295D02*
X19561153Y-23809342D01*
X19561153Y-23809342D02*
X19570677Y-23847438D01*
X19570677Y-23847438D02*
X19570677Y-23895057D01*
X19570677Y-23895057D02*
X19561153Y-23933152D01*
X19561153Y-23933152D02*
X19551629Y-23952199D01*
X19551629Y-23952199D02*
X19542105Y-23961723D01*
X19542105Y-23961723D02*
X19523058Y-23971247D01*
X19523058Y-23971247D02*
X19504010Y-23971247D01*
X19504010Y-23971247D02*
X19484962Y-23961723D01*
X19484962Y-23961723D02*
X19475439Y-23952199D01*
X19475439Y-23952199D02*
X19465915Y-23933152D01*
X19465915Y-23933152D02*
X19456391Y-23895057D01*
X19456391Y-23895057D02*
X19456391Y-23847438D01*
X19456391Y-23847438D02*
X19465915Y-23809342D01*
X19465915Y-23809342D02*
X19475439Y-23790295D01*
X19475439Y-23790295D02*
X19484962Y-23780771D01*
X19484962Y-23780771D02*
X19504010Y-23771247D01*
X19656391Y-23971247D02*
X19656391Y-23837914D01*
X19656391Y-23856961D02*
X19665915Y-23847438D01*
X19665915Y-23847438D02*
X19684962Y-23837914D01*
X19684962Y-23837914D02*
X19713534Y-23837914D01*
X19713534Y-23837914D02*
X19732581Y-23847438D01*
X19732581Y-23847438D02*
X19742105Y-23866485D01*
X19742105Y-23866485D02*
X19742105Y-23971247D01*
X19742105Y-23866485D02*
X19751629Y-23847438D01*
X19751629Y-23847438D02*
X19770677Y-23837914D01*
X19770677Y-23837914D02*
X19799248Y-23837914D01*
X19799248Y-23837914D02*
X19818296Y-23847438D01*
X19818296Y-23847438D02*
X19827820Y-23866485D01*
X19827820Y-23866485D02*
X19827820Y-23971247D01*
X19923058Y-23971247D02*
X19923058Y-23837914D01*
X19923058Y-23856961D02*
X19932581Y-23847438D01*
X19932581Y-23847438D02*
X19951629Y-23837914D01*
X19951629Y-23837914D02*
X19980201Y-23837914D01*
X19980201Y-23837914D02*
X19999248Y-23847438D01*
X19999248Y-23847438D02*
X20008772Y-23866485D01*
X20008772Y-23866485D02*
X20008772Y-23971247D01*
X20008772Y-23866485D02*
X20018296Y-23847438D01*
X20018296Y-23847438D02*
X20037343Y-23837914D01*
X20037343Y-23837914D02*
X20065915Y-23837914D01*
X20065915Y-23837914D02*
X20084962Y-23847438D01*
X20084962Y-23847438D02*
X20094486Y-23866485D01*
X20094486Y-23866485D02*
X20094486Y-23971247D01*
X20484962Y-23761723D02*
X20313534Y-24018866D01*
X20742105Y-23771247D02*
X20761153Y-23771247D01*
X20761153Y-23771247D02*
X20780201Y-23780771D01*
X20780201Y-23780771D02*
X20789724Y-23790295D01*
X20789724Y-23790295D02*
X20799248Y-23809342D01*
X20799248Y-23809342D02*
X20808772Y-23847438D01*
X20808772Y-23847438D02*
X20808772Y-23895057D01*
X20808772Y-23895057D02*
X20799248Y-23933152D01*
X20799248Y-23933152D02*
X20789724Y-23952199D01*
X20789724Y-23952199D02*
X20780201Y-23961723D01*
X20780201Y-23961723D02*
X20761153Y-23971247D01*
X20761153Y-23971247D02*
X20742105Y-23971247D01*
X20742105Y-23971247D02*
X20723058Y-23961723D01*
X20723058Y-23961723D02*
X20713534Y-23952199D01*
X20713534Y-23952199D02*
X20704010Y-23933152D01*
X20704010Y-23933152D02*
X20694486Y-23895057D01*
X20694486Y-23895057D02*
X20694486Y-23847438D01*
X20694486Y-23847438D02*
X20704010Y-23809342D01*
X20704010Y-23809342D02*
X20713534Y-23790295D01*
X20713534Y-23790295D02*
X20723058Y-23780771D01*
X20723058Y-23780771D02*
X20742105Y-23771247D01*
X20894486Y-23952199D02*
X20904010Y-23961723D01*
X20904010Y-23961723D02*
X20894486Y-23971247D01*
X20894486Y-23971247D02*
X20884963Y-23961723D01*
X20884963Y-23961723D02*
X20894486Y-23952199D01*
X20894486Y-23952199D02*
X20894486Y-23971247D01*
X20980201Y-23790295D02*
X20989724Y-23780771D01*
X20989724Y-23780771D02*
X21008772Y-23771247D01*
X21008772Y-23771247D02*
X21056391Y-23771247D01*
X21056391Y-23771247D02*
X21075439Y-23780771D01*
X21075439Y-23780771D02*
X21084963Y-23790295D01*
X21084963Y-23790295D02*
X21094486Y-23809342D01*
X21094486Y-23809342D02*
X21094486Y-23828390D01*
X21094486Y-23828390D02*
X21084963Y-23856961D01*
X21084963Y-23856961D02*
X20970677Y-23971247D01*
X20970677Y-23971247D02*
X21094486Y-23971247D01*
X21218296Y-23771247D02*
X21237344Y-23771247D01*
X21237344Y-23771247D02*
X21256391Y-23780771D01*
X21256391Y-23780771D02*
X21265915Y-23790295D01*
X21265915Y-23790295D02*
X21275439Y-23809342D01*
X21275439Y-23809342D02*
X21284963Y-23847438D01*
X21284963Y-23847438D02*
X21284963Y-23895057D01*
X21284963Y-23895057D02*
X21275439Y-23933152D01*
X21275439Y-23933152D02*
X21265915Y-23952199D01*
X21265915Y-23952199D02*
X21256391Y-23961723D01*
X21256391Y-23961723D02*
X21237344Y-23971247D01*
X21237344Y-23971247D02*
X21218296Y-23971247D01*
X21218296Y-23971247D02*
X21199248Y-23961723D01*
X21199248Y-23961723D02*
X21189724Y-23952199D01*
X21189724Y-23952199D02*
X21180201Y-23933152D01*
X21180201Y-23933152D02*
X21170677Y-23895057D01*
X21170677Y-23895057D02*
X21170677Y-23847438D01*
X21170677Y-23847438D02*
X21180201Y-23809342D01*
X21180201Y-23809342D02*
X21189724Y-23790295D01*
X21189724Y-23790295D02*
X21199248Y-23780771D01*
X21199248Y-23780771D02*
X21218296Y-23771247D01*
X21399248Y-23856961D02*
X21380201Y-23847438D01*
X21380201Y-23847438D02*
X21370677Y-23837914D01*
X21370677Y-23837914D02*
X21361153Y-23818866D01*
X21361153Y-23818866D02*
X21361153Y-23809342D01*
X21361153Y-23809342D02*
X21370677Y-23790295D01*
X21370677Y-23790295D02*
X21380201Y-23780771D01*
X21380201Y-23780771D02*
X21399248Y-23771247D01*
X21399248Y-23771247D02*
X21437344Y-23771247D01*
X21437344Y-23771247D02*
X21456391Y-23780771D01*
X21456391Y-23780771D02*
X21465915Y-23790295D01*
X21465915Y-23790295D02*
X21475439Y-23809342D01*
X21475439Y-23809342D02*
X21475439Y-23818866D01*
X21475439Y-23818866D02*
X21465915Y-23837914D01*
X21465915Y-23837914D02*
X21456391Y-23847438D01*
X21456391Y-23847438D02*
X21437344Y-23856961D01*
X21437344Y-23856961D02*
X21399248Y-23856961D01*
X21399248Y-23856961D02*
X21380201Y-23866485D01*
X21380201Y-23866485D02*
X21370677Y-23876009D01*
X21370677Y-23876009D02*
X21361153Y-23895057D01*
X21361153Y-23895057D02*
X21361153Y-23933152D01*
X21361153Y-23933152D02*
X21370677Y-23952199D01*
X21370677Y-23952199D02*
X21380201Y-23961723D01*
X21380201Y-23961723D02*
X21399248Y-23971247D01*
X21399248Y-23971247D02*
X21437344Y-23971247D01*
X21437344Y-23971247D02*
X21456391Y-23961723D01*
X21456391Y-23961723D02*
X21465915Y-23952199D01*
X21465915Y-23952199D02*
X21475439Y-23933152D01*
X21475439Y-23933152D02*
X21475439Y-23895057D01*
X21475439Y-23895057D02*
X21465915Y-23876009D01*
X21465915Y-23876009D02*
X21456391Y-23866485D01*
X21456391Y-23866485D02*
X21437344Y-23856961D01*
X21542105Y-23771247D02*
X21675439Y-23771247D01*
X21675439Y-23771247D02*
X21589724Y-23971247D01*
X21742105Y-23771247D02*
X21742105Y-23809342D01*
X21818296Y-23771247D02*
X21818296Y-23809342D01*
X22113534Y-24047438D02*
X22104010Y-24037914D01*
X22104010Y-24037914D02*
X22084963Y-24009342D01*
X22084963Y-24009342D02*
X22075439Y-23990295D01*
X22075439Y-23990295D02*
X22065915Y-23961723D01*
X22065915Y-23961723D02*
X22056391Y-23914104D01*
X22056391Y-23914104D02*
X22056391Y-23876009D01*
X22056391Y-23876009D02*
X22065915Y-23828390D01*
X22065915Y-23828390D02*
X22075439Y-23799819D01*
X22075439Y-23799819D02*
X22084963Y-23780771D01*
X22084963Y-23780771D02*
X22104010Y-23752199D01*
X22104010Y-23752199D02*
X22113534Y-23742676D01*
X22284963Y-23771247D02*
X22189725Y-23771247D01*
X22189725Y-23771247D02*
X22180201Y-23866485D01*
X22180201Y-23866485D02*
X22189725Y-23856961D01*
X22189725Y-23856961D02*
X22208772Y-23847438D01*
X22208772Y-23847438D02*
X22256391Y-23847438D01*
X22256391Y-23847438D02*
X22275439Y-23856961D01*
X22275439Y-23856961D02*
X22284963Y-23866485D01*
X22284963Y-23866485D02*
X22294486Y-23885533D01*
X22294486Y-23885533D02*
X22294486Y-23933152D01*
X22294486Y-23933152D02*
X22284963Y-23952199D01*
X22284963Y-23952199D02*
X22275439Y-23961723D01*
X22275439Y-23961723D02*
X22256391Y-23971247D01*
X22256391Y-23971247D02*
X22208772Y-23971247D01*
X22208772Y-23971247D02*
X22189725Y-23961723D01*
X22189725Y-23961723D02*
X22180201Y-23952199D01*
X22532582Y-23971247D02*
X22532582Y-23771247D01*
X22618296Y-23971247D02*
X22618296Y-23866485D01*
X22618296Y-23866485D02*
X22608772Y-23847438D01*
X22608772Y-23847438D02*
X22589725Y-23837914D01*
X22589725Y-23837914D02*
X22561153Y-23837914D01*
X22561153Y-23837914D02*
X22542105Y-23847438D01*
X22542105Y-23847438D02*
X22532582Y-23856961D01*
X22742105Y-23971247D02*
X22723058Y-23961723D01*
X22723058Y-23961723D02*
X22713534Y-23952199D01*
X22713534Y-23952199D02*
X22704010Y-23933152D01*
X22704010Y-23933152D02*
X22704010Y-23876009D01*
X22704010Y-23876009D02*
X22713534Y-23856961D01*
X22713534Y-23856961D02*
X22723058Y-23847438D01*
X22723058Y-23847438D02*
X22742105Y-23837914D01*
X22742105Y-23837914D02*
X22770677Y-23837914D01*
X22770677Y-23837914D02*
X22789725Y-23847438D01*
X22789725Y-23847438D02*
X22799248Y-23856961D01*
X22799248Y-23856961D02*
X22808772Y-23876009D01*
X22808772Y-23876009D02*
X22808772Y-23933152D01*
X22808772Y-23933152D02*
X22799248Y-23952199D01*
X22799248Y-23952199D02*
X22789725Y-23961723D01*
X22789725Y-23961723D02*
X22770677Y-23971247D01*
X22770677Y-23971247D02*
X22742105Y-23971247D01*
X22923058Y-23971247D02*
X22904010Y-23961723D01*
X22904010Y-23961723D02*
X22894486Y-23942676D01*
X22894486Y-23942676D02*
X22894486Y-23771247D01*
X23075439Y-23961723D02*
X23056391Y-23971247D01*
X23056391Y-23971247D02*
X23018296Y-23971247D01*
X23018296Y-23971247D02*
X22999248Y-23961723D01*
X22999248Y-23961723D02*
X22989725Y-23942676D01*
X22989725Y-23942676D02*
X22989725Y-23866485D01*
X22989725Y-23866485D02*
X22999248Y-23847438D01*
X22999248Y-23847438D02*
X23018296Y-23837914D01*
X23018296Y-23837914D02*
X23056391Y-23837914D01*
X23056391Y-23837914D02*
X23075439Y-23847438D01*
X23075439Y-23847438D02*
X23084963Y-23866485D01*
X23084963Y-23866485D02*
X23084963Y-23885533D01*
X23084963Y-23885533D02*
X22989725Y-23904580D01*
X23161153Y-23961723D02*
X23180201Y-23971247D01*
X23180201Y-23971247D02*
X23218296Y-23971247D01*
X23218296Y-23971247D02*
X23237344Y-23961723D01*
X23237344Y-23961723D02*
X23246867Y-23942676D01*
X23246867Y-23942676D02*
X23246867Y-23933152D01*
X23246867Y-23933152D02*
X23237344Y-23914104D01*
X23237344Y-23914104D02*
X23218296Y-23904580D01*
X23218296Y-23904580D02*
X23189725Y-23904580D01*
X23189725Y-23904580D02*
X23170677Y-23895057D01*
X23170677Y-23895057D02*
X23161153Y-23876009D01*
X23161153Y-23876009D02*
X23161153Y-23866485D01*
X23161153Y-23866485D02*
X23170677Y-23847438D01*
X23170677Y-23847438D02*
X23189725Y-23837914D01*
X23189725Y-23837914D02*
X23218296Y-23837914D01*
X23218296Y-23837914D02*
X23237344Y-23847438D01*
X23313534Y-24047438D02*
X23323058Y-24037914D01*
X23323058Y-24037914D02*
X23342106Y-24009342D01*
X23342106Y-24009342D02*
X23351629Y-23990295D01*
X23351629Y-23990295D02*
X23361153Y-23961723D01*
X23361153Y-23961723D02*
X23370677Y-23914104D01*
X23370677Y-23914104D02*
X23370677Y-23876009D01*
X23370677Y-23876009D02*
X23361153Y-23828390D01*
X23361153Y-23828390D02*
X23351629Y-23799819D01*
X23351629Y-23799819D02*
X23342106Y-23780771D01*
X23342106Y-23780771D02*
X23323058Y-23752199D01*
X23323058Y-23752199D02*
X23313534Y-23742676D01*
X23675439Y-24047438D02*
X23665915Y-24037914D01*
X23665915Y-24037914D02*
X23646867Y-24009342D01*
X23646867Y-24009342D02*
X23637344Y-23990295D01*
X23637344Y-23990295D02*
X23627820Y-23961723D01*
X23627820Y-23961723D02*
X23618296Y-23914104D01*
X23618296Y-23914104D02*
X23618296Y-23876009D01*
X23618296Y-23876009D02*
X23627820Y-23828390D01*
X23627820Y-23828390D02*
X23637344Y-23799819D01*
X23637344Y-23799819D02*
X23646867Y-23780771D01*
X23646867Y-23780771D02*
X23665915Y-23752199D01*
X23665915Y-23752199D02*
X23675439Y-23742676D01*
X23751629Y-23837914D02*
X23751629Y-23971247D01*
X23751629Y-23856961D02*
X23761153Y-23847438D01*
X23761153Y-23847438D02*
X23780201Y-23837914D01*
X23780201Y-23837914D02*
X23808772Y-23837914D01*
X23808772Y-23837914D02*
X23827820Y-23847438D01*
X23827820Y-23847438D02*
X23837344Y-23866485D01*
X23837344Y-23866485D02*
X23837344Y-23971247D01*
X23961153Y-23971247D02*
X23942106Y-23961723D01*
X23942106Y-23961723D02*
X23932582Y-23952199D01*
X23932582Y-23952199D02*
X23923058Y-23933152D01*
X23923058Y-23933152D02*
X23923058Y-23876009D01*
X23923058Y-23876009D02*
X23932582Y-23856961D01*
X23932582Y-23856961D02*
X23942106Y-23847438D01*
X23942106Y-23847438D02*
X23961153Y-23837914D01*
X23961153Y-23837914D02*
X23989725Y-23837914D01*
X23989725Y-23837914D02*
X24008772Y-23847438D01*
X24008772Y-23847438D02*
X24018296Y-23856961D01*
X24018296Y-23856961D02*
X24027820Y-23876009D01*
X24027820Y-23876009D02*
X24027820Y-23933152D01*
X24027820Y-23933152D02*
X24018296Y-23952199D01*
X24018296Y-23952199D02*
X24008772Y-23961723D01*
X24008772Y-23961723D02*
X23989725Y-23971247D01*
X23989725Y-23971247D02*
X23961153Y-23971247D01*
X24084963Y-23837914D02*
X24161153Y-23837914D01*
X24113534Y-23771247D02*
X24113534Y-23942676D01*
X24113534Y-23942676D02*
X24123058Y-23961723D01*
X24123058Y-23961723D02*
X24142106Y-23971247D01*
X24142106Y-23971247D02*
X24161153Y-23971247D01*
X24380201Y-23837914D02*
X24380201Y-24037914D01*
X24380201Y-23847438D02*
X24399248Y-23837914D01*
X24399248Y-23837914D02*
X24437344Y-23837914D01*
X24437344Y-23837914D02*
X24456391Y-23847438D01*
X24456391Y-23847438D02*
X24465915Y-23856961D01*
X24465915Y-23856961D02*
X24475439Y-23876009D01*
X24475439Y-23876009D02*
X24475439Y-23933152D01*
X24475439Y-23933152D02*
X24465915Y-23952199D01*
X24465915Y-23952199D02*
X24456391Y-23961723D01*
X24456391Y-23961723D02*
X24437344Y-23971247D01*
X24437344Y-23971247D02*
X24399248Y-23971247D01*
X24399248Y-23971247D02*
X24380201Y-23961723D01*
X24589725Y-23971247D02*
X24570677Y-23961723D01*
X24570677Y-23961723D02*
X24561153Y-23942676D01*
X24561153Y-23942676D02*
X24561153Y-23771247D01*
X24751629Y-23971247D02*
X24751629Y-23866485D01*
X24751629Y-23866485D02*
X24742106Y-23847438D01*
X24742106Y-23847438D02*
X24723058Y-23837914D01*
X24723058Y-23837914D02*
X24684963Y-23837914D01*
X24684963Y-23837914D02*
X24665915Y-23847438D01*
X24751629Y-23961723D02*
X24732582Y-23971247D01*
X24732582Y-23971247D02*
X24684963Y-23971247D01*
X24684963Y-23971247D02*
X24665915Y-23961723D01*
X24665915Y-23961723D02*
X24656391Y-23942676D01*
X24656391Y-23942676D02*
X24656391Y-23923628D01*
X24656391Y-23923628D02*
X24665915Y-23904580D01*
X24665915Y-23904580D02*
X24684963Y-23895057D01*
X24684963Y-23895057D02*
X24732582Y-23895057D01*
X24732582Y-23895057D02*
X24751629Y-23885533D01*
X24818296Y-23837914D02*
X24894487Y-23837914D01*
X24846868Y-23771247D02*
X24846868Y-23942676D01*
X24846868Y-23942676D02*
X24856391Y-23961723D01*
X24856391Y-23961723D02*
X24875439Y-23971247D01*
X24875439Y-23971247D02*
X24894487Y-23971247D01*
X25037344Y-23961723D02*
X25018296Y-23971247D01*
X25018296Y-23971247D02*
X24980201Y-23971247D01*
X24980201Y-23971247D02*
X24961153Y-23961723D01*
X24961153Y-23961723D02*
X24951629Y-23942676D01*
X24951629Y-23942676D02*
X24951629Y-23866485D01*
X24951629Y-23866485D02*
X24961153Y-23847438D01*
X24961153Y-23847438D02*
X24980201Y-23837914D01*
X24980201Y-23837914D02*
X25018296Y-23837914D01*
X25018296Y-23837914D02*
X25037344Y-23847438D01*
X25037344Y-23847438D02*
X25046868Y-23866485D01*
X25046868Y-23866485D02*
X25046868Y-23885533D01*
X25046868Y-23885533D02*
X24951629Y-23904580D01*
X25218296Y-23971247D02*
X25218296Y-23771247D01*
X25218296Y-23961723D02*
X25199249Y-23971247D01*
X25199249Y-23971247D02*
X25161153Y-23971247D01*
X25161153Y-23971247D02*
X25142106Y-23961723D01*
X25142106Y-23961723D02*
X25132582Y-23952199D01*
X25132582Y-23952199D02*
X25123058Y-23933152D01*
X25123058Y-23933152D02*
X25123058Y-23876009D01*
X25123058Y-23876009D02*
X25132582Y-23856961D01*
X25132582Y-23856961D02*
X25142106Y-23847438D01*
X25142106Y-23847438D02*
X25161153Y-23837914D01*
X25161153Y-23837914D02*
X25199249Y-23837914D01*
X25199249Y-23837914D02*
X25218296Y-23847438D01*
X25294487Y-24047438D02*
X25304010Y-24037914D01*
X25304010Y-24037914D02*
X25323058Y-24009342D01*
X25323058Y-24009342D02*
X25332582Y-23990295D01*
X25332582Y-23990295D02*
X25342106Y-23961723D01*
X25342106Y-23961723D02*
X25351629Y-23914104D01*
X25351629Y-23914104D02*
X25351629Y-23876009D01*
X25351629Y-23876009D02*
X25342106Y-23828390D01*
X25342106Y-23828390D02*
X25332582Y-23799819D01*
X25332582Y-23799819D02*
X25323058Y-23780771D01*
X25323058Y-23780771D02*
X25304010Y-23752199D01*
X25304010Y-23752199D02*
X25294487Y-23742676D01*
M02*
