G04 #@! TF.GenerationSoftware,KiCad,Pcbnew,7.0.5*
G04 #@! TF.CreationDate,2025-02-06T14:12:15+05:30*
G04 #@! TF.ProjectId,NewSparky_V1.3.4,4e657753-7061-4726-9b79-5f56312e332e,rev?*
G04 #@! TF.SameCoordinates,Original*
G04 #@! TF.FileFunction,Soldermask,Top*
G04 #@! TF.FilePolarity,Negative*
%FSLAX46Y46*%
G04 Gerber Fmt 4.6, Leading zero omitted, Abs format (unit mm)*
G04 Created by KiCad (PCBNEW 7.0.5) date 2025-02-06 14:12:15*
%MOMM*%
%LPD*%
G01*
G04 APERTURE LIST*
G04 Aperture macros list*
%AMRoundRect*
0 Rectangle with rounded corners*
0 $1 Rounding radius*
0 $2 $3 $4 $5 $6 $7 $8 $9 X,Y pos of 4 corners*
0 Add a 4 corners polygon primitive as box body*
4,1,4,$2,$3,$4,$5,$6,$7,$8,$9,$2,$3,0*
0 Add four circle primitives for the rounded corners*
1,1,$1+$1,$2,$3*
1,1,$1+$1,$4,$5*
1,1,$1+$1,$6,$7*
1,1,$1+$1,$8,$9*
0 Add four rect primitives between the rounded corners*
20,1,$1+$1,$2,$3,$4,$5,0*
20,1,$1+$1,$4,$5,$6,$7,0*
20,1,$1+$1,$6,$7,$8,$9,0*
20,1,$1+$1,$8,$9,$2,$3,0*%
G04 Aperture macros list end*
%ADD10R,0.800000X1.100000*%
%ADD11RoundRect,0.090000X-0.170000X0.140000X-0.170000X-0.140000X0.170000X-0.140000X0.170000X0.140000X0*%
%ADD12RoundRect,0.200000X-0.625000X0.312500X-0.625000X-0.312500X0.625000X-0.312500X0.625000X0.312500X0*%
%ADD13R,1.100000X0.800000*%
%ADD14C,0.900000*%
%ADD15RoundRect,0.150000X-0.200000X-0.275000X0.200000X-0.275000X0.200000X0.275000X-0.200000X0.275000X0*%
%ADD16RoundRect,0.175000X0.250000X-0.225000X0.250000X0.225000X-0.250000X0.225000X-0.250000X-0.225000X0*%
%ADD17R,1.900000X1.900000*%
%ADD18RoundRect,0.150000X-0.275000X0.200000X-0.275000X-0.200000X0.275000X-0.200000X0.275000X0.200000X0*%
%ADD19RoundRect,0.090000X0.170000X-0.140000X0.170000X0.140000X-0.170000X0.140000X-0.170000X-0.140000X0*%
%ADD20RoundRect,0.200000X0.362500X1.425000X-0.362500X1.425000X-0.362500X-1.425000X0.362500X-1.425000X0*%
%ADD21RoundRect,0.175000X0.225000X0.250000X-0.225000X0.250000X-0.225000X-0.250000X0.225000X-0.250000X0*%
%ADD22RoundRect,0.100000X-0.587500X-0.150000X0.587500X-0.150000X0.587500X0.150000X-0.587500X0.150000X0*%
%ADD23RoundRect,0.150000X0.200000X0.275000X-0.200000X0.275000X-0.200000X-0.275000X0.200000X-0.275000X0*%
%ADD24RoundRect,0.097500X0.172500X-0.147500X0.172500X0.147500X-0.172500X0.147500X-0.172500X-0.147500X0*%
%ADD25RoundRect,0.085000X-0.185000X0.135000X-0.185000X-0.135000X0.185000X-0.135000X0.185000X0.135000X0*%
%ADD26R,0.600000X0.500000*%
%ADD27RoundRect,0.200000X0.650000X-0.325000X0.650000X0.325000X-0.650000X0.325000X-0.650000X-0.325000X0*%
%ADD28R,0.900000X0.900000*%
%ADD29R,4.600000X7.900000*%
%ADD30RoundRect,0.175000X-0.250000X0.225000X-0.250000X-0.225000X0.250000X-0.225000X0.250000X0.225000X0*%
%ADD31RoundRect,0.150000X0.275000X-0.200000X0.275000X0.200000X-0.275000X0.200000X-0.275000X-0.200000X0*%
%ADD32R,1.500000X1.500000*%
%ADD33C,1.500000*%
%ADD34RoundRect,0.097500X-0.172500X0.147500X-0.172500X-0.147500X0.172500X-0.147500X0.172500X0.147500X0*%
%ADD35RoundRect,0.175000X-0.225000X-0.375000X0.225000X-0.375000X0.225000X0.375000X-0.225000X0.375000X0*%
%ADD36RoundRect,0.100000X-0.150000X0.825000X-0.150000X-0.825000X0.150000X-0.825000X0.150000X0.825000X0*%
%ADD37RoundRect,0.200000X-0.850000X-0.350000X0.850000X-0.350000X0.850000X0.350000X-0.850000X0.350000X0*%
%ADD38RoundRect,0.199997X-2.950003X-2.650003X2.950003X-2.650003X2.950003X2.650003X-2.950003X2.650003X0*%
%ADD39RoundRect,0.199999X-0.450001X-1.425001X0.450001X-1.425001X0.450001X1.425001X-0.450001X1.425001X0*%
%ADD40RoundRect,0.175000X-0.225000X-0.250000X0.225000X-0.250000X0.225000X0.250000X-0.225000X0.250000X0*%
%ADD41RoundRect,0.200000X0.850000X0.350000X-0.850000X0.350000X-0.850000X-0.350000X0.850000X-0.350000X0*%
%ADD42RoundRect,0.199997X2.950003X2.650003X-2.950003X2.650003X-2.950003X-2.650003X2.950003X-2.650003X0*%
%ADD43RoundRect,0.085000X0.185000X-0.135000X0.185000X0.135000X-0.185000X0.135000X-0.185000X-0.135000X0*%
%ADD44C,3.900000*%
%ADD45RoundRect,0.199999X0.450001X1.425001X-0.450001X1.425001X-0.450001X-1.425001X0.450001X-1.425001X0*%
%ADD46R,0.500000X1.150000*%
%ADD47RoundRect,0.400000X-0.300000X0.300000X-0.300000X-0.300000X0.300000X-0.300000X0.300000X0.300000X0*%
%ADD48C,1.400000*%
%ADD49RoundRect,0.200000X-0.650000X0.325000X-0.650000X-0.325000X0.650000X-0.325000X0.650000X0.325000X0*%
%ADD50RoundRect,0.200000X0.312500X0.625000X-0.312500X0.625000X-0.312500X-0.625000X0.312500X-0.625000X0*%
%ADD51R,1.900000X4.400000*%
%ADD52R,1.250000X1.250000*%
%ADD53C,1.250000*%
%ADD54RoundRect,0.097500X0.147500X0.172500X-0.147500X0.172500X-0.147500X-0.172500X0.147500X-0.172500X0*%
%ADD55C,5.200000*%
%ADD56C,3.100000*%
%ADD57RoundRect,0.200000X-0.325000X-0.650000X0.325000X-0.650000X0.325000X0.650000X-0.325000X0.650000X0*%
%ADD58R,0.350000X0.500000*%
%ADD59RoundRect,0.100000X-0.450000X-0.150000X0.450000X-0.150000X0.450000X0.150000X-0.450000X0.150000X0*%
%ADD60RoundRect,0.175000X-0.375000X0.225000X-0.375000X-0.225000X0.375000X-0.225000X0.375000X0.225000X0*%
%ADD61RoundRect,0.200000X1.000000X0.650000X-1.000000X0.650000X-1.000000X-0.650000X1.000000X-0.650000X0*%
%ADD62C,2.000000*%
%ADD63R,1.600000X1.600000*%
%ADD64O,1.600000X1.600000*%
%ADD65RoundRect,0.040000X-0.737500X0.150000X-0.737500X-0.150000X0.737500X-0.150000X0.737500X0.150000X0*%
%ADD66RoundRect,0.040000X0.150000X0.737500X-0.150000X0.737500X-0.150000X-0.737500X0.150000X-0.737500X0*%
%ADD67RoundRect,0.200000X-1.400000X-1.000000X1.400000X-1.000000X1.400000X1.000000X-1.400000X1.000000X0*%
%ADD68C,1.100000*%
%ADD69R,1.200000X1.200000*%
%ADD70C,1.200000*%
%ADD71RoundRect,0.100000X-0.150000X0.587500X-0.150000X-0.587500X0.150000X-0.587500X0.150000X0.587500X0*%
%ADD72RoundRect,0.200000X0.625000X-0.312500X0.625000X0.312500X-0.625000X0.312500X-0.625000X-0.312500X0*%
%ADD73RoundRect,0.175000X-0.017678X0.335876X-0.335876X0.017678X0.017678X-0.335876X0.335876X-0.017678X0*%
%ADD74RoundRect,0.100000X-0.512500X-0.150000X0.512500X-0.150000X0.512500X0.150000X-0.512500X0.150000X0*%
%ADD75C,3.400000*%
%ADD76RoundRect,0.010000X0.290000X-0.240000X0.290000X0.240000X-0.290000X0.240000X-0.290000X-0.240000X0*%
%ADD77RoundRect,0.200000X0.650000X-1.000000X0.650000X1.000000X-0.650000X1.000000X-0.650000X-1.000000X0*%
%ADD78RoundRect,0.100000X-0.825000X-0.150000X0.825000X-0.150000X0.825000X0.150000X-0.825000X0.150000X0*%
%ADD79R,2.310000X3.200000*%
%ADD80R,0.500000X0.350000*%
%ADD81RoundRect,0.040000X-0.627557X-0.415425X-0.415425X-0.627557X0.627557X0.415425X0.415425X0.627557X0*%
%ADD82RoundRect,0.040000X-0.415425X0.627557X-0.627557X0.415425X0.415425X-0.627557X0.627557X-0.415425X0*%
%ADD83RoundRect,0.175000X0.225000X0.375000X-0.225000X0.375000X-0.225000X-0.375000X0.225000X-0.375000X0*%
%ADD84R,1.300000X1.300000*%
%ADD85C,1.300000*%
%ADD86RoundRect,0.100000X0.450000X0.150000X-0.450000X0.150000X-0.450000X-0.150000X0.450000X-0.150000X0*%
%ADD87RoundRect,0.175000X0.375000X-0.225000X0.375000X0.225000X-0.375000X0.225000X-0.375000X-0.225000X0*%
%ADD88C,1.281000*%
%ADD89C,1.775000*%
%ADD90R,1.100000X3.800000*%
%ADD91RoundRect,0.010000X-0.440000X0.240000X-0.440000X-0.240000X0.440000X-0.240000X0.440000X0.240000X0*%
%ADD92R,1.100000X0.700000*%
%ADD93R,1.100000X1.100000*%
%ADD94RoundRect,0.200000X-0.312500X-0.625000X0.312500X-0.625000X0.312500X0.625000X-0.312500X0.625000X0*%
%ADD95R,3.200000X2.400000*%
%ADD96RoundRect,0.168750X0.218750X0.256250X-0.218750X0.256250X-0.218750X-0.256250X0.218750X-0.256250X0*%
%ADD97C,1.900000*%
%ADD98R,2.100000X1.100000*%
%ADD99R,6.300000X5.700000*%
%ADD100C,1.000000*%
G04 APERTURE END LIST*
D10*
X275208000Y-160020000D03*
X271908000Y-160020000D03*
D11*
X302600000Y-168120000D03*
X302600000Y-169080000D03*
D12*
X266140000Y-161960000D03*
X266140000Y-164885000D03*
D13*
X218948000Y-166368000D03*
X218948000Y-163068000D03*
D11*
X305585575Y-149615932D03*
X305585575Y-150575932D03*
D14*
X273575000Y-186175000D03*
X275475000Y-186175000D03*
D15*
X283597879Y-154698998D03*
X285247879Y-154698998D03*
X283495620Y-120095791D03*
X285145620Y-120095791D03*
D16*
X281860000Y-156009492D03*
X281860000Y-154459492D03*
X281860000Y-111082832D03*
X281860000Y-109532832D03*
D17*
X272288000Y-147066000D03*
D18*
X301608274Y-119047229D03*
X301608274Y-120697229D03*
D15*
X262870000Y-191730000D03*
X264520000Y-191730000D03*
D19*
X305859108Y-154603138D03*
X305859108Y-153643138D03*
D20*
X299162500Y-131200000D03*
X293237500Y-131200000D03*
D21*
X261007000Y-108798000D03*
X259457000Y-108798000D03*
D22*
X289200000Y-121530000D03*
X289200000Y-123430000D03*
X291075000Y-122480000D03*
D23*
X249627000Y-167726000D03*
X247977000Y-167726000D03*
D24*
X305550302Y-120799345D03*
X305550302Y-119829345D03*
D22*
X289200000Y-160760000D03*
X289200000Y-162660000D03*
X291075000Y-161710000D03*
D18*
X268220000Y-190135000D03*
X268220000Y-191785000D03*
D11*
X303214753Y-100103564D03*
X303214753Y-101063564D03*
D24*
X305000000Y-163400000D03*
X305000000Y-162430000D03*
D25*
X304410412Y-111012383D03*
X304410412Y-112032383D03*
D26*
X266320000Y-198300000D03*
X266320000Y-196900000D03*
D27*
X276850000Y-138674000D03*
X276850000Y-135724000D03*
D20*
X299162500Y-135588720D03*
X293237500Y-135588720D03*
D21*
X273571000Y-182626000D03*
X272021000Y-182626000D03*
D24*
X305563959Y-111993389D03*
X305563959Y-111023389D03*
D28*
X276860000Y-155194000D03*
D29*
X218900000Y-209000000D03*
X207600000Y-209000000D03*
D30*
X276860000Y-178549000D03*
X276860000Y-180099000D03*
D24*
X305400784Y-117571316D03*
X305400784Y-116601316D03*
D23*
X249990000Y-170160000D03*
X248340000Y-170160000D03*
D31*
X259635000Y-164110000D03*
X259635000Y-162460000D03*
D13*
X248940000Y-156950000D03*
X248940000Y-153650000D03*
D31*
X256970000Y-164080000D03*
X256970000Y-162430000D03*
D32*
X251160000Y-174250000D03*
D33*
X251160000Y-176250000D03*
D32*
X266328000Y-110322000D03*
D33*
X266328000Y-108322000D03*
D34*
X305614753Y-100093564D03*
X305614753Y-101063564D03*
D10*
X203328000Y-166878000D03*
X206628000Y-166878000D03*
D15*
X283619969Y-148154694D03*
X285269969Y-148154694D03*
D35*
X276722500Y-159900000D03*
X280022500Y-159900000D03*
D29*
X218900000Y-191500000D03*
X207600000Y-191500000D03*
D36*
X251045000Y-192725000D03*
X249775000Y-192725000D03*
X248505000Y-192725000D03*
X247235000Y-192725000D03*
X247235000Y-197675000D03*
X248505000Y-197675000D03*
X249775000Y-197675000D03*
X251045000Y-197675000D03*
D37*
X204125000Y-139975000D03*
D38*
X210425000Y-142255000D03*
D37*
X204125000Y-144535000D03*
D15*
X200152000Y-164084000D03*
X201802000Y-164084000D03*
D39*
X242400000Y-132562500D03*
X248500000Y-132562500D03*
D37*
X204115000Y-154439000D03*
D38*
X210415000Y-156719000D03*
D37*
X204115000Y-158999000D03*
D16*
X270900000Y-109827000D03*
X270900000Y-108277000D03*
D13*
X279400000Y-149860000D03*
X279400000Y-153160000D03*
D40*
X239395000Y-150660000D03*
X240945000Y-150660000D03*
D24*
X305000000Y-174685000D03*
X305000000Y-173715000D03*
D37*
X204100000Y-104170000D03*
D38*
X210400000Y-106450000D03*
D37*
X204100000Y-108730000D03*
D20*
X299125000Y-157600000D03*
X293200000Y-157600000D03*
D21*
X252975000Y-111439600D03*
X251425000Y-111439600D03*
D18*
X261730600Y-115288200D03*
X261730600Y-116938200D03*
D41*
X229125000Y-123255000D03*
D42*
X222825000Y-120975000D03*
D41*
X229125000Y-118695000D03*
D43*
X306983366Y-150664906D03*
X306983366Y-149644906D03*
D11*
X303305105Y-119829036D03*
X303305105Y-120789036D03*
D15*
X283600000Y-167770000D03*
X285250000Y-167770000D03*
D31*
X269650000Y-164170000D03*
X269650000Y-162520000D03*
D15*
X283596883Y-150332268D03*
X285246883Y-150332268D03*
D31*
X252800000Y-191425000D03*
X252800000Y-189775000D03*
D44*
X314600000Y-91800000D03*
D31*
X246060000Y-167515000D03*
X246060000Y-165865000D03*
D13*
X262110000Y-156535000D03*
X262110000Y-159835000D03*
D45*
X194356000Y-133758000D03*
X188256000Y-133758000D03*
D16*
X291084000Y-172238000D03*
X291084000Y-170688000D03*
D40*
X275056000Y-182626000D03*
X276606000Y-182626000D03*
D39*
X242375000Y-124287500D03*
X248475000Y-124287500D03*
D15*
X297475000Y-96800000D03*
X299125000Y-96800000D03*
D46*
X275656000Y-165930000D03*
X277556000Y-165930000D03*
X276606000Y-163830000D03*
D44*
X191600000Y-91800000D03*
D47*
X265350000Y-214420000D03*
D48*
X262810000Y-214420000D03*
X260270000Y-214420000D03*
D20*
X299212594Y-126961801D03*
X293287594Y-126961801D03*
D49*
X256540000Y-154178000D03*
X256540000Y-157128000D03*
D45*
X194356000Y-129768000D03*
X188256000Y-129768000D03*
D22*
X220883000Y-169484000D03*
X220883000Y-171384000D03*
X222758000Y-170434000D03*
D16*
X281860000Y-147024160D03*
X281860000Y-145474160D03*
D31*
X298868000Y-186206000D03*
X298868000Y-184556000D03*
D16*
X281860000Y-124560830D03*
X281860000Y-123010830D03*
D43*
X307106430Y-158310000D03*
X307106430Y-157290000D03*
D18*
X218853000Y-168910000D03*
X218853000Y-170560000D03*
D24*
X308250000Y-137800000D03*
X308250000Y-136830000D03*
D25*
X303800000Y-168090000D03*
X303800000Y-169110000D03*
D15*
X283477023Y-135102339D03*
X285127023Y-135102339D03*
D50*
X274960000Y-157670000D03*
X272035000Y-157670000D03*
D31*
X231320000Y-115315000D03*
X231320000Y-113665000D03*
D51*
X281432000Y-182558000D03*
X281432000Y-174058000D03*
D31*
X231340000Y-159105000D03*
X231340000Y-157455000D03*
D15*
X283611908Y-156758726D03*
X285261908Y-156758726D03*
D41*
X229125000Y-144735000D03*
D42*
X222825000Y-142455000D03*
D41*
X229125000Y-140175000D03*
D18*
X301858274Y-131007229D03*
X301858274Y-132657229D03*
D13*
X272542000Y-151004000D03*
X272542000Y-154304000D03*
D52*
X309050000Y-186530000D03*
D53*
X307050000Y-186530000D03*
X309050000Y-188530000D03*
X307050000Y-188530000D03*
X309050000Y-190530000D03*
X307050000Y-190530000D03*
X309050000Y-192530000D03*
X307050000Y-192530000D03*
X309050000Y-194530000D03*
X307050000Y-194530000D03*
X309050000Y-196530000D03*
X307050000Y-196530000D03*
X309050000Y-198530000D03*
X307050000Y-198530000D03*
X309050000Y-200530000D03*
X307050000Y-200530000D03*
D11*
X305851082Y-157285743D03*
X305851082Y-158245743D03*
D23*
X302153000Y-184776000D03*
X300503000Y-184776000D03*
D13*
X275878400Y-109406600D03*
X275878400Y-106106600D03*
D18*
X201930000Y-140645000D03*
X201930000Y-142295000D03*
D20*
X299162500Y-165800000D03*
X293237500Y-165800000D03*
D54*
X268685000Y-201150000D03*
X267715000Y-201150000D03*
D11*
X303221585Y-105540000D03*
X303221585Y-106500000D03*
D19*
X303200000Y-103700000D03*
X303200000Y-102740000D03*
D13*
X298400000Y-170210000D03*
X298400000Y-173510000D03*
D19*
X305800000Y-132100000D03*
X305800000Y-131140000D03*
D54*
X262635000Y-204600000D03*
X261665000Y-204600000D03*
D13*
X264635000Y-159835000D03*
X264635000Y-156535000D03*
D15*
X249247000Y-146644000D03*
X250897000Y-146644000D03*
D55*
X231600000Y-197675000D03*
D56*
X227165000Y-202110000D03*
X231600000Y-202110000D03*
X236035000Y-202110000D03*
X227165000Y-197675000D03*
X236035000Y-197675000D03*
X227165000Y-193240000D03*
X231600000Y-193240000D03*
X236035000Y-193240000D03*
D57*
X203900000Y-91150000D03*
X206850000Y-91150000D03*
D16*
X281860000Y-129053496D03*
X281860000Y-127503496D03*
D17*
X252480000Y-121890000D03*
D58*
X287000000Y-152556983D03*
X287000000Y-154656983D03*
D59*
X251420500Y-158749600D03*
X251420500Y-160649600D03*
X253295500Y-159699600D03*
D24*
X305000000Y-166042349D03*
X305000000Y-165072349D03*
D58*
X287000000Y-139350000D03*
X287000000Y-141450000D03*
D50*
X226860000Y-84400000D03*
X223935000Y-84400000D03*
D55*
X278365000Y-90940000D03*
D56*
X273930000Y-95375000D03*
X278365000Y-95375000D03*
X282800000Y-95375000D03*
X273930000Y-90940000D03*
X282800000Y-90940000D03*
X273930000Y-86505000D03*
X278365000Y-86505000D03*
X282800000Y-86505000D03*
D15*
X283460747Y-115769160D03*
X285110747Y-115769160D03*
D25*
X304385721Y-105504900D03*
X304385721Y-106524900D03*
X307050000Y-134080000D03*
X307050000Y-135100000D03*
X303778863Y-173652379D03*
X303778863Y-174672379D03*
D60*
X276280000Y-145190000D03*
X276280000Y-148490000D03*
D57*
X203900000Y-88650000D03*
X206850000Y-88650000D03*
D19*
X302663659Y-177252942D03*
X302663659Y-176292942D03*
D31*
X250800000Y-190225000D03*
X250800000Y-188575000D03*
D61*
X207150000Y-85050000D03*
X203150000Y-85050000D03*
D22*
X289200000Y-108500000D03*
X289200000Y-110400000D03*
X291075000Y-109450000D03*
D24*
X305415058Y-114771371D03*
X305415058Y-113801371D03*
D15*
X283486340Y-128716125D03*
X285136340Y-128716125D03*
D16*
X281860000Y-133546162D03*
X281860000Y-131996162D03*
D29*
X218900000Y-200250000D03*
X207600000Y-200250000D03*
D18*
X217313000Y-168910000D03*
X217313000Y-170560000D03*
D16*
X296738000Y-186996000D03*
X296738000Y-185446000D03*
D58*
X287000000Y-100700000D03*
X287000000Y-102800000D03*
D11*
X302655053Y-173715983D03*
X302655053Y-174675983D03*
D23*
X271580000Y-190070000D03*
X269930000Y-190070000D03*
D13*
X267135000Y-150885000D03*
X267135000Y-154185000D03*
D18*
X301858274Y-135507229D03*
X301858274Y-137157229D03*
D30*
X186940000Y-166800000D03*
X186940000Y-168350000D03*
D22*
X289200000Y-134580000D03*
X289200000Y-136480000D03*
X291075000Y-135530000D03*
D56*
X223540000Y-164850000D03*
D40*
X251545000Y-143010000D03*
X253095000Y-143010000D03*
D36*
X263505000Y-194325000D03*
X262235000Y-194325000D03*
X260965000Y-194325000D03*
X259695000Y-194325000D03*
X259695000Y-199275000D03*
X260965000Y-199275000D03*
X262235000Y-199275000D03*
X263505000Y-199275000D03*
D37*
X204175000Y-125620000D03*
D38*
X210475000Y-127900000D03*
D37*
X204175000Y-130180000D03*
D19*
X302600000Y-182209694D03*
X302600000Y-181249694D03*
D16*
X281860000Y-164994824D03*
X281860000Y-163444824D03*
D62*
X301110000Y-213900000D03*
D25*
X304400000Y-102700000D03*
X304400000Y-103720000D03*
D63*
X285750000Y-214376000D03*
D64*
X283210000Y-214376000D03*
X280670000Y-214376000D03*
D45*
X194466000Y-121828000D03*
X188366000Y-121828000D03*
D31*
X246000000Y-190225000D03*
X246000000Y-188575000D03*
D37*
X204075000Y-111320000D03*
D38*
X210375000Y-113600000D03*
D37*
X204075000Y-115880000D03*
D23*
X246675000Y-152275000D03*
X245025000Y-152275000D03*
D65*
X269550000Y-179112000D03*
X269550000Y-178612000D03*
X269550000Y-178112000D03*
X269550000Y-177612000D03*
X269550000Y-177112000D03*
X269550000Y-176612000D03*
X269550000Y-176112000D03*
X269550000Y-175612000D03*
X269550000Y-175112000D03*
X269550000Y-174612000D03*
X269550000Y-174112000D03*
X269550000Y-173612000D03*
D66*
X268062000Y-172124000D03*
X267562000Y-172124000D03*
X267062000Y-172124000D03*
X266562000Y-172124000D03*
X266062000Y-172124000D03*
X265562000Y-172124000D03*
X265062000Y-172124000D03*
X264562000Y-172124000D03*
X264062000Y-172124000D03*
X263562000Y-172124000D03*
X263062000Y-172124000D03*
X262562000Y-172124000D03*
D65*
X261074000Y-173612000D03*
X261074000Y-174112000D03*
X261074000Y-174612000D03*
X261074000Y-175112000D03*
X261074000Y-175612000D03*
X261074000Y-176112000D03*
X261074000Y-176612000D03*
X261074000Y-177112000D03*
X261074000Y-177612000D03*
X261074000Y-178112000D03*
X261074000Y-178612000D03*
X261074000Y-179112000D03*
D66*
X262562000Y-180600000D03*
X263062000Y-180600000D03*
X263562000Y-180600000D03*
X264062000Y-180600000D03*
X264562000Y-180600000D03*
X265062000Y-180600000D03*
X265562000Y-180600000D03*
X266062000Y-180600000D03*
X266562000Y-180600000D03*
X267062000Y-180600000D03*
X267562000Y-180600000D03*
X268062000Y-180600000D03*
D31*
X276860000Y-173736000D03*
X276860000Y-172086000D03*
D23*
X262327000Y-186200000D03*
X260677000Y-186200000D03*
D58*
X287000000Y-126350000D03*
X287000000Y-128450000D03*
D15*
X200152000Y-165608000D03*
X201802000Y-165608000D03*
X248215000Y-200565000D03*
X249865000Y-200565000D03*
D31*
X276850000Y-102505000D03*
X276850000Y-100855000D03*
X264130000Y-164040000D03*
X264130000Y-162390000D03*
D21*
X254575000Y-193400000D03*
X253025000Y-193400000D03*
D41*
X229110000Y-158960000D03*
D42*
X222810000Y-156680000D03*
D41*
X229110000Y-154400000D03*
D15*
X283471653Y-124440990D03*
X285121653Y-124440990D03*
D25*
X307050000Y-131140000D03*
X307050000Y-132160000D03*
D18*
X255507600Y-123302400D03*
X255507600Y-124952400D03*
D16*
X281610000Y-102237500D03*
X281610000Y-100687500D03*
D15*
X267900000Y-196810000D03*
X269550000Y-196810000D03*
D31*
X257184000Y-111883600D03*
X257184000Y-110233600D03*
D17*
X273558000Y-140970000D03*
D41*
X229075000Y-101580000D03*
D42*
X222775000Y-99300000D03*
D41*
X229075000Y-97020000D03*
D25*
X304227819Y-113780000D03*
X304227819Y-114800000D03*
D67*
X235550000Y-160510000D03*
X235550000Y-167310000D03*
D24*
X308200000Y-150650000D03*
X308200000Y-149680000D03*
D17*
X273200000Y-120700000D03*
D22*
X289200000Y-112900000D03*
X289200000Y-114800000D03*
X291075000Y-113850000D03*
D18*
X301608274Y-122897229D03*
X301608274Y-124547229D03*
D31*
X231250000Y-108395000D03*
X231250000Y-106745000D03*
D45*
X194466000Y-125798000D03*
X188366000Y-125798000D03*
D22*
X289200000Y-143400000D03*
X289200000Y-145300000D03*
X291075000Y-144350000D03*
D31*
X231310000Y-137205000D03*
X231310000Y-135555000D03*
D30*
X287528000Y-170180000D03*
X287528000Y-171730000D03*
D58*
X296200000Y-170950000D03*
X296200000Y-173050000D03*
D30*
X256794000Y-158750000D03*
X256794000Y-160300000D03*
D58*
X277850000Y-195000000D03*
X277850000Y-197100000D03*
D19*
X302600000Y-166072349D03*
X302600000Y-165112349D03*
D20*
X299173460Y-118435745D03*
X293248460Y-118435745D03*
D58*
X287000000Y-135150000D03*
X287000000Y-137250000D03*
D16*
X281860000Y-106590166D03*
X281860000Y-105040166D03*
D15*
X283661304Y-163222158D03*
X285311304Y-163222158D03*
D13*
X259560000Y-156535000D03*
X259560000Y-159835000D03*
D20*
X299125000Y-139928400D03*
X293200000Y-139928400D03*
D68*
X312035000Y-124400000D03*
X312035000Y-104400000D03*
D69*
X309635000Y-122400000D03*
D70*
X309635000Y-120400000D03*
X309635000Y-118400000D03*
X309635000Y-116400000D03*
X309635000Y-114400000D03*
X309635000Y-112400000D03*
X309635000Y-110400000D03*
X309635000Y-108400000D03*
X309635000Y-106400000D03*
D22*
X289200000Y-164890000D03*
X289200000Y-166790000D03*
X291075000Y-165840000D03*
D71*
X244170000Y-138655000D03*
X242270000Y-138655000D03*
X243220000Y-140530000D03*
D24*
X305000000Y-179570000D03*
X305000000Y-178600000D03*
D15*
X262319000Y-152908000D03*
X263969000Y-152908000D03*
D22*
X289248159Y-100761802D03*
X289248159Y-102661802D03*
X291123159Y-101711802D03*
D58*
X287000000Y-113350000D03*
X287000000Y-115450000D03*
D15*
X277660000Y-189310000D03*
X279310000Y-189310000D03*
D24*
X305564461Y-123902985D03*
X305564461Y-122932985D03*
D10*
X276210000Y-128244000D03*
X279510000Y-128244000D03*
D16*
X259740000Y-134260000D03*
X259740000Y-132710000D03*
D24*
X305000000Y-177285000D03*
X305000000Y-176315000D03*
D23*
X272760000Y-198230000D03*
X271110000Y-198230000D03*
D22*
X289200000Y-104700000D03*
X289200000Y-106600000D03*
X291075000Y-105650000D03*
D23*
X249627000Y-165186000D03*
X247977000Y-165186000D03*
D72*
X263720000Y-168565000D03*
X263720000Y-165640000D03*
D13*
X216408000Y-163068000D03*
X216408000Y-166368000D03*
D25*
X307100000Y-136790000D03*
X307100000Y-137810000D03*
D41*
X229130000Y-151886000D03*
D42*
X222830000Y-149606000D03*
D41*
X229130000Y-147326000D03*
D73*
X259548008Y-137501992D03*
X258451992Y-138598008D03*
D20*
X299125000Y-101600000D03*
X293200000Y-101600000D03*
D22*
X289200000Y-147730000D03*
X289200000Y-149630000D03*
X291075000Y-148680000D03*
D58*
X287000000Y-156950000D03*
X287000000Y-159050000D03*
D22*
X289200000Y-139010000D03*
X289200000Y-140910000D03*
X291075000Y-139960000D03*
D10*
X256000000Y-129600000D03*
X252700000Y-129600000D03*
D74*
X265342900Y-120700400D03*
X265342900Y-121650400D03*
X265342900Y-122600400D03*
X267617900Y-122600400D03*
X267617900Y-120700400D03*
D19*
X302611812Y-172053639D03*
X302611812Y-171093639D03*
X303300000Y-109500000D03*
X303300000Y-108540000D03*
D44*
X191600000Y-209800000D03*
D75*
X223550000Y-89300000D03*
D76*
X206026000Y-168910000D03*
X206026000Y-170810000D03*
X208026000Y-169860000D03*
D15*
X283655166Y-159168465D03*
X285305166Y-159168465D03*
X283481627Y-130797007D03*
X285131627Y-130797007D03*
D13*
X229108000Y-165354000D03*
X229108000Y-162054000D03*
D22*
X289200000Y-117100000D03*
X289200000Y-119000000D03*
X291075000Y-118050000D03*
D19*
X303148460Y-114787111D03*
X303148460Y-113827111D03*
D31*
X253230000Y-172060000D03*
X253230000Y-170410000D03*
D15*
X283539865Y-139285514D03*
X285189865Y-139285514D03*
D16*
X281860000Y-151516826D03*
X281860000Y-149966826D03*
D25*
X307082304Y-153604560D03*
X307082304Y-154624560D03*
D41*
X229150000Y-137535000D03*
D42*
X222850000Y-135255000D03*
D41*
X229150000Y-132975000D03*
D50*
X279632500Y-157480000D03*
X276707500Y-157480000D03*
D21*
X253925000Y-150270000D03*
X252375000Y-150270000D03*
D11*
X305800000Y-134120000D03*
X305800000Y-135080000D03*
D18*
X301608274Y-108807229D03*
X301608274Y-110457229D03*
D11*
X303228935Y-111020763D03*
X303228935Y-111980763D03*
D31*
X255310000Y-164035000D03*
X255310000Y-162385000D03*
D25*
X303829089Y-162402320D03*
X303829089Y-163422320D03*
D21*
X250850000Y-145100000D03*
X249300000Y-145100000D03*
D16*
X281860000Y-142531494D03*
X281860000Y-140981494D03*
D21*
X256765200Y-120431200D03*
X255215200Y-120431200D03*
D25*
X304400000Y-119800000D03*
X304400000Y-120820000D03*
D18*
X257570000Y-194685000D03*
X257570000Y-196335000D03*
D55*
X193500000Y-103065000D03*
D56*
X189065000Y-98630000D03*
X189065000Y-103065000D03*
X189065000Y-107500000D03*
X193500000Y-98630000D03*
X193500000Y-107500000D03*
X197935000Y-98630000D03*
X197935000Y-103065000D03*
X197935000Y-107500000D03*
D37*
X204025000Y-96950000D03*
D38*
X210325000Y-99230000D03*
D37*
X204025000Y-101510000D03*
D40*
X259585000Y-190200000D03*
X261135000Y-190200000D03*
D16*
X281860000Y-115575498D03*
X281860000Y-114025498D03*
X281860000Y-160502158D03*
X281860000Y-158952158D03*
D50*
X253998300Y-154365600D03*
X251073300Y-154365600D03*
D18*
X292490000Y-193630000D03*
X292490000Y-195280000D03*
D13*
X276005400Y-121981600D03*
X276005400Y-125281600D03*
D17*
X272855800Y-114046000D03*
D19*
X303258444Y-123861669D03*
X303258444Y-122901669D03*
D40*
X259160000Y-182540000D03*
X260710000Y-182540000D03*
X259575000Y-191950000D03*
X261125000Y-191950000D03*
D45*
X194316000Y-141738000D03*
X188216000Y-141738000D03*
D39*
X242375000Y-128412500D03*
X248475000Y-128412500D03*
D18*
X201910000Y-154915000D03*
X201910000Y-156565000D03*
D16*
X275310000Y-174940000D03*
X275310000Y-173390000D03*
D18*
X201890000Y-104975000D03*
X201890000Y-106625000D03*
D41*
X229125000Y-116030000D03*
D42*
X222825000Y-113750000D03*
D41*
X229125000Y-111470000D03*
D15*
X199200000Y-92925000D03*
X200850000Y-92925000D03*
D24*
X308200000Y-129085000D03*
X308200000Y-128115000D03*
D18*
X301728274Y-127357229D03*
X301728274Y-129007229D03*
D41*
X229075000Y-108835000D03*
D42*
X222775000Y-106555000D03*
D41*
X229075000Y-104275000D03*
D25*
X304504355Y-108513057D03*
X304504355Y-109533057D03*
D22*
X289200000Y-156700000D03*
X289200000Y-158600000D03*
X291075000Y-157650000D03*
D15*
X283472822Y-122085372D03*
X285122822Y-122085372D03*
D18*
X268080000Y-162540000D03*
X268080000Y-164190000D03*
D21*
X270840000Y-186170000D03*
X269290000Y-186170000D03*
D25*
X303815972Y-165090000D03*
X303815972Y-166110000D03*
D72*
X261360000Y-168595000D03*
X261360000Y-165670000D03*
D24*
X308208086Y-132123018D03*
X308208086Y-131153018D03*
X308300000Y-135070000D03*
X308300000Y-134100000D03*
D37*
X204115000Y-147149000D03*
D38*
X210415000Y-149429000D03*
D37*
X204115000Y-151709000D03*
D58*
X287000000Y-104900000D03*
X287000000Y-107000000D03*
D10*
X210822000Y-169672000D03*
X214122000Y-169672000D03*
D31*
X231250000Y-101800000D03*
X231250000Y-100150000D03*
D43*
X304414753Y-101123564D03*
X304414753Y-100103564D03*
D15*
X200152000Y-167132000D03*
X201802000Y-167132000D03*
D40*
X263600000Y-203350000D03*
X265150000Y-203350000D03*
D77*
X217075000Y-92250000D03*
X217075000Y-88250000D03*
D15*
X242500000Y-146200000D03*
X244150000Y-146200000D03*
D10*
X241400000Y-143180000D03*
X244700000Y-143180000D03*
D18*
X201960000Y-119305000D03*
X201960000Y-120955000D03*
D23*
X246650000Y-150575000D03*
X245000000Y-150575000D03*
D20*
X299125000Y-153200000D03*
X293200000Y-153200000D03*
D11*
X302631207Y-178648426D03*
X302631207Y-179608426D03*
D13*
X264651600Y-117560000D03*
X264651600Y-114260000D03*
D72*
X259050000Y-168625000D03*
X259050000Y-165700000D03*
D61*
X219425000Y-84950000D03*
X215425000Y-84950000D03*
D19*
X303121688Y-117531648D03*
X303121688Y-116571648D03*
D15*
X283589987Y-152539308D03*
X285239987Y-152539308D03*
D31*
X262822800Y-122196000D03*
X262822800Y-120546000D03*
D24*
X305676465Y-109477242D03*
X305676465Y-108507242D03*
D30*
X270646000Y-120646800D03*
X270646000Y-122196800D03*
D58*
X287000000Y-148150000D03*
X287000000Y-150250000D03*
D18*
X266630000Y-190125000D03*
X266630000Y-191775000D03*
X209296000Y-169672000D03*
X209296000Y-171322000D03*
D10*
X203328000Y-164338000D03*
X206628000Y-164338000D03*
D78*
X253210400Y-114208200D03*
X253210400Y-115478200D03*
X253210400Y-116748200D03*
X253210400Y-118018200D03*
X258160400Y-118018200D03*
X258160400Y-116748200D03*
X258160400Y-115478200D03*
X258160400Y-114208200D03*
D79*
X255685400Y-116113200D03*
D80*
X271680000Y-194660000D03*
X269580000Y-194660000D03*
D81*
X269640602Y-141747572D03*
X269287049Y-141394019D03*
X268933495Y-141040465D03*
X268579942Y-140686912D03*
X268226389Y-140333359D03*
X267872835Y-139979805D03*
X267519282Y-139626252D03*
X267165728Y-139272698D03*
X266812175Y-138919145D03*
X266458622Y-138565592D03*
X266105068Y-138212038D03*
X265751515Y-137858485D03*
D82*
X263647165Y-137858485D03*
X263293612Y-138212038D03*
X262940058Y-138565592D03*
X262586505Y-138919145D03*
X262232952Y-139272698D03*
X261879398Y-139626252D03*
X261525845Y-139979805D03*
X261172291Y-140333359D03*
X260818738Y-140686912D03*
X260465185Y-141040465D03*
X260111631Y-141394019D03*
X259758078Y-141747572D03*
D81*
X259758078Y-143851922D03*
X260111631Y-144205475D03*
X260465185Y-144559029D03*
X260818738Y-144912582D03*
X261172291Y-145266135D03*
X261525845Y-145619689D03*
X261879398Y-145973242D03*
X262232952Y-146326796D03*
X262586505Y-146680349D03*
X262940058Y-147033902D03*
X263293612Y-147387456D03*
X263647165Y-147741009D03*
D82*
X265751515Y-147741009D03*
X266105068Y-147387456D03*
X266458622Y-147033902D03*
X266812175Y-146680349D03*
X267165728Y-146326796D03*
X267519282Y-145973242D03*
X267872835Y-145619689D03*
X268226389Y-145266135D03*
X268579942Y-144912582D03*
X268933495Y-144559029D03*
X269287049Y-144205475D03*
X269640602Y-143851922D03*
D25*
X306800000Y-128090000D03*
X306800000Y-129110000D03*
D16*
X281860000Y-120068164D03*
X281860000Y-118518164D03*
D30*
X273020000Y-173305000D03*
X273020000Y-174855000D03*
D15*
X283495145Y-137170544D03*
X285145145Y-137170544D03*
D31*
X231340000Y-129865000D03*
X231340000Y-128215000D03*
D83*
X281430000Y-169672000D03*
X278130000Y-169672000D03*
D20*
X299164422Y-110019268D03*
X293239422Y-110019268D03*
D24*
X308200000Y-154570000D03*
X308200000Y-153600000D03*
D31*
X301710000Y-98450000D03*
X301710000Y-96800000D03*
D25*
X303841646Y-181180000D03*
X303841646Y-182200000D03*
D45*
X194466000Y-117818000D03*
X188366000Y-117818000D03*
D19*
X305900000Y-137810000D03*
X305900000Y-136850000D03*
D49*
X279440000Y-135734000D03*
X279440000Y-138684000D03*
D20*
X299125000Y-106000000D03*
X293200000Y-106000000D03*
D11*
X302614025Y-162431090D03*
X302614025Y-163391090D03*
D58*
X287000000Y-117890987D03*
X287000000Y-119990987D03*
X287000000Y-130750000D03*
X287000000Y-132850000D03*
D30*
X255620000Y-139010000D03*
X255620000Y-140560000D03*
D60*
X255270000Y-171122500D03*
X255270000Y-174422500D03*
D22*
X289200000Y-152040000D03*
X289200000Y-153940000D03*
X291075000Y-152990000D03*
D18*
X274574000Y-152654000D03*
X274574000Y-154304000D03*
D24*
X308400000Y-158285000D03*
X308400000Y-157315000D03*
D37*
X204275000Y-132795000D03*
D38*
X210575000Y-135075000D03*
D37*
X204275000Y-137355000D03*
D31*
X266750000Y-195230000D03*
X266750000Y-193580000D03*
D55*
X242365000Y-90940000D03*
D56*
X237930000Y-95375000D03*
X242365000Y-95375000D03*
X246800000Y-95375000D03*
X237930000Y-90940000D03*
X246800000Y-90940000D03*
X237930000Y-86505000D03*
X242365000Y-86505000D03*
X246800000Y-86505000D03*
D23*
X264575000Y-201550000D03*
X262925000Y-201550000D03*
D15*
X283396590Y-102824466D03*
X285046590Y-102824466D03*
D16*
X294000000Y-172775000D03*
X294000000Y-171225000D03*
D20*
X299125000Y-144268080D03*
X293200000Y-144268080D03*
D15*
X263190000Y-190200000D03*
X264840000Y-190200000D03*
X283440871Y-113516231D03*
X285090871Y-113516231D03*
D72*
X279654000Y-164846000D03*
X279654000Y-161921000D03*
D16*
X259640000Y-122150000D03*
X259640000Y-120600000D03*
X298968000Y-189801000D03*
X298968000Y-188251000D03*
D22*
X289200000Y-130100000D03*
X289200000Y-132000000D03*
X291075000Y-131050000D03*
D44*
X314600000Y-209800000D03*
D15*
X283492588Y-132924400D03*
X285142588Y-132924400D03*
D84*
X310670000Y-130900000D03*
D85*
X312670000Y-130900000D03*
X310670000Y-132900000D03*
X312670000Y-132900000D03*
X310670000Y-134900000D03*
X312670000Y-134900000D03*
X310670000Y-136900000D03*
X312670000Y-136900000D03*
D58*
X287000000Y-161150000D03*
X287000000Y-163250000D03*
D24*
X305557831Y-106499900D03*
X305557831Y-105529900D03*
D62*
X192000000Y-86000000D03*
D21*
X254660000Y-195200000D03*
X253110000Y-195200000D03*
D18*
X295070000Y-193330000D03*
X295070000Y-194980000D03*
D13*
X270002000Y-150984600D03*
X270002000Y-154284600D03*
D30*
X186930000Y-163510000D03*
X186930000Y-165060000D03*
D25*
X304262016Y-116580000D03*
X304262016Y-117600000D03*
D58*
X287000000Y-165554347D03*
X287000000Y-167654347D03*
D86*
X204470000Y-170810000D03*
X204470000Y-168910000D03*
X202595000Y-169860000D03*
D21*
X250850000Y-151150000D03*
X249300000Y-151150000D03*
D10*
X255950000Y-133450000D03*
X252650000Y-133450000D03*
D87*
X269720000Y-159790000D03*
X269720000Y-156490000D03*
D50*
X253922100Y-156753200D03*
X250997100Y-156753200D03*
D39*
X242375000Y-120162500D03*
X248475000Y-120162500D03*
D15*
X283370285Y-100704234D03*
X285020285Y-100704234D03*
D56*
X211560000Y-164780000D03*
D41*
X229150000Y-130380000D03*
D42*
X222850000Y-128100000D03*
D41*
X229150000Y-125820000D03*
D21*
X253895000Y-151890000D03*
X252345000Y-151890000D03*
D31*
X231510000Y-151490000D03*
X231510000Y-149840000D03*
D21*
X263906000Y-151384000D03*
X262356000Y-151384000D03*
D15*
X253040000Y-197000000D03*
X254690000Y-197000000D03*
X283464053Y-117844032D03*
X285114053Y-117844032D03*
D31*
X244440000Y-167545000D03*
X244440000Y-165895000D03*
D15*
X283652536Y-161062468D03*
X285302536Y-161062468D03*
D23*
X250010000Y-171690000D03*
X248360000Y-171690000D03*
X260750000Y-201600000D03*
X259100000Y-201600000D03*
D18*
X244770000Y-195575000D03*
X244770000Y-197225000D03*
D88*
X309470000Y-180030000D03*
X309470000Y-178030000D03*
X309470000Y-176030000D03*
X309470000Y-174030000D03*
X309470000Y-172030000D03*
X309470000Y-170030000D03*
X309470000Y-168030000D03*
X309470000Y-166030000D03*
D89*
X311870000Y-164030000D03*
X311870000Y-182030000D03*
D17*
X255524000Y-143256000D03*
D22*
X289200000Y-125970000D03*
X289200000Y-127870000D03*
X291075000Y-126920000D03*
D16*
X276860000Y-176810000D03*
X276860000Y-175260000D03*
D24*
X305565295Y-103685000D03*
X305565295Y-102715000D03*
D58*
X287000000Y-143750000D03*
X287000000Y-145850000D03*
D24*
X305000000Y-169085000D03*
X305000000Y-168115000D03*
D20*
X299208973Y-114085457D03*
X293283973Y-114085457D03*
D62*
X197250000Y-209970000D03*
D15*
X283463542Y-126339852D03*
X285113542Y-126339852D03*
X283427426Y-109361846D03*
X285077426Y-109361846D03*
D31*
X231290000Y-122625000D03*
X231290000Y-120975000D03*
D10*
X212346000Y-184404000D03*
X215646000Y-184404000D03*
D90*
X267468000Y-116087800D03*
X270268000Y-116087800D03*
D15*
X283396590Y-104868411D03*
X285046590Y-104868411D03*
X283578538Y-145925294D03*
X285228538Y-145925294D03*
D18*
X301608274Y-112332229D03*
X301608274Y-113982229D03*
D30*
X257410000Y-172875000D03*
X257410000Y-174425000D03*
D91*
X261112000Y-152660000D03*
X261112000Y-150760000D03*
X259112000Y-151710000D03*
D20*
X299125000Y-161600000D03*
X293200000Y-161600000D03*
D13*
X267160000Y-156610000D03*
X267160000Y-159910000D03*
D11*
X305600000Y-128120000D03*
X305600000Y-129080000D03*
D31*
X248370000Y-190225000D03*
X248370000Y-188575000D03*
D28*
X276606000Y-151638000D03*
D15*
X283526465Y-141605093D03*
X285176465Y-141605093D03*
D18*
X201850000Y-112115000D03*
X201850000Y-113765000D03*
D13*
X256620000Y-165980000D03*
X256620000Y-169280000D03*
D15*
X266205000Y-186160000D03*
X267855000Y-186160000D03*
D92*
X285932000Y-183134000D03*
X285932000Y-184404000D03*
X285932000Y-185674000D03*
X285932000Y-186944000D03*
X294132000Y-186944000D03*
X294132000Y-185674000D03*
X294132000Y-184404000D03*
D93*
X294132000Y-183134000D03*
D23*
X271540000Y-192870000D03*
X269890000Y-192870000D03*
D94*
X239107500Y-170550000D03*
X242032500Y-170550000D03*
D31*
X244880000Y-193425000D03*
X244880000Y-191775000D03*
D40*
X278612000Y-132964000D03*
X280162000Y-132964000D03*
D31*
X231325000Y-144265000D03*
X231325000Y-142615000D03*
D58*
X287000000Y-122150000D03*
X287000000Y-124250000D03*
D15*
X283436049Y-107116225D03*
X285086049Y-107116225D03*
D16*
X281860000Y-138038828D03*
X281860000Y-136488828D03*
D45*
X194326000Y-137798000D03*
X188226000Y-137798000D03*
D24*
X305019456Y-182169240D03*
X305019456Y-181199240D03*
D43*
X303830389Y-179635958D03*
X303830389Y-178615958D03*
D25*
X303782083Y-171074576D03*
X303782083Y-172094576D03*
D95*
X192550000Y-162550000D03*
X192550000Y-169350000D03*
D17*
X257048000Y-151638000D03*
D63*
X242100000Y-178860000D03*
D64*
X244640000Y-178860000D03*
X247180000Y-178860000D03*
D18*
X202050000Y-133700000D03*
X202050000Y-135350000D03*
X201910000Y-147360000D03*
X201910000Y-149010000D03*
D58*
X287000000Y-109150000D03*
X287000000Y-111250000D03*
D31*
X255329800Y-160423000D03*
X255329800Y-158773000D03*
D23*
X279400000Y-131064000D03*
X277750000Y-131064000D03*
D18*
X277770000Y-192060000D03*
X277770000Y-193710000D03*
D15*
X283610959Y-165177699D03*
X285260959Y-165177699D03*
D21*
X241200000Y-167510000D03*
X239650000Y-167510000D03*
D15*
X283444379Y-111448172D03*
X285094379Y-111448172D03*
D18*
X301608274Y-115707229D03*
X301608274Y-117357229D03*
D26*
X257500000Y-200050000D03*
X257500000Y-198650000D03*
D15*
X249185000Y-148422000D03*
X250835000Y-148422000D03*
D32*
X254796400Y-106715200D03*
D33*
X254796400Y-104215200D03*
D15*
X251525000Y-163020000D03*
X253175000Y-163020000D03*
D24*
X305000000Y-172085000D03*
X305000000Y-171115000D03*
D73*
X258048008Y-136251992D03*
X256951992Y-137348008D03*
D15*
X283565823Y-143783580D03*
X285215823Y-143783580D03*
D55*
X195250000Y-197675000D03*
D56*
X190815000Y-193240000D03*
X190815000Y-197675000D03*
X190815000Y-202110000D03*
X195250000Y-193240000D03*
X195250000Y-202110000D03*
X199685000Y-193240000D03*
X199685000Y-197675000D03*
X199685000Y-202110000D03*
D37*
X204175000Y-118470000D03*
D38*
X210475000Y-120750000D03*
D37*
X204175000Y-123030000D03*
D43*
X303864854Y-177274540D03*
X303864854Y-176254540D03*
D20*
X299162500Y-148800000D03*
X293237500Y-148800000D03*
D31*
X301588000Y-189726000D03*
X301588000Y-188076000D03*
D18*
X217678000Y-173927000D03*
X217678000Y-175577000D03*
D16*
X261250000Y-122140000D03*
X261250000Y-120590000D03*
D84*
X310830000Y-152480000D03*
D85*
X312830000Y-152480000D03*
X310830000Y-154480000D03*
X312830000Y-154480000D03*
X310830000Y-156480000D03*
X312830000Y-156480000D03*
X310830000Y-158480000D03*
X312830000Y-158480000D03*
D18*
X274574000Y-176975000D03*
X274574000Y-178625000D03*
X201990000Y-126575000D03*
X201990000Y-128225000D03*
D30*
X296788000Y-181911000D03*
X296788000Y-183461000D03*
D23*
X261057000Y-111338000D03*
X259407000Y-111338000D03*
D96*
X262289500Y-188000000D03*
X260714500Y-188000000D03*
D17*
X295900000Y-205740000D03*
D97*
X288300000Y-205740000D03*
D98*
X215191000Y-178047000D03*
D99*
X208891000Y-175767000D03*
D98*
X215191000Y-173487000D03*
D15*
X275527000Y-167640000D03*
X277177000Y-167640000D03*
D56*
X211550000Y-89300000D03*
D25*
X304400000Y-122890000D03*
X304400000Y-123910000D03*
D40*
X283880000Y-211670000D03*
X285430000Y-211670000D03*
D31*
X285908000Y-171790000D03*
X285908000Y-170140000D03*
D18*
X301608274Y-105467229D03*
X301608274Y-107117229D03*
D23*
X276130000Y-198230000D03*
X274480000Y-198230000D03*
D20*
X299186120Y-122629269D03*
X293261120Y-122629269D03*
D13*
X268170000Y-166480000D03*
X268170000Y-169780000D03*
D100*
X268670000Y-212580000D03*
X260670000Y-212580000D03*
M02*
