G04 #@! TF.GenerationSoftware,KiCad,Pcbnew,7.0.5*
G04 #@! TF.CreationDate,2025-02-26T11:58:08+05:30*
G04 #@! TF.ProjectId,NewSparky_V1.3.4.1,4e657753-7061-4726-9b79-5f56312e332e,rev?*
G04 #@! TF.SameCoordinates,Original*
G04 #@! TF.FileFunction,Paste,Top*
G04 #@! TF.FilePolarity,Positive*
%FSLAX46Y46*%
G04 Gerber Fmt 4.6, Leading zero omitted, Abs format (unit mm)*
G04 Created by KiCad (PCBNEW 7.0.5) date 2025-02-26 11:58:08*
%MOMM*%
%LPD*%
G01*
G04 APERTURE LIST*
G04 Aperture macros list*
%AMRoundRect*
0 Rectangle with rounded corners*
0 $1 Rounding radius*
0 $2 $3 $4 $5 $6 $7 $8 $9 X,Y pos of 4 corners*
0 Add a 4 corners polygon primitive as box body*
4,1,4,$2,$3,$4,$5,$6,$7,$8,$9,$2,$3,0*
0 Add four circle primitives for the rounded corners*
1,1,$1+$1,$2,$3*
1,1,$1+$1,$4,$5*
1,1,$1+$1,$6,$7*
1,1,$1+$1,$8,$9*
0 Add four rect primitives between the rounded corners*
20,1,$1+$1,$2,$3,$4,$5,0*
20,1,$1+$1,$4,$5,$6,$7,0*
20,1,$1+$1,$6,$7,$8,$9,0*
20,1,$1+$1,$8,$9,$2,$3,0*%
%AMRotRect*
0 Rectangle, with rotation*
0 The origin of the aperture is its center*
0 $1 length*
0 $2 width*
0 $3 Rotation angle, in degrees counterclockwise*
0 Add horizontal line*
21,1,$1,$2,0,0,$3*%
G04 Aperture macros list end*
%ADD10R,0.900000X1.200000*%
%ADD11RoundRect,0.225000X-0.250000X0.225000X-0.250000X-0.225000X0.250000X-0.225000X0.250000X0.225000X0*%
%ADD12RoundRect,0.250000X-0.625000X0.312500X-0.625000X-0.312500X0.625000X-0.312500X0.625000X0.312500X0*%
%ADD13R,1.200000X0.900000*%
%ADD14RoundRect,0.250000X-0.650000X0.325000X-0.650000X-0.325000X0.650000X-0.325000X0.650000X0.325000X0*%
%ADD15RoundRect,0.200000X-0.200000X-0.275000X0.200000X-0.275000X0.200000X0.275000X-0.200000X0.275000X0*%
%ADD16RoundRect,0.225000X0.250000X-0.225000X0.250000X0.225000X-0.250000X0.225000X-0.250000X-0.225000X0*%
%ADD17RoundRect,0.200000X-0.275000X0.200000X-0.275000X-0.200000X0.275000X-0.200000X0.275000X0.200000X0*%
%ADD18RoundRect,0.250000X0.650000X-0.325000X0.650000X0.325000X-0.650000X0.325000X-0.650000X-0.325000X0*%
%ADD19RoundRect,0.250000X0.362500X1.425000X-0.362500X1.425000X-0.362500X-1.425000X0.362500X-1.425000X0*%
%ADD20RoundRect,0.225000X0.225000X0.250000X-0.225000X0.250000X-0.225000X-0.250000X0.225000X-0.250000X0*%
%ADD21RoundRect,0.150000X-0.587500X-0.150000X0.587500X-0.150000X0.587500X0.150000X-0.587500X0.150000X0*%
%ADD22RoundRect,0.200000X0.200000X0.275000X-0.200000X0.275000X-0.200000X-0.275000X0.200000X-0.275000X0*%
%ADD23RoundRect,0.218750X0.256250X-0.218750X0.256250X0.218750X-0.256250X0.218750X-0.256250X-0.218750X0*%
%ADD24R,0.700000X0.600000*%
%ADD25R,4.700000X8.000000*%
%ADD26RoundRect,0.200000X0.275000X-0.200000X0.275000X0.200000X-0.275000X0.200000X-0.275000X-0.200000X0*%
%ADD27RoundRect,0.218750X-0.256250X0.218750X-0.256250X-0.218750X0.256250X-0.218750X0.256250X0.218750X0*%
%ADD28RoundRect,0.225000X0.375000X-0.225000X0.375000X0.225000X-0.375000X0.225000X-0.375000X-0.225000X0*%
%ADD29RoundRect,0.150000X-0.150000X0.825000X-0.150000X-0.825000X0.150000X-0.825000X0.150000X0.825000X0*%
%ADD30RoundRect,0.250000X-0.850000X-0.350000X0.850000X-0.350000X0.850000X0.350000X-0.850000X0.350000X0*%
%ADD31RoundRect,0.250000X-1.275000X-1.125000X1.275000X-1.125000X1.275000X1.125000X-1.275000X1.125000X0*%
%ADD32RoundRect,0.249999X-0.450001X-1.425001X0.450001X-1.425001X0.450001X1.425001X-0.450001X1.425001X0*%
%ADD33RoundRect,0.225000X-0.225000X-0.250000X0.225000X-0.250000X0.225000X0.250000X-0.225000X0.250000X0*%
%ADD34RoundRect,0.250000X0.850000X0.350000X-0.850000X0.350000X-0.850000X-0.350000X0.850000X-0.350000X0*%
%ADD35RoundRect,0.250000X1.275000X1.125000X-1.275000X1.125000X-1.275000X-1.125000X1.275000X-1.125000X0*%
%ADD36RoundRect,0.249999X0.450001X1.425001X-0.450001X1.425001X-0.450001X-1.425001X0.450001X-1.425001X0*%
%ADD37R,0.600000X1.250000*%
%ADD38RoundRect,0.250000X0.312500X0.625000X-0.312500X0.625000X-0.312500X-0.625000X0.312500X-0.625000X0*%
%ADD39R,2.000000X4.500000*%
%ADD40RoundRect,0.218750X0.218750X0.256250X-0.218750X0.256250X-0.218750X-0.256250X0.218750X-0.256250X0*%
%ADD41RoundRect,0.250000X0.325000X0.650000X-0.325000X0.650000X-0.325000X-0.650000X0.325000X-0.650000X0*%
%ADD42C,3.100000*%
%ADD43RoundRect,0.250000X-0.325000X-0.650000X0.325000X-0.650000X0.325000X0.650000X-0.325000X0.650000X0*%
%ADD44R,0.450000X0.600000*%
%ADD45RoundRect,0.150000X-0.450000X-0.150000X0.450000X-0.150000X0.450000X0.150000X-0.450000X0.150000X0*%
%ADD46RoundRect,0.225000X-0.375000X0.225000X-0.375000X-0.225000X0.375000X-0.225000X0.375000X0.225000X0*%
%ADD47RoundRect,0.250000X1.000000X0.650000X-1.000000X0.650000X-1.000000X-0.650000X1.000000X-0.650000X0*%
%ADD48R,1.475000X0.300000*%
%ADD49R,0.300000X1.475000*%
%ADD50RoundRect,0.250000X-1.400000X-1.000000X1.400000X-1.000000X1.400000X1.000000X-1.400000X1.000000X0*%
%ADD51RoundRect,0.150000X-0.150000X0.587500X-0.150000X-0.587500X0.150000X-0.587500X0.150000X0.587500X0*%
%ADD52RoundRect,0.250000X0.625000X-0.312500X0.625000X0.312500X-0.625000X0.312500X-0.625000X-0.312500X0*%
%ADD53RoundRect,0.225000X-0.017678X0.335876X-0.335876X0.017678X0.017678X-0.335876X0.335876X-0.017678X0*%
%ADD54RoundRect,0.150000X-0.512500X-0.150000X0.512500X-0.150000X0.512500X0.150000X-0.512500X0.150000X0*%
%ADD55RoundRect,0.060000X0.290000X-0.240000X0.290000X0.240000X-0.290000X0.240000X-0.290000X-0.240000X0*%
%ADD56RoundRect,0.250000X0.650000X-1.000000X0.650000X1.000000X-0.650000X1.000000X-0.650000X-1.000000X0*%
%ADD57RoundRect,0.242500X-0.242500X-0.422500X0.242500X-0.422500X0.242500X0.422500X-0.242500X0.422500X0*%
%ADD58RoundRect,0.150000X-0.825000X-0.150000X0.825000X-0.150000X0.825000X0.150000X-0.825000X0.150000X0*%
%ADD59R,0.600000X0.450000*%
%ADD60RotRect,0.300000X1.475000X315.000000*%
%ADD61RotRect,0.300000X1.475000X225.000000*%
%ADD62RoundRect,0.225000X0.225000X0.375000X-0.225000X0.375000X-0.225000X-0.375000X0.225000X-0.375000X0*%
%ADD63RoundRect,0.150000X0.450000X0.150000X-0.450000X0.150000X-0.450000X-0.150000X0.450000X-0.150000X0*%
%ADD64R,1.200000X3.900000*%
%ADD65RoundRect,0.060000X-0.440000X0.240000X-0.440000X-0.240000X0.440000X-0.240000X0.440000X0.240000X0*%
%ADD66R,1.200000X0.800000*%
%ADD67R,1.200000X1.200000*%
%ADD68RoundRect,0.250000X-0.312500X-0.625000X0.312500X-0.625000X0.312500X0.625000X-0.312500X0.625000X0*%
%ADD69R,3.300000X2.500000*%
%ADD70R,3.050000X2.750000*%
%ADD71R,2.200000X1.200000*%
G04 APERTURE END LIST*
D10*
X275208000Y-160020000D03*
X271908000Y-160020000D03*
D11*
X301750000Y-167700000D03*
X301750000Y-169250000D03*
D12*
X266140000Y-161960000D03*
X266140000Y-164885000D03*
D13*
X218948000Y-166368000D03*
X218948000Y-163068000D03*
D14*
X304579803Y-145719067D03*
X304579803Y-148669067D03*
D15*
X282250000Y-155200000D03*
X283900000Y-155200000D03*
X281500000Y-120250000D03*
X283150000Y-120250000D03*
D16*
X280650000Y-155425000D03*
X280650000Y-153875000D03*
X279850000Y-111075000D03*
X279850000Y-109525000D03*
D17*
X299091641Y-119144337D03*
X299091641Y-120794337D03*
D15*
X262870000Y-191730000D03*
X264520000Y-191730000D03*
D18*
X304565676Y-153592716D03*
X304565676Y-150642716D03*
D19*
X297064114Y-131298062D03*
X291139114Y-131298062D03*
D20*
X261007000Y-108798000D03*
X259457000Y-108798000D03*
D21*
X287100000Y-121700000D03*
X287100000Y-123600000D03*
X288975000Y-122650000D03*
D22*
X249627000Y-167726000D03*
X247977000Y-167726000D03*
D23*
X305554098Y-122934504D03*
X305554098Y-121359504D03*
D21*
X287850000Y-161050000D03*
X287850000Y-162950000D03*
X289725000Y-162000000D03*
D17*
X268220000Y-190135000D03*
X268220000Y-191785000D03*
D11*
X302350000Y-97300000D03*
X302350000Y-98850000D03*
D23*
X304934876Y-162236268D03*
X304934876Y-160661268D03*
D17*
X304067304Y-111250000D03*
X304067304Y-112900000D03*
D24*
X266320000Y-198300000D03*
X266320000Y-196900000D03*
D18*
X276450000Y-142650000D03*
X276450000Y-139700000D03*
D19*
X297319725Y-135754690D03*
X291394725Y-135754690D03*
D20*
X273571000Y-182626000D03*
X272021000Y-182626000D03*
D23*
X305700000Y-112850000D03*
X305700000Y-111275000D03*
D25*
X218900000Y-209000000D03*
X207600000Y-209000000D03*
D11*
X276860000Y-178549000D03*
X276860000Y-180099000D03*
D23*
X305550000Y-119450000D03*
X305550000Y-117875000D03*
D22*
X249990000Y-170160000D03*
X248340000Y-170160000D03*
D26*
X259635000Y-164110000D03*
X259635000Y-162460000D03*
D13*
X248940000Y-156950000D03*
X248940000Y-153650000D03*
D26*
X256970000Y-164080000D03*
X256970000Y-162430000D03*
D27*
X305650000Y-97312500D03*
X305650000Y-98887500D03*
D10*
X203328000Y-166878000D03*
X206628000Y-166878000D03*
D15*
X282125000Y-148850000D03*
X283775000Y-148850000D03*
D28*
X277361701Y-162529530D03*
X277361701Y-159229530D03*
D25*
X218900000Y-191500000D03*
X207600000Y-191500000D03*
D29*
X251045000Y-192725000D03*
X249775000Y-192725000D03*
X248505000Y-192725000D03*
X247235000Y-192725000D03*
X247235000Y-197675000D03*
X248505000Y-197675000D03*
X249775000Y-197675000D03*
X251045000Y-197675000D03*
D30*
X204125000Y-139975000D03*
D31*
X208750000Y-140730000D03*
X208750000Y-143780000D03*
X212100000Y-140730000D03*
X212100000Y-143780000D03*
D30*
X204125000Y-144535000D03*
D15*
X200152000Y-164084000D03*
X201802000Y-164084000D03*
D32*
X242400000Y-132562500D03*
X248500000Y-132562500D03*
D30*
X204115000Y-154439000D03*
D31*
X208740000Y-155194000D03*
X208740000Y-158244000D03*
X212090000Y-155194000D03*
X212090000Y-158244000D03*
D30*
X204115000Y-158999000D03*
D16*
X270900000Y-109827000D03*
X270900000Y-108277000D03*
D10*
X274500000Y-149850000D03*
X277800000Y-149850000D03*
D33*
X239395000Y-150660000D03*
X240945000Y-150660000D03*
D23*
X304850000Y-176100000D03*
X304850000Y-174525000D03*
D30*
X204100000Y-104170000D03*
D31*
X208725000Y-104925000D03*
X208725000Y-107975000D03*
X212075000Y-104925000D03*
X212075000Y-107975000D03*
D30*
X204100000Y-108730000D03*
D19*
X297505698Y-157479597D03*
X291580698Y-157479597D03*
D20*
X252975000Y-111439600D03*
X251425000Y-111439600D03*
D17*
X261730600Y-115288200D03*
X261730600Y-116938200D03*
D34*
X229125000Y-123255000D03*
D35*
X224500000Y-122500000D03*
X224500000Y-119450000D03*
X221150000Y-122500000D03*
X221150000Y-119450000D03*
D34*
X229125000Y-118695000D03*
D26*
X307050000Y-147400000D03*
X307050000Y-145750000D03*
D11*
X302359630Y-121368611D03*
X302359630Y-122918611D03*
D15*
X282525000Y-167900000D03*
X284175000Y-167900000D03*
D26*
X269650000Y-164170000D03*
X269650000Y-162520000D03*
D15*
X282100000Y-150750000D03*
X283750000Y-150750000D03*
D26*
X252800000Y-191425000D03*
X252800000Y-189775000D03*
X246060000Y-167515000D03*
X246060000Y-165865000D03*
D13*
X262110000Y-156535000D03*
X262110000Y-159835000D03*
D36*
X194356000Y-133758000D03*
X188256000Y-133758000D03*
D16*
X290400000Y-172275000D03*
X290400000Y-170725000D03*
D33*
X275056000Y-182626000D03*
X276606000Y-182626000D03*
D32*
X242375000Y-124287500D03*
X248475000Y-124287500D03*
D37*
X273318834Y-165499617D03*
X275218834Y-165499617D03*
X274268834Y-163399617D03*
D19*
X297062500Y-127000000D03*
X291137500Y-127000000D03*
D14*
X256540000Y-154178000D03*
X256540000Y-157128000D03*
D36*
X194356000Y-129768000D03*
X188256000Y-129768000D03*
D21*
X220883000Y-169484000D03*
X220883000Y-171384000D03*
X222758000Y-170434000D03*
D16*
X280550000Y-146925000D03*
X280550000Y-145375000D03*
D26*
X299337690Y-186020170D03*
X299337690Y-184370170D03*
D16*
X280050000Y-124750000D03*
X280050000Y-123200000D03*
D26*
X306839745Y-158616563D03*
X306839745Y-156966563D03*
D17*
X218853000Y-168910000D03*
X218853000Y-170560000D03*
D23*
X308600000Y-143500000D03*
X308600000Y-141925000D03*
D17*
X303400000Y-167650000D03*
X303400000Y-169300000D03*
D15*
X281950000Y-135650000D03*
X283600000Y-135650000D03*
D38*
X274960000Y-157670000D03*
X272035000Y-157670000D03*
D26*
X231320000Y-115315000D03*
X231320000Y-113665000D03*
D39*
X281432000Y-182558000D03*
X281432000Y-174058000D03*
D26*
X231340000Y-159105000D03*
X231340000Y-157455000D03*
D15*
X282375000Y-157400000D03*
X284025000Y-157400000D03*
D34*
X229125000Y-144735000D03*
D35*
X224500000Y-143980000D03*
X224500000Y-140930000D03*
X221150000Y-143980000D03*
X221150000Y-140930000D03*
D34*
X229125000Y-140175000D03*
D17*
X299212999Y-131649995D03*
X299212999Y-133299995D03*
D13*
X272542000Y-151004000D03*
X272542000Y-154304000D03*
D14*
X304600000Y-155500000D03*
X304600000Y-158450000D03*
D26*
X299958293Y-189744349D03*
X299958293Y-188094349D03*
D13*
X275878400Y-109406600D03*
X275878400Y-106106600D03*
D17*
X201930000Y-140645000D03*
X201930000Y-142295000D03*
D19*
X297791880Y-166007450D03*
X291866880Y-166007450D03*
D40*
X268987500Y-201150000D03*
X267412500Y-201150000D03*
D11*
X302400000Y-104450000D03*
X302400000Y-106000000D03*
D16*
X302350000Y-102500000D03*
X302350000Y-100950000D03*
D13*
X296600000Y-170100000D03*
X296600000Y-173400000D03*
D41*
X307450000Y-131400000D03*
X304500000Y-131400000D03*
D40*
X262937500Y-204600000D03*
X261362500Y-204600000D03*
D13*
X264635000Y-159835000D03*
X264635000Y-156535000D03*
D15*
X249247000Y-146644000D03*
X250897000Y-146644000D03*
D42*
X227165000Y-202110000D03*
X231600000Y-202110000D03*
X236035000Y-202110000D03*
X227165000Y-197675000D03*
X236035000Y-197675000D03*
X227165000Y-193240000D03*
X231600000Y-193240000D03*
X236035000Y-193240000D03*
D43*
X203900000Y-91150000D03*
X206850000Y-91150000D03*
D16*
X280100000Y-129150000D03*
X280100000Y-127600000D03*
D44*
X285600000Y-152700000D03*
X285600000Y-154800000D03*
D45*
X251420500Y-158749600D03*
X251420500Y-160649600D03*
X253295500Y-159699600D03*
D23*
X305000000Y-165800000D03*
X305000000Y-164225000D03*
D44*
X285500000Y-140250000D03*
X285500000Y-142350000D03*
D38*
X226860000Y-84400000D03*
X223935000Y-84400000D03*
D42*
X273930000Y-95375000D03*
X278365000Y-95375000D03*
X282800000Y-95375000D03*
X273930000Y-90940000D03*
X282800000Y-90940000D03*
X273930000Y-86505000D03*
X278365000Y-86505000D03*
X282800000Y-86505000D03*
D15*
X281400000Y-115800000D03*
X283050000Y-115800000D03*
D17*
X304000000Y-104400000D03*
X304000000Y-106050000D03*
D26*
X306600000Y-139025000D03*
X306600000Y-137375000D03*
D17*
X303200000Y-174525000D03*
X303200000Y-176175000D03*
D46*
X276350000Y-144500000D03*
X276350000Y-147800000D03*
D43*
X203900000Y-88650000D03*
X206850000Y-88650000D03*
D16*
X301500000Y-179600000D03*
X301500000Y-178050000D03*
D26*
X250800000Y-190225000D03*
X250800000Y-188575000D03*
D47*
X207150000Y-85050000D03*
X203150000Y-85050000D03*
D21*
X287100000Y-108650000D03*
X287100000Y-110550000D03*
X288975000Y-109600000D03*
D23*
X305600000Y-116200000D03*
X305600000Y-114625000D03*
D15*
X281600000Y-129100000D03*
X283250000Y-129100000D03*
D16*
X280250000Y-133675000D03*
X280250000Y-132125000D03*
D25*
X218900000Y-200250000D03*
X207600000Y-200250000D03*
D17*
X217313000Y-168910000D03*
X217313000Y-170560000D03*
D16*
X296738000Y-186996000D03*
X296738000Y-185446000D03*
D44*
X284850000Y-100900000D03*
X284850000Y-103000000D03*
D11*
X301600000Y-174550000D03*
X301600000Y-176100000D03*
D22*
X271580000Y-190070000D03*
X269930000Y-190070000D03*
D13*
X267135000Y-150885000D03*
X267135000Y-154185000D03*
D17*
X299239487Y-135697275D03*
X299239487Y-137347275D03*
D11*
X186940000Y-166800000D03*
X186940000Y-168350000D03*
D21*
X287450000Y-135050000D03*
X287450000Y-136950000D03*
X289325000Y-136000000D03*
D33*
X251545000Y-143010000D03*
X253095000Y-143010000D03*
D29*
X263505000Y-194325000D03*
X262235000Y-194325000D03*
X260965000Y-194325000D03*
X259695000Y-194325000D03*
X259695000Y-199275000D03*
X260965000Y-199275000D03*
X262235000Y-199275000D03*
X263505000Y-199275000D03*
D30*
X204175000Y-125620000D03*
D31*
X208800000Y-126375000D03*
X208800000Y-129425000D03*
X212150000Y-126375000D03*
X212150000Y-129425000D03*
D30*
X204175000Y-130180000D03*
D11*
X301550000Y-184975000D03*
X301550000Y-186525000D03*
D16*
X280750000Y-165225000D03*
X280750000Y-163675000D03*
D17*
X304000000Y-100850000D03*
X304000000Y-102500000D03*
D36*
X194466000Y-121828000D03*
X188366000Y-121828000D03*
D26*
X246000000Y-190225000D03*
X246000000Y-188575000D03*
D30*
X204075000Y-111320000D03*
D31*
X208700000Y-112075000D03*
X208700000Y-115125000D03*
X212050000Y-112075000D03*
X212050000Y-115125000D03*
D30*
X204075000Y-115880000D03*
D22*
X246675000Y-152275000D03*
X245025000Y-152275000D03*
D48*
X269550000Y-179112000D03*
X269550000Y-178612000D03*
X269550000Y-178112000D03*
X269550000Y-177612000D03*
X269550000Y-177112000D03*
X269550000Y-176612000D03*
X269550000Y-176112000D03*
X269550000Y-175612000D03*
X269550000Y-175112000D03*
X269550000Y-174612000D03*
X269550000Y-174112000D03*
X269550000Y-173612000D03*
D49*
X268062000Y-172124000D03*
X267562000Y-172124000D03*
X267062000Y-172124000D03*
X266562000Y-172124000D03*
X266062000Y-172124000D03*
X265562000Y-172124000D03*
X265062000Y-172124000D03*
X264562000Y-172124000D03*
X264062000Y-172124000D03*
X263562000Y-172124000D03*
X263062000Y-172124000D03*
X262562000Y-172124000D03*
D48*
X261074000Y-173612000D03*
X261074000Y-174112000D03*
X261074000Y-174612000D03*
X261074000Y-175112000D03*
X261074000Y-175612000D03*
X261074000Y-176112000D03*
X261074000Y-176612000D03*
X261074000Y-177112000D03*
X261074000Y-177612000D03*
X261074000Y-178112000D03*
X261074000Y-178612000D03*
X261074000Y-179112000D03*
D49*
X262562000Y-180600000D03*
X263062000Y-180600000D03*
X263562000Y-180600000D03*
X264062000Y-180600000D03*
X264562000Y-180600000D03*
X265062000Y-180600000D03*
X265562000Y-180600000D03*
X266062000Y-180600000D03*
X266562000Y-180600000D03*
X267062000Y-180600000D03*
X267562000Y-180600000D03*
X268062000Y-180600000D03*
D26*
X276860000Y-173736000D03*
X276860000Y-172086000D03*
D22*
X262327000Y-186200000D03*
X260677000Y-186200000D03*
D44*
X285000000Y-126700000D03*
X285000000Y-128800000D03*
D15*
X200152000Y-165608000D03*
X201802000Y-165608000D03*
X248215000Y-200565000D03*
X249865000Y-200565000D03*
D26*
X276850000Y-102505000D03*
X276850000Y-100855000D03*
X264130000Y-164040000D03*
X264130000Y-162390000D03*
D20*
X254575000Y-193400000D03*
X253025000Y-193400000D03*
D34*
X229110000Y-158960000D03*
D35*
X224485000Y-158205000D03*
X224485000Y-155155000D03*
X221135000Y-158205000D03*
X221135000Y-155155000D03*
D34*
X229110000Y-154400000D03*
D15*
X281600000Y-124750000D03*
X283250000Y-124750000D03*
D26*
X306600000Y-135200000D03*
X306600000Y-133550000D03*
D17*
X255507600Y-123302400D03*
X255507600Y-124952400D03*
D16*
X279750000Y-102300000D03*
X279750000Y-100750000D03*
D15*
X267900000Y-196810000D03*
X269550000Y-196810000D03*
D26*
X257184000Y-111883600D03*
X257184000Y-110233600D03*
D34*
X229075000Y-101580000D03*
D35*
X224450000Y-100825000D03*
X224450000Y-97775000D03*
X221100000Y-100825000D03*
X221100000Y-97775000D03*
D34*
X229075000Y-97020000D03*
D17*
X304000000Y-114650000D03*
X304000000Y-116300000D03*
D50*
X235550000Y-160510000D03*
X235550000Y-167310000D03*
D23*
X308650000Y-147375000D03*
X308650000Y-145800000D03*
D21*
X287100000Y-112900000D03*
X287100000Y-114800000D03*
X288975000Y-113850000D03*
D17*
X299088993Y-122814162D03*
X299088993Y-124464162D03*
D26*
X231250000Y-108395000D03*
X231250000Y-106745000D03*
D36*
X194466000Y-125798000D03*
X188366000Y-125798000D03*
D21*
X287650000Y-143800000D03*
X287650000Y-145700000D03*
X289525000Y-144750000D03*
D26*
X231310000Y-137205000D03*
X231310000Y-135555000D03*
D11*
X287528000Y-170180000D03*
X287528000Y-171730000D03*
D44*
X294150000Y-170550000D03*
X294150000Y-172650000D03*
D11*
X256794000Y-158750000D03*
X256794000Y-160300000D03*
D44*
X277850000Y-195000000D03*
X277850000Y-197100000D03*
D16*
X301850000Y-165800000D03*
X301850000Y-164250000D03*
D19*
X296962500Y-118450000D03*
X291037500Y-118450000D03*
D44*
X285350000Y-135700000D03*
X285350000Y-137800000D03*
D16*
X279850000Y-106725000D03*
X279850000Y-105175000D03*
D15*
X282525000Y-163800000D03*
X284175000Y-163800000D03*
D13*
X259560000Y-156535000D03*
X259560000Y-159835000D03*
D19*
X297384662Y-140125397D03*
X291459662Y-140125397D03*
D21*
X288012500Y-165200000D03*
X288012500Y-167100000D03*
X289887500Y-166150000D03*
D51*
X244170000Y-138655000D03*
X242270000Y-138655000D03*
X243220000Y-140530000D03*
D23*
X304650000Y-183100000D03*
X304650000Y-181525000D03*
D15*
X262319000Y-152908000D03*
X263969000Y-152908000D03*
D21*
X287050000Y-100850000D03*
X287050000Y-102750000D03*
X288925000Y-101800000D03*
D44*
X284850000Y-113550000D03*
X284850000Y-115650000D03*
D15*
X277660000Y-189310000D03*
X279310000Y-189310000D03*
D23*
X305650000Y-126300000D03*
X305650000Y-124725000D03*
D13*
X276400000Y-129100000D03*
X276400000Y-125800000D03*
D16*
X259740000Y-134260000D03*
X259740000Y-132710000D03*
D23*
X304650000Y-179600000D03*
X304650000Y-178025000D03*
D22*
X272760000Y-198230000D03*
X271110000Y-198230000D03*
D21*
X287100000Y-104800000D03*
X287100000Y-106700000D03*
X288975000Y-105750000D03*
D22*
X249627000Y-165186000D03*
X247977000Y-165186000D03*
D52*
X263720000Y-168565000D03*
X263720000Y-165640000D03*
D13*
X216408000Y-163068000D03*
X216408000Y-166368000D03*
D17*
X306800000Y-141875000D03*
X306800000Y-143525000D03*
D34*
X229130000Y-151886000D03*
D35*
X224505000Y-151131000D03*
X224505000Y-148081000D03*
X221155000Y-151131000D03*
X221155000Y-148081000D03*
D34*
X229130000Y-147326000D03*
D53*
X259548008Y-137501992D03*
X258451992Y-138598008D03*
D19*
X296962500Y-101650000D03*
X291037500Y-101650000D03*
D21*
X287750000Y-148300000D03*
X287750000Y-150200000D03*
X289625000Y-149250000D03*
D44*
X285700000Y-156750000D03*
X285700000Y-158850000D03*
D21*
X287600000Y-139950000D03*
X287600000Y-141850000D03*
X289475000Y-140900000D03*
D10*
X256000000Y-129600000D03*
X252700000Y-129600000D03*
D54*
X265342900Y-120700400D03*
X265342900Y-121650400D03*
X265342900Y-122600400D03*
X267617900Y-122600400D03*
X267617900Y-120700400D03*
D16*
X301600000Y-172700000D03*
X301600000Y-171150000D03*
X302450000Y-109400000D03*
X302450000Y-107850000D03*
D55*
X206026000Y-168910000D03*
X206026000Y-170810000D03*
X208026000Y-169860000D03*
D15*
X282375000Y-159700000D03*
X284025000Y-159700000D03*
X281700000Y-131000000D03*
X283350000Y-131000000D03*
D13*
X229108000Y-165354000D03*
X229108000Y-162054000D03*
D21*
X287100000Y-117300000D03*
X287100000Y-119200000D03*
X288975000Y-118250000D03*
D16*
X302350000Y-116200000D03*
X302350000Y-114650000D03*
D26*
X253230000Y-172060000D03*
X253230000Y-170410000D03*
D15*
X282000000Y-140200000D03*
X283650000Y-140200000D03*
D16*
X280550000Y-151475000D03*
X280550000Y-149925000D03*
D17*
X306750000Y-152125000D03*
X306750000Y-153775000D03*
D34*
X229150000Y-137535000D03*
D35*
X224525000Y-136780000D03*
X224525000Y-133730000D03*
X221175000Y-136780000D03*
X221175000Y-133730000D03*
D34*
X229150000Y-132975000D03*
D38*
X279620641Y-157279436D03*
X276695641Y-157279436D03*
D20*
X253925000Y-150270000D03*
X252375000Y-150270000D03*
D14*
X304400000Y-135825000D03*
X304400000Y-138775000D03*
D17*
X299148922Y-109067145D03*
X299148922Y-110717145D03*
D11*
X302450000Y-111250000D03*
X302450000Y-112800000D03*
D26*
X255310000Y-164035000D03*
X255310000Y-162385000D03*
D17*
X303400000Y-160625000D03*
X303400000Y-162275000D03*
D20*
X250850000Y-145100000D03*
X249300000Y-145100000D03*
D16*
X280450000Y-142425000D03*
X280450000Y-140875000D03*
D20*
X256765200Y-120431200D03*
X255215200Y-120431200D03*
D17*
X303933024Y-121300397D03*
X303933024Y-122950397D03*
X257570000Y-194685000D03*
X257570000Y-196335000D03*
D42*
X189065000Y-98630000D03*
X189065000Y-103065000D03*
X189065000Y-107500000D03*
X193500000Y-98630000D03*
X193500000Y-107500000D03*
X197935000Y-98630000D03*
X197935000Y-103065000D03*
X197935000Y-107500000D03*
D30*
X204025000Y-96950000D03*
D31*
X208650000Y-97705000D03*
X208650000Y-100755000D03*
X212000000Y-97705000D03*
X212000000Y-100755000D03*
D30*
X204025000Y-101510000D03*
D33*
X259585000Y-190200000D03*
X261135000Y-190200000D03*
D16*
X279950000Y-115700000D03*
X279950000Y-114150000D03*
X280650000Y-161050000D03*
X280650000Y-159500000D03*
D38*
X253998300Y-154365600D03*
X251073300Y-154365600D03*
D17*
X292490000Y-193630000D03*
X292490000Y-195280000D03*
D13*
X276300000Y-120750000D03*
X276300000Y-124050000D03*
D16*
X302350000Y-126300000D03*
X302350000Y-124750000D03*
D33*
X259160000Y-182540000D03*
X260710000Y-182540000D03*
X259575000Y-191950000D03*
X261125000Y-191950000D03*
D36*
X194316000Y-141738000D03*
X188216000Y-141738000D03*
D32*
X242375000Y-128412500D03*
X248475000Y-128412500D03*
D17*
X201910000Y-154915000D03*
X201910000Y-156565000D03*
D16*
X275310000Y-174940000D03*
X275310000Y-173390000D03*
D17*
X201890000Y-104975000D03*
X201890000Y-106625000D03*
D34*
X229125000Y-116030000D03*
D35*
X224500000Y-115275000D03*
X224500000Y-112225000D03*
X221150000Y-115275000D03*
X221150000Y-112225000D03*
D34*
X229125000Y-111470000D03*
D15*
X199200000Y-92925000D03*
X200850000Y-92925000D03*
D23*
X308200000Y-129387500D03*
X308200000Y-127812500D03*
D17*
X299219373Y-127324607D03*
X299219373Y-128974607D03*
D34*
X229075000Y-108835000D03*
D35*
X224450000Y-108080000D03*
X224450000Y-105030000D03*
X221100000Y-108080000D03*
X221100000Y-105030000D03*
D34*
X229075000Y-104275000D03*
D17*
X304050000Y-107850000D03*
X304050000Y-109500000D03*
D21*
X287762500Y-156900000D03*
X287762500Y-158800000D03*
X289637500Y-157850000D03*
D15*
X281575000Y-122550000D03*
X283225000Y-122550000D03*
D17*
X268080000Y-162540000D03*
X268080000Y-164190000D03*
D20*
X270840000Y-186170000D03*
X269290000Y-186170000D03*
D17*
X303450000Y-164200000D03*
X303450000Y-165850000D03*
D52*
X261360000Y-168595000D03*
X261360000Y-165670000D03*
D27*
X308150000Y-133575000D03*
X308150000Y-135150000D03*
X308136287Y-137417919D03*
X308136287Y-138992919D03*
D30*
X204115000Y-147149000D03*
D31*
X208740000Y-147904000D03*
X208740000Y-150954000D03*
X212090000Y-147904000D03*
X212090000Y-150954000D03*
D30*
X204115000Y-151709000D03*
D44*
X284850000Y-104950000D03*
X284850000Y-107050000D03*
D10*
X210822000Y-169672000D03*
X214122000Y-169672000D03*
D26*
X231250000Y-101800000D03*
X231250000Y-100150000D03*
X304100000Y-98950000D03*
X304100000Y-97300000D03*
D15*
X200152000Y-167132000D03*
X201802000Y-167132000D03*
D33*
X264045269Y-203116628D03*
X265595269Y-203116628D03*
D56*
X217075000Y-92250000D03*
X217075000Y-88250000D03*
D15*
X242500000Y-146200000D03*
X244150000Y-146200000D03*
D10*
X241400000Y-143180000D03*
X244700000Y-143180000D03*
D17*
X201960000Y-119305000D03*
X201960000Y-120955000D03*
D22*
X246650000Y-150575000D03*
X245000000Y-150575000D03*
D19*
X297467413Y-153142828D03*
X291542413Y-153142828D03*
D11*
X301550000Y-181500000D03*
X301550000Y-183050000D03*
D13*
X264651600Y-117560000D03*
X264651600Y-114260000D03*
D52*
X259050000Y-168625000D03*
X259050000Y-165700000D03*
D47*
X219425000Y-84950000D03*
X215425000Y-84950000D03*
D16*
X302300000Y-119500000D03*
X302300000Y-117950000D03*
D15*
X282200000Y-153000000D03*
X283850000Y-153000000D03*
D26*
X262822800Y-122196000D03*
X262822800Y-120546000D03*
D23*
X305700000Y-109450000D03*
X305700000Y-107875000D03*
D11*
X270646000Y-120646800D03*
X270646000Y-122196800D03*
D44*
X285650000Y-148900000D03*
X285650000Y-151000000D03*
D17*
X266630000Y-190125000D03*
X266630000Y-191775000D03*
X209296000Y-169672000D03*
X209296000Y-171322000D03*
D10*
X203328000Y-164338000D03*
X206628000Y-164338000D03*
D57*
X255085400Y-115288200D03*
X255085400Y-116938200D03*
X256285400Y-115288200D03*
X256285400Y-116938200D03*
D58*
X253210400Y-114208200D03*
X253210400Y-115478200D03*
X253210400Y-116748200D03*
X253210400Y-118018200D03*
X258160400Y-118018200D03*
X258160400Y-116748200D03*
X258160400Y-115478200D03*
X258160400Y-114208200D03*
D59*
X271680000Y-194660000D03*
X269580000Y-194660000D03*
D60*
X269640602Y-141747572D03*
X269287049Y-141394019D03*
X268933495Y-141040465D03*
X268579942Y-140686912D03*
X268226389Y-140333359D03*
X267872835Y-139979805D03*
X267519282Y-139626252D03*
X267165728Y-139272698D03*
X266812175Y-138919145D03*
X266458622Y-138565592D03*
X266105068Y-138212038D03*
X265751515Y-137858485D03*
D61*
X263647165Y-137858485D03*
X263293612Y-138212038D03*
X262940058Y-138565592D03*
X262586505Y-138919145D03*
X262232952Y-139272698D03*
X261879398Y-139626252D03*
X261525845Y-139979805D03*
X261172291Y-140333359D03*
X260818738Y-140686912D03*
X260465185Y-141040465D03*
X260111631Y-141394019D03*
X259758078Y-141747572D03*
D60*
X259758078Y-143851922D03*
X260111631Y-144205475D03*
X260465185Y-144559029D03*
X260818738Y-144912582D03*
X261172291Y-145266135D03*
X261525845Y-145619689D03*
X261879398Y-145973242D03*
X262232952Y-146326796D03*
X262586505Y-146680349D03*
X262940058Y-147033902D03*
X263293612Y-147387456D03*
X263647165Y-147741009D03*
D61*
X265751515Y-147741009D03*
X266105068Y-147387456D03*
X266458622Y-147033902D03*
X266812175Y-146680349D03*
X267165728Y-146326796D03*
X267519282Y-145973242D03*
X267872835Y-145619689D03*
X268226389Y-145266135D03*
X268579942Y-144912582D03*
X268933495Y-144559029D03*
X269287049Y-144205475D03*
X269640602Y-143851922D03*
D17*
X306642680Y-127764094D03*
X306642680Y-129414094D03*
D16*
X280000000Y-120300000D03*
X280000000Y-118750000D03*
D11*
X273020000Y-173305000D03*
X273020000Y-174855000D03*
D15*
X281950000Y-137800000D03*
X283600000Y-137800000D03*
D26*
X231340000Y-129865000D03*
X231340000Y-128215000D03*
D62*
X280150000Y-169450000D03*
X276850000Y-169450000D03*
D19*
X297025000Y-110200000D03*
X291100000Y-110200000D03*
D23*
X308400000Y-153737500D03*
X308400000Y-152162500D03*
D26*
X299200000Y-99400000D03*
X299200000Y-97750000D03*
X303150000Y-186600000D03*
X303150000Y-184950000D03*
D36*
X194466000Y-117818000D03*
X188366000Y-117818000D03*
D18*
X304500000Y-143625000D03*
X304500000Y-140675000D03*
X276550000Y-137350000D03*
X276550000Y-134400000D03*
D15*
X294975000Y-96400000D03*
X296625000Y-96400000D03*
D19*
X296962500Y-105850000D03*
X291037500Y-105850000D03*
D11*
X301650000Y-160650000D03*
X301650000Y-162200000D03*
D44*
X284900000Y-117950000D03*
X284900000Y-120050000D03*
X285100000Y-131000000D03*
X285100000Y-133100000D03*
D11*
X255620000Y-139010000D03*
X255620000Y-140560000D03*
D46*
X255270000Y-171122500D03*
X255270000Y-174422500D03*
D21*
X287750000Y-152750000D03*
X287750000Y-154650000D03*
X289625000Y-153700000D03*
D17*
X274574000Y-152654000D03*
X274574000Y-154304000D03*
D27*
X308400000Y-157012500D03*
X308400000Y-158587500D03*
D30*
X204275000Y-132795000D03*
D31*
X208900000Y-133550000D03*
X208900000Y-136600000D03*
X212250000Y-133550000D03*
X212250000Y-136600000D03*
D30*
X204275000Y-137355000D03*
D26*
X266750000Y-195230000D03*
X266750000Y-193580000D03*
D42*
X237930000Y-95375000D03*
X242365000Y-95375000D03*
X246800000Y-95375000D03*
X237930000Y-90940000D03*
X246800000Y-90940000D03*
X237930000Y-86505000D03*
X242365000Y-86505000D03*
X246800000Y-86505000D03*
D22*
X264575000Y-201550000D03*
X262925000Y-201550000D03*
D15*
X281300000Y-102800000D03*
X282950000Y-102800000D03*
D16*
X292250000Y-172275000D03*
X292250000Y-170725000D03*
D19*
X297419097Y-144495938D03*
X291494097Y-144495938D03*
D15*
X263190000Y-190200000D03*
X264840000Y-190200000D03*
X281400000Y-113650000D03*
X283050000Y-113650000D03*
D52*
X278650000Y-167400000D03*
X278650000Y-164475000D03*
D16*
X259640000Y-122150000D03*
X259640000Y-120600000D03*
X297512421Y-190039655D03*
X297512421Y-188489655D03*
D21*
X287200000Y-130400000D03*
X287200000Y-132300000D03*
X289075000Y-131350000D03*
D15*
X281750000Y-133300000D03*
X283400000Y-133300000D03*
D44*
X285800000Y-161100000D03*
X285800000Y-163200000D03*
D23*
X305650000Y-106000000D03*
X305650000Y-104425000D03*
D20*
X254660000Y-195200000D03*
X253110000Y-195200000D03*
D17*
X295070000Y-193330000D03*
X295070000Y-194980000D03*
D13*
X270002000Y-150984600D03*
X270002000Y-154284600D03*
D11*
X186930000Y-163510000D03*
X186930000Y-165060000D03*
D17*
X303850000Y-117900000D03*
X303850000Y-119550000D03*
D44*
X285900000Y-165600000D03*
X285900000Y-167700000D03*
D63*
X204470000Y-170810000D03*
X204470000Y-168910000D03*
X202595000Y-169860000D03*
D20*
X250850000Y-151150000D03*
X249300000Y-151150000D03*
D10*
X255950000Y-133450000D03*
X252650000Y-133450000D03*
D28*
X269720000Y-159790000D03*
X269720000Y-156490000D03*
D38*
X253922100Y-156753200D03*
X250997100Y-156753200D03*
D32*
X242375000Y-120162500D03*
X248475000Y-120162500D03*
D15*
X281300000Y-100700000D03*
X282950000Y-100700000D03*
D34*
X229150000Y-130380000D03*
D35*
X224525000Y-129625000D03*
X224525000Y-126575000D03*
X221175000Y-129625000D03*
X221175000Y-126575000D03*
D34*
X229150000Y-125820000D03*
D20*
X253895000Y-151890000D03*
X252345000Y-151890000D03*
D26*
X231510000Y-151490000D03*
X231510000Y-149840000D03*
D20*
X263906000Y-151384000D03*
X262356000Y-151384000D03*
D15*
X253040000Y-197000000D03*
X254690000Y-197000000D03*
X281500000Y-118000000D03*
X283150000Y-118000000D03*
D26*
X244440000Y-167545000D03*
X244440000Y-165895000D03*
D15*
X282425000Y-161900000D03*
X284075000Y-161900000D03*
D22*
X250010000Y-171690000D03*
X248360000Y-171690000D03*
X260750000Y-201600000D03*
X259100000Y-201600000D03*
D17*
X244770000Y-195575000D03*
X244770000Y-197225000D03*
D21*
X287150000Y-126000000D03*
X287150000Y-127900000D03*
X289025000Y-126950000D03*
D16*
X276860000Y-176810000D03*
X276860000Y-175260000D03*
D23*
X305650000Y-102450000D03*
X305650000Y-100875000D03*
D44*
X285550000Y-144300000D03*
X285550000Y-146400000D03*
D23*
X304950000Y-169250000D03*
X304950000Y-167675000D03*
D19*
X296975000Y-114300000D03*
X291050000Y-114300000D03*
D15*
X281600000Y-126600000D03*
X283250000Y-126600000D03*
X281350000Y-109450000D03*
X283000000Y-109450000D03*
D26*
X231290000Y-122625000D03*
X231290000Y-120975000D03*
D10*
X212346000Y-184404000D03*
X215646000Y-184404000D03*
D64*
X267468000Y-116087800D03*
X270268000Y-116087800D03*
D15*
X281350000Y-105000000D03*
X283000000Y-105000000D03*
X282100000Y-146550000D03*
X283750000Y-146550000D03*
D17*
X299129056Y-112350243D03*
X299129056Y-114000243D03*
D11*
X257410000Y-172875000D03*
X257410000Y-174425000D03*
D65*
X261112000Y-152660000D03*
X261112000Y-150760000D03*
X259112000Y-151710000D03*
D19*
X297569269Y-161707102D03*
X291644269Y-161707102D03*
D13*
X267160000Y-156610000D03*
X267160000Y-159910000D03*
D41*
X304962490Y-128475751D03*
X302012490Y-128475751D03*
D26*
X248370000Y-190225000D03*
X248370000Y-188575000D03*
D15*
X282025000Y-142300000D03*
X283675000Y-142300000D03*
D17*
X201850000Y-112115000D03*
X201850000Y-113765000D03*
D13*
X256620000Y-165980000D03*
X256620000Y-169280000D03*
D15*
X266205000Y-186160000D03*
X267855000Y-186160000D03*
D66*
X285932000Y-183134000D03*
X285932000Y-184404000D03*
X285932000Y-185674000D03*
X285932000Y-186944000D03*
X294132000Y-186944000D03*
X294132000Y-185674000D03*
X294132000Y-184404000D03*
D67*
X294132000Y-183134000D03*
D22*
X271540000Y-192870000D03*
X269890000Y-192870000D03*
D68*
X239107500Y-170550000D03*
X242032500Y-170550000D03*
D26*
X244880000Y-193425000D03*
X244880000Y-191775000D03*
D20*
X277225000Y-132700000D03*
X275675000Y-132700000D03*
D26*
X231325000Y-144265000D03*
X231325000Y-142615000D03*
D44*
X284950000Y-122600000D03*
X284950000Y-124700000D03*
D15*
X281350000Y-107100000D03*
X283000000Y-107100000D03*
D16*
X280350000Y-138025000D03*
X280350000Y-136475000D03*
D36*
X194326000Y-137798000D03*
X188226000Y-137798000D03*
D23*
X304700000Y-186575000D03*
X304700000Y-185000000D03*
D26*
X303100000Y-183100000D03*
X303100000Y-181450000D03*
D17*
X303300000Y-171100000D03*
X303300000Y-172750000D03*
D69*
X192550000Y-162550000D03*
X192550000Y-169350000D03*
D17*
X202050000Y-133700000D03*
X202050000Y-135350000D03*
X201910000Y-147360000D03*
X201910000Y-149010000D03*
D44*
X284850000Y-109400000D03*
X284850000Y-111500000D03*
D26*
X255329800Y-160423000D03*
X255329800Y-158773000D03*
D22*
X277300000Y-130950000D03*
X275650000Y-130950000D03*
D17*
X277770000Y-192060000D03*
X277770000Y-193710000D03*
D15*
X282525000Y-165900000D03*
X284175000Y-165900000D03*
D20*
X241200000Y-167510000D03*
X239650000Y-167510000D03*
D15*
X281350000Y-111500000D03*
X283000000Y-111500000D03*
D17*
X299131374Y-115663461D03*
X299131374Y-117313461D03*
D24*
X257500000Y-200050000D03*
X257500000Y-198650000D03*
D15*
X249185000Y-148422000D03*
X250835000Y-148422000D03*
X251525000Y-163020000D03*
X253175000Y-163020000D03*
D23*
X304850000Y-172700000D03*
X304850000Y-171125000D03*
D53*
X258048008Y-136251992D03*
X256951992Y-137348008D03*
D15*
X282125000Y-144550000D03*
X283775000Y-144550000D03*
D42*
X190815000Y-193240000D03*
X190815000Y-197675000D03*
X190815000Y-202110000D03*
X195250000Y-193240000D03*
X195250000Y-202110000D03*
X199685000Y-193240000D03*
X199685000Y-197675000D03*
X199685000Y-202110000D03*
D30*
X204175000Y-118470000D03*
D31*
X208800000Y-119225000D03*
X208800000Y-122275000D03*
X212150000Y-119225000D03*
X212150000Y-122275000D03*
D30*
X204175000Y-123030000D03*
D26*
X303100000Y-179650000D03*
X303100000Y-178000000D03*
D19*
X297457504Y-148884911D03*
X291532504Y-148884911D03*
D26*
X301588000Y-189726000D03*
X301588000Y-188076000D03*
D17*
X217678000Y-173927000D03*
X217678000Y-175577000D03*
D16*
X261250000Y-122140000D03*
X261250000Y-120590000D03*
D17*
X274574000Y-176975000D03*
X274574000Y-178625000D03*
X201990000Y-126575000D03*
X201990000Y-128225000D03*
D11*
X296788000Y-181911000D03*
X296788000Y-183461000D03*
D22*
X261057000Y-111338000D03*
X259407000Y-111338000D03*
D40*
X262289500Y-188000000D03*
X260714500Y-188000000D03*
D70*
X210566000Y-177292000D03*
X210566000Y-174242000D03*
X207216000Y-177292000D03*
X207216000Y-174242000D03*
D71*
X215191000Y-178047000D03*
X215191000Y-173487000D03*
D15*
X275125000Y-167350000D03*
X276775000Y-167350000D03*
D17*
X303900000Y-124700000D03*
X303900000Y-126350000D03*
D33*
X283880000Y-211670000D03*
X285430000Y-211670000D03*
D26*
X285908000Y-171790000D03*
X285908000Y-170140000D03*
D17*
X299138989Y-105717059D03*
X299138989Y-107367059D03*
D22*
X276130000Y-198230000D03*
X274480000Y-198230000D03*
D19*
X297012500Y-122700000D03*
X291087500Y-122700000D03*
D13*
X268170000Y-166480000D03*
X268170000Y-169780000D03*
M02*
