G04 #@! TF.GenerationSoftware,KiCad,Pcbnew,7.0.5*
G04 #@! TF.CreationDate,2025-02-26T12:08:45+05:30*
G04 #@! TF.ProjectId,NewSparky_V1.3.4.1,4e657753-7061-4726-9b79-5f56312e332e,rev?*
G04 #@! TF.SameCoordinates,Original*
G04 #@! TF.FileFunction,Legend,Bot*
G04 #@! TF.FilePolarity,Positive*
%FSLAX46Y46*%
G04 Gerber Fmt 4.6, Leading zero omitted, Abs format (unit mm)*
G04 Created by KiCad (PCBNEW 7.0.5) date 2025-02-26 12:08:45*
%MOMM*%
%LPD*%
G01*
G04 APERTURE LIST*
G04 Aperture macros list*
%AMRoundRect*
0 Rectangle with rounded corners*
0 $1 Rounding radius*
0 $2 $3 $4 $5 $6 $7 $8 $9 X,Y pos of 4 corners*
0 Add a 4 corners polygon primitive as box body*
4,1,4,$2,$3,$4,$5,$6,$7,$8,$9,$2,$3,0*
0 Add four circle primitives for the rounded corners*
1,1,$1+$1,$2,$3*
1,1,$1+$1,$4,$5*
1,1,$1+$1,$6,$7*
1,1,$1+$1,$8,$9*
0 Add four rect primitives between the rounded corners*
20,1,$1+$1,$2,$3,$4,$5,0*
20,1,$1+$1,$4,$5,$6,$7,0*
20,1,$1+$1,$6,$7,$8,$9,0*
20,1,$1+$1,$8,$9,$2,$3,0*%
G04 Aperture macros list end*
%ADD10C,0.800000*%
%ADD11C,0.750000*%
%ADD12C,0.300000*%
%ADD13C,0.150000*%
%ADD14C,0.120000*%
%ADD15C,0.900000*%
%ADD16R,1.900000X1.900000*%
%ADD17R,0.900000X0.900000*%
%ADD18R,1.500000X1.500000*%
%ADD19C,1.500000*%
%ADD20C,3.900000*%
%ADD21RoundRect,0.400000X-0.300000X0.300000X-0.300000X-0.300000X0.300000X-0.300000X0.300000X0.300000X0*%
%ADD22C,1.400000*%
%ADD23R,1.250000X1.250000*%
%ADD24C,1.250000*%
%ADD25C,5.200000*%
%ADD26C,3.100000*%
%ADD27R,1.600000X1.600000*%
%ADD28O,1.600000X1.600000*%
%ADD29C,1.100000*%
%ADD30R,1.200000X1.200000*%
%ADD31C,1.200000*%
%ADD32C,3.400000*%
%ADD33R,1.300000X1.300000*%
%ADD34C,1.300000*%
%ADD35C,1.281000*%
%ADD36C,1.775000*%
%ADD37C,1.900000*%
%ADD38RoundRect,0.200000X0.325000X0.650000X-0.325000X0.650000X-0.325000X-0.650000X0.325000X-0.650000X0*%
%ADD39C,1.000000*%
%ADD40RoundRect,0.020000X0.280000X0.730000X-0.280000X0.730000X-0.280000X-0.730000X0.280000X-0.730000X0*%
%ADD41RoundRect,0.070000X0.480000X0.980000X-0.480000X0.980000X-0.480000X-0.980000X0.480000X-0.980000X0*%
%ADD42RoundRect,0.070000X0.480000X0.630000X-0.480000X0.630000X-0.480000X-0.630000X0.480000X-0.630000X0*%
%ADD43RoundRect,0.100000X0.650000X0.600000X-0.650000X0.600000X-0.650000X-0.600000X0.650000X-0.600000X0*%
G04 APERTURE END LIST*
D10*
X287115980Y-163541333D02*
X287115980Y-161636571D01*
X285973123Y-163922285D02*
X289973123Y-162588952D01*
X289973123Y-162588952D02*
X285973123Y-161255618D01*
X288639790Y-159922286D02*
X284639790Y-159922286D01*
X288449314Y-159922286D02*
X288639790Y-159541333D01*
X288639790Y-159541333D02*
X288639790Y-158779428D01*
X288639790Y-158779428D02*
X288449314Y-158398476D01*
X288449314Y-158398476D02*
X288258838Y-158208000D01*
X288258838Y-158208000D02*
X287877885Y-158017524D01*
X287877885Y-158017524D02*
X286735028Y-158017524D01*
X286735028Y-158017524D02*
X286354076Y-158208000D01*
X286354076Y-158208000D02*
X286163600Y-158398476D01*
X286163600Y-158398476D02*
X285973123Y-158779428D01*
X285973123Y-158779428D02*
X285973123Y-159541333D01*
X285973123Y-159541333D02*
X286163600Y-159922286D01*
X286163600Y-154779428D02*
X285973123Y-155160380D01*
X285973123Y-155160380D02*
X285973123Y-155922285D01*
X285973123Y-155922285D02*
X286163600Y-156303238D01*
X286163600Y-156303238D02*
X286544552Y-156493714D01*
X286544552Y-156493714D02*
X288068361Y-156493714D01*
X288068361Y-156493714D02*
X288449314Y-156303238D01*
X288449314Y-156303238D02*
X288639790Y-155922285D01*
X288639790Y-155922285D02*
X288639790Y-155160380D01*
X288639790Y-155160380D02*
X288449314Y-154779428D01*
X288449314Y-154779428D02*
X288068361Y-154588952D01*
X288068361Y-154588952D02*
X287687409Y-154588952D01*
X287687409Y-154588952D02*
X287306457Y-156493714D01*
X285973123Y-152874667D02*
X288639790Y-152874667D01*
X289973123Y-152874667D02*
X289782647Y-153065143D01*
X289782647Y-153065143D02*
X289592171Y-152874667D01*
X289592171Y-152874667D02*
X289782647Y-152684190D01*
X289782647Y-152684190D02*
X289973123Y-152874667D01*
X289973123Y-152874667D02*
X289592171Y-152874667D01*
X285973123Y-150969905D02*
X288639790Y-150969905D01*
X287877885Y-150969905D02*
X288258838Y-150779428D01*
X288258838Y-150779428D02*
X288449314Y-150588952D01*
X288449314Y-150588952D02*
X288639790Y-150208000D01*
X288639790Y-150208000D02*
X288639790Y-149827047D01*
X285973123Y-147922286D02*
X286163600Y-148303238D01*
X286163600Y-148303238D02*
X286354076Y-148493715D01*
X286354076Y-148493715D02*
X286735028Y-148684191D01*
X286735028Y-148684191D02*
X287877885Y-148684191D01*
X287877885Y-148684191D02*
X288258838Y-148493715D01*
X288258838Y-148493715D02*
X288449314Y-148303238D01*
X288449314Y-148303238D02*
X288639790Y-147922286D01*
X288639790Y-147922286D02*
X288639790Y-147350857D01*
X288639790Y-147350857D02*
X288449314Y-146969905D01*
X288449314Y-146969905D02*
X288258838Y-146779429D01*
X288258838Y-146779429D02*
X287877885Y-146588953D01*
X287877885Y-146588953D02*
X286735028Y-146588953D01*
X286735028Y-146588953D02*
X286354076Y-146779429D01*
X286354076Y-146779429D02*
X286163600Y-146969905D01*
X286163600Y-146969905D02*
X285973123Y-147350857D01*
X285973123Y-147350857D02*
X285973123Y-147922286D01*
X288639790Y-144874667D02*
X285973123Y-144874667D01*
X288258838Y-144874667D02*
X288449314Y-144684190D01*
X288449314Y-144684190D02*
X288639790Y-144303238D01*
X288639790Y-144303238D02*
X288639790Y-143731809D01*
X288639790Y-143731809D02*
X288449314Y-143350857D01*
X288449314Y-143350857D02*
X288068361Y-143160381D01*
X288068361Y-143160381D02*
X285973123Y-143160381D01*
X285973123Y-138208000D02*
X289973123Y-138208000D01*
X289973123Y-138208000D02*
X287115980Y-136874666D01*
X287115980Y-136874666D02*
X289973123Y-135541333D01*
X289973123Y-135541333D02*
X285973123Y-135541333D01*
X285973123Y-133065142D02*
X286163600Y-133446094D01*
X286163600Y-133446094D02*
X286354076Y-133636571D01*
X286354076Y-133636571D02*
X286735028Y-133827047D01*
X286735028Y-133827047D02*
X287877885Y-133827047D01*
X287877885Y-133827047D02*
X288258838Y-133636571D01*
X288258838Y-133636571D02*
X288449314Y-133446094D01*
X288449314Y-133446094D02*
X288639790Y-133065142D01*
X288639790Y-133065142D02*
X288639790Y-132493713D01*
X288639790Y-132493713D02*
X288449314Y-132112761D01*
X288449314Y-132112761D02*
X288258838Y-131922285D01*
X288258838Y-131922285D02*
X287877885Y-131731809D01*
X287877885Y-131731809D02*
X286735028Y-131731809D01*
X286735028Y-131731809D02*
X286354076Y-131922285D01*
X286354076Y-131922285D02*
X286163600Y-132112761D01*
X286163600Y-132112761D02*
X285973123Y-132493713D01*
X285973123Y-132493713D02*
X285973123Y-133065142D01*
X285973123Y-130017523D02*
X289973123Y-130017523D01*
X288449314Y-130017523D02*
X288639790Y-129636570D01*
X288639790Y-129636570D02*
X288639790Y-128874665D01*
X288639790Y-128874665D02*
X288449314Y-128493713D01*
X288449314Y-128493713D02*
X288258838Y-128303237D01*
X288258838Y-128303237D02*
X287877885Y-128112761D01*
X287877885Y-128112761D02*
X286735028Y-128112761D01*
X286735028Y-128112761D02*
X286354076Y-128303237D01*
X286354076Y-128303237D02*
X286163600Y-128493713D01*
X286163600Y-128493713D02*
X285973123Y-128874665D01*
X285973123Y-128874665D02*
X285973123Y-129636570D01*
X285973123Y-129636570D02*
X286163600Y-130017523D01*
X285973123Y-126398475D02*
X288639790Y-126398475D01*
X289973123Y-126398475D02*
X289782647Y-126588951D01*
X289782647Y-126588951D02*
X289592171Y-126398475D01*
X289592171Y-126398475D02*
X289782647Y-126207998D01*
X289782647Y-126207998D02*
X289973123Y-126398475D01*
X289973123Y-126398475D02*
X289592171Y-126398475D01*
X285973123Y-123922284D02*
X286163600Y-124303236D01*
X286163600Y-124303236D02*
X286544552Y-124493713D01*
X286544552Y-124493713D02*
X289973123Y-124493713D01*
X285973123Y-122398475D02*
X288639790Y-122398475D01*
X289973123Y-122398475D02*
X289782647Y-122588951D01*
X289782647Y-122588951D02*
X289592171Y-122398475D01*
X289592171Y-122398475D02*
X289782647Y-122207998D01*
X289782647Y-122207998D02*
X289973123Y-122398475D01*
X289973123Y-122398475D02*
X289592171Y-122398475D01*
X288639790Y-121065141D02*
X288639790Y-119541332D01*
X289973123Y-120493713D02*
X286544552Y-120493713D01*
X286544552Y-120493713D02*
X286163600Y-120303236D01*
X286163600Y-120303236D02*
X285973123Y-119922284D01*
X285973123Y-119922284D02*
X285973123Y-119541332D01*
X288639790Y-118588951D02*
X285973123Y-117636570D01*
X288639790Y-116684189D02*
X285973123Y-117636570D01*
X285973123Y-117636570D02*
X285020742Y-118017522D01*
X285020742Y-118017522D02*
X284830266Y-118207999D01*
X284830266Y-118207999D02*
X284639790Y-118588951D01*
D11*
X292574523Y-163128285D02*
X296574523Y-163128285D01*
X296574523Y-163128285D02*
X292574523Y-160842570D01*
X292574523Y-160842570D02*
X296574523Y-160842570D01*
X292765000Y-157413999D02*
X292574523Y-157794951D01*
X292574523Y-157794951D02*
X292574523Y-158556856D01*
X292574523Y-158556856D02*
X292765000Y-158937809D01*
X292765000Y-158937809D02*
X293145952Y-159128285D01*
X293145952Y-159128285D02*
X294669761Y-159128285D01*
X294669761Y-159128285D02*
X295050714Y-158937809D01*
X295050714Y-158937809D02*
X295241190Y-158556856D01*
X295241190Y-158556856D02*
X295241190Y-157794951D01*
X295241190Y-157794951D02*
X295050714Y-157413999D01*
X295050714Y-157413999D02*
X294669761Y-157223523D01*
X294669761Y-157223523D02*
X294288809Y-157223523D01*
X294288809Y-157223523D02*
X293907857Y-159128285D01*
X295241190Y-155890190D02*
X292574523Y-155128285D01*
X292574523Y-155128285D02*
X294479285Y-154366380D01*
X294479285Y-154366380D02*
X292574523Y-153604476D01*
X292574523Y-153604476D02*
X295241190Y-152842571D01*
X292765000Y-151509238D02*
X292574523Y-150937809D01*
X292574523Y-150937809D02*
X292574523Y-149985428D01*
X292574523Y-149985428D02*
X292765000Y-149604476D01*
X292765000Y-149604476D02*
X292955476Y-149414000D01*
X292955476Y-149414000D02*
X293336428Y-149223523D01*
X293336428Y-149223523D02*
X293717380Y-149223523D01*
X293717380Y-149223523D02*
X294098333Y-149414000D01*
X294098333Y-149414000D02*
X294288809Y-149604476D01*
X294288809Y-149604476D02*
X294479285Y-149985428D01*
X294479285Y-149985428D02*
X294669761Y-150747333D01*
X294669761Y-150747333D02*
X294860238Y-151128285D01*
X294860238Y-151128285D02*
X295050714Y-151318762D01*
X295050714Y-151318762D02*
X295431666Y-151509238D01*
X295431666Y-151509238D02*
X295812619Y-151509238D01*
X295812619Y-151509238D02*
X296193571Y-151318762D01*
X296193571Y-151318762D02*
X296384047Y-151128285D01*
X296384047Y-151128285D02*
X296574523Y-150747333D01*
X296574523Y-150747333D02*
X296574523Y-149794952D01*
X296574523Y-149794952D02*
X296384047Y-149223523D01*
X295241190Y-147509238D02*
X291241190Y-147509238D01*
X295050714Y-147509238D02*
X295241190Y-147128285D01*
X295241190Y-147128285D02*
X295241190Y-146366380D01*
X295241190Y-146366380D02*
X295050714Y-145985428D01*
X295050714Y-145985428D02*
X294860238Y-145794952D01*
X294860238Y-145794952D02*
X294479285Y-145604476D01*
X294479285Y-145604476D02*
X293336428Y-145604476D01*
X293336428Y-145604476D02*
X292955476Y-145794952D01*
X292955476Y-145794952D02*
X292765000Y-145985428D01*
X292765000Y-145985428D02*
X292574523Y-146366380D01*
X292574523Y-146366380D02*
X292574523Y-147128285D01*
X292574523Y-147128285D02*
X292765000Y-147509238D01*
X292574523Y-142175904D02*
X294669761Y-142175904D01*
X294669761Y-142175904D02*
X295050714Y-142366380D01*
X295050714Y-142366380D02*
X295241190Y-142747332D01*
X295241190Y-142747332D02*
X295241190Y-143509237D01*
X295241190Y-143509237D02*
X295050714Y-143890190D01*
X292765000Y-142175904D02*
X292574523Y-142556856D01*
X292574523Y-142556856D02*
X292574523Y-143509237D01*
X292574523Y-143509237D02*
X292765000Y-143890190D01*
X292765000Y-143890190D02*
X293145952Y-144080666D01*
X293145952Y-144080666D02*
X293526904Y-144080666D01*
X293526904Y-144080666D02*
X293907857Y-143890190D01*
X293907857Y-143890190D02*
X294098333Y-143509237D01*
X294098333Y-143509237D02*
X294098333Y-142556856D01*
X294098333Y-142556856D02*
X294288809Y-142175904D01*
X292574523Y-140271142D02*
X295241190Y-140271142D01*
X294479285Y-140271142D02*
X294860238Y-140080665D01*
X294860238Y-140080665D02*
X295050714Y-139890189D01*
X295050714Y-139890189D02*
X295241190Y-139509237D01*
X295241190Y-139509237D02*
X295241190Y-139128284D01*
X292574523Y-137794952D02*
X296574523Y-137794952D01*
X294098333Y-137413999D02*
X292574523Y-136271142D01*
X295241190Y-136271142D02*
X293717380Y-137794952D01*
X295241190Y-134937809D02*
X292574523Y-133985428D01*
X295241190Y-133033047D02*
X292574523Y-133985428D01*
X292574523Y-133985428D02*
X291622142Y-134366380D01*
X291622142Y-134366380D02*
X291431666Y-134556857D01*
X291431666Y-134556857D02*
X291241190Y-134937809D01*
X296574523Y-129033047D02*
X292574523Y-127699714D01*
X292574523Y-127699714D02*
X296574523Y-126366380D01*
X292574523Y-122937809D02*
X292574523Y-125223524D01*
X292574523Y-124080667D02*
X296574523Y-124080667D01*
X296574523Y-124080667D02*
X296003095Y-124461619D01*
X296003095Y-124461619D02*
X295622142Y-124842571D01*
X295622142Y-124842571D02*
X295431666Y-125223524D01*
X292955476Y-121223524D02*
X292765000Y-121033047D01*
X292765000Y-121033047D02*
X292574523Y-121223524D01*
X292574523Y-121223524D02*
X292765000Y-121414000D01*
X292765000Y-121414000D02*
X292955476Y-121223524D01*
X292955476Y-121223524D02*
X292574523Y-121223524D01*
X296574523Y-119699714D02*
X296574523Y-117223523D01*
X296574523Y-117223523D02*
X295050714Y-118556857D01*
X295050714Y-118556857D02*
X295050714Y-117985428D01*
X295050714Y-117985428D02*
X294860238Y-117604476D01*
X294860238Y-117604476D02*
X294669761Y-117414000D01*
X294669761Y-117414000D02*
X294288809Y-117223523D01*
X294288809Y-117223523D02*
X293336428Y-117223523D01*
X293336428Y-117223523D02*
X292955476Y-117414000D01*
X292955476Y-117414000D02*
X292765000Y-117604476D01*
X292765000Y-117604476D02*
X292574523Y-117985428D01*
X292574523Y-117985428D02*
X292574523Y-119128285D01*
X292574523Y-119128285D02*
X292765000Y-119509238D01*
X292765000Y-119509238D02*
X292955476Y-119699714D01*
X292955476Y-115509238D02*
X292765000Y-115318761D01*
X292765000Y-115318761D02*
X292574523Y-115509238D01*
X292574523Y-115509238D02*
X292765000Y-115699714D01*
X292765000Y-115699714D02*
X292955476Y-115509238D01*
X292955476Y-115509238D02*
X292574523Y-115509238D01*
X292574523Y-111509237D02*
X292574523Y-113794952D01*
X292574523Y-112652095D02*
X296574523Y-112652095D01*
X296574523Y-112652095D02*
X296003095Y-113033047D01*
X296003095Y-113033047D02*
X295622142Y-113413999D01*
X295622142Y-113413999D02*
X295431666Y-113794952D01*
D12*
X208080828Y-190800510D02*
X206580828Y-190800510D01*
X206580828Y-190800510D02*
X207652257Y-191300510D01*
X207652257Y-191300510D02*
X206580828Y-191800510D01*
X206580828Y-191800510D02*
X208080828Y-191800510D01*
X207652257Y-192443368D02*
X207652257Y-193157654D01*
X208080828Y-192300511D02*
X206580828Y-192800511D01*
X206580828Y-192800511D02*
X208080828Y-193300511D01*
X208080828Y-193800510D02*
X206580828Y-193800510D01*
X206580828Y-193800510D02*
X206580828Y-194157653D01*
X206580828Y-194157653D02*
X206652257Y-194371939D01*
X206652257Y-194371939D02*
X206795114Y-194514796D01*
X206795114Y-194514796D02*
X206937971Y-194586225D01*
X206937971Y-194586225D02*
X207223685Y-194657653D01*
X207223685Y-194657653D02*
X207437971Y-194657653D01*
X207437971Y-194657653D02*
X207723685Y-194586225D01*
X207723685Y-194586225D02*
X207866542Y-194514796D01*
X207866542Y-194514796D02*
X208009400Y-194371939D01*
X208009400Y-194371939D02*
X208080828Y-194157653D01*
X208080828Y-194157653D02*
X208080828Y-193800510D01*
X207295114Y-195300510D02*
X207295114Y-195800510D01*
X208080828Y-196014796D02*
X208080828Y-195300510D01*
X208080828Y-195300510D02*
X206580828Y-195300510D01*
X206580828Y-195300510D02*
X206580828Y-196014796D01*
X208080828Y-197800510D02*
X206580828Y-197800510D01*
X208080828Y-198514796D02*
X206580828Y-198514796D01*
X206580828Y-198514796D02*
X208080828Y-199371939D01*
X208080828Y-199371939D02*
X206580828Y-199371939D01*
X208080828Y-201229082D02*
X206580828Y-201229082D01*
X208080828Y-201943368D02*
X206580828Y-201943368D01*
X206580828Y-201943368D02*
X208080828Y-202800511D01*
X208080828Y-202800511D02*
X206580828Y-202800511D01*
X208080828Y-203514797D02*
X206580828Y-203514797D01*
X206580828Y-203514797D02*
X206580828Y-203871940D01*
X206580828Y-203871940D02*
X206652257Y-204086226D01*
X206652257Y-204086226D02*
X206795114Y-204229083D01*
X206795114Y-204229083D02*
X206937971Y-204300512D01*
X206937971Y-204300512D02*
X207223685Y-204371940D01*
X207223685Y-204371940D02*
X207437971Y-204371940D01*
X207437971Y-204371940D02*
X207723685Y-204300512D01*
X207723685Y-204300512D02*
X207866542Y-204229083D01*
X207866542Y-204229083D02*
X208009400Y-204086226D01*
X208009400Y-204086226D02*
X208080828Y-203871940D01*
X208080828Y-203871940D02*
X208080828Y-203514797D01*
X208080828Y-205014797D02*
X206580828Y-205014797D01*
X207652257Y-205657655D02*
X207652257Y-206371941D01*
X208080828Y-205514798D02*
X206580828Y-206014798D01*
X206580828Y-206014798D02*
X208080828Y-206514798D01*
X307547489Y-214684828D02*
X307547489Y-213184828D01*
X307547489Y-213184828D02*
X307047489Y-214256257D01*
X307047489Y-214256257D02*
X306547489Y-213184828D01*
X306547489Y-213184828D02*
X306547489Y-214684828D01*
X305904631Y-214256257D02*
X305190346Y-214256257D01*
X306047488Y-214684828D02*
X305547488Y-213184828D01*
X305547488Y-213184828D02*
X305047488Y-214684828D01*
X304547489Y-214684828D02*
X304547489Y-213184828D01*
X304547489Y-213184828D02*
X304190346Y-213184828D01*
X304190346Y-213184828D02*
X303976060Y-213256257D01*
X303976060Y-213256257D02*
X303833203Y-213399114D01*
X303833203Y-213399114D02*
X303761774Y-213541971D01*
X303761774Y-213541971D02*
X303690346Y-213827685D01*
X303690346Y-213827685D02*
X303690346Y-214041971D01*
X303690346Y-214041971D02*
X303761774Y-214327685D01*
X303761774Y-214327685D02*
X303833203Y-214470542D01*
X303833203Y-214470542D02*
X303976060Y-214613400D01*
X303976060Y-214613400D02*
X304190346Y-214684828D01*
X304190346Y-214684828D02*
X304547489Y-214684828D01*
X303047489Y-213899114D02*
X302547489Y-213899114D01*
X302333203Y-214684828D02*
X303047489Y-214684828D01*
X303047489Y-214684828D02*
X303047489Y-213184828D01*
X303047489Y-213184828D02*
X302333203Y-213184828D01*
X300547489Y-214684828D02*
X300547489Y-213184828D01*
X299833203Y-214684828D02*
X299833203Y-213184828D01*
X299833203Y-213184828D02*
X298976060Y-214684828D01*
X298976060Y-214684828D02*
X298976060Y-213184828D01*
X297118917Y-214684828D02*
X297118917Y-213184828D01*
X296404631Y-214684828D02*
X296404631Y-213184828D01*
X296404631Y-213184828D02*
X295547488Y-214684828D01*
X295547488Y-214684828D02*
X295547488Y-213184828D01*
X294833202Y-214684828D02*
X294833202Y-213184828D01*
X294833202Y-213184828D02*
X294476059Y-213184828D01*
X294476059Y-213184828D02*
X294261773Y-213256257D01*
X294261773Y-213256257D02*
X294118916Y-213399114D01*
X294118916Y-213399114D02*
X294047487Y-213541971D01*
X294047487Y-213541971D02*
X293976059Y-213827685D01*
X293976059Y-213827685D02*
X293976059Y-214041971D01*
X293976059Y-214041971D02*
X294047487Y-214327685D01*
X294047487Y-214327685D02*
X294118916Y-214470542D01*
X294118916Y-214470542D02*
X294261773Y-214613400D01*
X294261773Y-214613400D02*
X294476059Y-214684828D01*
X294476059Y-214684828D02*
X294833202Y-214684828D01*
X293333202Y-214684828D02*
X293333202Y-213184828D01*
X292690344Y-214256257D02*
X291976059Y-214256257D01*
X292833201Y-214684828D02*
X292333201Y-213184828D01*
X292333201Y-213184828D02*
X291833201Y-214684828D01*
X267669489Y-91748828D02*
X267669489Y-90248828D01*
X267669489Y-90248828D02*
X267169489Y-91320257D01*
X267169489Y-91320257D02*
X266669489Y-90248828D01*
X266669489Y-90248828D02*
X266669489Y-91748828D01*
X266026631Y-91320257D02*
X265312346Y-91320257D01*
X266169488Y-91748828D02*
X265669488Y-90248828D01*
X265669488Y-90248828D02*
X265169488Y-91748828D01*
X264669489Y-91748828D02*
X264669489Y-90248828D01*
X264669489Y-90248828D02*
X264312346Y-90248828D01*
X264312346Y-90248828D02*
X264098060Y-90320257D01*
X264098060Y-90320257D02*
X263955203Y-90463114D01*
X263955203Y-90463114D02*
X263883774Y-90605971D01*
X263883774Y-90605971D02*
X263812346Y-90891685D01*
X263812346Y-90891685D02*
X263812346Y-91105971D01*
X263812346Y-91105971D02*
X263883774Y-91391685D01*
X263883774Y-91391685D02*
X263955203Y-91534542D01*
X263955203Y-91534542D02*
X264098060Y-91677400D01*
X264098060Y-91677400D02*
X264312346Y-91748828D01*
X264312346Y-91748828D02*
X264669489Y-91748828D01*
X263169489Y-90963114D02*
X262669489Y-90963114D01*
X262455203Y-91748828D02*
X263169489Y-91748828D01*
X263169489Y-91748828D02*
X263169489Y-90248828D01*
X263169489Y-90248828D02*
X262455203Y-90248828D01*
X260669489Y-91748828D02*
X260669489Y-90248828D01*
X259955203Y-91748828D02*
X259955203Y-90248828D01*
X259955203Y-90248828D02*
X259098060Y-91748828D01*
X259098060Y-91748828D02*
X259098060Y-90248828D01*
X257240917Y-91748828D02*
X257240917Y-90248828D01*
X256526631Y-91748828D02*
X256526631Y-90248828D01*
X256526631Y-90248828D02*
X255669488Y-91748828D01*
X255669488Y-91748828D02*
X255669488Y-90248828D01*
X254955202Y-91748828D02*
X254955202Y-90248828D01*
X254955202Y-90248828D02*
X254598059Y-90248828D01*
X254598059Y-90248828D02*
X254383773Y-90320257D01*
X254383773Y-90320257D02*
X254240916Y-90463114D01*
X254240916Y-90463114D02*
X254169487Y-90605971D01*
X254169487Y-90605971D02*
X254098059Y-90891685D01*
X254098059Y-90891685D02*
X254098059Y-91105971D01*
X254098059Y-91105971D02*
X254169487Y-91391685D01*
X254169487Y-91391685D02*
X254240916Y-91534542D01*
X254240916Y-91534542D02*
X254383773Y-91677400D01*
X254383773Y-91677400D02*
X254598059Y-91748828D01*
X254598059Y-91748828D02*
X254955202Y-91748828D01*
X253455202Y-91748828D02*
X253455202Y-90248828D01*
X252812344Y-91320257D02*
X252098059Y-91320257D01*
X252955201Y-91748828D02*
X252455201Y-90248828D01*
X252455201Y-90248828D02*
X251955201Y-91748828D01*
D13*
X267225714Y-195742628D02*
X267254286Y-195771200D01*
X267254286Y-195771200D02*
X267340000Y-195799771D01*
X267340000Y-195799771D02*
X267397143Y-195799771D01*
X267397143Y-195799771D02*
X267482857Y-195771200D01*
X267482857Y-195771200D02*
X267540000Y-195714057D01*
X267540000Y-195714057D02*
X267568571Y-195656914D01*
X267568571Y-195656914D02*
X267597143Y-195542628D01*
X267597143Y-195542628D02*
X267597143Y-195456914D01*
X267597143Y-195456914D02*
X267568571Y-195342628D01*
X267568571Y-195342628D02*
X267540000Y-195285485D01*
X267540000Y-195285485D02*
X267482857Y-195228342D01*
X267482857Y-195228342D02*
X267397143Y-195199771D01*
X267397143Y-195199771D02*
X267340000Y-195199771D01*
X267340000Y-195199771D02*
X267254286Y-195228342D01*
X267254286Y-195228342D02*
X267225714Y-195256914D01*
X266997143Y-195256914D02*
X266968571Y-195228342D01*
X266968571Y-195228342D02*
X266911429Y-195199771D01*
X266911429Y-195199771D02*
X266768571Y-195199771D01*
X266768571Y-195199771D02*
X266711429Y-195228342D01*
X266711429Y-195228342D02*
X266682857Y-195256914D01*
X266682857Y-195256914D02*
X266654286Y-195314057D01*
X266654286Y-195314057D02*
X266654286Y-195371200D01*
X266654286Y-195371200D02*
X266682857Y-195456914D01*
X266682857Y-195456914D02*
X267025714Y-195799771D01*
X267025714Y-195799771D02*
X266654286Y-195799771D01*
X266454285Y-195199771D02*
X266054285Y-195199771D01*
X266054285Y-195199771D02*
X266311428Y-195799771D01*
X263451714Y-199201771D02*
X263451714Y-199630342D01*
X263451714Y-199630342D02*
X263480285Y-199716057D01*
X263480285Y-199716057D02*
X263537428Y-199773200D01*
X263537428Y-199773200D02*
X263623142Y-199801771D01*
X263623142Y-199801771D02*
X263680285Y-199801771D01*
X262851714Y-199801771D02*
X263194571Y-199801771D01*
X263023142Y-199801771D02*
X263023142Y-199201771D01*
X263023142Y-199201771D02*
X263080285Y-199287485D01*
X263080285Y-199287485D02*
X263137428Y-199344628D01*
X263137428Y-199344628D02*
X263194571Y-199373200D01*
X262508856Y-199458914D02*
X262565999Y-199430342D01*
X262565999Y-199430342D02*
X262594570Y-199401771D01*
X262594570Y-199401771D02*
X262623142Y-199344628D01*
X262623142Y-199344628D02*
X262623142Y-199316057D01*
X262623142Y-199316057D02*
X262594570Y-199258914D01*
X262594570Y-199258914D02*
X262565999Y-199230342D01*
X262565999Y-199230342D02*
X262508856Y-199201771D01*
X262508856Y-199201771D02*
X262394570Y-199201771D01*
X262394570Y-199201771D02*
X262337428Y-199230342D01*
X262337428Y-199230342D02*
X262308856Y-199258914D01*
X262308856Y-199258914D02*
X262280285Y-199316057D01*
X262280285Y-199316057D02*
X262280285Y-199344628D01*
X262280285Y-199344628D02*
X262308856Y-199401771D01*
X262308856Y-199401771D02*
X262337428Y-199430342D01*
X262337428Y-199430342D02*
X262394570Y-199458914D01*
X262394570Y-199458914D02*
X262508856Y-199458914D01*
X262508856Y-199458914D02*
X262565999Y-199487485D01*
X262565999Y-199487485D02*
X262594570Y-199516057D01*
X262594570Y-199516057D02*
X262623142Y-199573200D01*
X262623142Y-199573200D02*
X262623142Y-199687485D01*
X262623142Y-199687485D02*
X262594570Y-199744628D01*
X262594570Y-199744628D02*
X262565999Y-199773200D01*
X262565999Y-199773200D02*
X262508856Y-199801771D01*
X262508856Y-199801771D02*
X262394570Y-199801771D01*
X262394570Y-199801771D02*
X262337428Y-199773200D01*
X262337428Y-199773200D02*
X262308856Y-199744628D01*
X262308856Y-199744628D02*
X262280285Y-199687485D01*
X262280285Y-199687485D02*
X262280285Y-199573200D01*
X262280285Y-199573200D02*
X262308856Y-199516057D01*
X262308856Y-199516057D02*
X262337428Y-199487485D01*
X262337428Y-199487485D02*
X262394570Y-199458914D01*
D14*
X267631252Y-197840000D02*
X266208748Y-197840000D01*
X267631252Y-196020000D02*
X266208748Y-196020000D01*
X270170000Y-216401447D02*
X270170000Y-217401447D01*
X269670000Y-217201447D02*
X270170000Y-217301447D01*
X268370000Y-216901447D02*
X269670000Y-217201447D01*
X266870000Y-216701447D02*
X268370000Y-216901447D01*
X265570000Y-216601447D02*
X266870000Y-216701447D01*
X263770000Y-216601447D02*
X265570000Y-216601447D01*
X262470000Y-216701447D02*
X263770000Y-216601447D01*
X261670000Y-216801447D02*
X262470000Y-216701447D01*
X259970000Y-217101447D02*
X261670000Y-216801447D01*
X259670000Y-217901447D02*
X269670000Y-217901447D01*
X259170000Y-217301447D02*
X259970000Y-217101447D01*
X259170000Y-216401447D02*
X259170000Y-217401447D01*
X272420000Y-200480000D02*
X255020000Y-200480000D01*
X255020000Y-200480000D02*
X255020000Y-216380000D01*
X255020000Y-216380000D02*
X272420000Y-216380000D01*
X272420000Y-216380000D02*
X272420000Y-200480000D01*
X269670000Y-217901447D02*
G75*
G03*
X270170000Y-217401447I-1J500001D01*
G01*
X259170003Y-217401447D02*
G75*
G03*
X259670000Y-217901447I499947J-53D01*
G01*
%LPC*%
D15*
X273575000Y-186175000D03*
X275475000Y-186175000D03*
D16*
X272288000Y-147066000D03*
D17*
X276650000Y-155000000D03*
D18*
X251160000Y-174250000D03*
D19*
X251160000Y-176250000D03*
D18*
X266328000Y-110322000D03*
D19*
X266328000Y-108322000D03*
D20*
X314600000Y-91800000D03*
X191600000Y-91800000D03*
D21*
X265350000Y-214420000D03*
D22*
X262810000Y-214420000D03*
X260270000Y-214420000D03*
D23*
X309050000Y-186530000D03*
D24*
X307050000Y-186530000D03*
X309050000Y-188530000D03*
X307050000Y-188530000D03*
X309050000Y-190530000D03*
X307050000Y-190530000D03*
X309050000Y-192530000D03*
X307050000Y-192530000D03*
X309050000Y-194530000D03*
X307050000Y-194530000D03*
X309050000Y-196530000D03*
X307050000Y-196530000D03*
X309050000Y-198530000D03*
X307050000Y-198530000D03*
X309050000Y-200530000D03*
X307050000Y-200530000D03*
D25*
X231600000Y-197675000D03*
D26*
X227165000Y-202110000D03*
X231600000Y-202110000D03*
X236035000Y-202110000D03*
X227165000Y-197675000D03*
X236035000Y-197675000D03*
X227165000Y-193240000D03*
X231600000Y-193240000D03*
X236035000Y-193240000D03*
D16*
X252480000Y-121890000D03*
D25*
X278365000Y-90940000D03*
D26*
X273930000Y-95375000D03*
X278365000Y-95375000D03*
X282800000Y-95375000D03*
X273930000Y-90940000D03*
X282800000Y-90940000D03*
X273930000Y-86505000D03*
X278365000Y-86505000D03*
X282800000Y-86505000D03*
X223540000Y-164850000D03*
D27*
X285750000Y-214376000D03*
D28*
X283210000Y-214376000D03*
X280670000Y-214376000D03*
D16*
X273558000Y-140970000D03*
X273200000Y-120700000D03*
D29*
X312035000Y-124400000D03*
X312035000Y-104400000D03*
D30*
X309635000Y-122400000D03*
D31*
X309635000Y-120400000D03*
X309635000Y-118400000D03*
X309635000Y-116400000D03*
X309635000Y-114400000D03*
X309635000Y-112400000D03*
X309635000Y-110400000D03*
X309635000Y-108400000D03*
X309635000Y-106400000D03*
D20*
X191600000Y-209800000D03*
D32*
X223550000Y-89300000D03*
D25*
X193500000Y-103065000D03*
D26*
X189065000Y-98630000D03*
X189065000Y-103065000D03*
X189065000Y-107500000D03*
X193500000Y-98630000D03*
X193500000Y-107500000D03*
X197935000Y-98630000D03*
X197935000Y-103065000D03*
X197935000Y-107500000D03*
D16*
X272855800Y-114046000D03*
D25*
X242365000Y-90940000D03*
D26*
X237930000Y-95375000D03*
X242365000Y-95375000D03*
X246800000Y-95375000D03*
X237930000Y-90940000D03*
X246800000Y-90940000D03*
X237930000Y-86505000D03*
X242365000Y-86505000D03*
X246800000Y-86505000D03*
D20*
X314600000Y-209800000D03*
D33*
X310670000Y-130900000D03*
D34*
X312670000Y-130900000D03*
X310670000Y-132900000D03*
X312670000Y-132900000D03*
X310670000Y-134900000D03*
X312670000Y-134900000D03*
X310670000Y-136900000D03*
X312670000Y-136900000D03*
D26*
X211560000Y-164780000D03*
D35*
X309470000Y-180030000D03*
X309470000Y-178030000D03*
X309470000Y-176030000D03*
X309470000Y-174030000D03*
X309470000Y-172030000D03*
X309470000Y-170030000D03*
X309470000Y-168030000D03*
X309470000Y-166030000D03*
D36*
X311870000Y-164030000D03*
X311870000Y-182030000D03*
D16*
X255524000Y-143256000D03*
D17*
X276550000Y-152200000D03*
D16*
X257048000Y-151638000D03*
D27*
X242100000Y-178860000D03*
D28*
X244640000Y-178860000D03*
X247180000Y-178860000D03*
D18*
X254796400Y-106715200D03*
D19*
X254796400Y-104215200D03*
D25*
X195250000Y-197675000D03*
D26*
X190815000Y-193240000D03*
X190815000Y-197675000D03*
X190815000Y-202110000D03*
X195250000Y-193240000D03*
X195250000Y-202110000D03*
X199685000Y-193240000D03*
X199685000Y-197675000D03*
X199685000Y-202110000D03*
D33*
X310830000Y-152480000D03*
D34*
X312830000Y-152480000D03*
X310830000Y-154480000D03*
X312830000Y-154480000D03*
X310830000Y-156480000D03*
X312830000Y-156480000D03*
X310830000Y-158480000D03*
X312830000Y-158480000D03*
D16*
X295900000Y-205740000D03*
D37*
X288300000Y-205740000D03*
D26*
X211550000Y-89300000D03*
D38*
X268395000Y-196930000D03*
X265445000Y-196930000D03*
D39*
X268670000Y-212580000D03*
X260670000Y-212580000D03*
D40*
X261470000Y-201580000D03*
X262570000Y-201580000D03*
X263670000Y-201580000D03*
X264770000Y-201580000D03*
X265870000Y-201580000D03*
X266970000Y-201580000D03*
X268070000Y-201580000D03*
X269170000Y-201580000D03*
X270270000Y-201580000D03*
D41*
X271470000Y-212180000D03*
D42*
X271470000Y-202580000D03*
D43*
X256870000Y-202580000D03*
D41*
X255970000Y-212180000D03*
%LPD*%
M02*
