G04 #@! TF.GenerationSoftware,KiCad,Pcbnew,7.0.5*
G04 #@! TF.CreationDate,2024-11-23T17:28:28+05:30*
G04 #@! TF.ProjectId,NewSparky_V1.3.2,4e657753-7061-4726-9b79-5f56312e332e,rev?*
G04 #@! TF.SameCoordinates,Original*
G04 #@! TF.FileFunction,Paste,Top*
G04 #@! TF.FilePolarity,Positive*
%FSLAX46Y46*%
G04 Gerber Fmt 4.6, Leading zero omitted, Abs format (unit mm)*
G04 Created by KiCad (PCBNEW 7.0.5) date 2024-11-23 17:28:28*
%MOMM*%
%LPD*%
G01*
G04 APERTURE LIST*
G04 Aperture macros list*
%AMRoundRect*
0 Rectangle with rounded corners*
0 $1 Rounding radius*
0 $2 $3 $4 $5 $6 $7 $8 $9 X,Y pos of 4 corners*
0 Add a 4 corners polygon primitive as box body*
4,1,4,$2,$3,$4,$5,$6,$7,$8,$9,$2,$3,0*
0 Add four circle primitives for the rounded corners*
1,1,$1+$1,$2,$3*
1,1,$1+$1,$4,$5*
1,1,$1+$1,$6,$7*
1,1,$1+$1,$8,$9*
0 Add four rect primitives between the rounded corners*
20,1,$1+$1,$2,$3,$4,$5,0*
20,1,$1+$1,$4,$5,$6,$7,0*
20,1,$1+$1,$6,$7,$8,$9,0*
20,1,$1+$1,$8,$9,$2,$3,0*%
%AMRotRect*
0 Rectangle, with rotation*
0 The origin of the aperture is its center*
0 $1 length*
0 $2 width*
0 $3 Rotation angle, in degrees counterclockwise*
0 Add horizontal line*
21,1,$1,$2,0,0,$3*%
G04 Aperture macros list end*
%ADD10R,0.900000X1.200000*%
%ADD11RoundRect,0.250000X-0.625000X0.312500X-0.625000X-0.312500X0.625000X-0.312500X0.625000X0.312500X0*%
%ADD12R,1.200000X0.900000*%
%ADD13RoundRect,0.200000X-0.200000X-0.275000X0.200000X-0.275000X0.200000X0.275000X-0.200000X0.275000X0*%
%ADD14RoundRect,0.225000X0.250000X-0.225000X0.250000X0.225000X-0.250000X0.225000X-0.250000X-0.225000X0*%
%ADD15RoundRect,0.200000X-0.275000X0.200000X-0.275000X-0.200000X0.275000X-0.200000X0.275000X0.200000X0*%
%ADD16RoundRect,0.250000X0.362500X1.425000X-0.362500X1.425000X-0.362500X-1.425000X0.362500X-1.425000X0*%
%ADD17RoundRect,0.225000X0.225000X0.250000X-0.225000X0.250000X-0.225000X-0.250000X0.225000X-0.250000X0*%
%ADD18RoundRect,0.150000X-0.587500X-0.150000X0.587500X-0.150000X0.587500X0.150000X-0.587500X0.150000X0*%
%ADD19RoundRect,0.200000X0.200000X0.275000X-0.200000X0.275000X-0.200000X-0.275000X0.200000X-0.275000X0*%
%ADD20R,0.700000X0.600000*%
%ADD21RoundRect,0.250000X0.650000X-0.325000X0.650000X0.325000X-0.650000X0.325000X-0.650000X-0.325000X0*%
%ADD22R,4.700000X8.000000*%
%ADD23RoundRect,0.225000X-0.250000X0.225000X-0.250000X-0.225000X0.250000X-0.225000X0.250000X0.225000X0*%
%ADD24RoundRect,0.200000X0.275000X-0.200000X0.275000X0.200000X-0.275000X0.200000X-0.275000X-0.200000X0*%
%ADD25RoundRect,0.225000X-0.225000X-0.375000X0.225000X-0.375000X0.225000X0.375000X-0.225000X0.375000X0*%
%ADD26RoundRect,0.150000X-0.150000X0.825000X-0.150000X-0.825000X0.150000X-0.825000X0.150000X0.825000X0*%
%ADD27RoundRect,0.250000X-0.850000X-0.350000X0.850000X-0.350000X0.850000X0.350000X-0.850000X0.350000X0*%
%ADD28RoundRect,0.250000X-1.275000X-1.125000X1.275000X-1.125000X1.275000X1.125000X-1.275000X1.125000X0*%
%ADD29RoundRect,0.249999X-0.450001X-1.425001X0.450001X-1.425001X0.450001X1.425001X-0.450001X1.425001X0*%
%ADD30RoundRect,0.225000X-0.225000X-0.250000X0.225000X-0.250000X0.225000X0.250000X-0.225000X0.250000X0*%
%ADD31RoundRect,0.250000X0.850000X0.350000X-0.850000X0.350000X-0.850000X-0.350000X0.850000X-0.350000X0*%
%ADD32RoundRect,0.250000X1.275000X1.125000X-1.275000X1.125000X-1.275000X-1.125000X1.275000X-1.125000X0*%
%ADD33RoundRect,0.249999X0.450001X1.425001X-0.450001X1.425001X-0.450001X-1.425001X0.450001X-1.425001X0*%
%ADD34R,0.600000X1.250000*%
%ADD35RoundRect,0.250000X-0.650000X0.325000X-0.650000X-0.325000X0.650000X-0.325000X0.650000X0.325000X0*%
%ADD36RoundRect,0.250000X0.312500X0.625000X-0.312500X0.625000X-0.312500X-0.625000X0.312500X-0.625000X0*%
%ADD37R,2.000000X4.500000*%
%ADD38C,3.100000*%
%ADD39RoundRect,0.250000X-0.325000X-0.650000X0.325000X-0.650000X0.325000X0.650000X-0.325000X0.650000X0*%
%ADD40R,0.450000X0.600000*%
%ADD41RoundRect,0.150000X-0.450000X-0.150000X0.450000X-0.150000X0.450000X0.150000X-0.450000X0.150000X0*%
%ADD42RoundRect,0.225000X-0.375000X0.225000X-0.375000X-0.225000X0.375000X-0.225000X0.375000X0.225000X0*%
%ADD43RoundRect,0.250000X1.000000X0.650000X-1.000000X0.650000X-1.000000X-0.650000X1.000000X-0.650000X0*%
%ADD44R,1.475000X0.300000*%
%ADD45R,0.300000X1.475000*%
%ADD46RoundRect,0.250000X-1.400000X-1.000000X1.400000X-1.000000X1.400000X1.000000X-1.400000X1.000000X0*%
%ADD47RoundRect,0.150000X-0.150000X0.587500X-0.150000X-0.587500X0.150000X-0.587500X0.150000X0.587500X0*%
%ADD48RoundRect,0.250000X0.625000X-0.312500X0.625000X0.312500X-0.625000X0.312500X-0.625000X-0.312500X0*%
%ADD49RoundRect,0.225000X-0.017678X0.335876X-0.335876X0.017678X0.017678X-0.335876X0.335876X-0.017678X0*%
%ADD50RoundRect,0.150000X-0.512500X-0.150000X0.512500X-0.150000X0.512500X0.150000X-0.512500X0.150000X0*%
%ADD51RoundRect,0.060000X0.290000X-0.240000X0.290000X0.240000X-0.290000X0.240000X-0.290000X-0.240000X0*%
%ADD52RoundRect,0.250000X0.650000X-1.000000X0.650000X1.000000X-0.650000X1.000000X-0.650000X-1.000000X0*%
%ADD53RoundRect,0.242500X-0.242500X-0.422500X0.242500X-0.422500X0.242500X0.422500X-0.242500X0.422500X0*%
%ADD54RoundRect,0.150000X-0.825000X-0.150000X0.825000X-0.150000X0.825000X0.150000X-0.825000X0.150000X0*%
%ADD55R,0.600000X0.450000*%
%ADD56RotRect,0.300000X1.475000X315.000000*%
%ADD57RotRect,0.300000X1.475000X225.000000*%
%ADD58RoundRect,0.225000X0.225000X0.375000X-0.225000X0.375000X-0.225000X-0.375000X0.225000X-0.375000X0*%
%ADD59RoundRect,0.150000X0.450000X0.150000X-0.450000X0.150000X-0.450000X-0.150000X0.450000X-0.150000X0*%
%ADD60RoundRect,0.225000X0.375000X-0.225000X0.375000X0.225000X-0.375000X0.225000X-0.375000X-0.225000X0*%
%ADD61R,1.200000X3.900000*%
%ADD62RoundRect,0.060000X-0.440000X0.240000X-0.440000X-0.240000X0.440000X-0.240000X0.440000X0.240000X0*%
%ADD63R,1.200000X0.800000*%
%ADD64R,1.200000X1.200000*%
%ADD65RoundRect,0.250000X-0.312500X-0.625000X0.312500X-0.625000X0.312500X0.625000X-0.312500X0.625000X0*%
%ADD66R,3.300000X2.500000*%
%ADD67RoundRect,0.218750X0.218750X0.256250X-0.218750X0.256250X-0.218750X-0.256250X0.218750X-0.256250X0*%
%ADD68R,3.050000X2.750000*%
%ADD69R,2.200000X1.200000*%
G04 APERTURE END LIST*
D10*
X275208000Y-160020000D03*
X271908000Y-160020000D03*
D11*
X266140000Y-161960000D03*
X266140000Y-164885000D03*
D12*
X218948000Y-166368000D03*
X218948000Y-163068000D03*
D13*
X284570000Y-154740000D03*
X286220000Y-154740000D03*
X284570000Y-120087473D03*
X286220000Y-120087473D03*
D14*
X281860000Y-156009492D03*
X281860000Y-154459492D03*
X281860000Y-111082832D03*
X281860000Y-109532832D03*
D15*
X304610000Y-119240000D03*
X304610000Y-120890000D03*
D13*
X262870000Y-191730000D03*
X264520000Y-191730000D03*
D16*
X301700000Y-131249040D03*
X295775000Y-131249040D03*
D17*
X261007000Y-108798000D03*
X259457000Y-108798000D03*
D18*
X290945000Y-121530000D03*
X290945000Y-123430000D03*
X292820000Y-122480000D03*
D19*
X249627000Y-167726000D03*
X247977000Y-167726000D03*
D18*
X290935000Y-160760000D03*
X290935000Y-162660000D03*
X292810000Y-161710000D03*
D15*
X268220000Y-190135000D03*
X268220000Y-191785000D03*
D20*
X266320000Y-198300000D03*
X266320000Y-196900000D03*
D21*
X276850000Y-138674000D03*
X276850000Y-135724000D03*
D16*
X301700000Y-135588720D03*
X295775000Y-135588720D03*
D17*
X273571000Y-182626000D03*
X272021000Y-182626000D03*
D22*
X218900000Y-209000000D03*
X207600000Y-209000000D03*
D23*
X276860000Y-178549000D03*
X276860000Y-180099000D03*
D19*
X249990000Y-170160000D03*
X248340000Y-170160000D03*
D24*
X259635000Y-164110000D03*
X259635000Y-162460000D03*
D12*
X248940000Y-156950000D03*
X248940000Y-153650000D03*
D24*
X256970000Y-164080000D03*
X256970000Y-162430000D03*
D10*
X203328000Y-166878000D03*
X206628000Y-166878000D03*
D13*
X284570000Y-148135090D03*
X286220000Y-148135090D03*
D25*
X276722500Y-159900000D03*
X280022500Y-159900000D03*
D22*
X218900000Y-191500000D03*
X207600000Y-191500000D03*
D26*
X251045000Y-192725000D03*
X249775000Y-192725000D03*
X248505000Y-192725000D03*
X247235000Y-192725000D03*
X247235000Y-197675000D03*
X248505000Y-197675000D03*
X249775000Y-197675000D03*
X251045000Y-197675000D03*
D27*
X204125000Y-139975000D03*
D28*
X208750000Y-140730000D03*
X208750000Y-143780000D03*
X212100000Y-140730000D03*
X212100000Y-143780000D03*
D27*
X204125000Y-144535000D03*
D13*
X200152000Y-164084000D03*
X201802000Y-164084000D03*
D29*
X242400000Y-132562500D03*
X248500000Y-132562500D03*
D27*
X204115000Y-154439000D03*
D28*
X208740000Y-155194000D03*
X208740000Y-158244000D03*
X212090000Y-155194000D03*
X212090000Y-158244000D03*
D27*
X204115000Y-158999000D03*
D14*
X270900000Y-109827000D03*
X270900000Y-108277000D03*
D12*
X279400000Y-149860000D03*
X279400000Y-153160000D03*
D30*
X239395000Y-150660000D03*
X240945000Y-150660000D03*
D27*
X204100000Y-104170000D03*
D28*
X208725000Y-104925000D03*
X208725000Y-107975000D03*
X212075000Y-104925000D03*
X212075000Y-107975000D03*
D27*
X204100000Y-108730000D03*
D16*
X301700000Y-157287120D03*
X295775000Y-157287120D03*
D17*
X252975000Y-111439600D03*
X251425000Y-111439600D03*
D15*
X261730600Y-115288200D03*
X261730600Y-116938200D03*
D31*
X229125000Y-123255000D03*
D32*
X224500000Y-122500000D03*
X224500000Y-119450000D03*
X221150000Y-122500000D03*
X221150000Y-119450000D03*
D31*
X229125000Y-118695000D03*
D13*
X284575000Y-167770000D03*
X286225000Y-167770000D03*
D24*
X269650000Y-164170000D03*
X269650000Y-162520000D03*
D13*
X284575000Y-150370000D03*
X286225000Y-150370000D03*
D24*
X252800000Y-191425000D03*
X252800000Y-189775000D03*
X246060000Y-167515000D03*
X246060000Y-165865000D03*
D12*
X262110000Y-156535000D03*
X262110000Y-159835000D03*
D33*
X194356000Y-133758000D03*
X188256000Y-133758000D03*
D14*
X291084000Y-172238000D03*
X291084000Y-170688000D03*
D30*
X275056000Y-182626000D03*
X276606000Y-182626000D03*
D29*
X242375000Y-124287500D03*
X248475000Y-124287500D03*
D34*
X275656000Y-165930000D03*
X277556000Y-165930000D03*
X276606000Y-163830000D03*
D16*
X301700000Y-126909360D03*
X295775000Y-126909360D03*
D35*
X256540000Y-154178000D03*
X256540000Y-157128000D03*
D33*
X194356000Y-129768000D03*
X188256000Y-129768000D03*
D18*
X220883000Y-169484000D03*
X220883000Y-171384000D03*
X222758000Y-170434000D03*
D14*
X281860000Y-147024160D03*
X281860000Y-145474160D03*
D24*
X298868000Y-186206000D03*
X298868000Y-184556000D03*
D14*
X281860000Y-124560830D03*
X281860000Y-123010830D03*
D15*
X218853000Y-168910000D03*
X218853000Y-170560000D03*
D13*
X284575000Y-135040000D03*
X286225000Y-135040000D03*
D36*
X274960000Y-157670000D03*
X272035000Y-157670000D03*
D24*
X231320000Y-115315000D03*
X231320000Y-113665000D03*
D37*
X281432000Y-182558000D03*
X281432000Y-174058000D03*
D24*
X231340000Y-159105000D03*
X231340000Y-157455000D03*
D13*
X284570000Y-156765126D03*
X286220000Y-156765126D03*
D31*
X229125000Y-144735000D03*
D32*
X224500000Y-143980000D03*
X224500000Y-140930000D03*
X221150000Y-143980000D03*
X221150000Y-140930000D03*
D31*
X229125000Y-140175000D03*
D15*
X304860000Y-131200000D03*
X304860000Y-132850000D03*
D12*
X272542000Y-151004000D03*
X272542000Y-154304000D03*
D19*
X302153000Y-184776000D03*
X300503000Y-184776000D03*
D12*
X275878400Y-109406600D03*
X275878400Y-106106600D03*
D15*
X201930000Y-140645000D03*
X201930000Y-142295000D03*
D16*
X301767500Y-165639040D03*
X295842500Y-165639040D03*
D12*
X300140000Y-170210000D03*
X300140000Y-173510000D03*
X264635000Y-159835000D03*
X264635000Y-156535000D03*
D13*
X249247000Y-146644000D03*
X250897000Y-146644000D03*
D38*
X227165000Y-202110000D03*
X231600000Y-202110000D03*
X236035000Y-202110000D03*
X227165000Y-197675000D03*
X236035000Y-197675000D03*
X227165000Y-193240000D03*
X231600000Y-193240000D03*
X236035000Y-193240000D03*
D39*
X203900000Y-91150000D03*
X206850000Y-91150000D03*
D14*
X281860000Y-129053496D03*
X281860000Y-127503496D03*
D40*
X288200000Y-152556983D03*
X288200000Y-154656983D03*
D41*
X251420500Y-158749600D03*
X251420500Y-160649600D03*
X253295500Y-159699600D03*
D40*
X288200000Y-139390987D03*
X288200000Y-141490987D03*
D36*
X226860000Y-84400000D03*
X223935000Y-84400000D03*
D38*
X273930000Y-95375000D03*
X278365000Y-95375000D03*
X282800000Y-95375000D03*
X273930000Y-90940000D03*
X282800000Y-90940000D03*
X273930000Y-86505000D03*
X278365000Y-86505000D03*
X282800000Y-86505000D03*
D13*
X284570000Y-115772455D03*
X286220000Y-115772455D03*
D42*
X276280000Y-145190000D03*
X276280000Y-148490000D03*
D39*
X203900000Y-88650000D03*
X206850000Y-88650000D03*
D24*
X250800000Y-190225000D03*
X250800000Y-188575000D03*
D43*
X207150000Y-85050000D03*
X203150000Y-85050000D03*
D18*
X291115000Y-108400000D03*
X291115000Y-110300000D03*
X292990000Y-109350000D03*
D13*
X284570000Y-128717509D03*
X286220000Y-128717509D03*
D14*
X281860000Y-133546162D03*
X281860000Y-131996162D03*
D22*
X218900000Y-200250000D03*
X207600000Y-200250000D03*
D15*
X217313000Y-168910000D03*
X217313000Y-170560000D03*
D14*
X296738000Y-186996000D03*
X296738000Y-185446000D03*
D40*
X288120000Y-100700000D03*
X288120000Y-102800000D03*
D19*
X271580000Y-190070000D03*
X269930000Y-190070000D03*
D12*
X267135000Y-150885000D03*
X267135000Y-154185000D03*
D15*
X304860000Y-135700000D03*
X304860000Y-137350000D03*
D23*
X186940000Y-166800000D03*
X186940000Y-168350000D03*
D18*
X291095000Y-134580000D03*
X291095000Y-136480000D03*
X292970000Y-135530000D03*
D30*
X251545000Y-143010000D03*
X253095000Y-143010000D03*
D26*
X263505000Y-194325000D03*
X262235000Y-194325000D03*
X260965000Y-194325000D03*
X259695000Y-194325000D03*
X259695000Y-199275000D03*
X260965000Y-199275000D03*
X262235000Y-199275000D03*
X263505000Y-199275000D03*
D27*
X204175000Y-125620000D03*
D28*
X208800000Y-126375000D03*
X208800000Y-129425000D03*
X212150000Y-126375000D03*
X212150000Y-129425000D03*
D27*
X204175000Y-130180000D03*
D14*
X281860000Y-164994824D03*
X281860000Y-163444824D03*
D33*
X194466000Y-121828000D03*
X188366000Y-121828000D03*
D24*
X246000000Y-190225000D03*
X246000000Y-188575000D03*
D27*
X204075000Y-111320000D03*
D28*
X208700000Y-112075000D03*
X208700000Y-115125000D03*
X212050000Y-112075000D03*
X212050000Y-115125000D03*
D27*
X204075000Y-115880000D03*
D19*
X246675000Y-152275000D03*
X245025000Y-152275000D03*
D44*
X269550000Y-179112000D03*
X269550000Y-178612000D03*
X269550000Y-178112000D03*
X269550000Y-177612000D03*
X269550000Y-177112000D03*
X269550000Y-176612000D03*
X269550000Y-176112000D03*
X269550000Y-175612000D03*
X269550000Y-175112000D03*
X269550000Y-174612000D03*
X269550000Y-174112000D03*
X269550000Y-173612000D03*
D45*
X268062000Y-172124000D03*
X267562000Y-172124000D03*
X267062000Y-172124000D03*
X266562000Y-172124000D03*
X266062000Y-172124000D03*
X265562000Y-172124000D03*
X265062000Y-172124000D03*
X264562000Y-172124000D03*
X264062000Y-172124000D03*
X263562000Y-172124000D03*
X263062000Y-172124000D03*
X262562000Y-172124000D03*
D44*
X261074000Y-173612000D03*
X261074000Y-174112000D03*
X261074000Y-174612000D03*
X261074000Y-175112000D03*
X261074000Y-175612000D03*
X261074000Y-176112000D03*
X261074000Y-176612000D03*
X261074000Y-177112000D03*
X261074000Y-177612000D03*
X261074000Y-178112000D03*
X261074000Y-178612000D03*
X261074000Y-179112000D03*
D45*
X262562000Y-180600000D03*
X263062000Y-180600000D03*
X263562000Y-180600000D03*
X264062000Y-180600000D03*
X264562000Y-180600000D03*
X265062000Y-180600000D03*
X265562000Y-180600000D03*
X266062000Y-180600000D03*
X266562000Y-180600000D03*
X267062000Y-180600000D03*
X267562000Y-180600000D03*
X268062000Y-180600000D03*
D24*
X276860000Y-173736000D03*
X276860000Y-172086000D03*
D19*
X262327000Y-186200000D03*
X260677000Y-186200000D03*
D40*
X288200000Y-126562265D03*
X288200000Y-128662265D03*
D13*
X200152000Y-165608000D03*
X201802000Y-165608000D03*
X248215000Y-200565000D03*
X249865000Y-200565000D03*
D24*
X276850000Y-102505000D03*
X276850000Y-100855000D03*
X264130000Y-164040000D03*
X264130000Y-162390000D03*
D17*
X254575000Y-193400000D03*
X253025000Y-193400000D03*
D31*
X229110000Y-158960000D03*
D32*
X224485000Y-158205000D03*
X224485000Y-155155000D03*
X221135000Y-158205000D03*
X221135000Y-155155000D03*
D31*
X229110000Y-154400000D03*
D13*
X284570000Y-124402491D03*
X286220000Y-124402491D03*
D15*
X255507600Y-123302400D03*
X255507600Y-124952400D03*
D14*
X281610000Y-102237500D03*
X281610000Y-100687500D03*
D13*
X267900000Y-196810000D03*
X269550000Y-196810000D03*
D24*
X257184000Y-111883600D03*
X257184000Y-110233600D03*
D31*
X229075000Y-101580000D03*
D32*
X224450000Y-100825000D03*
X224450000Y-97775000D03*
X221100000Y-100825000D03*
X221100000Y-97775000D03*
D31*
X229075000Y-97020000D03*
D46*
X235550000Y-160510000D03*
X235550000Y-167310000D03*
D18*
X291135000Y-112890000D03*
X291135000Y-114790000D03*
X293010000Y-113840000D03*
D15*
X304610000Y-123090000D03*
X304610000Y-124740000D03*
D24*
X231250000Y-108395000D03*
X231250000Y-106745000D03*
D33*
X194466000Y-125798000D03*
X188366000Y-125798000D03*
D18*
X291025000Y-143370000D03*
X291025000Y-145270000D03*
X292900000Y-144320000D03*
D24*
X231310000Y-137205000D03*
X231310000Y-135555000D03*
D23*
X287528000Y-170180000D03*
X287528000Y-171730000D03*
D40*
X297730000Y-170930000D03*
X297730000Y-173030000D03*
D23*
X256794000Y-158750000D03*
X256794000Y-160300000D03*
D40*
X277850000Y-195000000D03*
X277850000Y-197100000D03*
D16*
X301700000Y-118230000D03*
X295775000Y-118230000D03*
D40*
X288200000Y-135227171D03*
X288200000Y-137327171D03*
D14*
X281860000Y-106590166D03*
X281860000Y-105040166D03*
D13*
X284570000Y-163390000D03*
X286220000Y-163390000D03*
D12*
X259560000Y-156535000D03*
X259560000Y-159835000D03*
D16*
X301700000Y-139928400D03*
X295775000Y-139928400D03*
D18*
X291105000Y-164890000D03*
X291105000Y-166790000D03*
X292980000Y-165840000D03*
D47*
X244170000Y-138655000D03*
X242270000Y-138655000D03*
X243220000Y-140530000D03*
D13*
X262319000Y-152908000D03*
X263969000Y-152908000D03*
D18*
X291035000Y-100510000D03*
X291035000Y-102410000D03*
X292910000Y-101460000D03*
D40*
X288200000Y-113564906D03*
X288200000Y-115664906D03*
D13*
X277660000Y-189310000D03*
X279310000Y-189310000D03*
D10*
X276210000Y-128244000D03*
X279510000Y-128244000D03*
D14*
X259740000Y-134260000D03*
X259740000Y-132710000D03*
D19*
X272760000Y-198230000D03*
X271110000Y-198230000D03*
D18*
X291050000Y-104570000D03*
X291050000Y-106470000D03*
X292925000Y-105520000D03*
D19*
X249627000Y-165186000D03*
X247977000Y-165186000D03*
D48*
X263720000Y-168565000D03*
X263720000Y-165640000D03*
D12*
X216408000Y-163068000D03*
X216408000Y-166368000D03*
D31*
X229130000Y-151886000D03*
D32*
X224505000Y-151131000D03*
X224505000Y-148081000D03*
X221155000Y-151131000D03*
X221155000Y-148081000D03*
D31*
X229130000Y-147326000D03*
D49*
X259548008Y-137501992D03*
X258451992Y-138598008D03*
D16*
X301730000Y-101440000D03*
X295805000Y-101440000D03*
D18*
X290975000Y-147730000D03*
X290975000Y-149630000D03*
X292850000Y-148680000D03*
D40*
X288200000Y-156890987D03*
X288200000Y-158990987D03*
D18*
X291015000Y-139010000D03*
X291015000Y-140910000D03*
X292890000Y-139960000D03*
D10*
X256000000Y-129600000D03*
X252700000Y-129600000D03*
D50*
X265342900Y-120700400D03*
X265342900Y-121650400D03*
X265342900Y-122600400D03*
X267617900Y-122600400D03*
X267617900Y-120700400D03*
D51*
X206026000Y-168910000D03*
X206026000Y-170810000D03*
X208026000Y-169860000D03*
D13*
X284570000Y-158922635D03*
X286220000Y-158922635D03*
X284575000Y-130780000D03*
X286225000Y-130780000D03*
D12*
X229108000Y-165354000D03*
X229108000Y-162054000D03*
D18*
X291095000Y-117110000D03*
X291095000Y-119010000D03*
X292970000Y-118060000D03*
D24*
X253230000Y-172060000D03*
X253230000Y-170410000D03*
D13*
X284575000Y-139190000D03*
X286225000Y-139190000D03*
D14*
X281860000Y-151516826D03*
X281860000Y-149966826D03*
D31*
X229150000Y-137535000D03*
D32*
X224525000Y-136780000D03*
X224525000Y-133730000D03*
X221175000Y-136780000D03*
X221175000Y-133730000D03*
D31*
X229150000Y-132975000D03*
D36*
X279632500Y-157480000D03*
X276707500Y-157480000D03*
D17*
X253925000Y-150270000D03*
X252375000Y-150270000D03*
D15*
X304610000Y-109000000D03*
X304610000Y-110650000D03*
D24*
X255310000Y-164035000D03*
X255310000Y-162385000D03*
D17*
X250850000Y-145100000D03*
X249300000Y-145100000D03*
D14*
X281860000Y-142531494D03*
X281860000Y-140981494D03*
D17*
X256765200Y-120431200D03*
X255215200Y-120431200D03*
D15*
X257570000Y-194685000D03*
X257570000Y-196335000D03*
D38*
X189065000Y-98630000D03*
X189065000Y-103065000D03*
X189065000Y-107500000D03*
X193500000Y-98630000D03*
X193500000Y-107500000D03*
X197935000Y-98630000D03*
X197935000Y-103065000D03*
X197935000Y-107500000D03*
D27*
X204025000Y-96950000D03*
D28*
X208650000Y-97705000D03*
X208650000Y-100755000D03*
X212000000Y-97705000D03*
X212000000Y-100755000D03*
D27*
X204025000Y-101510000D03*
D30*
X259585000Y-190200000D03*
X261135000Y-190200000D03*
D14*
X281860000Y-115575498D03*
X281860000Y-114025498D03*
X281860000Y-160502158D03*
X281860000Y-158952158D03*
D36*
X253998300Y-154365600D03*
X251073300Y-154365600D03*
D15*
X292490000Y-193630000D03*
X292490000Y-195280000D03*
D12*
X276005400Y-121981600D03*
X276005400Y-125281600D03*
D30*
X259160000Y-182540000D03*
X260710000Y-182540000D03*
X259575000Y-191950000D03*
X261125000Y-191950000D03*
D33*
X194316000Y-141738000D03*
X188216000Y-141738000D03*
D29*
X242375000Y-128412500D03*
X248475000Y-128412500D03*
D15*
X201910000Y-154915000D03*
X201910000Y-156565000D03*
D14*
X275310000Y-174940000D03*
X275310000Y-173390000D03*
D15*
X201890000Y-104975000D03*
X201890000Y-106625000D03*
D31*
X229125000Y-116030000D03*
D32*
X224500000Y-115275000D03*
X224500000Y-112225000D03*
X221150000Y-115275000D03*
X221150000Y-112225000D03*
D31*
X229125000Y-111470000D03*
D13*
X199200000Y-92925000D03*
X200850000Y-92925000D03*
D15*
X304730000Y-127550000D03*
X304730000Y-129200000D03*
D31*
X229075000Y-108835000D03*
D32*
X224450000Y-108080000D03*
X224450000Y-105030000D03*
X221100000Y-108080000D03*
X221100000Y-105030000D03*
D31*
X229075000Y-104275000D03*
D18*
X290795000Y-156470000D03*
X290795000Y-158370000D03*
X292670000Y-157420000D03*
D13*
X284565000Y-122040000D03*
X286215000Y-122040000D03*
D15*
X268080000Y-162540000D03*
X268080000Y-164190000D03*
D17*
X270840000Y-186170000D03*
X269290000Y-186170000D03*
D48*
X261360000Y-168595000D03*
X261360000Y-165670000D03*
D27*
X204115000Y-147149000D03*
D28*
X208740000Y-147904000D03*
X208740000Y-150954000D03*
X212090000Y-147904000D03*
X212090000Y-150954000D03*
D27*
X204115000Y-151709000D03*
D40*
X288200000Y-104900000D03*
X288200000Y-107000000D03*
D10*
X210822000Y-169672000D03*
X214122000Y-169672000D03*
D24*
X231250000Y-101800000D03*
X231250000Y-100150000D03*
D13*
X200152000Y-167132000D03*
X201802000Y-167132000D03*
D52*
X217075000Y-92250000D03*
X217075000Y-88250000D03*
D13*
X242500000Y-146200000D03*
X244150000Y-146200000D03*
D10*
X241400000Y-143180000D03*
X244700000Y-143180000D03*
D15*
X201960000Y-119305000D03*
X201960000Y-120955000D03*
D19*
X246650000Y-150575000D03*
X245000000Y-150575000D03*
D16*
X301700000Y-152947440D03*
X295775000Y-152947440D03*
D12*
X264651600Y-117560000D03*
X264651600Y-114260000D03*
D48*
X259050000Y-168625000D03*
X259050000Y-165700000D03*
D43*
X219425000Y-84950000D03*
X215425000Y-84950000D03*
D13*
X284570000Y-152450108D03*
X286220000Y-152450108D03*
D24*
X262822800Y-122196000D03*
X262822800Y-120546000D03*
D23*
X270646000Y-120646800D03*
X270646000Y-122196800D03*
D40*
X288200000Y-148224530D03*
X288200000Y-150324530D03*
D15*
X266630000Y-190125000D03*
X266630000Y-191775000D03*
X209296000Y-169672000D03*
X209296000Y-171322000D03*
D10*
X203328000Y-164338000D03*
X206628000Y-164338000D03*
D53*
X255085400Y-115288200D03*
X255085400Y-116938200D03*
X256285400Y-115288200D03*
X256285400Y-116938200D03*
D54*
X253210400Y-114208200D03*
X253210400Y-115478200D03*
X253210400Y-116748200D03*
X253210400Y-118018200D03*
X258160400Y-118018200D03*
X258160400Y-116748200D03*
X258160400Y-115478200D03*
X258160400Y-114208200D03*
D55*
X271680000Y-194660000D03*
X269580000Y-194660000D03*
D56*
X269640602Y-141747572D03*
X269287049Y-141394019D03*
X268933495Y-141040465D03*
X268579942Y-140686912D03*
X268226389Y-140333359D03*
X267872835Y-139979805D03*
X267519282Y-139626252D03*
X267165728Y-139272698D03*
X266812175Y-138919145D03*
X266458622Y-138565592D03*
X266105068Y-138212038D03*
X265751515Y-137858485D03*
D57*
X263647165Y-137858485D03*
X263293612Y-138212038D03*
X262940058Y-138565592D03*
X262586505Y-138919145D03*
X262232952Y-139272698D03*
X261879398Y-139626252D03*
X261525845Y-139979805D03*
X261172291Y-140333359D03*
X260818738Y-140686912D03*
X260465185Y-141040465D03*
X260111631Y-141394019D03*
X259758078Y-141747572D03*
D56*
X259758078Y-143851922D03*
X260111631Y-144205475D03*
X260465185Y-144559029D03*
X260818738Y-144912582D03*
X261172291Y-145266135D03*
X261525845Y-145619689D03*
X261879398Y-145973242D03*
X262232952Y-146326796D03*
X262586505Y-146680349D03*
X262940058Y-147033902D03*
X263293612Y-147387456D03*
X263647165Y-147741009D03*
D57*
X265751515Y-147741009D03*
X266105068Y-147387456D03*
X266458622Y-147033902D03*
X266812175Y-146680349D03*
X267165728Y-146326796D03*
X267519282Y-145973242D03*
X267872835Y-145619689D03*
X268226389Y-145266135D03*
X268579942Y-144912582D03*
X268933495Y-144559029D03*
X269287049Y-144205475D03*
X269640602Y-143851922D03*
D14*
X281860000Y-120068164D03*
X281860000Y-118518164D03*
D23*
X273020000Y-173305000D03*
X273020000Y-174855000D03*
D13*
X260970000Y-202030000D03*
X262620000Y-202030000D03*
X284570000Y-137347545D03*
X286220000Y-137347545D03*
D24*
X231340000Y-129865000D03*
X231340000Y-128215000D03*
D58*
X281430000Y-169672000D03*
X278130000Y-169672000D03*
D16*
X301730000Y-109790000D03*
X295805000Y-109790000D03*
D24*
X301710000Y-98450000D03*
X301710000Y-96800000D03*
D33*
X194466000Y-117818000D03*
X188366000Y-117818000D03*
D35*
X279440000Y-135734000D03*
X279440000Y-138684000D03*
D16*
X301700000Y-105590000D03*
X295775000Y-105590000D03*
D40*
X288200000Y-117890987D03*
X288200000Y-119990987D03*
X288200000Y-130890987D03*
X288200000Y-132990987D03*
D23*
X255620000Y-139010000D03*
X255620000Y-140560000D03*
D42*
X255270000Y-171122500D03*
X255270000Y-174422500D03*
D18*
X290945000Y-152040000D03*
X290945000Y-153940000D03*
X292820000Y-152990000D03*
D15*
X274574000Y-152654000D03*
X274574000Y-154304000D03*
D27*
X204275000Y-132795000D03*
D28*
X208900000Y-133550000D03*
X208900000Y-136600000D03*
X212250000Y-133550000D03*
X212250000Y-136600000D03*
D27*
X204275000Y-137355000D03*
D24*
X266750000Y-195230000D03*
X266750000Y-193580000D03*
D38*
X237930000Y-95375000D03*
X242365000Y-95375000D03*
X246800000Y-95375000D03*
X237930000Y-90940000D03*
X246800000Y-90940000D03*
X237930000Y-86505000D03*
X242365000Y-86505000D03*
X246800000Y-86505000D03*
D13*
X284570000Y-102827401D03*
X286220000Y-102827401D03*
D14*
X295530000Y-172710000D03*
X295530000Y-171160000D03*
D16*
X301700000Y-144268080D03*
X295775000Y-144268080D03*
D13*
X263190000Y-190200000D03*
X264840000Y-190200000D03*
X284615000Y-113490000D03*
X286265000Y-113490000D03*
D48*
X279654000Y-164846000D03*
X279654000Y-161921000D03*
D14*
X259640000Y-122150000D03*
X259640000Y-120600000D03*
X298968000Y-189801000D03*
X298968000Y-188251000D03*
D18*
X291045000Y-130240000D03*
X291045000Y-132140000D03*
X292920000Y-131190000D03*
D13*
X284570000Y-133032527D03*
X286220000Y-133032527D03*
D40*
X288200000Y-161221889D03*
X288200000Y-163321889D03*
D17*
X254660000Y-195200000D03*
X253110000Y-195200000D03*
D15*
X295070000Y-193330000D03*
X295070000Y-194980000D03*
D12*
X270002000Y-150984600D03*
X270002000Y-154284600D03*
D23*
X186930000Y-163510000D03*
X186930000Y-165060000D03*
D40*
X288200000Y-165554347D03*
X288200000Y-167654347D03*
D59*
X204470000Y-170810000D03*
X204470000Y-168910000D03*
X202595000Y-169860000D03*
D17*
X250850000Y-151150000D03*
X249300000Y-151150000D03*
D10*
X255950000Y-133450000D03*
X252650000Y-133450000D03*
D60*
X269720000Y-159790000D03*
X269720000Y-156490000D03*
D36*
X253922100Y-156753200D03*
X250997100Y-156753200D03*
D29*
X242375000Y-120162500D03*
X248475000Y-120162500D03*
D13*
X284570000Y-100669892D03*
X286220000Y-100669892D03*
D31*
X229150000Y-130380000D03*
D32*
X224525000Y-129625000D03*
X224525000Y-126575000D03*
X221175000Y-129625000D03*
X221175000Y-126575000D03*
D31*
X229150000Y-125820000D03*
D17*
X253895000Y-151890000D03*
X252345000Y-151890000D03*
D24*
X231510000Y-151490000D03*
X231510000Y-149840000D03*
D17*
X263906000Y-151384000D03*
X262356000Y-151384000D03*
D13*
X253040000Y-197000000D03*
X254690000Y-197000000D03*
X284585000Y-117780000D03*
X286235000Y-117780000D03*
D24*
X244440000Y-167545000D03*
X244440000Y-165895000D03*
D13*
X284570000Y-161080144D03*
X286220000Y-161080144D03*
D19*
X250010000Y-171690000D03*
X248360000Y-171690000D03*
D15*
X244770000Y-195575000D03*
X244770000Y-197225000D03*
D18*
X290925000Y-125970000D03*
X290925000Y-127870000D03*
X292800000Y-126920000D03*
D14*
X276860000Y-176810000D03*
X276860000Y-175260000D03*
D40*
X288200000Y-143890987D03*
X288200000Y-145990987D03*
D16*
X301680000Y-113983520D03*
X295755000Y-113983520D03*
D13*
X284570000Y-126430000D03*
X286220000Y-126430000D03*
X284570000Y-109299928D03*
X286220000Y-109299928D03*
D24*
X231290000Y-122625000D03*
X231290000Y-120975000D03*
D10*
X212346000Y-184404000D03*
X215646000Y-184404000D03*
D61*
X267468000Y-116087800D03*
X270268000Y-116087800D03*
D13*
X284560000Y-104850000D03*
X286210000Y-104850000D03*
X284570000Y-145977581D03*
X286220000Y-145977581D03*
D15*
X304610000Y-112525000D03*
X304610000Y-114175000D03*
D23*
X257410000Y-172875000D03*
X257410000Y-174425000D03*
D62*
X261112000Y-152660000D03*
X261112000Y-150760000D03*
X259112000Y-151710000D03*
D16*
X301692500Y-161500640D03*
X295767500Y-161500640D03*
D12*
X267160000Y-156610000D03*
X267160000Y-159910000D03*
D24*
X248370000Y-190225000D03*
X248370000Y-188575000D03*
D13*
X284570000Y-141662563D03*
X286220000Y-141662563D03*
D15*
X201850000Y-112115000D03*
X201850000Y-113765000D03*
D12*
X256620000Y-165980000D03*
X256620000Y-169280000D03*
D13*
X266205000Y-186160000D03*
X267855000Y-186160000D03*
D63*
X285932000Y-183134000D03*
X285932000Y-184404000D03*
X285932000Y-185674000D03*
X285932000Y-186944000D03*
X294132000Y-186944000D03*
X294132000Y-185674000D03*
X294132000Y-184404000D03*
D64*
X294132000Y-183134000D03*
D19*
X271540000Y-192870000D03*
X269890000Y-192870000D03*
D65*
X239107500Y-170550000D03*
X242032500Y-170550000D03*
D24*
X244880000Y-193425000D03*
X244880000Y-191775000D03*
D30*
X278612000Y-132964000D03*
X280162000Y-132964000D03*
D24*
X231325000Y-144265000D03*
X231325000Y-142615000D03*
D40*
X288200000Y-122229812D03*
X288200000Y-124329812D03*
D13*
X284570000Y-107142419D03*
X286220000Y-107142419D03*
D14*
X281860000Y-138038828D03*
X281860000Y-136488828D03*
D33*
X194326000Y-137798000D03*
X188226000Y-137798000D03*
D66*
X192550000Y-162550000D03*
X192550000Y-169350000D03*
D15*
X202050000Y-133700000D03*
X202050000Y-135350000D03*
X201910000Y-147360000D03*
X201910000Y-149010000D03*
D40*
X288200000Y-109232453D03*
X288200000Y-111332453D03*
D24*
X255329800Y-160423000D03*
X255329800Y-158773000D03*
D19*
X279400000Y-131064000D03*
X277750000Y-131064000D03*
D15*
X277770000Y-192060000D03*
X277770000Y-193710000D03*
D13*
X284570000Y-165395162D03*
X286220000Y-165395162D03*
D17*
X241200000Y-167510000D03*
X239650000Y-167510000D03*
D13*
X284570000Y-111457437D03*
X286220000Y-111457437D03*
D15*
X304610000Y-115900000D03*
X304610000Y-117550000D03*
D20*
X257500000Y-200050000D03*
X257500000Y-198650000D03*
D13*
X249185000Y-148422000D03*
X250835000Y-148422000D03*
X251525000Y-163020000D03*
X253175000Y-163020000D03*
D49*
X258048008Y-136251992D03*
X256951992Y-137348008D03*
D13*
X284570000Y-143820072D03*
X286220000Y-143820072D03*
D38*
X190815000Y-193240000D03*
X190815000Y-197675000D03*
X190815000Y-202110000D03*
X195250000Y-193240000D03*
X195250000Y-202110000D03*
X199685000Y-193240000D03*
X199685000Y-197675000D03*
X199685000Y-202110000D03*
D27*
X204175000Y-118470000D03*
D28*
X208800000Y-119225000D03*
X208800000Y-122275000D03*
X212150000Y-119225000D03*
X212150000Y-122275000D03*
D27*
X204175000Y-123030000D03*
D16*
X301700000Y-148607760D03*
X295775000Y-148607760D03*
D24*
X301588000Y-189726000D03*
X301588000Y-188076000D03*
D15*
X217678000Y-173927000D03*
X217678000Y-175577000D03*
D14*
X261250000Y-122140000D03*
X261250000Y-120590000D03*
D15*
X274574000Y-176975000D03*
X274574000Y-178625000D03*
X201990000Y-126575000D03*
X201990000Y-128225000D03*
D23*
X296788000Y-181911000D03*
X296788000Y-183461000D03*
D19*
X261057000Y-111338000D03*
X259407000Y-111338000D03*
D67*
X262289500Y-188000000D03*
X260714500Y-188000000D03*
D68*
X210566000Y-177292000D03*
X210566000Y-174242000D03*
X207216000Y-177292000D03*
X207216000Y-174242000D03*
D69*
X215191000Y-178047000D03*
X215191000Y-173487000D03*
D13*
X275527000Y-167640000D03*
X277177000Y-167640000D03*
D30*
X283880000Y-211670000D03*
X285430000Y-211670000D03*
D24*
X285908000Y-171790000D03*
X285908000Y-170140000D03*
D15*
X304610000Y-105660000D03*
X304610000Y-107310000D03*
D19*
X276130000Y-198230000D03*
X274480000Y-198230000D03*
D16*
X301700000Y-122569680D03*
X295775000Y-122569680D03*
D12*
X268170000Y-166480000D03*
X268170000Y-169780000D03*
M02*
