%TF.GenerationSoftware,KiCad,Pcbnew,(6.0.6)*%
%TF.CreationDate,2022-09-13T10:52:04+05:30*%
%TF.ProjectId,BMS BQ76952_nomcu,424d5320-4251-4373-9639-35325f6e6f6d,rev?*%
%TF.SameCoordinates,Original*%
%TF.FileFunction,Legend,Bot*%
%TF.FilePolarity,Positive*%
%FSLAX46Y46*%
G04 Gerber Fmt 4.6, Leading zero omitted, Abs format (unit mm)*
G04 Created by KiCad (PCBNEW (6.0.6)) date 2022-09-13 10:52:04*
%MOMM*%
%LPD*%
G01*
G04 APERTURE LIST*
G04 Aperture macros list*
%AMRoundRect*
0 Rectangle with rounded corners*
0 $1 Rounding radius*
0 $2 $3 $4 $5 $6 $7 $8 $9 X,Y pos of 4 corners*
0 Add a 4 corners polygon primitive as box body*
4,1,4,$2,$3,$4,$5,$6,$7,$8,$9,$2,$3,0*
0 Add four circle primitives for the rounded corners*
1,1,$1+$1,$2,$3*
1,1,$1+$1,$4,$5*
1,1,$1+$1,$6,$7*
1,1,$1+$1,$8,$9*
0 Add four rect primitives between the rounded corners*
20,1,$1+$1,$2,$3,$4,$5,0*
20,1,$1+$1,$4,$5,$6,$7,0*
20,1,$1+$1,$6,$7,$8,$9,0*
20,1,$1+$1,$8,$9,$2,$3,0*%
G04 Aperture macros list end*
%ADD10C,1.500000*%
%ADD11C,1.000000*%
%ADD12C,0.250000*%
%ADD13C,0.100000*%
%ADD14C,1.500000*%
%ADD15C,3.100000*%
%ADD16C,4.200000*%
%ADD17R,1.600000X1.600000*%
%ADD18O,1.600000X1.600000*%
%ADD19RoundRect,0.150000X-0.200000X-0.450000X0.200000X-0.450000X0.200000X0.450000X-0.200000X0.450000X0*%
%ADD20O,0.700000X1.200000*%
G04 APERTURE END LIST*
D10*
X48402571Y-25117714D02*
X48688285Y-24546285D01*
X48688285Y-23403428D01*
X48402571Y-22832000D01*
X47831142Y-22546285D01*
X45545428Y-22546285D01*
X44974000Y-22832000D01*
X44688285Y-23403428D01*
X44688285Y-24546285D01*
X44974000Y-25117714D01*
X45545428Y-25403428D01*
X46116857Y-25403428D01*
X46688285Y-22546285D01*
X44688285Y-27403428D02*
X44688285Y-30546285D01*
X48688285Y-27403428D01*
X48688285Y-30546285D01*
X48402571Y-32546285D02*
X48688285Y-33403428D01*
X48688285Y-34832000D01*
X48402571Y-35403428D01*
X48116857Y-35689142D01*
X47545428Y-35974857D01*
X46974000Y-35974857D01*
X46402571Y-35689142D01*
X46116857Y-35403428D01*
X45831142Y-34832000D01*
X45545428Y-33689142D01*
X45259714Y-33117714D01*
X44974000Y-32832000D01*
X44402571Y-32546285D01*
X43831142Y-32546285D01*
X43259714Y-32832000D01*
X42974000Y-33117714D01*
X42688285Y-33689142D01*
X42688285Y-35117714D01*
X42974000Y-35974857D01*
X48688285Y-38546285D02*
X42688285Y-38546285D01*
X42688285Y-40832000D01*
X42974000Y-41403428D01*
X43259714Y-41689142D01*
X43831142Y-41974857D01*
X44688285Y-41974857D01*
X45259714Y-41689142D01*
X45545428Y-41403428D01*
X45831142Y-40832000D01*
X45831142Y-38546285D01*
X46974000Y-44260571D02*
X46974000Y-47117714D01*
X48688285Y-43689142D02*
X42688285Y-45689142D01*
X48688285Y-47689142D01*
X48688285Y-53117714D02*
X45831142Y-51117714D01*
X48688285Y-49689142D02*
X42688285Y-49689142D01*
X42688285Y-51974857D01*
X42974000Y-52546285D01*
X43259714Y-52832000D01*
X43831142Y-53117714D01*
X44688285Y-53117714D01*
X45259714Y-52832000D01*
X45545428Y-52546285D01*
X45831142Y-51974857D01*
X45831142Y-49689142D01*
X48688285Y-55689142D02*
X42688285Y-55689142D01*
X48688285Y-59117714D02*
X45259714Y-56546285D01*
X42688285Y-59117714D02*
X46116857Y-55689142D01*
X42688285Y-65403428D02*
X48688285Y-67403428D01*
X42688285Y-69403428D01*
X48688285Y-74546285D02*
X48688285Y-71117714D01*
X48688285Y-72832000D02*
X42688285Y-72832000D01*
X43545428Y-72260571D01*
X44116857Y-71689142D01*
X44402571Y-71117714D01*
X48116857Y-77117714D02*
X48402571Y-77403428D01*
X48688285Y-77117714D01*
X48402571Y-76832000D01*
X48116857Y-77117714D01*
X48688285Y-77117714D01*
X42688285Y-81117714D02*
X42688285Y-81689142D01*
X42974000Y-82260571D01*
X43259714Y-82546285D01*
X43831142Y-82832000D01*
X44974000Y-83117714D01*
X46402571Y-83117714D01*
X47545428Y-82832000D01*
X48116857Y-82546285D01*
X48402571Y-82260571D01*
X48688285Y-81689142D01*
X48688285Y-81117714D01*
X48402571Y-80546285D01*
X48116857Y-80260571D01*
X47545428Y-79974857D01*
X46402571Y-79689142D01*
X44974000Y-79689142D01*
X43831142Y-79974857D01*
X43259714Y-80260571D01*
X42974000Y-80546285D01*
X42688285Y-81117714D01*
D11*
X39187333Y-21522952D02*
X39187333Y-23903904D01*
X40615904Y-21046761D02*
X35615904Y-22713428D01*
X40615904Y-24380095D01*
X40615904Y-26046761D02*
X35615904Y-26046761D01*
X35615904Y-27951523D01*
X35854000Y-28427714D01*
X36092095Y-28665809D01*
X36568285Y-28903904D01*
X37282571Y-28903904D01*
X37758761Y-28665809D01*
X37996857Y-28427714D01*
X38234952Y-27951523D01*
X38234952Y-26046761D01*
X37996857Y-31046761D02*
X37996857Y-32713428D01*
X40615904Y-33427714D02*
X40615904Y-31046761D01*
X35615904Y-31046761D01*
X35615904Y-33427714D01*
X40615904Y-35570571D02*
X35615904Y-35570571D01*
X40615904Y-40808666D02*
X38234952Y-39141999D01*
X40615904Y-37951523D02*
X35615904Y-37951523D01*
X35615904Y-39856285D01*
X35854000Y-40332476D01*
X36092095Y-40570571D01*
X36568285Y-40808666D01*
X37282571Y-40808666D01*
X37758761Y-40570571D01*
X37996857Y-40332476D01*
X38234952Y-39856285D01*
X38234952Y-37951523D01*
X35615904Y-43903904D02*
X35615904Y-44856285D01*
X35854000Y-45332476D01*
X36330190Y-45808666D01*
X37282571Y-46046761D01*
X38949238Y-46046761D01*
X39901619Y-45808666D01*
X40377809Y-45332476D01*
X40615904Y-44856285D01*
X40615904Y-43903904D01*
X40377809Y-43427714D01*
X39901619Y-42951523D01*
X38949238Y-42713428D01*
X37282571Y-42713428D01*
X36330190Y-42951523D01*
X35854000Y-43427714D01*
X35615904Y-43903904D01*
X40615904Y-48189619D02*
X35615904Y-48189619D01*
X40615904Y-51046761D01*
X35615904Y-51046761D01*
X40615904Y-57237238D02*
X35615904Y-57237238D01*
X39187333Y-58903904D01*
X35615904Y-60570571D01*
X40615904Y-60570571D01*
X35615904Y-63903904D02*
X35615904Y-64856285D01*
X35854000Y-65332476D01*
X36330190Y-65808666D01*
X37282571Y-66046761D01*
X38949238Y-66046761D01*
X39901619Y-65808666D01*
X40377809Y-65332476D01*
X40615904Y-64856285D01*
X40615904Y-63903904D01*
X40377809Y-63427714D01*
X39901619Y-62951523D01*
X38949238Y-62713428D01*
X37282571Y-62713428D01*
X36330190Y-62951523D01*
X35854000Y-63427714D01*
X35615904Y-63903904D01*
X37996857Y-69856285D02*
X38234952Y-70570571D01*
X38473047Y-70808666D01*
X38949238Y-71046761D01*
X39663523Y-71046761D01*
X40139714Y-70808666D01*
X40377809Y-70570571D01*
X40615904Y-70094380D01*
X40615904Y-68189619D01*
X35615904Y-68189619D01*
X35615904Y-69856285D01*
X35854000Y-70332476D01*
X36092095Y-70570571D01*
X36568285Y-70808666D01*
X37044476Y-70808666D01*
X37520666Y-70570571D01*
X37758761Y-70332476D01*
X37996857Y-69856285D01*
X37996857Y-68189619D01*
X40615904Y-73189619D02*
X35615904Y-73189619D01*
X40615904Y-77951523D02*
X40615904Y-75570571D01*
X35615904Y-75570571D01*
X40615904Y-79618190D02*
X35615904Y-79618190D01*
X35615904Y-81284857D02*
X35615904Y-84141999D01*
X40615904Y-82713428D02*
X35615904Y-82713428D01*
X38234952Y-86761047D02*
X40615904Y-86761047D01*
X35615904Y-85094380D02*
X38234952Y-86761047D01*
X35615904Y-88427714D01*
D12*
X98926666Y-57452380D02*
X98926666Y-56452380D01*
X98593333Y-57166666D01*
X98260000Y-56452380D01*
X98260000Y-57452380D01*
X97831428Y-57166666D02*
X97355238Y-57166666D01*
X97926666Y-57452380D02*
X97593333Y-56452380D01*
X97260000Y-57452380D01*
X96926666Y-57452380D02*
X96926666Y-56452380D01*
X96688571Y-56452380D01*
X96545714Y-56500000D01*
X96450476Y-56595238D01*
X96402857Y-56690476D01*
X96355238Y-56880952D01*
X96355238Y-57023809D01*
X96402857Y-57214285D01*
X96450476Y-57309523D01*
X96545714Y-57404761D01*
X96688571Y-57452380D01*
X96926666Y-57452380D01*
X95926666Y-56928571D02*
X95593333Y-56928571D01*
X95450476Y-57452380D02*
X95926666Y-57452380D01*
X95926666Y-56452380D01*
X95450476Y-56452380D01*
X94260000Y-57452380D02*
X94260000Y-56452380D01*
X93783809Y-57452380D02*
X93783809Y-56452380D01*
X93212380Y-57452380D01*
X93212380Y-56452380D01*
X91974285Y-57452380D02*
X91974285Y-56452380D01*
X91498095Y-57452380D02*
X91498095Y-56452380D01*
X90926666Y-57452380D01*
X90926666Y-56452380D01*
X90450476Y-57452380D02*
X90450476Y-56452380D01*
X90212380Y-56452380D01*
X90069523Y-56500000D01*
X89974285Y-56595238D01*
X89926666Y-56690476D01*
X89879047Y-56880952D01*
X89879047Y-57023809D01*
X89926666Y-57214285D01*
X89974285Y-57309523D01*
X90069523Y-57404761D01*
X90212380Y-57452380D01*
X90450476Y-57452380D01*
X89450476Y-57452380D02*
X89450476Y-56452380D01*
X89021904Y-57166666D02*
X88545714Y-57166666D01*
X89117142Y-57452380D02*
X88783809Y-56452380D01*
X88450476Y-57452380D01*
%LPC*%
D13*
X117775000Y-47115000D02*
X168475000Y-47115000D01*
X168475000Y-47115000D02*
X168475000Y-62745000D01*
X168475000Y-62745000D02*
X117775000Y-62745000D01*
X117775000Y-62745000D02*
X117775000Y-47115000D01*
G36*
X117775000Y-47115000D02*
G01*
X168475000Y-47115000D01*
X168475000Y-62745000D01*
X117775000Y-62745000D01*
X117775000Y-47115000D01*
G37*
D14*
%TO.C,TP5*%
X79410000Y-22350000D03*
%TD*%
%TO.C,TP2*%
X168550000Y-45540000D03*
%TD*%
D15*
%TO.C,H10*%
X84410000Y-85970000D03*
%TD*%
D16*
%TO.C,J15*%
X101790000Y-78660000D03*
D15*
X98855000Y-81595000D03*
X104725000Y-81595000D03*
X104725000Y-75725000D03*
X98855000Y-75725000D03*
%TD*%
%TO.C,H4*%
X166790000Y-23430000D03*
%TD*%
%TO.C,H5*%
X113910000Y-43320000D03*
%TD*%
D14*
%TO.C,TP9*%
X64880000Y-53500000D03*
%TD*%
D16*
%TO.C,J6*%
X136620000Y-32650000D03*
D15*
X133685000Y-29715000D03*
X133685000Y-35585000D03*
X139555000Y-29715000D03*
X139555000Y-35585000D03*
%TD*%
D14*
%TO.C,TP12*%
X52700000Y-22250000D03*
%TD*%
%TO.C,TP4*%
X64880000Y-31200000D03*
%TD*%
D17*
%TO.C,J9*%
X67865000Y-71605000D03*
D18*
X70405000Y-71605000D03*
X72945000Y-71605000D03*
%TD*%
D14*
%TO.C,TP6*%
X75270000Y-54580000D03*
%TD*%
%TO.C,TP8*%
X62070000Y-54500000D03*
%TD*%
D15*
%TO.C,H7*%
X166790000Y-71930000D03*
%TD*%
%TO.C,H9*%
X84410000Y-24320000D03*
%TD*%
D14*
%TO.C,TP10*%
X62830000Y-67090000D03*
%TD*%
D15*
%TO.C,H1*%
X23320000Y-23240000D03*
%TD*%
%TO.C,H2*%
X23320000Y-86740000D03*
%TD*%
D16*
%TO.C,J13*%
X101560000Y-32960000D03*
D15*
X104495000Y-30025000D03*
X98625000Y-30025000D03*
X104495000Y-35895000D03*
X98625000Y-35895000D03*
%TD*%
D16*
%TO.C,J7*%
X146790000Y-32640000D03*
D15*
X143855000Y-29705000D03*
X149725000Y-29705000D03*
X143855000Y-35575000D03*
X149725000Y-35575000D03*
%TD*%
%TO.C,H8*%
X166790000Y-38430000D03*
%TD*%
D14*
%TO.C,TP7*%
X73360000Y-67990000D03*
%TD*%
D17*
%TO.C,SW1*%
X50930000Y-79420000D03*
D18*
X53470000Y-79420000D03*
%TD*%
D16*
%TO.C,J12*%
X91410000Y-32970000D03*
D15*
X88475000Y-35905000D03*
X88475000Y-30035000D03*
X94345000Y-35905000D03*
X94345000Y-30035000D03*
%TD*%
D19*
%TO.C,J8*%
X57580000Y-84840000D03*
D20*
X58830000Y-84840000D03*
X60080000Y-84840000D03*
X61330000Y-84840000D03*
X62580000Y-84840000D03*
X63830000Y-84840000D03*
X65080000Y-84840000D03*
X66330000Y-84840000D03*
X67580000Y-84840000D03*
X68830000Y-84840000D03*
X70080000Y-84840000D03*
X71330000Y-84840000D03*
X72580000Y-84840000D03*
X73830000Y-84840000D03*
%TD*%
D17*
%TO.C,J5*%
X27950000Y-34840000D03*
D18*
X27950000Y-37380000D03*
X27950000Y-39920000D03*
X27950000Y-42460000D03*
X27950000Y-45000000D03*
X27950000Y-47540000D03*
X27950000Y-50080000D03*
X27950000Y-52620000D03*
X27950000Y-55160000D03*
X27950000Y-57700000D03*
X27950000Y-60240000D03*
X27950000Y-62780000D03*
X27950000Y-65320000D03*
X27950000Y-67860000D03*
X27950000Y-70400000D03*
X27950000Y-72940000D03*
X27950000Y-75480000D03*
%TD*%
D14*
%TO.C,TP3*%
X77470000Y-88570000D03*
%TD*%
%TO.C,TP1*%
X168540000Y-64140000D03*
%TD*%
D17*
%TO.C,SW3*%
X60490000Y-30790000D03*
D18*
X57950000Y-30790000D03*
%TD*%
D16*
%TO.C,J16*%
X136660000Y-78270000D03*
D15*
X139595000Y-81205000D03*
X133725000Y-81205000D03*
X139595000Y-75335000D03*
X133725000Y-75335000D03*
%TD*%
D14*
%TO.C,TP11*%
X73070000Y-50220000D03*
%TD*%
D15*
%TO.C,H3*%
X166790000Y-86930000D03*
%TD*%
D16*
%TO.C,J17*%
X146830000Y-78260000D03*
D15*
X143895000Y-81195000D03*
X149765000Y-81195000D03*
X149765000Y-75325000D03*
X143895000Y-75325000D03*
%TD*%
D17*
%TO.C,J11*%
X52640000Y-26380000D03*
D18*
X52640000Y-28920000D03*
X52640000Y-31460000D03*
%TD*%
D16*
%TO.C,J14*%
X91630000Y-78660000D03*
D15*
X94565000Y-81595000D03*
X88695000Y-75725000D03*
X94565000Y-75725000D03*
X88695000Y-81595000D03*
%TD*%
%TO.C,H6*%
X113910000Y-66970000D03*
%TD*%
D17*
%TO.C,J10*%
X75680000Y-58780000D03*
D18*
X75680000Y-61320000D03*
X75680000Y-63860000D03*
%TD*%
D17*
%TO.C,SW2*%
X27710000Y-27835000D03*
D18*
X27710000Y-30375000D03*
%TD*%
M02*
