%TF.GenerationSoftware,KiCad,Pcbnew,(6.0.6)*%
%TF.CreationDate,2022-09-13T10:52:04+05:30*%
%TF.ProjectId,BMS BQ76952_nomcu,424d5320-4251-4373-9639-35325f6e6f6d,rev?*%
%TF.SameCoordinates,Original*%
%TF.FileFunction,Soldermask,Top*%
%TF.FilePolarity,Negative*%
%FSLAX46Y46*%
G04 Gerber Fmt 4.6, Leading zero omitted, Abs format (unit mm)*
G04 Created by KiCad (PCBNEW (6.0.6)) date 2022-09-13 10:52:04*
%MOMM*%
%LPD*%
G01*
G04 APERTURE LIST*
G04 Aperture macros list*
%AMRoundRect*
0 Rectangle with rounded corners*
0 $1 Rounding radius*
0 $2 $3 $4 $5 $6 $7 $8 $9 X,Y pos of 4 corners*
0 Add a 4 corners polygon primitive as box body*
4,1,4,$2,$3,$4,$5,$6,$7,$8,$9,$2,$3,0*
0 Add four circle primitives for the rounded corners*
1,1,$1+$1,$2,$3*
1,1,$1+$1,$4,$5*
1,1,$1+$1,$6,$7*
1,1,$1+$1,$8,$9*
0 Add four rect primitives between the rounded corners*
20,1,$1+$1,$2,$3,$4,$5,0*
20,1,$1+$1,$4,$5,$6,$7,0*
20,1,$1+$1,$6,$7,$8,$9,0*
20,1,$1+$1,$8,$9,$2,$3,0*%
G04 Aperture macros list end*
%ADD10RoundRect,0.150000X0.200000X0.275000X-0.200000X0.275000X-0.200000X-0.275000X0.200000X-0.275000X0*%
%ADD11R,1.250000X0.150000*%
%ADD12R,0.150000X1.250000*%
%ADD13RoundRect,0.175000X0.250000X-0.225000X0.250000X0.225000X-0.250000X0.225000X-0.250000X-0.225000X0*%
%ADD14RoundRect,0.150000X-0.200000X-0.275000X0.200000X-0.275000X0.200000X0.275000X-0.200000X0.275000X0*%
%ADD15C,1.500000*%
%ADD16RoundRect,0.100000X-0.587500X-0.150000X0.587500X-0.150000X0.587500X0.150000X-0.587500X0.150000X0*%
%ADD17RoundRect,0.175000X-0.225000X-0.250000X0.225000X-0.250000X0.225000X0.250000X-0.225000X0.250000X0*%
%ADD18RoundRect,0.100000X0.587500X0.150000X-0.587500X0.150000X-0.587500X-0.150000X0.587500X-0.150000X0*%
%ADD19R,0.350000X0.500000*%
%ADD20RoundRect,0.175000X-0.250000X0.225000X-0.250000X-0.225000X0.250000X-0.225000X0.250000X0.225000X0*%
%ADD21RoundRect,0.150000X-0.275000X0.200000X-0.275000X-0.200000X0.275000X-0.200000X0.275000X0.200000X0*%
%ADD22R,2.000000X2.500000*%
%ADD23R,1.100000X0.800000*%
%ADD24C,3.100000*%
%ADD25RoundRect,0.200000X-0.325000X-0.650000X0.325000X-0.650000X0.325000X0.650000X-0.325000X0.650000X0*%
%ADD26R,1.100000X2.100000*%
%ADD27R,5.700000X6.300000*%
%ADD28C,4.200000*%
%ADD29RoundRect,0.200000X-0.312500X-1.075000X0.312500X-1.075000X0.312500X1.075000X-0.312500X1.075000X0*%
%ADD30RoundRect,0.150000X0.275000X-0.200000X0.275000X0.200000X-0.275000X0.200000X-0.275000X-0.200000X0*%
%ADD31RoundRect,0.200000X-0.650000X0.325000X-0.650000X-0.325000X0.650000X-0.325000X0.650000X0.325000X0*%
%ADD32R,2.400000X2.200000*%
%ADD33R,0.500000X0.350000*%
%ADD34C,2.000000*%
%ADD35R,1.600000X1.600000*%
%ADD36O,1.600000X1.600000*%
%ADD37R,7.900000X4.600000*%
%ADD38R,2.400000X3.200000*%
%ADD39R,0.800000X1.100000*%
%ADD40RoundRect,0.010000X-0.290000X0.240000X-0.290000X-0.240000X0.290000X-0.240000X0.290000X0.240000X0*%
%ADD41RoundRect,0.010000X0.240000X0.290000X-0.240000X0.290000X-0.240000X-0.290000X0.240000X-0.290000X0*%
%ADD42RoundRect,0.150000X-0.200000X-0.450000X0.200000X-0.450000X0.200000X0.450000X-0.200000X0.450000X0*%
%ADD43O,0.700000X1.200000*%
%ADD44RoundRect,0.175000X0.225000X0.250000X-0.225000X0.250000X-0.225000X-0.250000X0.225000X-0.250000X0*%
%ADD45RoundRect,0.200000X0.650000X-0.325000X0.650000X0.325000X-0.650000X0.325000X-0.650000X-0.325000X0*%
%ADD46RoundRect,0.100000X0.150000X-0.587500X0.150000X0.587500X-0.150000X0.587500X-0.150000X-0.587500X0*%
%ADD47R,2.100000X1.100000*%
%ADD48R,6.300000X5.700000*%
G04 APERTURE END LIST*
D10*
%TO.C,R15*%
X68925000Y-68310000D03*
X67275000Y-68310000D03*
%TD*%
%TO.C,R17*%
X69675000Y-66760000D03*
X68025000Y-66760000D03*
%TD*%
D11*
%TO.C,U1*%
X53690000Y-58140000D03*
X53690000Y-58640000D03*
X53690000Y-59140000D03*
X53690000Y-59640000D03*
X53690000Y-60140000D03*
X53690000Y-60640000D03*
X53690000Y-61140000D03*
X53690000Y-61640000D03*
X53690000Y-62140000D03*
X53690000Y-62640000D03*
X53690000Y-63140000D03*
X53690000Y-63640000D03*
D12*
X55190000Y-65140000D03*
X55690000Y-65140000D03*
X56190000Y-65140000D03*
X56690000Y-65140000D03*
X57190000Y-65140000D03*
X57690000Y-65140000D03*
X58190000Y-65140000D03*
X58690000Y-65140000D03*
X59190000Y-65140000D03*
X59690000Y-65140000D03*
X60190000Y-65140000D03*
X60690000Y-65140000D03*
D11*
X62190000Y-63640000D03*
X62190000Y-63140000D03*
X62190000Y-62640000D03*
X62190000Y-62140000D03*
X62190000Y-61640000D03*
X62190000Y-61140000D03*
X62190000Y-60640000D03*
X62190000Y-60140000D03*
X62190000Y-59640000D03*
X62190000Y-59140000D03*
X62190000Y-58640000D03*
X62190000Y-58140000D03*
D12*
X60690000Y-56640000D03*
X60190000Y-56640000D03*
X59690000Y-56640000D03*
X59190000Y-56640000D03*
X58690000Y-56640000D03*
X58190000Y-56640000D03*
X57690000Y-56640000D03*
X57190000Y-56640000D03*
X56690000Y-56640000D03*
X56190000Y-56640000D03*
X55690000Y-56640000D03*
X55190000Y-56640000D03*
%TD*%
D13*
%TO.C,C28*%
X71680000Y-61395000D03*
X71680000Y-59845000D03*
%TD*%
%TO.C,C31*%
X48670000Y-24575000D03*
X48670000Y-23025000D03*
%TD*%
D14*
%TO.C,R95*%
X71492500Y-30510000D03*
X73142500Y-30510000D03*
%TD*%
D15*
%TO.C,TP5*%
X79410000Y-22350000D03*
%TD*%
D10*
%TO.C,R36*%
X44685000Y-23780000D03*
X43035000Y-23780000D03*
%TD*%
D16*
%TO.C,Q9*%
X37422500Y-51400000D03*
X37422500Y-53300000D03*
X39297500Y-52350000D03*
%TD*%
D15*
%TO.C,TP2*%
X168550000Y-45540000D03*
%TD*%
D10*
%TO.C,R38*%
X44690000Y-27970000D03*
X43040000Y-27970000D03*
%TD*%
D14*
%TO.C,R85*%
X133380000Y-67385000D03*
X135030000Y-67385000D03*
%TD*%
D13*
%TO.C,C44*%
X47170000Y-72035000D03*
X47170000Y-70485000D03*
%TD*%
D17*
%TO.C,C51*%
X57385000Y-69370000D03*
X58935000Y-69370000D03*
%TD*%
D18*
%TO.C,Q33*%
X116472500Y-54250000D03*
X116472500Y-52350000D03*
X114597500Y-53300000D03*
%TD*%
D19*
%TO.C,D19*%
X41400000Y-80720000D03*
X41400000Y-82820000D03*
%TD*%
D20*
%TO.C,C25*%
X70020000Y-62870000D03*
X70020000Y-64420000D03*
%TD*%
D21*
%TO.C,R130*%
X30270000Y-45495000D03*
X30270000Y-47145000D03*
%TD*%
D22*
%TO.C,R140*%
X116545000Y-22960000D03*
X111645000Y-22960000D03*
%TD*%
D21*
%TO.C,R96*%
X73630000Y-45145000D03*
X73630000Y-46795000D03*
%TD*%
D10*
%TO.C,R48*%
X44600000Y-48930000D03*
X42950000Y-48930000D03*
%TD*%
%TO.C,R70*%
X44745000Y-76660000D03*
X43095000Y-76660000D03*
%TD*%
D23*
%TO.C,D31*%
X61590000Y-47530000D03*
X61590000Y-50830000D03*
%TD*%
D13*
%TO.C,C55*%
X108430000Y-31490000D03*
X108430000Y-29940000D03*
%TD*%
D10*
%TO.C,R62*%
X44645000Y-59950000D03*
X42995000Y-59950000D03*
%TD*%
D16*
%TO.C,Q10*%
X37422500Y-55580000D03*
X37422500Y-57480000D03*
X39297500Y-56530000D03*
%TD*%
D22*
%TO.C,R91*%
X124620000Y-75560000D03*
X119720000Y-75560000D03*
%TD*%
D24*
%TO.C,H10*%
X84410000Y-85970000D03*
%TD*%
D25*
%TO.C,C26*%
X65185000Y-44670000D03*
X68135000Y-44670000D03*
%TD*%
D26*
%TO.C,Q18*%
X118945000Y-65215000D03*
D27*
X121225000Y-58915000D03*
D26*
X123505000Y-65215000D03*
%TD*%
D22*
%TO.C,R138*%
X116510000Y-31020000D03*
X111610000Y-31020000D03*
%TD*%
D10*
%TO.C,R24*%
X165995000Y-42450000D03*
X164345000Y-42450000D03*
%TD*%
D26*
%TO.C,Q35*%
X161460000Y-65195000D03*
D27*
X163740000Y-58895000D03*
D26*
X166020000Y-65195000D03*
%TD*%
D10*
%TO.C,R94*%
X79085000Y-83175000D03*
X77435000Y-83175000D03*
%TD*%
D13*
%TO.C,C46*%
X47170000Y-80585000D03*
X47170000Y-79035000D03*
%TD*%
D10*
%TO.C,R112*%
X137325000Y-42395000D03*
X135675000Y-42395000D03*
%TD*%
D28*
%TO.C,J15*%
X101790000Y-78660000D03*
D24*
X98855000Y-81595000D03*
X104725000Y-81595000D03*
X104725000Y-75725000D03*
X98855000Y-75725000D03*
%TD*%
D10*
%TO.C,R58*%
X44810000Y-86690000D03*
X43160000Y-86690000D03*
%TD*%
D26*
%TO.C,Q29*%
X123515000Y-44585000D03*
D27*
X121235000Y-50885000D03*
D26*
X118955000Y-44585000D03*
%TD*%
D13*
%TO.C,C17*%
X62110000Y-70585000D03*
X62110000Y-69035000D03*
%TD*%
D24*
%TO.C,H4*%
X166790000Y-23430000D03*
%TD*%
%TO.C,H5*%
X113910000Y-43320000D03*
%TD*%
D10*
%TO.C,R21*%
X66070000Y-64680000D03*
X64420000Y-64680000D03*
%TD*%
D13*
%TO.C,C40*%
X47050000Y-55375000D03*
X47050000Y-53825000D03*
%TD*%
D29*
%TO.C,R30*%
X31867500Y-39759332D03*
X34792500Y-39759332D03*
%TD*%
D19*
%TO.C,D14*%
X41310000Y-59760000D03*
X41310000Y-61860000D03*
%TD*%
D10*
%TO.C,R119*%
X151540000Y-42435000D03*
X149890000Y-42435000D03*
%TD*%
D14*
%TO.C,R88*%
X154130000Y-67385000D03*
X155780000Y-67385000D03*
%TD*%
D15*
%TO.C,TP9*%
X64880000Y-53500000D03*
%TD*%
D10*
%TO.C,R39*%
X44615000Y-30570000D03*
X42965000Y-30570000D03*
%TD*%
%TO.C,R81*%
X56525000Y-45260000D03*
X54875000Y-45260000D03*
%TD*%
D30*
%TO.C,R115*%
X52250000Y-39515000D03*
X52250000Y-37865000D03*
%TD*%
D28*
%TO.C,J6*%
X136620000Y-32650000D03*
D24*
X133685000Y-29715000D03*
X133685000Y-35585000D03*
X139555000Y-29715000D03*
X139555000Y-35585000D03*
%TD*%
D31*
%TO.C,C50*%
X55510000Y-49435000D03*
X55510000Y-52385000D03*
%TD*%
D26*
%TO.C,Q31*%
X151850000Y-44610000D03*
D27*
X149570000Y-50910000D03*
D26*
X147290000Y-44610000D03*
%TD*%
D32*
%TO.C,D25*%
X115340000Y-72905000D03*
X111040000Y-72905000D03*
%TD*%
D10*
%TO.C,R59*%
X44620000Y-53190000D03*
X42970000Y-53190000D03*
%TD*%
D23*
%TO.C,D42*%
X116050000Y-50680000D03*
X116050000Y-47380000D03*
%TD*%
D20*
%TO.C,C23*%
X67550000Y-58395000D03*
X67550000Y-59945000D03*
%TD*%
D15*
%TO.C,TP12*%
X52700000Y-22250000D03*
%TD*%
D29*
%TO.C,R27*%
X31867500Y-27167333D03*
X34792500Y-27167333D03*
%TD*%
%TO.C,R56*%
X31867500Y-81732662D03*
X34792500Y-81732662D03*
%TD*%
D33*
%TO.C,D21*%
X44940000Y-88460000D03*
X42840000Y-88460000D03*
%TD*%
D22*
%TO.C,R90*%
X124650000Y-79650000D03*
X119750000Y-79650000D03*
%TD*%
D14*
%TO.C,R83*%
X119406000Y-67395000D03*
X121056000Y-67395000D03*
%TD*%
D26*
%TO.C,Q27*%
X137685000Y-44595000D03*
D27*
X135405000Y-50895000D03*
D26*
X133125000Y-44595000D03*
%TD*%
D17*
%TO.C,C48*%
X53255000Y-54190000D03*
X54805000Y-54190000D03*
%TD*%
D23*
%TO.C,D40*%
X111640000Y-52160000D03*
X111640000Y-55460000D03*
%TD*%
D10*
%TO.C,R116*%
X56900000Y-36290000D03*
X55250000Y-36290000D03*
%TD*%
D26*
%TO.C,Q20*%
X133105000Y-65205000D03*
D27*
X135385000Y-58905000D03*
D26*
X137665000Y-65205000D03*
%TD*%
%TO.C,Q23*%
X154375000Y-65205000D03*
D27*
X156655000Y-58905000D03*
D26*
X158935000Y-65205000D03*
%TD*%
D23*
%TO.C,D35*%
X61440000Y-40590000D03*
X61440000Y-37290000D03*
%TD*%
D10*
%TO.C,R72*%
X44715000Y-80910000D03*
X43065000Y-80910000D03*
%TD*%
D19*
%TO.C,D17*%
X41430000Y-72220000D03*
X41430000Y-74320000D03*
%TD*%
D21*
%TO.C,R103*%
X59470000Y-38785000D03*
X59470000Y-40435000D03*
%TD*%
D29*
%TO.C,R32*%
X31867500Y-48153998D03*
X34792500Y-48153998D03*
%TD*%
D21*
%TO.C,R121*%
X113940000Y-47395000D03*
X113940000Y-49045000D03*
%TD*%
D23*
%TO.C,D41*%
X109230000Y-52170000D03*
X109230000Y-55470000D03*
%TD*%
D15*
%TO.C,TP4*%
X64880000Y-31200000D03*
%TD*%
D22*
%TO.C,R99*%
X124360000Y-30980000D03*
X119460000Y-30980000D03*
%TD*%
D16*
%TO.C,Q4*%
X37402500Y-30420000D03*
X37402500Y-32320000D03*
X39277500Y-31370000D03*
%TD*%
D23*
%TO.C,D43*%
X109670000Y-41190000D03*
X109670000Y-44490000D03*
%TD*%
D34*
%TO.C,FID2*%
X27390000Y-88580000D03*
%TD*%
D13*
%TO.C,C56*%
X108417500Y-28425000D03*
X108417500Y-26875000D03*
%TD*%
D21*
%TO.C,R77*%
X51690000Y-45700000D03*
X51690000Y-47350000D03*
%TD*%
D35*
%TO.C,J9*%
X67865000Y-71605000D03*
D36*
X70405000Y-71605000D03*
X72945000Y-71605000D03*
%TD*%
D10*
%TO.C,R68*%
X44745000Y-72410000D03*
X43095000Y-72410000D03*
%TD*%
D23*
%TO.C,D4*%
X69310000Y-40530000D03*
X69310000Y-37230000D03*
%TD*%
D37*
%TO.C,R80*%
X102890000Y-62640000D03*
X102890000Y-51340000D03*
%TD*%
D10*
%TO.C,R66*%
X44700000Y-68330000D03*
X43050000Y-68330000D03*
%TD*%
D15*
%TO.C,TP6*%
X75270000Y-54580000D03*
%TD*%
D10*
%TO.C,R45*%
X44620000Y-43078374D03*
X42970000Y-43078374D03*
%TD*%
D15*
%TO.C,TP8*%
X62070000Y-54500000D03*
%TD*%
D24*
%TO.C,H7*%
X166790000Y-71930000D03*
%TD*%
D10*
%TO.C,R42*%
X44615000Y-36320000D03*
X42965000Y-36320000D03*
%TD*%
D16*
%TO.C,Q16*%
X37532500Y-80820000D03*
X37532500Y-82720000D03*
X39407500Y-81770000D03*
%TD*%
D37*
%TO.C,R79*%
X94240000Y-62640000D03*
X94240000Y-51340000D03*
%TD*%
D16*
%TO.C,Q2*%
X37482500Y-22010000D03*
X37482500Y-23910000D03*
X39357500Y-22960000D03*
%TD*%
D21*
%TO.C,R128*%
X30180000Y-38750000D03*
X30180000Y-40400000D03*
%TD*%
D24*
%TO.C,H9*%
X84410000Y-24320000D03*
%TD*%
D16*
%TO.C,Q26*%
X114512500Y-58820000D03*
X114512500Y-60720000D03*
X116387500Y-59770000D03*
%TD*%
D21*
%TO.C,R134*%
X30230000Y-61220000D03*
X30230000Y-62870000D03*
%TD*%
D23*
%TO.C,D36*%
X66900000Y-40520000D03*
X66900000Y-37220000D03*
%TD*%
D38*
%TO.C,D32*%
X115970000Y-36550000D03*
X109170000Y-36550000D03*
%TD*%
D13*
%TO.C,C42*%
X47130000Y-63765000D03*
X47130000Y-62215000D03*
%TD*%
D23*
%TO.C,D23*%
X51790000Y-44270000D03*
X51790000Y-40970000D03*
%TD*%
D16*
%TO.C,Q7*%
X37402500Y-43000000D03*
X37402500Y-44900000D03*
X39277500Y-43950000D03*
%TD*%
D29*
%TO.C,R54*%
X31867500Y-73337996D03*
X34792500Y-73337996D03*
%TD*%
D19*
%TO.C,D8*%
X41280000Y-34450000D03*
X41280000Y-36550000D03*
%TD*%
D30*
%TO.C,R93*%
X72050000Y-47875000D03*
X72050000Y-46225000D03*
%TD*%
D21*
%TO.C,R19*%
X68570000Y-49205000D03*
X68570000Y-50855000D03*
%TD*%
D10*
%TO.C,R61*%
X44605000Y-57330000D03*
X42955000Y-57330000D03*
%TD*%
D13*
%TO.C,C47*%
X47210000Y-84530000D03*
X47210000Y-82980000D03*
%TD*%
D30*
%TO.C,R22*%
X68480000Y-64455000D03*
X68480000Y-62805000D03*
%TD*%
D21*
%TO.C,R75*%
X57400000Y-70845000D03*
X57400000Y-72495000D03*
%TD*%
D15*
%TO.C,TP10*%
X62830000Y-67090000D03*
%TD*%
D26*
%TO.C,Q32*%
X158925000Y-44615000D03*
D27*
X156645000Y-50915000D03*
D26*
X154365000Y-44615000D03*
%TD*%
D13*
%TO.C,C38*%
X47010000Y-51225000D03*
X47010000Y-49675000D03*
%TD*%
D29*
%TO.C,R33*%
X31867500Y-52351331D03*
X34792500Y-52351331D03*
%TD*%
D13*
%TO.C,C21*%
X67440000Y-56805000D03*
X67440000Y-55255000D03*
%TD*%
D39*
%TO.C,D39*%
X53810000Y-38390000D03*
X57110000Y-38390000D03*
%TD*%
%TO.C,D28*%
X79910000Y-85145000D03*
X76610000Y-85145000D03*
%TD*%
D16*
%TO.C,Q14*%
X37562500Y-72370000D03*
X37562500Y-74270000D03*
X39437500Y-73320000D03*
%TD*%
D30*
%TO.C,R122*%
X108870000Y-50515000D03*
X108870000Y-48865000D03*
%TD*%
D26*
%TO.C,Q36*%
X166010000Y-44620000D03*
D27*
X163730000Y-50920000D03*
D26*
X161450000Y-44620000D03*
%TD*%
D23*
%TO.C,D27*%
X63960000Y-47560000D03*
X63960000Y-50860000D03*
%TD*%
D16*
%TO.C,Q12*%
X37452500Y-63980000D03*
X37452500Y-65880000D03*
X39327500Y-64930000D03*
%TD*%
D22*
%TO.C,R92*%
X124620000Y-87710000D03*
X119720000Y-87710000D03*
%TD*%
D10*
%TO.C,R60*%
X44635000Y-55700000D03*
X42985000Y-55700000D03*
%TD*%
D19*
%TO.C,D15*%
X41320000Y-63870000D03*
X41320000Y-65970000D03*
%TD*%
D10*
%TO.C,R67*%
X44705000Y-70040000D03*
X43055000Y-70040000D03*
%TD*%
%TO.C,R35*%
X44685000Y-22175784D03*
X43035000Y-22175784D03*
%TD*%
D39*
%TO.C,D37*%
X113580000Y-56860000D03*
X116880000Y-56860000D03*
%TD*%
D24*
%TO.C,H1*%
X23320000Y-23240000D03*
%TD*%
%TO.C,H2*%
X23320000Y-86740000D03*
%TD*%
D14*
%TO.C,R124*%
X112485000Y-50560000D03*
X114135000Y-50560000D03*
%TD*%
D22*
%TO.C,R98*%
X124385000Y-26960000D03*
X119485000Y-26960000D03*
%TD*%
D40*
%TO.C,Q34*%
X112550000Y-49000000D03*
X112550000Y-47100000D03*
X110550000Y-48050000D03*
%TD*%
D13*
%TO.C,C39*%
X47210000Y-88335000D03*
X47210000Y-86785000D03*
%TD*%
D28*
%TO.C,J13*%
X101560000Y-32960000D03*
D24*
X104495000Y-30025000D03*
X98625000Y-30025000D03*
X104495000Y-35895000D03*
X98625000Y-35895000D03*
%TD*%
D10*
%TO.C,R118*%
X144450000Y-42425000D03*
X142800000Y-42425000D03*
%TD*%
D28*
%TO.C,J7*%
X146790000Y-32640000D03*
D24*
X143855000Y-29705000D03*
X149725000Y-29705000D03*
X143855000Y-35575000D03*
X149725000Y-35575000D03*
%TD*%
D21*
%TO.C,R76*%
X58920000Y-70835000D03*
X58920000Y-72485000D03*
%TD*%
D19*
%TO.C,D18*%
X41410000Y-76500000D03*
X41410000Y-78600000D03*
%TD*%
D13*
%TO.C,C43*%
X47130000Y-67915000D03*
X47130000Y-66365000D03*
%TD*%
D14*
%TO.C,R117*%
X52140000Y-36290000D03*
X53790000Y-36290000D03*
%TD*%
D16*
%TO.C,Q13*%
X37502500Y-68200000D03*
X37502500Y-70100000D03*
X39377500Y-69150000D03*
%TD*%
D17*
%TO.C,C52*%
X57395000Y-67840000D03*
X58945000Y-67840000D03*
%TD*%
D24*
%TO.C,H8*%
X166790000Y-38430000D03*
%TD*%
D10*
%TO.C,R65*%
X44645000Y-65760000D03*
X42995000Y-65760000D03*
%TD*%
D22*
%TO.C,R100*%
X124410000Y-22920000D03*
X119510000Y-22920000D03*
%TD*%
D10*
%TO.C,R47*%
X44605000Y-47342892D03*
X42955000Y-47342892D03*
%TD*%
%TO.C,R63*%
X44645000Y-61680000D03*
X42995000Y-61680000D03*
%TD*%
D39*
%TO.C,D44*%
X56490000Y-47320000D03*
X53190000Y-47320000D03*
%TD*%
D30*
%TO.C,R111*%
X110660000Y-64135000D03*
X110660000Y-62485000D03*
%TD*%
D14*
%TO.C,R86*%
X140460000Y-67375000D03*
X142110000Y-67375000D03*
%TD*%
D15*
%TO.C,TP7*%
X73360000Y-67990000D03*
%TD*%
D37*
%TO.C,R106*%
X85590000Y-62630000D03*
X85590000Y-51330000D03*
%TD*%
D13*
%TO.C,C32*%
X47100000Y-26035000D03*
X47100000Y-24485000D03*
%TD*%
D35*
%TO.C,SW1*%
X50930000Y-79420000D03*
D36*
X53470000Y-79420000D03*
%TD*%
D21*
%TO.C,R133*%
X30250000Y-56965000D03*
X30250000Y-58615000D03*
%TD*%
D10*
%TO.C,R71*%
X44735000Y-78460000D03*
X43085000Y-78460000D03*
%TD*%
D19*
%TO.C,D10*%
X41280000Y-42860000D03*
X41280000Y-44960000D03*
%TD*%
D21*
%TO.C,R132*%
X30240000Y-53225000D03*
X30240000Y-54875000D03*
%TD*%
D28*
%TO.C,J12*%
X91410000Y-32970000D03*
D24*
X88475000Y-35905000D03*
X88475000Y-30035000D03*
X94345000Y-35905000D03*
X94345000Y-30035000D03*
%TD*%
D41*
%TO.C,Q1*%
X68610000Y-47760000D03*
X70510000Y-47760000D03*
X69560000Y-45760000D03*
%TD*%
D10*
%TO.C,R123*%
X109965000Y-45850000D03*
X108315000Y-45850000D03*
%TD*%
D42*
%TO.C,J8*%
X57580000Y-84840000D03*
D43*
X58830000Y-84840000D03*
X60080000Y-84840000D03*
X61330000Y-84840000D03*
X62580000Y-84840000D03*
X63830000Y-84840000D03*
X65080000Y-84840000D03*
X66330000Y-84840000D03*
X67580000Y-84840000D03*
X68830000Y-84840000D03*
X70080000Y-84840000D03*
X71330000Y-84840000D03*
X72580000Y-84840000D03*
X73830000Y-84840000D03*
%TD*%
D29*
%TO.C,R51*%
X31867500Y-60745997D03*
X34792500Y-60745997D03*
%TD*%
D21*
%TO.C,R125*%
X30250000Y-31915000D03*
X30250000Y-33565000D03*
%TD*%
D22*
%TO.C,R97*%
X124420000Y-35050000D03*
X119520000Y-35050000D03*
%TD*%
D19*
%TO.C,D13*%
X41290000Y-55430000D03*
X41290000Y-57530000D03*
%TD*%
D13*
%TO.C,C41*%
X47110000Y-59565000D03*
X47110000Y-58015000D03*
%TD*%
D35*
%TO.C,J5*%
X27950000Y-34840000D03*
D36*
X27950000Y-37380000D03*
X27950000Y-39920000D03*
X27950000Y-42460000D03*
X27950000Y-45000000D03*
X27950000Y-47540000D03*
X27950000Y-50080000D03*
X27950000Y-52620000D03*
X27950000Y-55160000D03*
X27950000Y-57700000D03*
X27950000Y-60240000D03*
X27950000Y-62780000D03*
X27950000Y-65320000D03*
X27950000Y-67860000D03*
X27950000Y-70400000D03*
X27950000Y-72940000D03*
X27950000Y-75480000D03*
%TD*%
D15*
%TO.C,TP3*%
X77470000Y-88570000D03*
%TD*%
D10*
%TO.C,R20*%
X66070000Y-63220000D03*
X64420000Y-63220000D03*
%TD*%
D22*
%TO.C,R89*%
X124630000Y-83690000D03*
X119730000Y-83690000D03*
%TD*%
D44*
%TO.C,C18*%
X51295000Y-81980000D03*
X49745000Y-81980000D03*
%TD*%
D10*
%TO.C,R69*%
X44785000Y-74070000D03*
X43135000Y-74070000D03*
%TD*%
%TO.C,R18*%
X54365000Y-81980000D03*
X52715000Y-81980000D03*
%TD*%
D29*
%TO.C,R26*%
X31867500Y-22970000D03*
X34792500Y-22970000D03*
%TD*%
D19*
%TO.C,D11*%
X41270000Y-47120000D03*
X41270000Y-49220000D03*
%TD*%
D44*
%TO.C,C53*%
X115525000Y-77795000D03*
X113975000Y-77795000D03*
%TD*%
D22*
%TO.C,R141*%
X116485000Y-26980000D03*
X111585000Y-26980000D03*
%TD*%
D29*
%TO.C,R50*%
X31867500Y-56548664D03*
X34792500Y-56548664D03*
%TD*%
D10*
%TO.C,R73*%
X44725000Y-82650000D03*
X43075000Y-82650000D03*
%TD*%
D15*
%TO.C,TP1*%
X168540000Y-64140000D03*
%TD*%
D13*
%TO.C,C34*%
X47080000Y-34565000D03*
X47080000Y-33015000D03*
%TD*%
D10*
%TO.C,R74*%
X44825000Y-85033525D03*
X43175000Y-85033525D03*
%TD*%
D16*
%TO.C,Q5*%
X37402500Y-34590000D03*
X37402500Y-36490000D03*
X39277500Y-35540000D03*
%TD*%
D10*
%TO.C,R46*%
X44625000Y-44710000D03*
X42975000Y-44710000D03*
%TD*%
D19*
%TO.C,D20*%
X41480000Y-84800000D03*
X41480000Y-86900000D03*
%TD*%
D35*
%TO.C,SW3*%
X60490000Y-30790000D03*
D36*
X57950000Y-30790000D03*
%TD*%
D16*
%TO.C,Q6*%
X37422500Y-38840000D03*
X37422500Y-40740000D03*
X39297500Y-39790000D03*
%TD*%
D21*
%TO.C,R129*%
X30250000Y-42150000D03*
X30250000Y-43800000D03*
%TD*%
D28*
%TO.C,J16*%
X136660000Y-78270000D03*
D24*
X139595000Y-81205000D03*
X133725000Y-81205000D03*
X139595000Y-75335000D03*
X133725000Y-75335000D03*
%TD*%
D23*
%TO.C,D33*%
X59210000Y-47540000D03*
X59210000Y-50840000D03*
%TD*%
D45*
%TO.C,C49*%
X53150000Y-52385000D03*
X53150000Y-49435000D03*
%TD*%
D30*
%TO.C,R23*%
X69740000Y-44515000D03*
X69740000Y-42865000D03*
%TD*%
D10*
%TO.C,R44*%
X44645000Y-40630000D03*
X42995000Y-40630000D03*
%TD*%
D14*
%TO.C,R87*%
X147550000Y-67375000D03*
X149200000Y-67375000D03*
%TD*%
D13*
%TO.C,C37*%
X47040000Y-47125000D03*
X47040000Y-45575000D03*
%TD*%
D15*
%TO.C,TP11*%
X73070000Y-50220000D03*
%TD*%
D46*
%TO.C,Q24*%
X77290000Y-81352500D03*
X79190000Y-81352500D03*
X78240000Y-79477500D03*
%TD*%
D29*
%TO.C,R53*%
X31867500Y-69140663D03*
X34792500Y-69140663D03*
%TD*%
D21*
%TO.C,R25*%
X70150000Y-59795000D03*
X70150000Y-61445000D03*
%TD*%
D39*
%TO.C,D38*%
X53822500Y-43230000D03*
X57122500Y-43230000D03*
%TD*%
D26*
%TO.C,Q19*%
X126025000Y-65215000D03*
D27*
X128305000Y-58915000D03*
D26*
X130585000Y-65215000D03*
%TD*%
D19*
%TO.C,D9*%
X41300000Y-38740000D03*
X41300000Y-40840000D03*
%TD*%
D29*
%TO.C,R28*%
X31867500Y-31364666D03*
X34792500Y-31364666D03*
%TD*%
D23*
%TO.C,D30*%
X66330000Y-47570000D03*
X66330000Y-50870000D03*
%TD*%
D16*
%TO.C,Q8*%
X37392500Y-47203998D03*
X37392500Y-49103998D03*
X39267500Y-48153998D03*
%TD*%
D13*
%TO.C,C33*%
X47080000Y-30325000D03*
X47080000Y-28775000D03*
%TD*%
D14*
%TO.C,R11*%
X161450000Y-67450000D03*
X163100000Y-67450000D03*
%TD*%
D24*
%TO.C,H3*%
X166790000Y-86930000D03*
%TD*%
D21*
%TO.C,R105*%
X64930000Y-38790000D03*
X64930000Y-40440000D03*
%TD*%
D10*
%TO.C,R49*%
X44625000Y-51447410D03*
X42975000Y-51447410D03*
%TD*%
D13*
%TO.C,C22*%
X70280000Y-50810000D03*
X70280000Y-49260000D03*
%TD*%
D19*
%TO.C,D5*%
X41360000Y-21910000D03*
X41360000Y-24010000D03*
%TD*%
D16*
%TO.C,Q3*%
X37482500Y-26217333D03*
X37482500Y-28117333D03*
X39357500Y-27167333D03*
%TD*%
D28*
%TO.C,J17*%
X146830000Y-78260000D03*
D24*
X143895000Y-81195000D03*
X149765000Y-81195000D03*
X149765000Y-75325000D03*
X143895000Y-75325000D03*
%TD*%
D29*
%TO.C,R29*%
X31867500Y-35561999D03*
X34792500Y-35561999D03*
%TD*%
D13*
%TO.C,C35*%
X47080000Y-38815000D03*
X47080000Y-37265000D03*
%TD*%
D23*
%TO.C,D24*%
X72620000Y-55080000D03*
X72620000Y-58380000D03*
%TD*%
D16*
%TO.C,Q17*%
X37592500Y-84950000D03*
X37592500Y-86850000D03*
X39467500Y-85900000D03*
%TD*%
D10*
%TO.C,R120*%
X158590000Y-42435000D03*
X156940000Y-42435000D03*
%TD*%
%TO.C,R114*%
X123140000Y-42385000D03*
X121490000Y-42385000D03*
%TD*%
D21*
%TO.C,R104*%
X63390000Y-38790000D03*
X63390000Y-40440000D03*
%TD*%
D34*
%TO.C,FID3*%
X161890000Y-22390000D03*
%TD*%
D39*
%TO.C,D26*%
X116670000Y-62700000D03*
X113370000Y-62700000D03*
%TD*%
D26*
%TO.C,Q28*%
X130595000Y-44585000D03*
D27*
X128315000Y-50885000D03*
D26*
X126035000Y-44585000D03*
%TD*%
D19*
%TO.C,D7*%
X41280000Y-30320000D03*
X41280000Y-32420000D03*
%TD*%
D34*
%TO.C,FID1*%
X27490000Y-21450000D03*
%TD*%
D39*
%TO.C,D29*%
X69887500Y-32450000D03*
X73187500Y-32450000D03*
%TD*%
D19*
%TO.C,D16*%
X41370000Y-68120000D03*
X41370000Y-70220000D03*
%TD*%
D10*
%TO.C,R78*%
X81835000Y-72510000D03*
X80185000Y-72510000D03*
%TD*%
D13*
%TO.C,C36*%
X47060000Y-42955000D03*
X47060000Y-41405000D03*
%TD*%
D14*
%TO.C,R84*%
X126300000Y-67395000D03*
X127950000Y-67395000D03*
%TD*%
D23*
%TO.C,D34*%
X63090000Y-42750000D03*
X63090000Y-46050000D03*
%TD*%
D21*
%TO.C,R102*%
X61050000Y-44425000D03*
X61050000Y-46075000D03*
%TD*%
D26*
%TO.C,Q21*%
X140185000Y-65185000D03*
D27*
X142465000Y-58885000D03*
D26*
X144745000Y-65185000D03*
%TD*%
D29*
%TO.C,R57*%
X31867500Y-85930000D03*
X34792500Y-85930000D03*
%TD*%
D10*
%TO.C,R40*%
X44610000Y-32190000D03*
X42960000Y-32190000D03*
%TD*%
D39*
%TO.C,D45*%
X53790000Y-40790000D03*
X57090000Y-40790000D03*
%TD*%
D21*
%TO.C,R131*%
X30260000Y-49335000D03*
X30260000Y-50985000D03*
%TD*%
D29*
%TO.C,R55*%
X31867500Y-77535329D03*
X34792500Y-77535329D03*
%TD*%
D47*
%TO.C,Q25*%
X72717500Y-28470000D03*
D48*
X66417500Y-26190000D03*
D47*
X72717500Y-23910000D03*
%TD*%
D35*
%TO.C,J11*%
X52640000Y-26380000D03*
D36*
X52640000Y-28920000D03*
X52640000Y-31460000D03*
%TD*%
D10*
%TO.C,R37*%
X44690000Y-26390302D03*
X43040000Y-26390302D03*
%TD*%
D21*
%TO.C,R127*%
X30230000Y-35225000D03*
X30230000Y-36875000D03*
%TD*%
D10*
%TO.C,R41*%
X44620000Y-34699338D03*
X42970000Y-34699338D03*
%TD*%
D19*
%TO.C,D6*%
X41360000Y-26150000D03*
X41360000Y-28250000D03*
%TD*%
D21*
%TO.C,R137*%
X23800000Y-27970000D03*
X23800000Y-29620000D03*
%TD*%
D29*
%TO.C,R52*%
X31867500Y-64943330D03*
X34792500Y-64943330D03*
%TD*%
D28*
%TO.C,J14*%
X91630000Y-78660000D03*
D24*
X94565000Y-81595000D03*
X88695000Y-75725000D03*
X94565000Y-75725000D03*
X88695000Y-81595000D03*
%TD*%
%TO.C,H6*%
X113910000Y-66970000D03*
%TD*%
D10*
%TO.C,R64*%
X44645000Y-64040000D03*
X42995000Y-64040000D03*
%TD*%
D13*
%TO.C,C45*%
X47250000Y-76435000D03*
X47250000Y-74885000D03*
%TD*%
D16*
%TO.C,Q15*%
X37532500Y-76560000D03*
X37532500Y-78460000D03*
X39407500Y-77510000D03*
%TD*%
D30*
%TO.C,R82*%
X110630000Y-61125000D03*
X110630000Y-59475000D03*
%TD*%
D29*
%TO.C,R31*%
X31867500Y-43956665D03*
X34792500Y-43956665D03*
%TD*%
D39*
%TO.C,D22*%
X50480000Y-69780000D03*
X53780000Y-69780000D03*
%TD*%
D10*
%TO.C,R113*%
X130275000Y-42395000D03*
X128625000Y-42395000D03*
%TD*%
D21*
%TO.C,R101*%
X59490000Y-44430000D03*
X59490000Y-46080000D03*
%TD*%
D26*
%TO.C,Q30*%
X144775000Y-44605000D03*
D27*
X142495000Y-50905000D03*
D26*
X140215000Y-44605000D03*
%TD*%
D10*
%TO.C,R43*%
X44630000Y-38933856D03*
X42980000Y-38933856D03*
%TD*%
D30*
%TO.C,R34*%
X47100000Y-23035000D03*
X47100000Y-21385000D03*
%TD*%
D16*
%TO.C,Q11*%
X37442500Y-59800000D03*
X37442500Y-61700000D03*
X39317500Y-60750000D03*
%TD*%
D35*
%TO.C,J10*%
X75680000Y-58780000D03*
D36*
X75680000Y-61320000D03*
X75680000Y-63860000D03*
%TD*%
D35*
%TO.C,SW2*%
X27710000Y-27835000D03*
D36*
X27710000Y-30375000D03*
%TD*%
D23*
%TO.C,D1*%
X70240000Y-54190000D03*
X70240000Y-57490000D03*
%TD*%
D44*
%TO.C,C54*%
X112500000Y-77805000D03*
X110950000Y-77805000D03*
%TD*%
D19*
%TO.C,D12*%
X41290000Y-51250000D03*
X41290000Y-53350000D03*
%TD*%
D26*
%TO.C,Q22*%
X147275000Y-65195000D03*
D27*
X149555000Y-58895000D03*
D26*
X151835000Y-65195000D03*
%TD*%
M02*
