M48
; DRILL file {KiCad (6.0.6)} date Tue Sep 13 10:52:06 2022
; FORMAT={-:-/ absolute / inch / decimal}
; #@! TF.CreationDate,2022-09-13T10:52:06+05:30
; #@! TF.GenerationSoftware,Kicad,Pcbnew,(6.0.6)
; #@! TF.FileFunction,Plated,1,2,PTH
FMAT,2
INCH
; #@! TA.AperFunction,Plated,PTH,ViaDrill
T1C0.0118
; #@! TA.AperFunction,Plated,PTH,ViaDrill
T2C0.0157
; #@! TA.AperFunction,Plated,PTH,ComponentDrill
T3C0.0197
; #@! TA.AperFunction,Plated,PTH,ComponentDrill
T4C0.0394
; #@! TA.AperFunction,Plated,PTH,ComponentDrill
T5C0.0402
; #@! TA.AperFunction,Plated,PTH,ComponentDrill
T6C0.0728
%
G90
G05
T1
X4.2437Y-2.2071
X4.3902Y-1.8547
X4.4004Y-2.4591
X4.4386Y-2.0205
X4.5254Y-2.3474
X4.6689Y-2.1181
X4.6689Y-2.1555
X4.6693Y-2.0748
X4.6695Y-2.0301
X4.6697Y-1.9882
X4.6701Y-1.9449
X4.6703Y-1.9002
X4.6703Y-2.1919
X4.6726Y-2.4467
X4.673Y-2.4033
X4.6732Y-2.3587
X4.6734Y-2.3167
X4.6738Y-2.2734
X4.674Y-2.2287
X4.7094Y-2.1173
X4.7094Y-2.1547
X4.7098Y-2.074
X4.71Y-2.0293
X4.7102Y-1.9874
X4.7106Y-1.9441
X4.7108Y-1.8994
X4.7108Y-2.1911
X4.7132Y-2.4459
X4.7136Y-2.4026
X4.7138Y-2.3579
X4.714Y-2.3159
X4.7144Y-2.2726
X4.7146Y-2.228
X4.7472Y-2.1181
X4.7472Y-2.1555
X4.7476Y-2.0748
X4.7478Y-2.0301
X4.748Y-1.9882
X4.7484Y-1.9449
X4.7486Y-1.9002
X4.7486Y-2.1919
X4.751Y-2.4467
X4.7514Y-2.4033
X4.7516Y-2.3587
X4.7518Y-2.3167
X4.7522Y-2.2734
X4.7524Y-2.2287
X4.7878Y-2.1173
X4.7878Y-2.1547
X4.7882Y-2.074
X4.7884Y-2.0293
X4.7886Y-1.9874
X4.789Y-1.9441
X4.7892Y-1.8994
X4.7892Y-2.1911
X4.7915Y-2.4459
X4.7919Y-2.4026
X4.7921Y-2.3579
X4.7923Y-2.3159
X4.7927Y-2.2726
X4.7929Y-2.228
X4.8285Y-2.1171
X4.8285Y-2.1545
X4.8289Y-2.0738
X4.8291Y-2.0291
X4.8293Y-1.9872
X4.8297Y-1.9439
X4.8299Y-1.8992
X4.8299Y-2.1909
X4.8323Y-2.4457
X4.8327Y-2.4024
X4.8329Y-2.3577
X4.8331Y-2.3157
X4.8335Y-2.2724
X4.8337Y-2.2278
X4.8691Y-2.1163
X4.8691Y-2.1537
X4.8695Y-2.073
X4.8697Y-2.0283
X4.8699Y-1.9864
X4.8703Y-1.9431
X4.8705Y-1.8984
X4.8705Y-2.1902
X4.8728Y-2.4449
X4.8732Y-2.4016
X4.8734Y-2.3569
X4.8736Y-2.315
X4.874Y-2.2717
X4.8742Y-2.227
X4.9069Y-2.1171
X4.9069Y-2.1545
X4.9073Y-2.0738
X4.9075Y-2.0291
X4.9077Y-1.9872
X4.9081Y-1.9439
X4.9083Y-1.8992
X4.9083Y-2.1909
X4.9106Y-2.4457
X4.911Y-2.4024
X4.9112Y-2.3577
X4.9114Y-2.3157
X4.9118Y-2.2724
X4.912Y-2.2278
X4.9474Y-2.1163
X4.9474Y-2.1537
X4.9478Y-2.073
X4.948Y-2.0283
X4.9482Y-1.9864
X4.9486Y-1.9431
X4.9488Y-1.8984
X4.9488Y-2.1902
X4.9512Y-2.4449
X4.9516Y-2.4016
X4.9518Y-2.3569
X4.952Y-2.315
X4.9524Y-2.2717
X4.9526Y-2.227
X4.987Y-2.1169
X4.987Y-2.1543
X4.9874Y-2.0736
X4.9876Y-2.0289
X4.9878Y-1.987
X4.9882Y-1.9437
X4.9884Y-1.899
X4.9884Y-2.1907
X4.9907Y-2.4455
X4.9911Y-2.4022
X4.9913Y-2.3575
X4.9915Y-2.3156
X4.9919Y-2.2722
X4.9921Y-2.2276
X5.0276Y-2.1161
X5.0276Y-2.1535
X5.028Y-2.0728
X5.0281Y-2.0281
X5.0283Y-1.9862
X5.0287Y-1.9429
X5.0289Y-1.8982
X5.0289Y-2.19
X5.0313Y-2.4447
X5.0317Y-2.4014
X5.0319Y-2.3567
X5.0321Y-2.3148
X5.0325Y-2.2715
X5.0327Y-2.2268
X5.0654Y-2.1169
X5.0654Y-2.1543
X5.0657Y-2.0736
X5.0659Y-2.0289
X5.0661Y-1.987
X5.0665Y-1.9437
X5.0667Y-1.899
X5.0667Y-2.1907
X5.0691Y-2.4455
X5.0695Y-2.4022
X5.0697Y-2.3575
X5.0699Y-2.3156
X5.0703Y-2.2722
X5.0705Y-2.2276
X5.1059Y-2.1161
X5.1059Y-2.1535
X5.1063Y-2.0728
X5.1065Y-2.0281
X5.1067Y-1.9862
X5.1071Y-1.9429
X5.1073Y-1.8982
X5.1073Y-2.19
X5.1096Y-2.4447
X5.11Y-2.4014
X5.1102Y-2.3567
X5.1104Y-2.3148
X5.1108Y-2.2715
X5.111Y-2.2268
X5.1467Y-2.1159
X5.1467Y-2.1533
X5.147Y-2.0726
X5.1472Y-2.028
X5.1474Y-1.986
X5.1478Y-1.9427
X5.148Y-1.898
X5.148Y-2.1898
X5.1504Y-2.4445
X5.1508Y-2.4012
X5.151Y-2.3565
X5.1512Y-2.3146
X5.1516Y-2.2713
X5.1518Y-2.2266
X5.1872Y-2.1152
X5.1872Y-2.1526
X5.1876Y-2.0719
X5.1878Y-2.0272
X5.188Y-1.9852
X5.1884Y-1.9419
X5.1886Y-1.8972
X5.1886Y-2.189
X5.1909Y-2.4437
X5.1913Y-2.4004
X5.1915Y-2.3557
X5.1917Y-2.3138
X5.1921Y-2.2705
X5.1923Y-2.2258
X5.225Y-2.1159
X5.225Y-2.1533
X5.2254Y-2.0726
X5.2256Y-2.028
X5.2258Y-1.986
X5.2262Y-1.9427
X5.2264Y-1.898
X5.2264Y-2.1898
X5.2287Y-2.4445
X5.2291Y-2.4012
X5.2293Y-2.3565
X5.2295Y-2.3146
X5.2299Y-2.2713
X5.2301Y-2.2266
X5.2656Y-2.1152
X5.2656Y-2.1526
X5.2659Y-2.0719
X5.2661Y-2.0272
X5.2663Y-1.9852
X5.2667Y-1.9419
X5.2669Y-1.8972
X5.2669Y-2.189
X5.2693Y-2.4437
X5.2697Y-2.4004
X5.2699Y-2.3557
X5.2701Y-2.3138
X5.2705Y-2.2705
X5.2707Y-2.2258
X5.302Y-2.1161
X5.302Y-2.1535
X5.3024Y-2.0728
X5.3026Y-2.0281
X5.3028Y-1.9862
X5.3031Y-1.9429
X5.3033Y-1.8982
X5.3033Y-2.19
X5.3057Y-2.4447
X5.3061Y-2.4014
X5.3063Y-2.3567
X5.3065Y-2.3148
X5.3069Y-2.2715
X5.3071Y-2.2268
X5.3425Y-2.1154
X5.3425Y-2.1528
X5.3429Y-2.072
X5.3431Y-2.0274
X5.3433Y-1.9854
X5.3437Y-1.9421
X5.3439Y-1.8974
X5.3439Y-2.1892
X5.3463Y-2.4439
X5.3467Y-2.4006
X5.3469Y-2.3559
X5.347Y-2.314
X5.3474Y-2.2707
X5.3476Y-2.226
X5.3803Y-2.1161
X5.3803Y-2.1535
X5.3807Y-2.0728
X5.3809Y-2.0281
X5.3811Y-1.9862
X5.3815Y-1.9429
X5.3817Y-1.8982
X5.3817Y-2.19
X5.3841Y-2.4447
X5.3844Y-2.4014
X5.3846Y-2.3567
X5.3848Y-2.3148
X5.3852Y-2.2715
X5.3854Y-2.2268
X5.4209Y-2.1154
X5.4209Y-2.1528
X5.4213Y-2.072
X5.4215Y-2.0274
X5.4217Y-1.9854
X5.422Y-1.9421
X5.4222Y-1.8974
X5.4222Y-2.1892
X5.4246Y-2.4439
X5.425Y-2.4006
X5.4252Y-2.3559
X5.4254Y-2.314
X5.4258Y-2.2707
X5.426Y-2.226
X5.4616Y-2.1152
X5.4616Y-2.1526
X5.462Y-2.0719
X5.4622Y-2.0272
X5.4624Y-1.9852
X5.4628Y-1.9419
X5.463Y-1.8972
X5.463Y-2.189
X5.4654Y-2.4437
X5.4657Y-2.4004
X5.4659Y-2.3557
X5.4661Y-2.3138
X5.4665Y-2.2705
X5.4667Y-2.2258
X5.5022Y-2.1144
X5.5022Y-2.1518
X5.5026Y-2.0711
X5.5028Y-2.0264
X5.503Y-1.9844
X5.5033Y-1.9411
X5.5035Y-1.8965
X5.5035Y-2.1882
X5.5059Y-2.4429
X5.5063Y-2.3996
X5.5065Y-2.3549
X5.5067Y-2.313
X5.5071Y-2.2697
X5.5073Y-2.225
X5.54Y-2.1152
X5.54Y-2.1526
X5.5404Y-2.0719
X5.5406Y-2.0272
X5.5407Y-1.9852
X5.5411Y-1.9419
X5.5413Y-1.8972
X5.5413Y-2.189
X5.5437Y-2.4437
X5.5441Y-2.4004
X5.5443Y-2.3557
X5.5445Y-2.3138
X5.5449Y-2.2705
X5.5451Y-2.2258
X5.5805Y-2.1144
X5.5805Y-2.1518
X5.5809Y-2.0711
X5.5811Y-2.0264
X5.5813Y-1.9844
X5.5817Y-1.9411
X5.5819Y-1.8965
X5.5819Y-2.1882
X5.5843Y-2.4429
X5.5846Y-2.3996
X5.5848Y-2.3549
X5.585Y-2.313
X5.5854Y-2.2697
X5.5856Y-2.225
X5.6201Y-2.115
X5.6201Y-2.1524
X5.6205Y-2.0717
X5.6207Y-2.027
X5.6209Y-1.985
X5.6213Y-1.9417
X5.6215Y-1.897
X5.6215Y-2.1888
X5.6238Y-2.4435
X5.6242Y-2.4002
X5.6244Y-2.3555
X5.6246Y-2.3136
X5.625Y-2.2703
X5.6252Y-2.2256
X5.6606Y-2.1142
X5.6606Y-2.1516
X5.661Y-2.0709
X5.6612Y-2.0262
X5.6614Y-1.9843
X5.6618Y-1.9409
X5.662Y-1.8963
X5.662Y-2.188
X5.6644Y-2.4427
X5.6648Y-2.3994
X5.665Y-2.3547
X5.6652Y-2.3128
X5.6656Y-2.2695
X5.6657Y-2.2248
X5.6984Y-2.115
X5.6984Y-2.1524
X5.6988Y-2.0717
X5.699Y-2.027
X5.6992Y-1.985
X5.6996Y-1.9417
X5.6998Y-1.897
X5.6998Y-2.1888
X5.7022Y-2.4435
X5.7026Y-2.4002
X5.7028Y-2.3555
X5.703Y-2.3136
X5.7033Y-2.2703
X5.7035Y-2.2256
X5.739Y-2.1142
X5.739Y-2.1516
X5.7394Y-2.0709
X5.7396Y-2.0262
X5.7398Y-1.9843
X5.7402Y-1.9409
X5.7404Y-1.8963
X5.7404Y-2.188
X5.7427Y-2.4427
X5.7431Y-2.3994
X5.7433Y-2.3547
X5.7435Y-2.3128
X5.7439Y-2.2695
X5.7441Y-2.2248
X5.7797Y-2.114
X5.7797Y-2.1514
X5.7801Y-2.0707
X5.7803Y-2.026
X5.7805Y-1.9841
X5.7809Y-1.9407
X5.7811Y-1.8961
X5.7811Y-2.1878
X5.7835Y-2.4425
X5.7839Y-2.3992
X5.7841Y-2.3545
X5.7843Y-2.3126
X5.7846Y-2.2693
X5.7848Y-2.2246
X5.8203Y-2.1132
X5.8203Y-2.1506
X5.8207Y-2.0699
X5.8209Y-2.0252
X5.8211Y-1.9833
X5.8215Y-1.94
X5.8217Y-1.8953
X5.8217Y-2.187
X5.824Y-2.4417
X5.8244Y-2.3984
X5.8246Y-2.3537
X5.8248Y-2.3118
X5.8252Y-2.2685
X5.8254Y-2.2238
X5.8581Y-2.114
X5.8581Y-2.1514
X5.8585Y-2.0707
X5.8587Y-2.026
X5.8589Y-1.9841
X5.8593Y-1.9407
X5.8594Y-1.8961
X5.8594Y-2.1878
X5.8618Y-2.4425
X5.8622Y-2.3992
X5.8624Y-2.3545
X5.8626Y-2.3126
X5.863Y-2.2693
X5.8632Y-2.2246
X5.8986Y-2.1132
X5.8986Y-2.1506
X5.899Y-2.0699
X5.8992Y-2.0252
X5.8994Y-1.9833
X5.8998Y-1.94
X5.9Y-1.8953
X5.9Y-2.187
X5.9024Y-2.4417
X5.9028Y-2.3984
X5.903Y-2.3537
X5.9031Y-2.3118
X5.9035Y-2.2685
X5.9037Y-2.2238
X5.9362Y-2.115
X5.9362Y-2.1524
X5.9366Y-2.0717
X5.9368Y-2.027
X5.937Y-1.985
X5.9374Y-1.9417
X5.9376Y-1.897
X5.9376Y-2.1888
X5.94Y-2.4435
X5.9404Y-2.4002
X5.9406Y-2.3555
X5.9407Y-2.3136
X5.9411Y-2.2703
X5.9413Y-2.2256
X5.9768Y-2.1142
X5.9768Y-2.1516
X5.9772Y-2.0709
X5.9774Y-2.0262
X5.9776Y-1.9843
X5.978Y-1.9409
X5.9781Y-1.8963
X5.9781Y-2.188
X5.9805Y-2.4427
X5.9809Y-2.3994
X5.9811Y-2.3547
X5.9813Y-2.3128
X5.9817Y-2.2695
X5.9819Y-2.2248
X6.0146Y-2.115
X6.0146Y-2.1524
X6.015Y-2.0717
X6.0152Y-2.027
X6.0154Y-1.985
X6.0157Y-1.9417
X6.0159Y-1.897
X6.0159Y-2.1888
X6.0183Y-2.4435
X6.0187Y-2.4002
X6.0189Y-2.3555
X6.0191Y-2.3136
X6.0195Y-2.2703
X6.0197Y-2.2256
X6.0551Y-2.1142
X6.0551Y-2.1516
X6.0555Y-2.0709
X6.0557Y-2.0262
X6.0559Y-1.9843
X6.0563Y-1.9409
X6.0565Y-1.8963
X6.0565Y-2.188
X6.0589Y-2.4427
X6.0593Y-2.3994
X6.0594Y-2.3547
X6.0596Y-2.3128
X6.06Y-2.2695
X6.0602Y-2.2248
X6.0959Y-2.114
X6.0959Y-2.1514
X6.0963Y-2.0707
X6.0965Y-2.026
X6.0967Y-1.9841
X6.097Y-1.9407
X6.0972Y-1.8961
X6.0972Y-2.1878
X6.0996Y-2.4425
X6.1Y-2.3992
X6.1002Y-2.3545
X6.1004Y-2.3126
X6.1008Y-2.2693
X6.101Y-2.2246
X6.1364Y-2.1132
X6.1364Y-2.1506
X6.1368Y-2.0699
X6.137Y-2.0252
X6.1372Y-1.9833
X6.1376Y-1.94
X6.1378Y-1.8953
X6.1378Y-2.187
X6.1402Y-2.4417
X6.1406Y-2.3984
X6.1407Y-2.3537
X6.1409Y-2.3118
X6.1413Y-2.2685
X6.1415Y-2.2238
X6.1742Y-2.114
X6.1742Y-2.1514
X6.1746Y-2.0707
X6.1748Y-2.026
X6.175Y-1.9841
X6.1754Y-1.9407
X6.1756Y-1.8961
X6.1756Y-2.1878
X6.178Y-2.4425
X6.1783Y-2.3992
X6.1785Y-2.3545
X6.1787Y-2.3126
X6.1791Y-2.2693
X6.1793Y-2.2246
X6.2148Y-2.1132
X6.2148Y-2.1506
X6.2152Y-2.0699
X6.2154Y-2.0252
X6.2156Y-1.9833
X6.2159Y-1.94
X6.2161Y-1.8953
X6.2161Y-2.187
X6.2185Y-2.4417
X6.2189Y-2.3984
X6.2191Y-2.3537
X6.2193Y-2.3118
X6.2197Y-2.2685
X6.2199Y-2.2238
X6.2543Y-2.1138
X6.2543Y-2.1512
X6.2547Y-2.0705
X6.2549Y-2.0258
X6.2551Y-1.9839
X6.2555Y-1.9406
X6.2557Y-1.8959
X6.2557Y-2.1876
X6.2581Y-2.4423
X6.2585Y-2.399
X6.2587Y-2.3543
X6.2589Y-2.3124
X6.2593Y-2.2691
X6.2594Y-2.2244
X6.2949Y-2.113
X6.2949Y-2.1504
X6.2953Y-2.0697
X6.2955Y-2.025
X6.2957Y-1.9831
X6.2961Y-1.9398
X6.2963Y-1.8951
X6.2963Y-2.1868
X6.2986Y-2.4415
X6.299Y-2.3982
X6.2992Y-2.3535
X6.2994Y-2.3116
X6.2998Y-2.2683
X6.3Y-2.2236
X6.3327Y-2.1138
X6.3327Y-2.1512
X6.3331Y-2.0705
X6.3333Y-2.0258
X6.3335Y-1.9839
X6.3339Y-1.9406
X6.3341Y-1.8959
X6.3341Y-2.1876
X6.3364Y-2.4423
X6.3368Y-2.399
X6.337Y-2.3543
X6.3372Y-2.3124
X6.3376Y-2.2691
X6.3378Y-2.2244
X6.3732Y-2.113
X6.3732Y-2.1504
X6.3736Y-2.0697
X6.3738Y-2.025
X6.374Y-1.9831
X6.3744Y-1.9398
X6.3746Y-1.8951
X6.3746Y-2.1868
X6.377Y-2.4415
X6.3774Y-2.3982
X6.3776Y-2.3535
X6.3778Y-2.3116
X6.3781Y-2.2683
X6.3783Y-2.2236
X6.414Y-2.1128
X6.414Y-2.1502
X6.4144Y-2.0695
X6.4146Y-2.0248
X6.4148Y-1.9829
X6.4152Y-1.9396
X6.4154Y-1.8949
X6.4154Y-2.1866
X6.4177Y-2.4413
X6.4181Y-2.398
X6.4183Y-2.3533
X6.4185Y-2.3114
X6.4189Y-2.2681
X6.4191Y-2.2234
X6.4545Y-2.112
X6.4545Y-2.1494
X6.4549Y-2.0687
X6.4551Y-2.024
X6.4553Y-1.9821
X6.4557Y-1.9388
X6.4559Y-1.8941
X6.4559Y-2.1858
X6.4583Y-2.4406
X6.4587Y-2.3972
X6.4589Y-2.3526
X6.4591Y-2.3106
X6.4594Y-2.2673
X6.4596Y-2.2226
X6.4923Y-2.1128
X6.4923Y-2.1502
X6.4927Y-2.0695
X6.4929Y-2.0248
X6.4931Y-1.9829
X6.4935Y-1.9396
X6.4937Y-1.8949
X6.4937Y-2.1866
X6.4961Y-2.4413
X6.4965Y-2.398
X6.4967Y-2.3533
X6.4969Y-2.3114
X6.4972Y-2.2681
X6.4974Y-2.2234
X6.5329Y-2.112
X6.5329Y-2.1494
X6.5333Y-2.0687
X6.5335Y-2.024
X6.5337Y-1.9821
X6.5341Y-1.9388
X6.5343Y-1.8941
X6.5343Y-2.1858
X6.5366Y-2.4406
X6.537Y-2.3972
X6.5372Y-2.3526
X6.5374Y-2.3106
X6.5378Y-2.2673
X6.538Y-2.2226
X6.5693Y-2.1138
X6.5693Y-2.1512
X6.5697Y-2.0705
X6.5699Y-2.0258
X6.5701Y-1.9839
X6.5705Y-1.9406
X6.5707Y-1.8959
X6.5707Y-2.1876
X6.573Y-2.4423
X6.5734Y-2.399
X6.5736Y-2.3543
X6.5738Y-2.3124
X6.5742Y-2.2691
X6.5744Y-2.2244
X6.6098Y-2.113
X6.6102Y-2.0697
X6.6104Y-2.025
X6.6106Y-1.9831
X6.611Y-1.9398
X6.611Y-2.1528
X6.6112Y-1.8951
X6.6122Y-2.1882
X6.6136Y-2.4415
X6.614Y-2.3982
X6.6142Y-2.3535
X6.6144Y-2.3116
X6.6148Y-2.2683
X6.615Y-2.2236
T2
X1.3067Y-1.9272
X1.3071Y-1.598
X1.3071Y-1.7626
X1.3083Y-2.7531
X1.3087Y-2.5878
X1.3094Y-1.102
X1.3094Y-1.2673
X1.3106Y-1.4319
X1.3106Y-2.9201
X1.3114Y-2.2587
X1.3114Y-3.25
X1.3118Y-0.9362
X1.3118Y-2.0929
X1.3122Y-3.0846
X1.3122Y-3.3508
X1.3122Y-3.4154
X1.3126Y-2.8563
X1.3126Y-0.872
X1.313Y-3.0217
X1.3134Y-2.4232
X1.3134Y-3.1862
X1.3136Y-2.0313
X1.3136Y-2.527
X1.3142Y-2.1957
X1.3144Y-1.8648
X1.3144Y-2.3604
X1.3146Y-1.5343
X1.3146Y-2.6906
X1.3152Y-1.7002
X1.3154Y-1.2035
X1.3156Y-1.038
X1.3161Y-1.3681
X1.6634Y-3.4992
X1.6772Y-3.4591
X1.8559Y-3.5098
X1.863Y-3.3665
X1.8957Y-3.3319
X1.898Y-3.4787
X2.0702Y-2.1106
X2.0718Y-1.9039
X2.0957Y-2.1581
X2.1047Y-1.9039
X2.1327Y-1.8591
X2.1382Y-1.8992
X2.1547Y-2.7157
X2.1579Y-2.7764
X2.1837Y-2.1343
X2.2069Y-2.6889
X2.2083Y-2.3933
X2.2094Y-2.3283
X2.2098Y-2.4492
X2.2217Y-1.9909
X2.2469Y-1.5705
X2.2492Y-1.7339
X2.25Y-1.6591
X2.2516Y-2.5087
X2.2717Y-2.45
X2.2728Y-2.3945
X2.2823Y-2.3264
X2.31Y-3.14
X2.3195Y-1.972
X2.3453Y-2.4543
X2.3479Y-1.9539
X2.3484Y-2.4008
X2.3539Y-2.3299
X2.3779Y-2.8291
X2.39Y-3.18
X2.4049Y-1.9685
X2.407Y-2.6929
X2.433Y-2.8126
X2.4423Y-1.9543
X2.4677Y-2.8043
X2.47Y-3.15
X2.4799Y-2.863
X2.4994Y-1.9689
X2.5181Y-2.9059
X2.5181Y-3.1181
X2.5307Y-2.3599
X2.5325Y-1.9496
X2.5642Y-1.8055
X2.5681Y-1.7145
X2.5697Y-2.3795
X2.5741Y-2.8372
X2.5778Y-3.1555
X2.5783Y-2.6549
X2.5895Y-1.9728
X2.5917Y-2.4386
X2.6184Y-2.1776
X2.6272Y-1.9535
X2.6291Y-2.3575
X2.6475Y-3.1736
X2.6475Y-3.2129
X2.6574Y-2.1365
X2.6684Y-2.5214
X2.6969Y-2.3594
X2.7123Y-2.5653
X2.7327Y-2.3543
X2.7571Y-2.565
X2.7665Y-2.0291
X2.7902Y-2.5374
X2.7942Y-2.3581
X2.798Y-1.978
X2.878Y-1.4008
X2.8882Y-1.4571
X2.8882Y-1.6819
X2.9166Y-1.9012
X2.9273Y-1.678
X2.939Y-1.4284
X2.9678Y-1.6807
X2.9988Y-1.9815
X3.0Y-1.37
X3.0041Y-1.6959
X3.0324Y-2.2076
X3.07Y-2.3
X3.07Y-2.83
X3.1Y-2.26
X3.15Y-2.41
X3.1512Y-2.81
X3.1512Y-2.9
X3.1531Y-2.1449
X3.2248Y-1.8043
X3.2248Y-1.8453
X3.2252Y-2.6433
X3.2256Y-1.8831
X3.2256Y-1.924
X3.2256Y-2.6839
X3.2268Y-2.5634
X3.2272Y-2.6039
X3.265Y-1.8039
X3.265Y-1.8449
X3.2657Y-1.8827
X3.2657Y-1.9236
X3.2657Y-2.6429
X3.2657Y-2.6831
X3.2673Y-2.563
X3.2673Y-2.6031
X3.3047Y-1.8039
X3.3047Y-1.8449
X3.3055Y-1.8827
X3.3055Y-1.9236
X3.3063Y-2.6425
X3.3067Y-2.6831
X3.3079Y-2.5626
X3.3083Y-2.6031
X3.3449Y-1.8035
X3.3449Y-1.8445
X3.3457Y-1.8823
X3.3457Y-1.9232
X3.3469Y-2.6421
X3.3469Y-2.6823
X3.3484Y-2.5622
X3.3484Y-2.6024
X3.3835Y-1.8035
X3.3835Y-1.8445
X3.3843Y-1.8823
X3.3843Y-1.9232
X3.3858Y-2.6425
X3.3862Y-2.6831
X3.3874Y-2.5626
X3.3878Y-2.6031
X3.4236Y-1.8031
X3.4236Y-1.8441
X3.4244Y-1.8819
X3.4244Y-1.9228
X3.4264Y-2.6421
X3.4264Y-2.6823
X3.428Y-2.5622
X3.428Y-2.6024
X3.4634Y-1.8031
X3.4634Y-1.8441
X3.4642Y-1.8819
X3.4642Y-1.9228
X3.4669Y-2.6417
X3.4673Y-2.6823
X3.4685Y-2.5618
X3.4689Y-2.6024
X3.5035Y-1.8028
X3.5035Y-1.8437
X3.5043Y-1.8815
X3.5043Y-1.9224
X3.5075Y-2.6413
X3.5075Y-2.6815
X3.5091Y-2.5614
X3.5091Y-2.6016
X3.5425Y-1.8028
X3.5425Y-1.8437
X3.5433Y-1.8815
X3.5433Y-1.9224
X3.5472Y-2.6421
X3.5476Y-2.6827
X3.5488Y-2.5622
X3.5492Y-2.6028
X3.5827Y-1.8024
X3.5827Y-1.8433
X3.5835Y-1.8811
X3.5835Y-1.922
X3.5878Y-2.6417
X3.5878Y-2.6819
X3.5894Y-2.5618
X3.5894Y-2.602
X3.6224Y-1.8024
X3.6224Y-1.8433
X3.6232Y-1.8811
X3.6232Y-1.922
X3.6283Y-2.6413
X3.6287Y-2.6819
X3.6299Y-2.5614
X3.6303Y-2.602
X3.6626Y-1.802
X3.6626Y-1.8429
X3.6634Y-1.8807
X3.6634Y-1.9217
X3.6689Y-2.6409
X3.6689Y-2.6811
X3.6705Y-2.561
X3.6705Y-2.6012
X3.7012Y-1.802
X3.7012Y-1.8429
X3.702Y-1.8807
X3.702Y-1.9217
X3.7079Y-2.6413
X3.7083Y-2.6819
X3.7094Y-2.5614
X3.7098Y-2.602
X3.7413Y-1.8016
X3.7413Y-1.8425
X3.7421Y-1.8803
X3.7421Y-1.9213
X3.7484Y-2.6409
X3.7484Y-2.6811
X3.75Y-2.561
X3.75Y-2.6012
X3.7811Y-1.8016
X3.7811Y-1.8425
X3.7819Y-1.8803
X3.7819Y-1.9213
X3.789Y-2.6406
X3.7894Y-2.6811
X3.7906Y-2.5606
X3.7909Y-2.6012
X3.8213Y-1.8012
X3.8213Y-1.8421
X3.822Y-1.8799
X3.822Y-1.9209
X3.8295Y-2.6402
X3.8295Y-2.6803
X3.8311Y-2.5602
X3.8311Y-2.6004
X3.8594Y-1.8008
X3.8594Y-1.8417
X3.8602Y-1.8795
X3.8602Y-1.9205
X3.876Y-2.6421
X3.8764Y-2.6827
X3.8776Y-2.5622
X3.878Y-2.6028
X3.8996Y-1.8004
X3.8996Y-1.8413
X3.9004Y-1.8791
X3.9004Y-1.9201
X3.9165Y-2.6417
X3.9165Y-2.6819
X3.9181Y-2.5618
X3.9181Y-2.602
X3.9394Y-1.8004
X3.9394Y-1.8413
X3.9402Y-1.8791
X3.9402Y-1.9201
X3.9571Y-2.6413
X3.9575Y-2.6819
X3.9587Y-2.5614
X3.9591Y-2.602
X3.9795Y-1.8
X3.9795Y-1.8409
X3.9803Y-1.8787
X3.9803Y-1.9197
X3.9976Y-2.6409
X3.9976Y-2.6811
X3.9992Y-2.561
X3.9992Y-2.6012
X4.0177Y-1.7996
X4.0177Y-1.8406
X4.0185Y-1.8783
X4.0185Y-1.9193
X4.0374Y-2.6417
X4.0378Y-2.6823
X4.039Y-2.5618
X4.0394Y-2.6024
X4.0579Y-1.7992
X4.0579Y-1.8402
X4.0587Y-1.878
X4.0587Y-1.9189
X4.078Y-2.6413
X4.078Y-2.6815
X4.0795Y-2.5614
X4.0795Y-2.6016
X4.0976Y-1.7992
X4.0976Y-1.8402
X4.0984Y-1.878
X4.0984Y-1.9189
X4.1185Y-2.6409
X4.1189Y-2.6815
X4.1201Y-2.561
X4.1205Y-2.6016
X4.1378Y-1.7988
X4.1378Y-1.8398
X4.1386Y-1.8776
X4.1386Y-1.9185
X4.1591Y-2.6406
X4.1591Y-2.6807
X4.1606Y-2.5606
X4.1606Y-2.6008
X4.1736Y-1.7988
X4.1736Y-1.8398
X4.1744Y-1.8776
X4.1744Y-1.9185
X4.2Y-2.6421
X4.2Y-2.6823
X4.2016Y-2.5622
X4.2016Y-2.6024
X4.211Y-1.7984
X4.211Y-1.8394
X4.2118Y-1.8772
X4.2118Y-1.9181
X4.2154Y-1.4772
X4.2157Y-1.4016
X4.2161Y-1.3535
X4.2161Y-1.5366
X4.2787Y-2.7917
X4.2787Y-2.9039
X4.2787Y-2.9583
X4.2795Y-2.8551
X4.3528Y-2.1717
X4.5004Y-1.2465
X4.5035Y-1.1972
X4.5055Y-0.8689
X4.5059Y-1.085
X4.5067Y-0.9244
X4.5067Y-1.0346
X4.561Y-2.2772
X4.6268Y-2.7953
X4.6268Y-2.852
X4.6268Y-2.902
X4.6268Y-2.9559
X4.6295Y-1.3531
X4.6303Y-1.4028
X4.6327Y-1.4768
X4.637Y-1.5496
X4.6496Y-1.6177
X4.65Y-1.761
X4.6504Y-1.6539
X4.6504Y-1.6894
X4.6504Y-1.7965
X4.6508Y-1.7248
X4.6839Y-1.6173
X4.6846Y-1.6535
X4.6846Y-1.689
X4.7185Y-1.6181
X4.7189Y-1.7614
X4.7193Y-1.6543
X4.7193Y-1.6898
X4.7193Y-1.7969
X4.7197Y-1.7252
X4.8028Y-1.2055
X4.8043Y-1.2472
X4.8051Y-1.0453
X4.8051Y-1.089
X4.8067Y-0.9307
X4.8075Y-0.8815
X4.8102Y-3.435
X4.8106Y-3.1138
X4.8106Y-3.1602
X4.8126Y-1.3591
X4.8126Y-1.4051
X4.8126Y-3.2752
X4.8134Y-3.4795
X4.8138Y-2.9512
X4.8138Y-2.9976
X4.8138Y-3.3205
X4.8299Y-2.5153
X4.8299Y-2.552
X4.8299Y-2.5878
X4.8299Y-2.6244
X4.8315Y-2.661
X4.8315Y-2.6976
X4.8315Y-2.7334
X4.8677Y-2.626
X4.8693Y-2.6626
X4.8693Y-2.6992
X4.8693Y-2.735
X4.9063Y-2.5516
X4.9063Y-2.5874
X4.9063Y-2.624
X4.9067Y-2.5153
X4.9079Y-2.6606
X4.9079Y-2.6972
X4.9079Y-2.7331
X4.9252Y-1.6142
X4.9256Y-1.7575
X4.926Y-1.6504
X4.926Y-1.6858
X4.926Y-1.7929
X4.9264Y-1.7213
X4.9594Y-1.6138
X4.9602Y-1.65
X4.9602Y-1.6854
X4.9941Y-1.6146
X4.9945Y-1.7579
X4.9949Y-1.6508
X4.9949Y-1.6862
X4.9949Y-1.7933
X4.9953Y-1.7217
X5.1004Y-2.5212
X5.1004Y-2.5579
X5.1004Y-2.5937
X5.1004Y-2.6303
X5.102Y-2.6669
X5.102Y-2.7035
X5.102Y-2.7394
X5.1382Y-2.6319
X5.1398Y-2.6685
X5.1398Y-2.7051
X5.1398Y-2.7409
X5.1768Y-2.5208
X5.1768Y-2.5575
X5.1768Y-2.5933
X5.1768Y-2.6299
X5.1783Y-2.6665
X5.1783Y-2.7031
X5.1783Y-2.739
X5.2051Y-1.8114
X5.2063Y-1.6339
X5.2067Y-1.598
X5.2067Y-1.7772
X5.2071Y-1.6701
X5.2071Y-1.7055
X5.2075Y-1.7409
X5.2406Y-1.6335
X5.2409Y-1.5976
X5.2413Y-1.6697
X5.2413Y-1.7051
X5.2752Y-1.6343
X5.2756Y-1.5984
X5.2756Y-1.7776
X5.276Y-1.6705
X5.276Y-1.7059
X5.2764Y-1.7413
X5.2772Y-1.8114
X5.3791Y-2.5287
X5.3791Y-2.5654
X5.3791Y-2.6012
X5.3791Y-2.6378
X5.3807Y-2.6744
X5.3807Y-2.711
X5.3807Y-2.7468
X5.4169Y-2.6394
X5.4185Y-2.676
X5.4185Y-2.7126
X5.4185Y-2.7484
X5.4555Y-2.5283
X5.4555Y-2.565
X5.4555Y-2.6008
X5.4555Y-2.6374
X5.4571Y-2.674
X5.4571Y-2.7106
X5.4571Y-2.7464
X5.4843Y-1.8059
X5.4854Y-1.6283
X5.4858Y-1.5925
X5.4858Y-1.7717
X5.4862Y-1.6646
X5.4862Y-1.7
X5.4866Y-1.7354
X5.5197Y-1.628
X5.5201Y-1.5921
X5.5205Y-1.6642
X5.5205Y-1.6996
X5.5543Y-1.6287
X5.5547Y-1.5929
X5.5547Y-1.772
X5.5551Y-1.665
X5.5551Y-1.7004
X5.5555Y-1.7358
X5.5563Y-1.8059
X5.6598Y-2.5275
X5.6598Y-2.5642
X5.6598Y-2.6
X5.6598Y-2.6366
X5.6614Y-2.6732
X5.6614Y-2.7098
X5.6614Y-2.7456
X5.6976Y-2.6382
X5.6992Y-2.6748
X5.6992Y-2.7114
X5.6992Y-2.7472
X5.7362Y-2.5271
X5.7362Y-2.5638
X5.7362Y-2.5996
X5.7362Y-2.6362
X5.7378Y-2.6728
X5.7378Y-2.7094
X5.7378Y-2.7453
X5.7622Y-1.8071
X5.7634Y-1.6295
X5.7638Y-1.5937
X5.7638Y-1.7728
X5.7642Y-1.6657
X5.7642Y-1.7012
X5.7646Y-1.7366
X5.7976Y-1.6291
X5.798Y-1.5933
X5.7984Y-1.6654
X5.7984Y-1.7008
X5.8323Y-1.6299
X5.8327Y-1.5941
X5.8327Y-1.7732
X5.8331Y-1.6661
X5.8331Y-1.7016
X5.8335Y-1.737
X5.8343Y-1.8071
X5.937Y-2.5252
X5.937Y-2.5618
X5.937Y-2.5976
X5.937Y-2.6343
X5.9386Y-2.6708
X5.9386Y-2.7075
X5.9386Y-2.7433
X5.9748Y-2.6358
X5.9764Y-2.6724
X5.9764Y-2.7091
X5.9764Y-2.7449
X6.0134Y-2.5248
X6.0134Y-2.5614
X6.0134Y-2.5972
X6.0134Y-2.6339
X6.015Y-2.6705
X6.015Y-2.7071
X6.015Y-2.7429
X6.0398Y-1.804
X6.0409Y-1.6264
X6.0413Y-1.5906
X6.0413Y-1.7697
X6.0417Y-1.6626
X6.0417Y-1.698
X6.0421Y-1.7335
X6.0752Y-1.626
X6.0756Y-1.5902
X6.076Y-1.6622
X6.076Y-1.6976
X6.1098Y-1.6268
X6.1102Y-1.5909
X6.1102Y-1.7701
X6.1106Y-1.663
X6.1106Y-1.6984
X6.111Y-1.7339
X6.1118Y-1.804
X6.2165Y-2.5248
X6.2165Y-2.5614
X6.2165Y-2.5972
X6.2165Y-2.6339
X6.2181Y-2.6705
X6.2181Y-2.7071
X6.2181Y-2.7429
X6.2543Y-2.6354
X6.2559Y-2.672
X6.2559Y-2.7087
X6.2559Y-2.7445
X6.2929Y-2.5244
X6.2929Y-2.561
X6.2929Y-2.5968
X6.2929Y-2.6335
X6.2945Y-2.6701
X6.2945Y-2.7067
X6.2945Y-2.7425
X6.3205Y-1.804
X6.3217Y-1.6264
X6.322Y-1.5906
X6.322Y-1.7697
X6.3224Y-1.6626
X6.3224Y-1.698
X6.3228Y-1.7335
X6.3559Y-1.626
X6.3563Y-1.5902
X6.3567Y-1.6622
X6.3567Y-1.6976
X6.3906Y-1.6268
X6.3909Y-1.5909
X6.3909Y-1.7701
X6.3913Y-1.663
X6.3913Y-1.6984
X6.3917Y-1.7339
X6.3925Y-1.804
X6.4957Y-2.522
X6.4957Y-2.5587
X6.4957Y-2.5945
X6.4957Y-2.6311
X6.4972Y-2.6677
X6.5335Y-2.6327
X6.535Y-2.6693
X6.572Y-2.5217
X6.572Y-2.5583
X6.572Y-2.5941
X6.572Y-2.6307
X6.5736Y-2.6673
T3
X2.2669Y-3.3402
X2.3161Y-3.3402
X2.3654Y-3.3402
X2.4146Y-3.3402
X2.4638Y-3.3402
X2.513Y-3.3402
X2.5622Y-3.3402
X2.6114Y-3.3402
X2.6606Y-3.3402
X2.7098Y-3.3402
X2.7591Y-3.3402
X2.8083Y-3.3402
X2.8575Y-3.3402
X2.9067Y-3.3402
T4
X1.0909Y-1.0959
X1.0909Y-1.1959
X1.1004Y-1.3717
X1.1004Y-1.4717
X1.1004Y-1.5717
X1.1004Y-1.6717
X1.1004Y-1.7717
X1.1004Y-1.8717
X1.1004Y-1.9717
X1.1004Y-2.0717
X1.1004Y-2.1717
X1.1004Y-2.2717
X1.1004Y-2.3717
X1.1004Y-2.4717
X1.1004Y-2.5717
X1.1004Y-2.6717
X1.1004Y-2.7717
X1.1004Y-2.8717
X1.1004Y-2.9717
X2.0051Y-3.1268
X2.0724Y-1.0386
X2.0724Y-1.1386
X2.0724Y-1.2386
X2.1051Y-3.1268
X2.2815Y-1.2122
X2.3815Y-1.2122
X2.6719Y-2.8191
X2.7719Y-2.8191
X2.8719Y-2.8191
X2.9795Y-2.3142
X2.9795Y-2.4142
X2.9795Y-2.5142
T5
X2.0748Y-0.876
X2.4437Y-2.1457
X2.4736Y-2.6413
X2.5543Y-1.2283
X2.5543Y-2.1063
X2.8768Y-1.9772
X2.8882Y-2.6768
X2.9634Y-2.1488
X3.05Y-3.487
X3.1264Y-0.8799
X6.6354Y-2.5252
X6.6358Y-1.7929
T6
X3.4833Y-1.1825
X3.4833Y-1.4136
X3.4919Y-2.9813
X3.4919Y-3.2124
X3.7144Y-1.1825
X3.7144Y-1.4136
X3.723Y-2.9813
X3.723Y-3.2124
X3.8829Y-1.1821
X3.8829Y-1.4132
X3.8919Y-2.9813
X3.8919Y-3.2124
X4.114Y-1.1821
X4.114Y-1.4132
X4.123Y-2.9813
X4.123Y-3.2124
X5.2632Y-1.1699
X5.2632Y-1.401
X5.2648Y-2.9659
X5.2648Y-3.197
X5.4943Y-1.1699
X5.4943Y-1.401
X5.4959Y-2.9659
X5.4959Y-3.197
X5.6636Y-1.1695
X5.6636Y-1.4006
X5.6652Y-2.9656
X5.6652Y-3.1967
X5.8947Y-1.1695
X5.8947Y-1.4006
X5.8963Y-2.9656
X5.8963Y-3.1967
T0
M30
