#VRML V2.0 utf8
# META "generator" "CAD Exchanger 3.8.1 (cadexchanger.com)"
DEF __1 Transform {
  children [
    DEF WSLP5931_(0_003) Group {
      children [
        DEF WSLP5931_(0_003)_1 Shape {
          appearance DEF __4 Appearance {
            material DEF __5 Material {
              ambientIntensity 0.265625
              diffuseColor 0.752941191196 0.752941191196 0.752941191196
              shininess 0
            }
          }
          geometry DEF __6 IndexedFaceSet {
            solid FALSE
            coord Coordinate {
              point [
                0.0030452804461 0 0.000501314575051,
                0.00330481912516 0 0.000327896373991,
                0.00330481912516 0.00775 0.000327896373991,
                0.0030452804461 0.00775 0.000501314575051,
                0.0035003708499 0 0,
                0.00319422410401 0 6.0896373991e-05,
                0.00319422410401 0.00775 6.0896373991e-05,
                0.0035003708499 0.00775 0,
                0.00293468542495 0 0.000234314575051,
                0.00293468542495 0.00775 0.000234314575051,
                0.00288192324525 0 0.000287076754748,
                0.00288192324525 0.00775 0.000287076754748,
                0.0075 0 0,
                0.0075 0 0.000267,
                0.00361096587105 0 0.000267,
                0.00301211388732 0 0.000534481133833,
                0.0025 0 0.000767,
                0.0025 0 0.0005,
                0.0025 0.00775 0.0005,
                0.00361096587105 0.00775 0.000267,
                0.0075 0.00775 0.000267,
                0.00301211388732 0.00775 0.000534481133833,
                0.0025 0.00775 0.000767,
                0.0075 0.00775 0,
                0.00312395672785 0 0.000432317327767,
                0.00321096587105 0 0.000374179676972,
                0.00321096587105 0.00775 0.000374179676972,
                0.00312395672785 0.00775 0.000432317327767,
                0.00339594989612 0 6.84411090095e-06,
                0.00329331561382 0 2.72593389687e-05,
                0.00329331561382 0.00775 2.72593389687e-05,
                0.00339594989612 0.00775 6.84411090095e-06,
                0.0031003708499 0 0.000107179676972,
                0.00301336170669 0 0.000165317327767,
                0.00301336170669 0.00775 0.000165317327767,
                0.0031003708499 0.00775 0.000107179676972,
                0.00340391063497 0 0.000294259338969,
                0.00350654491728 0 0.000273844110901,
                0.00261373722412 0 0.000751104968858,
                0.00272402663081 0 0.000719088489658,
                0.00282859542969 0 0.000671610342404,
                0.00292528871792 0 0.000609648933622,
                0.00260566345627 0 0.000467201494145,
                0.00270579141754 0 0.000420138776935,
                0.00279846885706 0 0.000359711960192,
                0.00260566345627 0.00775 0.000467201494145,
                0.00270579141754 0.00775 0.000420138776935,
                0.00279846885706 0.00775 0.000359711960192,
                0.00350654491728 0.00775 0.000273844110901,
                0.00340391063497 0.00775 0.000294259338969,
                0.00292528871792 0.00775 0.000609648933622,
                0.00282859542969 0.00775 0.000671610342404,
                0.00272402663081 0.00775 0.000719088489658,
                0.00261373722412 0.00775 0.000751104968858

              ]
            }
            normal Normal {
              vector [
                0.70710677 -0 0.70710677,
                0.70710677 -0 0.70710677,
                0.60876143 -0 0.79335332,
                0.5 -0 0.86602539,
                0.38268343 -0 0.9238795,
                0.38268343 -0 0.9238795,
                0.5 -0 0.86602539,
                0.60876143 -0 0.79335332,
                1.3322676e-15 0 -1,
                -0.13052619 0 -0.99144489,
                -0.25881904 0 -0.96592581,
                -0.38268343 0 -0.9238795,
                -0.38268343 0 -0.9238795,
                -0.25881904 0 -0.96592581,
                -0.13052619 0 -0.99144489,
                4.4408921e-16 0 -1,
                -0.38268343 0 -0.9238795,
                -0.38268343 0 -0.9238795,
                -0.5 0 -0.86602539,
                -0.60876143 0 -0.79335332,
                -0.70710677 0 -0.70710677,
                -0.70710677 0 -0.70710677,
                -0.60876143 0 -0.79335332,
                -0.5 0 -0.86602539,
                -0.70710677 0 -0.70710677,
                -0.70710677 0 -0.70710677,
                -0.70710677 0 -0.70710677,
                -0.70710677 0 -0.70710677,
                0 -1 -0,
                0 -1 -0,
                0 -1 -0,
                0 -1 -0,
                0 -1 -0,
                0 -1 -0,
                0 -1 -0,
                0 -1 -0,
                0 -1 -0,
                0 -1 -0,
                0 -1 -0,
                0 -1 -0,
                0 -1 -0,
                0 -1 -0,
                0 -1 -0,
                0 -1 -0,
                0 -1 -0,
                0 -1 -0,
                0 -1 -0,
                0 -1 -0,
                0 -1 -0,
                0 -1 -0,
                0 -1 -0,
                0 -1 -0,
                0 -1 -0,
                0 -1 -0,
                0 -1 -0,
                -0.22970273 -0 -0.97326082,
                -0.22970273 -0 -0.97326082,
                -0.36178204 -0 -0.93226272,
                -0.48694199 -0 -0.87343431,
                -0.60278881 -0 -0.7979008,
                -0.70710677 -0 -0.70710677,
                -0.70710677 -0 -0.70710677,
                -0.60278881 -0 -0.7979008,
                -0.48694199 -0 -0.87343431,
                -0.36178204 -0 -0.93226272,
                0.38268343 -0 0.9238795,
                0.25881904 -0 0.96592581,
                0.13052619 -0 0.99144489,
                -1.3322676e-15 -0 1,
                -4.4408921e-16 -0 1,
                0.13052619 -0 0.99144489,
                0.25881904 -0 0.96592581,
                0.38268343 -0 0.9238795,
                0 0 1,
                0 0 1,
                0 0 1,
                0 0 1,
                0.066964425 0 0.99775535,
                0.20913595 0 0.97788656,
                0.34699771 0 0.93786597,
                0.4777087 0 0.87851828,
                0.59857529 0 0.80106652,
                0.70710677 0 0.70710677,
                0.70710677 0 0.70710677,
                0.59857529 0 0.80106652,
                0.4777087 0 0.87851828,
                0.34699771 0 0.93786597,
                0.20913595 0 0.97788656,
                0.066964425 0 0.99775535,
                0.70710677 0 0.70710677,
                0.70710677 0 0.70710677,
                0.70710677 0 0.70710677,
                0.70710677 0 0.70710677,
                1 0 0,
                1 0 0,
                1 0 0,
                1 0 0,
                -1 0 0,
                -1 0 0,
                -1 0 0,
                -1 0 0,
                0 0 -1,
                0 0 -1,
                0 0 -1,
                0 0 -1,
                -0 1 0,
                -0 1 0,
                -0 1 0,
                -0 1 0,
                -0 1 0,
                -0 1 0,
                -0 1 0,
                -0 1 0,
                -0 1 0,
                -0 1 0,
                -0 1 0,
                -0 1 0,
                -0 1 0,
                -0 1 0,
                -0 1 0,
                -0 1 0,
                -0 1 0,
                -0 1 0,
                -0 1 0,
                -0 1 0,
                -0 1 0,
                -0 1 0,
                -0 1 0,
                -0 1 0,
                -0 1 0,
                -0 1 0,
                -0 1 0

              ]
            }
            coordIndex [
              27 3 0 -1 
              24 27 0 -1 
              25 26 27 -1 
              1 2 26 -1 
              25 1 26 -1 
              24 25 27 -1 
              31 4 28 -1 
              6 29 5 -1 
              30 29 6 -1 
              7 4 31 -1 
              29 31 28 -1 
              31 29 30 -1 
              32 6 5 -1 
              8 9 33 -1 
              34 33 9 -1 
              35 6 32 -1 
              33 35 32 -1 
              35 33 34 -1 
              10 11 9 -1 
              10 9 8 -1 
              44 10 15 -1 
              1 32 5 -1 
              25 33 32 -1 
              24 8 33 -1 
              24 10 8 -1 
              43 44 41 -1 
              42 43 39 -1 
              17 42 38 -1 
              38 16 17 -1 
              39 38 42 -1 
              40 39 43 -1 
              41 40 43 -1 
              15 41 44 -1 
              0 15 10 -1 
              24 0 10 -1 
              25 24 33 -1 
              1 25 32 -1 
              29 1 5 -1 
              29 36 1 -1 
              28 37 36 -1 
              12 14 4 -1 
              12 13 14 -1 
              4 14 37 -1 
              28 4 37 -1 
              29 28 36 -1 
              42 17 18 -1 
              45 46 42 -1 
              47 11 44 -1 
              10 44 11 -1 
              47 44 43 -1 
              46 47 43 -1 
              46 43 42 -1 
              45 42 18 -1 
              49 2 36 -1 
              48 49 37 -1 
              19 48 14 -1 
              37 14 48 -1 
              36 37 49 -1 
              1 36 2 -1 
              13 20 19 -1 
              13 19 14 -1 
              53 16 38 -1 
              52 38 39 -1 
              50 40 41 -1 
              21 41 15 -1 
              50 41 21 -1 
              51 40 50 -1 
              53 38 52 -1 
              22 16 53 -1 
              40 52 39 -1 
              52 40 51 -1 
              21 15 0 -1 
              21 0 3 -1 
              23 13 12 -1 
              20 13 23 -1 
              22 17 16 -1 
              18 17 22 -1 
              23 12 4 -1 
              23 4 7 -1 
              47 21 11 -1 
              2 6 35 -1 
              26 35 34 -1 
              27 34 9 -1 
              27 9 11 -1 
              46 50 47 -1 
              45 52 46 -1 
              18 53 45 -1 
              53 18 22 -1 
              52 45 53 -1 
              51 46 52 -1 
              50 46 51 -1 
              21 47 50 -1 
              3 11 21 -1 
              27 11 3 -1 
              26 34 27 -1 
              2 35 26 -1 
              30 6 2 -1 
              30 2 49 -1 
              31 49 48 -1 
              23 7 19 -1 
              23 19 20 -1 
              7 48 19 -1 
              31 48 7 -1 
              30 49 31 -1 
            ]
            normalIndex [
              2 1 0 -1 
              7 2 0 -1 
              6 3 2 -1 
              5 4 3 -1 
              6 5 3 -1 
              7 6 2 -1 
              14 8 9 -1 
              12 10 11 -1 
              13 10 12 -1 
              15 8 14 -1 
              10 14 9 -1 
              14 10 13 -1 
              18 16 17 -1 
              20 21 19 -1 
              22 19 21 -1 
              23 16 18 -1 
              19 23 18 -1 
              23 19 22 -1 
              26 27 24 -1 
              26 24 25 -1 
              33 32 42 -1 
              46 29 28 -1 
              45 30 29 -1 
              44 31 30 -1 
              44 32 31 -1 
              34 33 41 -1 
              35 34 39 -1 
              36 35 38 -1 
              38 37 36 -1 
              39 38 35 -1 
              40 39 34 -1 
              41 40 34 -1 
              42 41 33 -1 
              43 42 32 -1 
              44 43 32 -1 
              45 44 30 -1 
              46 45 29 -1 
              54 46 28 -1 
              54 47 46 -1 
              53 48 47 -1 
              51 49 52 -1 
              51 50 49 -1 
              52 49 48 -1 
              53 52 48 -1 
              54 53 47 -1 
              57 56 55 -1 
              64 63 57 -1 
              62 61 59 -1 
              60 59 61 -1 
              62 59 58 -1 
              63 62 58 -1 
              63 58 57 -1 
              64 57 55 -1 
              66 65 71 -1 
              67 66 70 -1 
              68 67 69 -1 
              70 69 67 -1 
              71 70 66 -1 
              72 71 65 -1 
              75 76 73 -1 
              75 73 74 -1 
              87 77 78 -1 
              86 78 79 -1 
              84 80 81 -1 
              83 81 82 -1 
              84 81 83 -1 
              85 80 84 -1 
              87 78 86 -1 
              88 77 87 -1 
              80 86 79 -1 
              86 80 85 -1 
              91 92 89 -1 
              91 89 90 -1 
              95 93 94 -1 
              96 93 95 -1 
              99 97 98 -1 
              100 97 99 -1 
              103 104 101 -1 
              103 101 102 -1 
              110 119 109 -1 
              123 105 106 -1 
              122 106 107 -1 
              121 107 108 -1 
              121 108 109 -1 
              111 118 110 -1 
              112 116 111 -1 
              113 115 112 -1 
              115 113 114 -1 
              116 112 115 -1 
              117 111 116 -1 
              118 111 117 -1 
              119 110 118 -1 
              120 109 119 -1 
              121 109 120 -1 
              122 107 121 -1 
              123 106 122 -1 
              131 105 123 -1 
              131 123 124 -1 
              130 124 125 -1 
              128 129 126 -1 
              128 126 127 -1 
              129 125 126 -1 
              130 125 129 -1 
              131 124 130 -1 
            ]
          }
        }
        DEF WSLP5931_(0_003)_2 Shape {
          appearance DEF __8 Appearance {
            material DEF __9 Material {
              ambientIntensity 0.265625
              diffuseColor 0.752941191196 0.752941191196 0.752941191196
              shininess 0
            }
          }
          geometry DEF __10 IndexedFaceSet {
            solid FALSE
            coord Coordinate {
              point [
                -0.00361096587105 0 0.000267,
                -0.00330481912516 0 0.000327896373991,
                -0.00330481912516 0.00775 0.000327896373991,
                -0.00361096587105 0.00775 0.000267,
                -0.00293468542495 0 0.000234314575051,
                -0.00319422410401 0 6.0896373991e-05,
                -0.00319422410401 0.00775 6.0896373991e-05,
                -0.00293468542495 0.00775 0.000234314575051,
                -0.0035003708499 0 1.32726112347e-21,
                -0.0035003708499 0.00775 1.32726112347e-21,
                -0.0075 0 1.73472347598e-20,
                -0.0075 0.00775 0,
                -0.00288192324525 0 0.000287076754748,
                -0.0025 0 0.0005,
                -0.0025 0 0.000767,
                -0.00301211388732 0 0.000534481133833,
                -0.0030452804461 0 0.000501314575051,
                -0.0075 0 0.000267,
                -0.00288192324525 0.00775 0.000287076754748,
                -0.0025 0.00775 0.0005,
                -0.0030452804461 0.00775 0.000501314575051,
                -0.00301211388732 0.00775 0.000534481133833,
                -0.0025 0.00775 0.000767,
                -0.0075 0.00775 0.000267,
                -0.00350654491728 0 0.000273844110901,
                -0.00340391063497 0 0.000294259338969,
                -0.00340391063497 0.00775 0.000294259338969,
                -0.00350654491728 0.00775 0.000273844110901,
                -0.00301336170669 0 0.000165317327767,
                -0.0031003708499 0 0.000107179676972,
                -0.0031003708499 0.00775 0.000107179676972,
                -0.00301336170669 0.00775 0.000165317327767,
                -0.00329331561382 0 2.72593389687e-05,
                -0.00339594989612 0 6.84411090095e-06,
                -0.00339594989612 0.00775 6.84411090095e-06,
                -0.00329331561382 0.00775 2.72593389687e-05,
                -0.00279846885706 0 0.000359711960192,
                -0.00270579141754 0 0.000420138776935,
                -0.00260566345627 0 0.000467201494145,
                -0.00292528871792 0 0.000609648933622,
                -0.00282859542969 0 0.000671610342404,
                -0.00272402663081 0 0.000719088489658,
                -0.00261373722412 0 0.000751104968858,
                -0.00321096587105 0 0.000374179676972,
                -0.00312395672785 0 0.000432317327767,
                -0.00279846885706 0.00775 0.000359711960192,
                -0.00270579141754 0.00775 0.000420138776935,
                -0.00260566345627 0.00775 0.000467201494145,
                -0.00312395672785 0.00775 0.000432317327767,
                -0.00321096587105 0.00775 0.000374179676972,
                -0.00261373722412 0.00775 0.000751104968858,
                -0.00272402663081 0.00775 0.000719088489658,
                -0.00282859542969 0.00775 0.000671610342404,
                -0.00292528871792 0.00775 0.000609648933622

              ]
            }
            normal Normal {
              vector [
                -0 -0 1,
                -0 -0 1,
                -0.13052619 -0 0.99144489,
                -0.25881904 -0 0.96592581,
                -0.38268343 -0 0.9238795,
                -0.38268343 -0 0.9238795,
                -0.25881904 -0 0.96592581,
                -0.13052619 -0 0.99144489,
                0.70710677 0 -0.70710677,
                0.60876143 0 -0.79335332,
                0.5 0 -0.86602539,
                0.38268343 0 -0.9238795,
                0.38268343 0 -0.9238795,
                0.5 0 -0.86602539,
                0.60876143 0 -0.79335332,
                0.70710677 0 -0.70710677,
                0.38268343 0 -0.9238795,
                0.38268343 0 -0.9238795,
                0.25881904 0 -0.96592581,
                0.13052619 0 -0.99144489,
                0 0 -1,
                4.4408921e-16 0 -1,
                0.13052619 0 -0.99144489,
                0.25881904 0 -0.96592581,
                -4.0053649e-18 0 -1,
                -4.0053649e-18 0 -1,
                -4.0053649e-18 0 -1,
                -4.0053649e-18 0 -1,
                0 -1 0,
                0 -1 0,
                0 -1 0,
                0 -1 0,
                0 -1 0,
                0 -1 0,
                0 -1 0,
                0 -1 0,
                0 -1 0,
                0 -1 0,
                0 -1 0,
                0 -1 0,
                0 -1 0,
                0 -1 0,
                0 -1 0,
                0 -1 0,
                0 -1 0,
                0 -1 0,
                0 -1 0,
                0 -1 0,
                0 -1 0,
                0 -1 0,
                0 -1 0,
                0 -1 0,
                0 -1 0,
                0 -1 0,
                0 -1 0,
                0.22970273 -0 -0.97326082,
                0.22970273 -0 -0.97326082,
                0.36178204 -0 -0.93226272,
                0.48694199 -0 -0.87343431,
                0.60278881 -0 -0.7979008,
                0.70710677 -0 -0.70710677,
                0.70710677 -0 -0.70710677,
                0.60278881 -0 -0.7979008,
                0.48694199 -0 -0.87343431,
                0.36178204 -0 -0.93226272,
                -0.38268343 -0 0.9238795,
                -0.5 -0 0.86602539,
                -0.60876143 -0 0.79335332,
                -0.70710677 -0 0.70710677,
                -0.70710677 -0 0.70710677,
                -0.60876143 -0 0.79335332,
                -0.5 -0 0.86602539,
                -0.38268343 -0 0.9238795,
                -0.70710677 0 0.70710677,
                -0.70710677 0 0.70710677,
                -0.70710677 0 0.70710677,
                -0.70710677 0 0.70710677,
                -0.066964425 0 0.99775535,
                -0.20913595 0 0.97788656,
                -0.34699771 0 0.93786597,
                -0.4777087 0 0.87851828,
                -0.59857529 0 0.80106652,
                -0.70710677 0 0.70710677,
                -0.70710677 0 0.70710677,
                -0.59857529 0 0.80106652,
                -0.4777087 0 0.87851828,
                -0.34699771 0 0.93786597,
                -0.20913595 0 0.97788656,
                -0.066964425 0 0.99775535,
                0 0 1,
                0 0 1,
                0 0 1,
                0 0 1,
                -1 0 0,
                -1 0 0,
                -1 0 0,
                -1 0 0,
                0.70710677 0 -0.70710677,
                0.70710677 0 -0.70710677,
                0.70710677 0 -0.70710677,
                0.70710677 0 -0.70710677,
                1 0 0,
                1 0 0,
                1 0 0,
                1 0 0,
                -0 1 -0,
                -0 1 -0,
                -0 1 -0,
                -0 1 -0,
                -0 1 -0,
                -0 1 -0,
                -0 1 -0,
                -0 1 -0,
                -0 1 -0,
                -0 1 -0,
                -0 1 -0,
                -0 1 -0,
                -0 1 -0,
                -0 1 -0,
                -0 1 -0,
                -0 1 -0,
                -0 1 -0,
                -0 1 -0,
                -0 1 -0,
                -0 1 -0,
                -0 1 -0,
                -0 1 -0,
                -0 1 -0,
                -0 1 -0,
                -0 1 -0,
                -0 1 -0,
                -0 1 -0

              ]
            }
            coordIndex [
              27 3 0 -1 
              24 27 0 -1 
              25 26 27 -1 
              1 2 26 -1 
              25 1 26 -1 
              24 25 27 -1 
              31 4 28 -1 
              30 28 29 -1 
              6 29 5 -1 
              30 29 6 -1 
              31 28 30 -1 
              7 4 31 -1 
              32 6 5 -1 
              8 9 33 -1 
              34 33 9 -1 
              35 6 32 -1 
              33 35 32 -1 
              35 33 34 -1 
              10 11 9 -1 
              10 9 8 -1 
              1 5 29 -1 
              43 29 28 -1 
              44 28 4 -1 
              44 4 12 -1 
              15 12 36 -1 
              39 36 37 -1 
              41 37 38 -1 
              42 38 13 -1 
              42 13 14 -1 
              41 38 42 -1 
              40 37 41 -1 
              39 37 40 -1 
              15 36 39 -1 
              16 12 15 -1 
              44 12 16 -1 
              43 28 44 -1 
              1 29 43 -1 
              32 5 1 -1 
              32 1 25 -1 
              33 25 24 -1 
              8 24 0 -1 
              10 0 17 -1 
              8 0 10 -1 
              33 24 8 -1 
              32 25 33 -1 
              47 19 13 -1 
              38 37 47 -1 
              36 12 45 -1 
              18 45 12 -1 
              36 45 46 -1 
              37 36 46 -1 
              37 46 47 -1 
              38 47 13 -1 
              49 2 43 -1 
              48 49 44 -1 
              20 48 16 -1 
              44 16 48 -1 
              43 44 49 -1 
              1 43 2 -1 
              15 21 20 -1 
              15 20 16 -1 
              42 22 50 -1 
              41 50 51 -1 
              39 52 53 -1 
              15 53 21 -1 
              39 53 15 -1 
              40 52 39 -1 
              42 50 41 -1 
              14 22 42 -1 
              52 41 51 -1 
              41 52 40 -1 
              23 0 3 -1 
              17 0 23 -1 
              23 10 17 -1 
              11 10 23 -1 
              18 12 4 -1 
              18 4 7 -1 
              19 14 13 -1 
              22 14 19 -1 
              2 30 6 -1 
              49 31 30 -1 
              48 7 31 -1 
              48 18 7 -1 
              21 45 18 -1 
              53 46 45 -1 
              51 47 46 -1 
              50 19 47 -1 
              50 22 19 -1 
              51 50 47 -1 
              52 51 46 -1 
              53 52 46 -1 
              21 53 45 -1 
              20 21 18 -1 
              48 20 18 -1 
              49 48 31 -1 
              2 49 30 -1 
              35 2 6 -1 
              35 26 2 -1 
              34 27 26 -1 
              9 3 27 -1 
              11 23 3 -1 
              9 11 3 -1 
              34 9 27 -1 
              35 34 26 -1 
            ]
            normalIndex [
              2 1 0 -1 
              7 2 0 -1 
              6 3 2 -1 
              5 4 3 -1 
              6 5 3 -1 
              7 6 2 -1 
              14 8 9 -1 
              13 9 10 -1 
              12 10 11 -1 
              13 10 12 -1 
              14 9 13 -1 
              15 8 14 -1 
              18 16 17 -1 
              20 21 19 -1 
              22 19 21 -1 
              23 16 18 -1 
              19 23 18 -1 
              23 19 22 -1 
              26 27 24 -1 
              26 24 25 -1 
              46 28 29 -1 
              45 29 30 -1 
              44 30 31 -1 
              44 31 32 -1 
              42 32 33 -1 
              41 33 34 -1 
              39 34 35 -1 
              38 35 36 -1 
              38 36 37 -1 
              39 35 38 -1 
              40 34 39 -1 
              41 34 40 -1 
              42 33 41 -1 
              43 32 42 -1 
              44 32 43 -1 
              45 30 44 -1 
              46 29 45 -1 
              54 28 46 -1 
              54 46 47 -1 
              53 47 48 -1 
              52 48 49 -1 
              51 49 50 -1 
              52 49 51 -1 
              53 48 52 -1 
              54 47 53 -1 
              57 56 55 -1 
              64 63 57 -1 
              62 61 59 -1 
              60 59 61 -1 
              62 59 58 -1 
              63 62 58 -1 
              63 58 57 -1 
              64 57 55 -1 
              66 65 71 -1 
              67 66 70 -1 
              68 67 69 -1 
              70 69 67 -1 
              71 70 66 -1 
              72 71 65 -1 
              75 76 73 -1 
              75 73 74 -1 
              87 77 78 -1 
              86 78 79 -1 
              84 80 81 -1 
              83 81 82 -1 
              84 81 83 -1 
              85 80 84 -1 
              87 78 86 -1 
              88 77 87 -1 
              80 86 79 -1 
              86 80 85 -1 
              91 89 90 -1 
              92 89 91 -1 
              95 93 94 -1 
              96 93 95 -1 
              99 100 97 -1 
              99 97 98 -1 
              103 101 102 -1 
              104 101 103 -1 
              123 106 105 -1 
              122 107 106 -1 
              121 108 107 -1 
              121 109 108 -1 
              119 110 109 -1 
              118 111 110 -1 
              116 112 111 -1 
              115 113 112 -1 
              115 114 113 -1 
              116 115 112 -1 
              117 116 111 -1 
              118 117 111 -1 
              119 118 110 -1 
              120 119 109 -1 
              121 120 109 -1 
              122 121 107 -1 
              123 122 106 -1 
              131 123 105 -1 
              131 124 123 -1 
              130 125 124 -1 
              129 126 125 -1 
              128 127 126 -1 
              129 128 126 -1 
              130 129 125 -1 
              131 130 124 -1 
            ]
          }
        }
        DEF WSLP5931_(0_003)_3 Shape {
          appearance DEF __12 Appearance {
            material DEF __13 Material {
              ambientIntensity 0.31874999404
              diffuseColor 0.627451002598 0.627451002598 0.627451002598
              shininess 0
            }
          }
          geometry DEF __14 IndexedFaceSet {
            solid FALSE
            coord Coordinate {
              point [
                0.00148149009869 0 0.0005,
                0.00148149009869 0 0.000767,
                0.0025 0 0.0005,
                0.0025 0 0.000767,
                0.00148149009869 0.000716595400206 0.000767,
                0.0025 0.00775 0.000767,
                -0.0025 0.00775 0.000767,
                -0.0025 0 0.000767,
                -0.00148149009869 0 0.000767,
                -0.00148149009869 0.000716595400206 0.000767,
                0.0025 0.00775 0.0005,
                0.00148149009869 0.000716595400206 0.0005,
                -0.00148149009869 0.000716595400206 0.0005,
                -0.00148149009869 0 0.0005,
                -0.0025 0 0.0005,
                -0.0025 0.00775 0.0005,
                0.0009047582634 0.000910645378847 0.000767,
                0.000304251131488 0.0010089621555 0.000767,
                -0.000304251131488 0.0010089621555 0.000767,
                -0.0009047582634 0.000910645378847 0.000767,
                0.0009047582634 0.000910645378847 0.0005,
                0.000304251131488 0.0010089621555 0.0005,
                -0.000304251131488 0.0010089621555 0.0005,
                -0.0009047582634 0.000910645378847 0.0005

              ]
            }
            normal Normal {
              vector [
                0 -1 0,
                0 -1 0,
                0 -1 0,
                0 -1 0,
                0 1.9259299e-32 1,
                0 1.9259299e-32 1,
                0 1.9259299e-32 1,
                0 1.9259299e-32 1,
                0 1.9259299e-32 1,
                0 1.9259299e-32 1,
                0 1.9259299e-32 1,
                0 1.9259299e-32 1,
                0 1.9259299e-32 1,
                0 1.9259299e-32 1,
                0 1.9259299e-32 1,
                0 1.9259299e-32 1,
                1 0 0,
                1 0 0,
                1 0 0,
                1 0 0,
                -2.4980018e-16 0 -1,
                -2.4980018e-16 0 -1,
                -2.4980018e-16 0 -1,
                -2.4980018e-16 0 -1,
                -2.4980018e-16 0 -1,
                -2.4980018e-16 0 -1,
                -2.4980018e-16 0 -1,
                -2.4980018e-16 0 -1,
                -2.4980018e-16 0 -1,
                -2.4980018e-16 0 -1,
                -2.4980018e-16 0 -1,
                -2.4980018e-16 0 -1,
                -1 0 0,
                -1 0 0,
                -1 0 0,
                -1 0 0,
                -0 1 0,
                -0 1 0,
                -0 1 0,
                -0 1 0,
                0 -1 0,
                0 -1 0,
                0 -1 0,
                0 -1 0,
                -1 0 -0,
                -1 0 -0,
                -1 0 -0,
                -1 0 -0,
                1 -0 0,
                1 -0 0,
                1 -0 0,
                1 -0 0,
                -0.3946692 -0.9188233 -0,
                -0.24102776 -0.97051823 -0,
                -0.081052549 -0.99670982 -0,
                0.081052549 -0.99670982 -0,
                0.24102776 -0.97051823 -0,
                0.3946692 -0.9188233 -0,
                0.3946692 -0.9188233 -0,
                0.24102776 -0.97051823 -0,
                0.081052549 -0.99670982 -0,
                -0.081052549 -0.99670982 -0,
                -0.24102776 -0.97051823 -0,
                -0.3946692 -0.9188233 -0

              ]
            }
            coordIndex [
              2 1 0 -1 
              3 1 2 -1 
              3 4 1 -1 
              5 4 3 -1 
              9 6 7 -1 
              9 7 8 -1 
              18 5 6 -1 
              19 6 9 -1 
              18 6 19 -1 
              17 5 18 -1 
              16 4 5 -1 
              16 5 17 -1 
              10 3 2 -1 
              5 3 10 -1 
              10 11 20 -1 
              10 20 21 -1 
              15 21 22 -1 
              15 22 23 -1 
              15 23 12 -1 
              14 12 13 -1 
              15 12 14 -1 
              10 21 15 -1 
              2 0 11 -1 
              2 11 10 -1 
              6 14 7 -1 
              15 14 6 -1 
              15 5 10 -1 
              6 5 15 -1 
              8 7 13 -1 
              14 13 7 -1 
              4 11 0 -1 
              1 4 0 -1 
              8 12 9 -1 
              8 13 12 -1 
              16 20 11 -1 
              17 21 20 -1 
              18 22 21 -1 
              19 23 22 -1 
              9 12 23 -1 
              19 9 23 -1 
              18 19 22 -1 
              17 18 21 -1 
              16 17 20 -1 
              4 16 11 -1 
            ]
            normalIndex [
              2 0 1 -1 
              3 0 2 -1 
              6 4 5 -1 
              7 4 6 -1 
              11 8 9 -1 
              11 9 10 -1 
              13 7 8 -1 
              12 8 11 -1 
              13 8 12 -1 
              14 7 13 -1 
              15 4 7 -1 
              15 7 14 -1 
              18 16 17 -1 
              19 16 18 -1 
              30 21 22 -1 
              30 22 23 -1 
              29 23 24 -1 
              29 24 25 -1 
              29 25 26 -1 
              28 26 27 -1 
              29 26 28 -1 
              30 23 29 -1 
              31 20 21 -1 
              31 21 30 -1 
              34 32 33 -1 
              35 32 34 -1 
              38 36 37 -1 
              39 36 38 -1 
              41 42 40 -1 
              43 40 42 -1 
              46 45 44 -1 
              47 46 44 -1 
              50 48 51 -1 
              50 49 48 -1 
              62 53 52 -1 
              61 54 53 -1 
              60 55 54 -1 
              59 56 55 -1 
              58 57 56 -1 
              59 58 56 -1 
              60 59 55 -1 
              61 60 54 -1 
              62 61 53 -1 
              63 62 52 -1 
            ]
          }
        }
      ]
    }
  ]
}
