ISO-10303-21;
HEADER;
FILE_DESCRIPTION (( 'STEP AP214' ),
    '1' );
FILE_NAME ('WSLP5931 (0.003).step',
    '2018-11-05T17:01:47',
    ( '' ),
    ( '' ),
    'SwSTEP 2.0',
    'SolidWorks 2018',
    '' );
FILE_SCHEMA (( 'AUTOMOTIVE_DESIGN' ));
ENDSEC;

DATA;
#1 = CARTESIAN_POINT ( 'NONE',  ( 3.610965871052089771, 0.0000000000000000000, 1.066999999999999948 ) ) ;
#2 = CARTESIAN_POINT ( 'NONE',  ( -2.446428462371200041, 0.0000000000000000000, -0.03120429111605620143 ) ) ;
#3 = AXIS2_PLACEMENT_3D ( 'NONE', #2, #1130, #1041 ) ;
#4 = DIRECTION ( 'NONE',  ( 0.0000000000000000000, -1.000000000000000000, 0.0000000000000000000 ) ) ;
#5 = ADVANCED_FACE ( 'NONE', ( #607 ), #795, .F. ) ;
#6 = CARTESIAN_POINT ( 'NONE',  ( 7.500000000000000000, 0.0000000000000000000, 0.2669999999999999596 ) ) ;
#7 = VECTOR ( 'NONE', #917, 1000.000000000000000 ) ;
#8 = ADVANCED_FACE ( 'NONE', ( #578 ), #763, .F. ) ;
#9 = CARTESIAN_POINT ( 'NONE',  ( -2.500000000000000000, 7.750000000000000000, 0.5000000000000000000 ) ) ;
#10 = FACE_OUTER_BOUND ( 'NONE', #455, .T. ) ;
#11 = VECTOR ( 'NONE', #969, 1000.000000000000000 ) ;
#12 = LINE ( 'NONE', #923, #688 ) ;
#13 = VERTEX_POINT ( 'NONE', #702 ) ;
#14 = AXIS2_PLACEMENT_3D ( 'NONE', #158, #79, #174 ) ;
#15 = CARTESIAN_POINT ( 'NONE',  ( -3.194224104006408549, 0.0000000000000000000, 0.06089637399097063558 ) ) ;
#16 = ORIENTED_EDGE ( 'NONE', *, *, #955, .F. ) ;
#17 = DIRECTION ( 'NONE',  ( 0.0000000000000000000, 1.000000000000000000, 0.0000000000000000000 ) ) ;
#18 = ORIENTED_EDGE ( 'NONE', *, *, #232, .T. ) ;
#19 = DIRECTION ( 'NONE',  ( 0.0000000000000000000, 0.0000000000000000000, -1.000000000000000000 ) ) ;
#20 = ORIENTED_EDGE ( 'NONE', *, *, #1143, .T. ) ;
#21 = EDGE_CURVE ( 'NONE', #138, #667, #1049, .T. ) ;
#22 = DIRECTION ( 'NONE',  ( 0.0000000000000000000, 1.000000000000000000, 0.0000000000000000000 ) ) ;
#23 = DIRECTION ( 'NONE',  ( 0.0000000000000000000, -1.000000000000000000, 0.0000000000000000000 ) ) ;
#24 = CARTESIAN_POINT ( 'NONE',  ( 2.316237820303079786, 0.0000000000000000000, -0.2786086702015569960 ) ) ;
#25 = CARTESIAN_POINT ( 'NONE',  ( -3.500370849898480241, 0.0000000000000000000, 0.0000000000000000000 ) ) ;
#26 = SURFACE_STYLE_FILL_AREA ( #540 ) ;
#27 = ORIENTED_EDGE ( 'NONE', *, *, #804, .T. ) ;
#28 = ORIENTED_EDGE ( 'NONE', *, *, #1044, .T. ) ;
#29 = SURFACE_SIDE_STYLE ('',( #272 ) ) ;
#30 = ORIENTED_EDGE ( 'NONE', *, *, #261, .F. ) ;
#31 = ORIENTED_EDGE ( 'NONE', *, *, #1081, .F. ) ;
#32 = DIRECTION ( 'NONE',  ( 1.000000000000000000, 0.0000000000000000000, 0.0000000000000000000 ) ) ;
#33 = LINE ( 'NONE', #412, #739 ) ;
#34 = EDGE_CURVE ( 'NONE', #254, #202, #1048, .T. ) ;
#35 = CARTESIAN_POINT ( 'NONE',  ( -1.250000000000000000, 0.0000000000000000000, 0.5000000000000000000 ) ) ;
#36 = CARTESIAN_POINT ( 'NONE',  ( -7.500000000000000000, 0.0000000000000000000, 0.2669999999999999596 ) ) ;
#37 = EDGE_CURVE ( 'NONE', #667, #677, #533, .T. ) ;
#38 = VECTOR ( 'NONE', #832, 1000.000000000000000 ) ;
#39 = CIRCLE ( 'NONE', #935, 0.7999999999999997113 ) ;
#40 = DIRECTION ( 'NONE',  ( 0.0000000000000000000, 1.000000000000000000, 0.0000000000000000000 ) ) ;
#41 = ORIENTED_EDGE ( 'NONE', *, *, #283, .F. ) ;
#42 = DIRECTION ( 'NONE',  ( 0.3826834323650896708, 0.0000000000000000000, -0.9238795325112867385 ) ) ;
#43 = ORIENTED_EDGE ( 'NONE', *, *, #791, .F. ) ;
#44 = ORIENTED_EDGE ( 'NONE', *, *, #1114, .T. ) ;
#45 = AXIS2_PLACEMENT_3D ( 'NONE', #363, #753, #1034 ) ;
#46 = CARTESIAN_POINT ( 'NONE',  ( -3.500370849898480241, 7.750000000000000000, 0.8000000000000000444 ) ) ;
#47 = CARTESIAN_POINT ( 'NONE',  ( 2.500000000000000000, 7.750000000000000000, 0.7670000000000000151 ) ) ;
#48 = EDGE_CURVE ( 'NONE', #833, #579, #851, .T. ) ;
#49 = CARTESIAN_POINT ( 'NONE',  ( 1.481490098690585899, 0.0000000000000000000, 0.7670000000000000151 ) ) ;
#50 = DIRECTION ( 'NONE',  ( -0.3826834323650910030, 0.0000000000000000000, -0.9238795325112862944 ) ) ;
#51 = AXIS2_PLACEMENT_3D ( 'NONE', #106, #952, #1047 ) ;
#52 = LINE ( 'NONE', #606, #1208 ) ;
#53 = EDGE_CURVE ( 'NONE', #738, #754, #52, .T. ) ;
#54 = ORIENTED_EDGE ( 'NONE', *, *, #961, .T. ) ;
#55 = ORIENTED_EDGE ( 'NONE', *, *, #361, .F. ) ;
#56 = ORIENTED_EDGE ( 'NONE', *, *, #1089, .T. ) ;
#57 = CARTESIAN_POINT ( 'NONE',  ( -3.169000000000000039, 0.0000000000000000000, 0.0000000000000000000 ) ) ;
#58 = VERTEX_POINT ( 'NONE', #62 ) ;
#59 = CARTESIAN_POINT ( 'NONE',  ( -3.610965871052089771, 0.0000000000000000000, 1.066999999999999948 ) ) ;
#60 = DIRECTION ( 'NONE',  ( -1.000000000000000000, 0.0000000000000000000, -0.0000000000000000000 ) ) ;
#61 = EDGE_CURVE ( 'NONE', #609, #889, #747, .T. ) ;
#62 = CARTESIAN_POINT ( 'NONE',  ( 2.500000000000000000, 7.750000000000000000, 0.5000000000000000000 ) ) ;
#63 = DIRECTION ( 'NONE',  ( -1.000000000000000000, 0.0000000000000000000, 4.005364756353740102E-18 ) ) ;
#64 = MANIFOLD_SOLID_BREP ( 'WSLP5931 (0.003).stp[1]', #959 ) ;
#65 = CARTESIAN_POINT ( 'NONE',  ( -2.500000000000000000, 7.750000000000000000, 0.5000000000000000000 ) ) ;
#66 = AXIS2_PLACEMENT_3D ( 'NONE', #515, #683, #985 ) ;
#67 = LINE ( 'NONE', #637, #1129 ) ;
#68 = VECTOR ( 'NONE', #227, 1000.000000000000000 ) ;
#69 = VECTOR ( 'NONE', #896, 1000.000000000000000 ) ;
#70 = FACE_OUTER_BOUND ( 'NONE', #302, .T. ) ;
#71 = ADVANCED_FACE ( 'NONE', ( #1021 ), #531, .T. ) ;
#72 = CARTESIAN_POINT ( 'NONE',  ( 2.881923245252319798, 0.0000000000000000000, 0.2870767547476800186 ) ) ;
#73 = ORIENTED_EDGE ( 'NONE', *, *, #21, .T. ) ;
#74 = ORIENTED_EDGE ( 'NONE', *, *, #298, .T. ) ;
#75 = ORIENTED_EDGE ( 'NONE', *, *, #937, .T. ) ;
#76 = EDGE_CURVE ( 'NONE', #815, #254, #266, .T. ) ;
#77 = EDGE_CURVE ( 'NONE', #170, #640, #1007, .T. ) ;
#78 = PLANE ( 'NONE',  #164 ) ;
#79 = DIRECTION ( 'NONE',  ( 0.0000000000000000000, 1.000000000000000000, 0.0000000000000000000 ) ) ;
#80 = LINE ( 'NONE', #627, #1177 ) ;
#81 = FACE_OUTER_BOUND ( 'NONE', #198, .T. ) ;
#82 = VERTEX_POINT ( 'NONE', #162 ) ;
#83 = FILL_AREA_STYLE_COLOUR ( '', #768 ) ;
#84 = ORIENTED_EDGE ( 'NONE', *, *, #291, .T. ) ;
#85 = CARTESIAN_POINT ( 'NONE',  ( 3.500370849898480241, 7.750000000000000000, 0.8000000000000000444 ) ) ;
#86 = VERTEX_POINT ( 'NONE', #1091 ) ;
#87 = LINE ( 'NONE', #1100, #306 ) ;
#88 = DIRECTION ( 'NONE',  ( 0.0000000000000000000, 1.000000000000000000, 0.0000000000000000000 ) ) ;
#89 = AXIS2_PLACEMENT_3D ( 'NONE', #656, #743, #928 ) ;
#90 = CARTESIAN_POINT ( 'NONE',  ( -3.279595021153620227, 0.0000000000000000000, 0.2669999999999999596 ) ) ;
#91 = EDGE_CURVE ( 'NONE', #186, #1110, #990, .T. ) ;
#92 = ADVANCED_FACE ( 'NONE', ( #729 ), #259, .T. ) ;
#93 = CARTESIAN_POINT ( 'NONE',  ( 2.779595021153620227, 0.0000000000000000000, 0.7670000000000000151 ) ) ;
#94 = AXIS2_PLACEMENT_3D ( 'NONE', #237, #901, #806 ) ;
#95 = DIRECTION ( 'NONE',  ( 0.0000000000000000000, 0.0000000000000000000, 1.000000000000000000 ) ) ;
#96 = ORIENTED_EDGE ( 'NONE', *, *, #1182, .F. ) ;
#97 = DIRECTION ( 'NONE',  ( 0.0000000000000000000, -1.000000000000000000, 0.0000000000000000000 ) ) ;
#98 = ORIENTED_EDGE ( 'NONE', *, *, #48, .T. ) ;
#99 = ADVANCED_FACE ( 'NONE', ( #353 ), #722, .T. ) ;
#100 = PRODUCT_DEFINITION_SHAPE ( 'NONE', 'NONE',  #941 ) ;
#101 = ORIENTED_EDGE ( 'NONE', *, *, #716, .T. ) ;
#102 = EDGE_CURVE ( 'NONE', #524, #1010, #312, .T. ) ;
#103 = CARTESIAN_POINT ( 'NONE',  ( 2.500000000000000000, 7.750000000000000000, 0.5000000000000000000 ) ) ;
#104 = EDGE_LOOP ( 'NONE', ( #181, #217, #1169, #243, #841, #886, #154, #1011, #331, #30, #657, #1052 ) ) ;
#105 = CARTESIAN_POINT ( 'NONE',  ( -7.500000000000000000, 0.0000000000000000000, 1.734723475976810176E-17 ) ) ;
#106 = CARTESIAN_POINT ( 'NONE',  ( 2.316237820303079786, 7.750000000000000000, -0.2786086702015569960 ) ) ;
#107 = EDGE_CURVE ( 'NONE', #813, #1167, #1192, .T. ) ;
#108 = CIRCLE ( 'NONE', #1156, 0.8000000000000001554 ) ;
#109 = PRESENTATION_STYLE_ASSIGNMENT (( #1106 ) ) ;
#110 = EDGE_LOOP ( 'NONE', ( #197, #98, #528, #20 ) ) ;
#111 = AXIS2_PLACEMENT_3D ( 'NONE', #85, #658, #178 ) ;
#112 = DIRECTION ( 'NONE',  ( 0.2297027246211492402, 0.0000000000000000000, 0.9732608377519462728 ) ) ;
#113 = VERTEX_POINT ( 'NONE', #1017 ) ;
#114 = DIRECTION ( 'NONE',  ( 0.0000000000000000000, -1.000000000000000000, 0.0000000000000000000 ) ) ;
#115 = ORIENTED_EDGE ( 'NONE', *, *, #407, .F. ) ;
#116 = CYLINDRICAL_SURFACE ( 'NONE', #852, 0.7999999999999997113 ) ;
#117 = ORIENTED_EDGE ( 'NONE', *, *, #699, .F. ) ;
#118 = EDGE_CURVE ( 'NONE', #677, #918, #492, .T. ) ;
#119 = CARTESIAN_POINT ( 'NONE',  ( 2.881923245252319798, 7.750000000000000000, 0.2870767547476800186 ) ) ;
#120 = DIRECTION ( 'NONE',  ( 0.0000000000000000000, 0.0000000000000000000, -1.000000000000000000 ) ) ;
#121 = DIRECTION ( 'NONE',  ( 0.0000000000000000000, 1.000000000000000000, 0.0000000000000000000 ) ) ;
#122 = EDGE_CURVE ( 'NONE', #640, #481, #211, .T. ) ;
#123 = DIRECTION ( 'NONE',  ( 1.000000000000000000, 0.0000000000000000000, 0.0000000000000000000 ) ) ;
#124 = EDGE_LOOP ( 'NONE', ( #982, #360, #536, #598 ) ) ;
#125 = ORIENTED_EDGE ( 'NONE', *, *, #621, .T. ) ;
#126 = DIRECTION ( 'NONE',  ( 1.000000000000000000, 0.0000000000000000000, 0.0000000000000000000 ) ) ;
#127 = ORIENTED_EDGE ( 'NONE', *, *, #173, .T. ) ;
#128 = VERTEX_POINT ( 'NONE', #251 ) ;
#129 = DIRECTION ( 'NONE',  ( 1.000000000000000000, -0.0000000000000000000, 0.0000000000000000000 ) ) ;
#130 = LINE ( 'NONE', #781, #246 ) ;
#131 = AXIS2_PLACEMENT_3D ( 'NONE', #630, #169, #342 ) ;
#132 = CARTESIAN_POINT ( 'NONE',  ( 3.045280446102850203, 7.750000000000000000, 0.5013145750507620457 ) ) ;
#133 = CARTESIAN_POINT ( 'NONE',  ( 4.923359784710830134, 7.750000000000000000, 0.1984741528257049914 ) ) ;
#134 = EDGE_CURVE ( 'NONE', #754, #258, #1035, .T. ) ;
#135 = DIRECTION ( 'NONE',  ( -0.2297027246211492402, 0.0000000000000000000, 0.9732608377519462728 ) ) ;
#136 = VECTOR ( 'NONE', #838, 1000.000000000000000 ) ;
#137 = DIRECTION ( 'NONE',  ( 0.0000000000000000000, 1.000000000000000000, 0.0000000000000000000 ) ) ;
#138 = VERTEX_POINT ( 'NONE', #277 ) ;
#139 = PLANE ( 'NONE',  #671 ) ;
#140 = ORIENTED_EDGE ( 'NONE', *, *, #831, .F. ) ;
#141 = FILL_AREA_STYLE ('',( #858 ) ) ;
#142 = ORIENTED_EDGE ( 'NONE', *, *, #1101, .F. ) ;
#143 = DIRECTION ( 'NONE',  ( -0.7071067811865470176, 0.0000000000000000000, -0.7071067811865480168 ) ) ;
#144 = ORIENTED_EDGE ( 'NONE', *, *, #76, .T. ) ;
#145 = DIRECTION ( 'NONE',  ( 0.7071067811865480168, 0.0000000000000000000, -0.7071067811865470176 ) ) ;
#146 =( LENGTH_UNIT ( ) NAMED_UNIT ( * ) SI_UNIT ( .MILLI., .METRE. ) );
#147 = DIRECTION ( 'NONE',  ( 0.0000000000000000000, 1.000000000000000000, 0.0000000000000000000 ) ) ;
#148 = AXIS2_PLACEMENT_3D ( 'NONE', #1067, #502, #586 ) ;
#149 = CARTESIAN_POINT ( 'NONE',  ( -7.500000000000000000, 7.750000000000000000, 0.2669999999999999596 ) ) ;
#150 = EDGE_CURVE ( 'NONE', #966, #128, #80, .T. ) ;
#151 = CARTESIAN_POINT ( 'NONE',  ( -3.194224104006408549, 0.0000000000000000000, 0.06089637399097041354 ) ) ;
#152 = ORIENTED_EDGE ( 'NONE', *, *, #53, .T. ) ;
#153 = VECTOR ( 'NONE', #557, 1000.000000000000000 ) ;
#154 = ORIENTED_EDGE ( 'NONE', *, *, #1072, .F. ) ;
#155 = ORIENTED_EDGE ( 'NONE', *, *, #91, .T. ) ;
#156 = AXIS2_PLACEMENT_3D ( 'NONE', #395, #480, #380 ) ;
#157 = ORIENTED_EDGE ( 'NONE', *, *, #638, .T. ) ;
#158 = CARTESIAN_POINT ( 'NONE',  ( 3.610965871052089771, 7.750000000000000000, 1.066999999999999948 ) ) ;
#159 = DIRECTION ( 'NONE',  ( 0.0000000000000000000, 1.000000000000000000, 0.0000000000000000000 ) ) ;
#160 = EDGE_CURVE ( 'NONE', #570, #497, #281, .T. ) ;
#161 = VECTOR ( 'NONE', #1006, 1000.000000000000000 ) ;
#162 = CARTESIAN_POINT ( 'NONE',  ( 1.481490098690586121, 0.7165954002061880601, 0.4999999999999990563 ) ) ;
#163 = CARTESIAN_POINT ( 'NONE',  ( 3.194224104006407661, 7.750000000000000000, 0.06089637399097096171 ) ) ;
#164 = AXIS2_PLACEMENT_3D ( 'NONE', #936, #946, #1118 ) ;
#165 = ADVANCED_FACE ( 'NONE', ( #704 ), #646, .T. ) ;
#166 = VECTOR ( 'NONE', #808, 1000.000000000000000 ) ;
#167 = LINE ( 'NONE', #594, #793 ) ;
#168 = ORIENTED_EDGE ( 'NONE', *, *, #107, .F. ) ;
#169 = DIRECTION ( 'NONE',  ( -1.000000000000000000, 0.0000000000000000000, 0.0000000000000000000 ) ) ;
#170 = VERTEX_POINT ( 'NONE', #191 ) ;
#171 = VERTEX_POINT ( 'NONE', #264 ) ;
#172 = FACE_OUTER_BOUND ( 'NONE', #934, .T. ) ;
#173 = EDGE_CURVE ( 'NONE', #258, #212, #957, .T. ) ;
#174 = DIRECTION ( 'NONE',  ( -0.3826834323650901148, 0.0000000000000000000, -0.9238795325112865164 ) ) ;
#175 = CARTESIAN_POINT ( 'NONE',  ( -3.279595021153620227, 7.750000000000000000, 0.2669999999999999596 ) ) ;
#176 = EDGE_CURVE ( 'NONE', #1092, #738, #577, .T. ) ;
#177 = ADVANCED_FACE ( 'NONE', ( #792 ), #545, .F. ) ;
#178 = DIRECTION ( 'NONE',  ( -0.3826834323650910030, 0.0000000000000000000, -0.9238795325112862944 ) ) ;
#179 = DIRECTION ( 'NONE',  ( 1.000000000000000000, 0.0000000000000000000, 0.0000000000000000000 ) ) ;
#180 = DIRECTION ( 'NONE',  ( 0.0000000000000000000, -1.000000000000000000, 0.0000000000000000000 ) ) ;
#181 = ORIENTED_EDGE ( 'NONE', *, *, #199, .F. ) ;
#182 = ORIENTED_EDGE ( 'NONE', *, *, #341, .F. ) ;
#183 = DIRECTION ( 'NONE',  ( 0.0000000000000000000, -1.000000000000000000, 0.0000000000000000000 ) ) ;
#184 = EDGE_LOOP ( 'NONE', ( #152, #995, #779, #140 ) ) ;
#185 = CARTESIAN_POINT ( 'NONE',  ( 3.500370849898480241, 7.750000000000000000, 0.0000000000000000000 ) ) ;
#186 = VERTEX_POINT ( 'NONE', #9 ) ;
#187 = CARTESIAN_POINT ( 'NONE',  ( -3.045280446102850203, 7.750000000000000000, 0.5013145750507620457 ) ) ;
#188 = AXIS2_PLACEMENT_3D ( 'NONE', #394, #309, #123 ) ;
#189 = DIRECTION ( 'NONE',  ( 1.000000000000000000, 0.0000000000000000000, 0.0000000000000000000 ) ) ;
#190 = ADVANCED_FACE ( 'NONE', ( #195 ), #741, .T. ) ;
#191 = CARTESIAN_POINT ( 'NONE',  ( -2.500000000000000000, 0.0000000000000000000, 0.7670000000000000151 ) ) ;
#192 = LINE ( 'NONE', #520, #444 ) ;
#193 = AXIS2_PLACEMENT_3D ( 'NONE', #352, #447, #810 ) ;
#194 = CARTESIAN_POINT ( 'NONE',  ( -3.304819125160017190, 7.750000000000000000, 0.3278963739909707131 ) ) ;
#195 = FACE_OUTER_BOUND ( 'NONE', #782, .T. ) ;
#196 = PLANE ( 'NONE',  #616 ) ;
#197 = ORIENTED_EDGE ( 'NONE', *, *, #199, .T. ) ;
#198 = EDGE_LOOP ( 'NONE', ( #752, #1136, #1063, #732 ) ) ;
#199 = EDGE_CURVE ( 'NONE', #128, #833, #295, .T. ) ;
#200 = VECTOR ( 'NONE', #446, 1000.000000000000000 ) ;
#201 = CARTESIAN_POINT ( 'NONE',  ( -1.481490098690585677, 0.0000000000000000000, 0.7670000000000003482 ) ) ;
#202 = VERTEX_POINT ( 'NONE', #279 ) ;
#203 = ORIENTED_EDGE ( 'NONE', *, *, #298, .F. ) ;
#204 = PLANE ( 'NONE',  #235 ) ;
#205 = SURFACE_STYLE_FILL_AREA ( #141 ) ;
#206 = CARTESIAN_POINT ( 'NONE',  ( -2.500000000000000000, 0.0000000000000000000, 0.5000000000000000000 ) ) ;
#207 = DIRECTION ( 'NONE',  ( 1.000000000000000000, 0.0000000000000000000, 0.0000000000000000000 ) ) ;
#208 = CARTESIAN_POINT ( 'NONE',  ( -7.500000000000000000, 0.0000000000000000000, 1.734723475976810176E-17 ) ) ;
#209 = CIRCLE ( 'NONE', #89, 3.753751380185251563 ) ;
#210 = CARTESIAN_POINT ( 'NONE',  ( -3.500370849898480241, 0.0000000000000000000, 1.327261123466340160E-18 ) ) ;
#211 = CIRCLE ( 'NONE', #728, 0.7999999999999999334 ) ;
#212 = VERTEX_POINT ( 'NONE', #185 ) ;
#213 = AXIS2_PLACEMENT_3D ( 'NONE', #908, #604, #126 ) ;
#214 = DIRECTION ( 'NONE',  ( 0.0000000000000000000, -1.000000000000000000, 0.0000000000000000000 ) ) ;
#215 = VERTEX_POINT ( 'NONE', #476 ) ;
#216 = CARTESIAN_POINT ( 'NONE',  ( -3.304819125160017190, 0.0000000000000000000, 0.3278963739909707131 ) ) ;
#217 = ORIENTED_EDGE ( 'NONE', *, *, #150, .F. ) ;
#218 = CYLINDRICAL_SURFACE ( 'NONE', #587, 0.8000000000000003775 ) ;
#219 = CARTESIAN_POINT ( 'NONE',  ( -3.610965871052089771, 0.0000000000000000000, 1.066999999999999948 ) ) ;
#220 = AXIS2_PLACEMENT_3D ( 'NONE', #1057, #23, #670 ) ;
#221 = DIRECTION ( 'NONE',  ( 1.000000000000000000, -1.387778780781449866E-16, 0.0000000000000000000 ) ) ;
#222 = EDGE_CURVE ( 'NONE', #872, #82, #975, .T. ) ;
#223 = SURFACE_STYLE_USAGE ( .BOTH. , #1073 ) ;
#224 = CARTESIAN_POINT ( 'NONE',  ( 2.500000000000000000, 0.0000000000000000000, 0.5000000000000000000 ) ) ;
#225 = ORIENTED_EDGE ( 'NONE', *, *, #1215, .F. ) ;
#226 = AXIS2_PLACEMENT_3D ( 'NONE', #356, #1109, #1104 ) ;
#227 = DIRECTION ( 'NONE',  ( 0.7071067811865480168, 0.0000000000000000000, 0.7071067811865470176 ) ) ;
#228 = ORIENTED_EDGE ( 'NONE', *, *, #893, .T. ) ;
#229 = FACE_OUTER_BOUND ( 'NONE', #610, .T. ) ;
#230 = ORIENTED_EDGE ( 'NONE', *, *, #735, .T. ) ;
#231 = CARTESIAN_POINT ( 'NONE',  ( 3.610965871052089771, 0.0000000000000000000, 1.066999999999999948 ) ) ;
#232 = EDGE_CURVE ( 'NONE', #677, #731, #884, .T. ) ;
#233 = ORIENTED_EDGE ( 'NONE', *, *, #538, .F. ) ;
#234 = CARTESIAN_POINT ( 'NONE',  ( -3.610965871052089771, 0.0000000000000000000, 0.2669999999999999596 ) ) ;
#235 = AXIS2_PLACEMENT_3D ( 'NONE', #854, #120, #114 ) ;
#236 = APPLICATION_PROTOCOL_DEFINITION ( 'draft international standard', 'automotive_design', 1998, #410 ) ;
#237 = CARTESIAN_POINT ( 'NONE',  ( -3.500370849898480241, 0.0000000000000000000, 0.8000000000000000444 ) ) ;
#238 = EDGE_CURVE ( 'NONE', #253, #915, #12, .T. ) ;
#239 =( NAMED_UNIT ( * ) PLANE_ANGLE_UNIT ( ) SI_UNIT ( $, .RADIAN. ) );
#240 = VECTOR ( 'NONE', #348, 1000.000000000000000 ) ;
#241 = LINE ( 'NONE', #977, #823 ) ;
#242 = ORIENTED_EDGE ( 'NONE', *, *, #937, .F. ) ;
#243 = ORIENTED_EDGE ( 'NONE', *, *, #494, .F. ) ;
#244 = ORIENTED_EDGE ( 'NONE', *, *, #785, .F. ) ;
#245 = VECTOR ( 'NONE', #863, 1000.000000000000000 ) ;
#246 = VECTOR ( 'NONE', #1078, 1000.000000000000000 ) ;
#247 = DIRECTION ( 'NONE',  ( 1.000000000000000000, 0.0000000000000000000, 0.0000000000000000000 ) ) ;
#248 = DIRECTION ( 'NONE',  ( 0.0000000000000000000, 0.0000000000000000000, 1.000000000000000000 ) ) ;
#249 = DIRECTION ( 'NONE',  ( -1.000000000000000000, 0.0000000000000000000, 4.005364756353740102E-18 ) ) ;
#250 = CARTESIAN_POINT ( 'NONE',  ( 3.500370849898480241, 0.0000000000000000000, 0.8000000000000000444 ) ) ;
#251 = CARTESIAN_POINT ( 'NONE',  ( -2.934685424949239785, 0.0000000000000000000, 0.2343145750507630021 ) ) ;
#252 = LINE ( 'NONE', #149, #337 ) ;
#253 = VERTEX_POINT ( 'NONE', #549 ) ;
#254 = VERTEX_POINT ( 'NONE', #644 ) ;
#255 = CARTESIAN_POINT ( 'NONE',  ( 2.779595021153620227, 0.0000000000000000000, 0.7670000000000000151 ) ) ;
#256 = LINE ( 'NONE', #490, #1123 ) ;
#257 = STYLED_ITEM ( 'NONE', ( #109 ), #64 ) ;
#258 = VERTEX_POINT ( 'NONE', #830 ) ;
#259 = PLANE ( 'NONE',  #558 ) ;
#260 = CARTESIAN_POINT ( 'NONE',  ( 3.045280446102850203, 0.0000000000000000000, 0.5013145750507620457 ) ) ;
#261 = EDGE_CURVE ( 'NONE', #86, #870, #913, .T. ) ;
#262 = UNCERTAINTY_MEASURE_WITH_UNIT (LENGTH_MEASURE( 1.000000000000000082E-05 ), #390, 'distance_accuracy_value', 'NONE');
#263 = CARTESIAN_POINT ( 'NONE',  ( 3.194224104006407661, 0.0000000000000000000, 0.06089637399097128090 ) ) ;
#264 = CARTESIAN_POINT ( 'NONE',  ( -2.934685424949239785, 7.750000000000000000, 0.2343145750507630021 ) ) ;
#265 = EDGE_CURVE ( 'NONE', #980, #916, #900, .T. ) ;
#266 = LINE ( 'NONE', #1014, #675 ) ;
#267 = VECTOR ( 'NONE', #498, 1000.000000000000000 ) ;
#268 = DIRECTION ( 'NONE',  ( 0.2297027246211492402, 0.0000000000000000000, 0.9732608377519462728 ) ) ;
#269 = ORIENTED_EDGE ( 'NONE', *, *, #979, .T. ) ;
#270 = ORIENTED_EDGE ( 'NONE', *, *, #561, .T. ) ;
#271 = ORIENTED_EDGE ( 'NONE', *, *, #638, .F. ) ;
#272 = SURFACE_STYLE_FILL_AREA ( #869 ) ;
#273 = DIRECTION ( 'NONE',  ( 0.0000000000000000000, 1.000000000000000000, 0.0000000000000000000 ) ) ;
#274 =( GEOMETRIC_REPRESENTATION_CONTEXT ( 3 ) GLOBAL_UNCERTAINTY_ASSIGNED_CONTEXT ( ( #262 ) ) GLOBAL_UNIT_ASSIGNED_CONTEXT ( ( #390, #509, #580 ) ) REPRESENTATION_CONTEXT ( 'NONE', 'WORKASPACE' ) );
#275 = DIRECTION ( 'NONE',  ( -0.3826834323650901148, 0.0000000000000000000, -0.9238795325112865164 ) ) ;
#276 = LINE ( 'NONE', #1158, #805 ) ;
#277 = CARTESIAN_POINT ( 'NONE',  ( 3.194224104006407661, 0.0000000000000000000, 0.06089637399097096171 ) ) ;
#278 = PLANE ( 'NONE',  #411 ) ;
#279 = CARTESIAN_POINT ( 'NONE',  ( -2.500000000000000000, 0.0000000000000000000, 0.7670000000000000151 ) ) ;
#280 = LINE ( 'NONE', #36, #1005 ) ;
#281 = CIRCLE ( 'NONE', #323, 0.8000000000000003775 ) ;
#282 = CYLINDRICAL_SURFACE ( 'NONE', #426, 0.8000000000000003775 ) ;
#283 = EDGE_CURVE ( 'NONE', #399, #1092, #1032, .T. ) ;
#284 = EDGE_LOOP ( 'NONE', ( #1149, #368, #470, #1183 ) ) ;
#285 = PLANE ( 'NONE',  #650 ) ;
#286 = ADVANCED_FACE ( 'NONE', ( #867 ), #431, .T. ) ;
#287 = ORIENTED_EDGE ( 'NONE', *, *, #122, .T. ) ;
#288 = VECTOR ( 'NONE', #437, 1000.000000000000000 ) ;
#289 = ORIENTED_EDGE ( 'NONE', *, *, #34, .F. ) ;
#290 = DIRECTION ( 'NONE',  ( -0.0000000000000000000, -0.0000000000000000000, 1.000000000000000000 ) ) ;
#291 = EDGE_CURVE ( 'NONE', #870, #1122, #776, .T. ) ;
#292 = CARTESIAN_POINT ( 'NONE',  ( 2.500000000000000000, 7.750000000000000000, 0.7670000000000000151 ) ) ;
#293 = PLANE ( 'NONE',  #807 ) ;
#294 = DIRECTION ( 'NONE',  ( 0.0000000000000000000, 1.000000000000000000, 0.0000000000000000000 ) ) ;
#295 = CIRCLE ( 'NONE', #974, 0.8000000000000001554 ) ;
#296 = VERTEX_POINT ( 'NONE', #210 ) ;
#297 = ORIENTED_EDGE ( 'NONE', *, *, #77, .F. ) ;
#298 = EDGE_CURVE ( 'NONE', #916, #113, #1064, .T. ) ;
#299 = DIRECTION ( 'NONE',  ( 0.0000000000000000000, 1.000000000000000000, 0.0000000000000000000 ) ) ;
#300 = ORIENTED_EDGE ( 'NONE', *, *, #898, .F. ) ;
#301 = LINE ( 'NONE', #740, #1140 ) ;
#302 = EDGE_LOOP ( 'NONE', ( #771, #1028, #289, #329 ) ) ;
#303 = CARTESIAN_POINT ( 'NONE',  ( 1.235088861764390042E-16, 7.750000000000000000, 0.6334999999999999520 ) ) ;
#304 = ADVANCED_FACE ( 'NONE', ( #834 ), #204, .T. ) ;
#305 = DIRECTION ( 'NONE',  ( 0.0000000000000000000, 1.000000000000000000, 0.0000000000000000000 ) ) ;
#306 = VECTOR ( 'NONE', #882, 1000.000000000000000 ) ;
#307 = DIRECTION ( 'NONE',  ( 0.0000000000000000000, 1.000000000000000000, 0.0000000000000000000 ) ) ;
#308 = ADVANCED_FACE ( 'NONE', ( #651 ), #293, .T. ) ;
#309 = DIRECTION ( 'NONE',  ( 0.0000000000000000000, 0.0000000000000000000, 1.000000000000000000 ) ) ;
#310 = DIRECTION ( 'NONE',  ( 0.0000000000000000000, -1.000000000000000000, 0.0000000000000000000 ) ) ;
#311 = VECTOR ( 'NONE', #1018, 1000.000000000000000 ) ;
#312 = CIRCLE ( 'NONE', #14, 0.8000000000000003775 ) ;
#313 = AXIS2_PLACEMENT_3D ( 'NONE', #475, #940, #846 ) ;
#314 = VECTOR ( 'NONE', #1071, 1000.000000000000000 ) ;
#315 = CARTESIAN_POINT ( 'NONE',  ( -2.500000000000000000, 0.0000000000000000000, 0.5000000000000000000 ) ) ;
#316 = ORIENTED_EDGE ( 'NONE', *, *, #37, .F. ) ;
#317 = ORIENTED_EDGE ( 'NONE', *, *, #780, .F. ) ;
#318 = LINE ( 'NONE', #35, #245 ) ;
#319 = ORIENTED_EDGE ( 'NONE', *, *, #1196, .T. ) ;
#320 = CARTESIAN_POINT ( 'NONE',  ( 2.500000000000000000, 7.750000000000000000, 0.7670000000000000151 ) ) ;
#321 = LINE ( 'NONE', #49, #449 ) ;
#322 = DIRECTION ( 'NONE',  ( 0.0000000000000000000, -1.000000000000000000, 0.0000000000000000000 ) ) ;
#323 = AXIS2_PLACEMENT_3D ( 'NONE', #362, #97, #367 ) ;
#324 = EDGE_CURVE ( 'NONE', #212, #719, #714, .T. ) ;
#325 = CARTESIAN_POINT ( 'NONE',  ( -3.500370849898480241, 7.750000000000000000, 1.327261123466340160E-18 ) ) ;
#326 = VECTOR ( 'NONE', #750, 1000.000000000000000 ) ;
#327 = ORIENTED_EDGE ( 'NONE', *, *, #427, .T. ) ;
#328 = ORIENTED_EDGE ( 'NONE', *, *, #222, .F. ) ;
#329 = ORIENTED_EDGE ( 'NONE', *, *, #76, .F. ) ;
#330 = LINE ( 'NONE', #208, #828 ) ;
#331 = ORIENTED_EDGE ( 'NONE', *, *, #521, .F. ) ;
#332 = CIRCLE ( 'NONE', #723, 0.8000000000000001554 ) ;
#333 = CARTESIAN_POINT ( 'NONE',  ( -2.500000000000000000, 7.750000000000000000, 0.5000000000000000000 ) ) ;
#334 = MECHANICAL_DESIGN_GEOMETRIC_PRESENTATION_REPRESENTATION (  '', ( #876 ), #1176 ) ;
#335 = DIRECTION ( 'NONE',  ( 0.0000000000000000000, 1.000000000000000000, 0.0000000000000000000 ) ) ;
#336 = DIRECTION ( 'NONE',  ( 0.0000000000000000000, 0.0000000000000000000, -1.000000000000000000 ) ) ;
#337 = VECTOR ( 'NONE', #247, 1000.000000000000000 ) ;
#338 = ORIENTED_EDGE ( 'NONE', *, *, #34, .T. ) ;
#339 = VECTOR ( 'NONE', #1045, 1000.000000000000000 ) ;
#340 = ORIENTED_EDGE ( 'NONE', *, *, #1114, .F. ) ;
#341 = EDGE_CURVE ( 'NONE', #58, #918, #400, .T. ) ;
#342 = DIRECTION ( 'NONE',  ( 0.0000000000000000000, 0.0000000000000000000, 1.000000000000000000 ) ) ;
#343 = ORIENTED_EDGE ( 'NONE', *, *, #1081, .T. ) ;
#344 = CIRCLE ( 'NONE', #665, 0.8000000000000003775 ) ;
#345 = ORIENTED_EDGE ( 'NONE', *, *, #150, .T. ) ;
#346 = DIRECTION ( 'NONE',  ( -0.3826834323650910030, 0.0000000000000000000, -0.9238795325112862944 ) ) ;
#347 = EDGE_CURVE ( 'NONE', #296, #978, #1148, .T. ) ;
#348 = DIRECTION ( 'NONE',  ( -0.7071067811865470176, 0.0000000000000000000, 0.7071067811865480168 ) ) ;
#349 =( LENGTH_UNIT ( ) NAMED_UNIT ( * ) SI_UNIT ( .MILLI., .METRE. ) );
#350 = AXIS2_PLACEMENT_3D ( 'NONE', #727, #88, #268 ) ;
#351 = EDGE_CURVE ( 'NONE', #1110, #905, #634, .T. ) ;
#352 = CARTESIAN_POINT ( 'NONE',  ( 2.446428462371200041, 7.750000000000000000, -0.03120429111605620143 ) ) ;
#353 = FACE_OUTER_BOUND ( 'NONE', #1211, .T. ) ;
#354 = CLOSED_SHELL ( 'NONE', ( #5, #551, #440, #563, #92, #8, #930, #190, #565, #850, #742, #559, #308, #629 ) ) ;
#355 = ORIENTED_EDGE ( 'NONE', *, *, #505, .F. ) ;
#356 = CARTESIAN_POINT ( 'NONE',  ( -4.923359784710839904, 7.750000000000000000, 0.1984741528257049914 ) ) ;
#357 = AXIS2_PLACEMENT_3D ( 'NONE', #787, #414, #42 ) ;
#358 = ORIENTED_EDGE ( 'NONE', *, *, #1012, .T. ) ;
#359 = DIRECTION ( 'NONE',  ( 0.0000000000000000000, -1.000000000000000000, 0.0000000000000000000 ) ) ;
#360 = ORIENTED_EDGE ( 'NONE', *, *, #173, .F. ) ;
#361 = EDGE_CURVE ( 'NONE', #766, #837, #853, .T. ) ;
#362 = CARTESIAN_POINT ( 'NONE',  ( -3.610965871052089771, 0.0000000000000000000, 1.066999999999999948 ) ) ;
#363 = CARTESIAN_POINT ( 'NONE',  ( 3.500370849898480241, 0.0000000000000000000, 0.8000000000000000444 ) ) ;
#364 = ADVANCED_FACE ( 'NONE', ( #534 ), #491, .T. ) ;
#365 = VECTOR ( 'NONE', #762, 1000.000000000000000 ) ;
#366 = VERTEX_POINT ( 'NONE', #1147 ) ;
#367 = DIRECTION ( 'NONE',  ( 0.3826834323650901148, 0.0000000000000000000, -0.9238795325112865164 ) ) ;
#368 = ORIENTED_EDGE ( 'NONE', *, *, #576, .F. ) ;
#369 = ORIENTED_EDGE ( 'NONE', *, *, #911, .T. ) ;
#370 = ORIENTED_EDGE ( 'NONE', *, *, #1065, .F. ) ;
#371 = VECTOR ( 'NONE', #789, 1000.000000000000000 ) ;
#372 = MECHANICAL_DESIGN_GEOMETRIC_PRESENTATION_REPRESENTATION (  '', ( #862 ), #788 ) ;
#373 = DIRECTION ( 'NONE',  ( -0.7071067811865470176, 0.0000000000000000000, 0.7071067811865480168 ) ) ;
#374 = ADVANCED_FACE ( 'NONE', ( #1132 ), #1036, .T. ) ;
#375 = ADVANCED_FACE ( 'NONE', ( #1077 ), #196, .T. ) ;
#376 = CARTESIAN_POINT ( 'NONE',  ( -2.934685424949239785, 0.0000000000000000000, 0.2343145750507630021 ) ) ;
#377 = CARTESIAN_POINT ( 'NONE',  ( -2.500000000000000000, 7.750000000000000000, 0.5000000000000000000 ) ) ;
#378 = AXIS2_PLACEMENT_3D ( 'NONE', #919, #1191, #336 ) ;
#379 = CIRCLE ( 'NONE', #350, 0.7999999999999997113 ) ;
#380 = DIRECTION ( 'NONE',  ( 0.3826834323650901148, 0.0000000000000000000, -0.9238795325112865164 ) ) ;
#381 = VECTOR ( 'NONE', #1088, 1000.000000000000000 ) ;
#382 = FACE_OUTER_BOUND ( 'NONE', #1066, .T. ) ;
#383 = EDGE_CURVE ( 'NONE', #966, #13, #241, .T. ) ;
#384 = ORIENTED_EDGE ( 'NONE', *, *, #659, .F. ) ;
#385 =( NAMED_UNIT ( * ) SI_UNIT ( $, .STERADIAN. ) SOLID_ANGLE_UNIT ( ) );
#386 = ORIENTED_EDGE ( 'NONE', *, *, #601, .F. ) ;
#387 = CARTESIAN_POINT ( 'NONE',  ( -2.500000000000000000, 7.750000000000000000, 0.7670000000000000151 ) ) ;
#388 = LINE ( 'NONE', #1090, #454 ) ;
#389 = EDGE_LOOP ( 'NONE', ( #931, #54, #1051, #624 ) ) ;
#390 =( LENGTH_UNIT ( ) NAMED_UNIT ( * ) SI_UNIT ( .MILLI., .METRE. ) );
#391 = LINE ( 'NONE', #511, #1202 ) ;
#392 = CARTESIAN_POINT ( 'NONE',  ( 3.610965871052089771, 7.750000000000000000, 1.066999999999999948 ) ) ;
#393 = CARTESIAN_POINT ( 'NONE',  ( -2.500000000000000000, 0.0000000000000000000, 0.7670000000000000151 ) ) ;
#394 = CARTESIAN_POINT ( 'NONE',  ( -7.500000000000000000, 0.0000000000000000000, 0.2669999999999999596 ) ) ;
#395 = CARTESIAN_POINT ( 'NONE',  ( -3.610965871052089771, 7.750000000000000000, 1.066999999999999948 ) ) ;
#396 = PRODUCT_DEFINITION_FORMATION_WITH_SPECIFIED_SOURCE ( 'ANY', '', #953, .NOT_KNOWN. ) ;
#397 = PLANE ( 'NONE',  #188 ) ;
#398 = PLANE ( 'NONE',  #612 ) ;
#399 = VERTEX_POINT ( 'NONE', #755 ) ;
#400 = CIRCLE ( 'NONE', #51, 0.7999999999999997113 ) ;
#401 = ORIENTED_EDGE ( 'NONE', *, *, #176, .F. ) ;
#402 = CARTESIAN_POINT ( 'NONE',  ( 1.481490098690585677, 0.0000000000000000000, 0.4999999999999993339 ) ) ;
#403 = ORIENTED_EDGE ( 'NONE', *, *, #673, .F. ) ;
#404 = ORIENTED_EDGE ( 'NONE', *, *, #1065, .T. ) ;
#405 = DIRECTION ( 'NONE',  ( 0.0000000000000000000, 0.0000000000000000000, -1.000000000000000000 ) ) ;
#406 = VECTOR ( 'NONE', #1058, 1000.000000000000000 ) ;
#407 = EDGE_CURVE ( 'NONE', #1010, #709, #1022, .T. ) ;
#408 = CIRCLE ( 'NONE', #148, 0.8000000000000003775 ) ;
#409 = VECTOR ( 'NONE', #890, 1000.000000000000000 ) ;
#410 = APPLICATION_CONTEXT ( 'automotive_design' ) ;
#411 = AXIS2_PLACEMENT_3D ( 'NONE', #734, #562, #179 ) ;
#412 = CARTESIAN_POINT ( 'NONE',  ( 3.304819125160017190, 0.0000000000000000000, 0.3278963739909703801 ) ) ;
#413 = VERTEX_POINT ( 'NONE', #698 ) ;
#414 = DIRECTION ( 'NONE',  ( 0.0000000000000000000, 1.000000000000000000, 0.0000000000000000000 ) ) ;
#415 = ORIENTED_EDGE ( 'NONE', *, *, #668, .T. ) ;
#416 = SURFACE_STYLE_FILL_AREA ( #725 ) ;
#417 = DIRECTION ( 'NONE',  ( 0.0000000000000000000, 1.000000000000000000, 0.0000000000000000000 ) ) ;
#418 = DIRECTION ( 'NONE',  ( 1.000000000000000000, 0.0000000000000000000, 0.0000000000000000000 ) ) ;
#419 = EDGE_LOOP ( 'NONE', ( #1179, #1068, #27, #993 ) ) ;
#420 = LINE ( 'NONE', #1124, #1154 ) ;
#421 = DIRECTION ( 'NONE',  ( -0.0000000000000000000, -0.0000000000000000000, 1.000000000000000000 ) ) ;
#422 = ORIENTED_EDGE ( 'NONE', *, *, #347, .F. ) ;
#423 = CARTESIAN_POINT ( 'NONE',  ( -2.446428462371200041, 0.0000000000000000000, -0.03120429111605620143 ) ) ;
#424 = UNCERTAINTY_MEASURE_WITH_UNIT (LENGTH_MEASURE( 1.000000000000000082E-05 ), #544, 'distance_accuracy_value', 'NONE');
#425 = DIRECTION ( 'NONE',  ( -0.3826834323650910030, 0.0000000000000000000, -0.9238795325112862944 ) ) ;
#426 = AXIS2_PLACEMENT_3D ( 'NONE', #231, #1160, #784 ) ;
#427 = EDGE_CURVE ( 'NONE', #667, #860, #167, .T. ) ;
#428 = PRODUCT_CONTEXT ( 'NONE', #410, 'mechanical' ) ;
#429 = VECTOR ( 'NONE', #1039, 1000.000000000000000 ) ;
#430 = PLANE ( 'NONE',  #920 ) ;
#431 = CYLINDRICAL_SURFACE ( 'NONE', #757, 0.7999999999999997113 ) ;
#432 = ORIENTED_EDGE ( 'NONE', *, *, #1182, .T. ) ;
#433 = VECTOR ( 'NONE', #1026, 1000.000000000000000 ) ;
#434 = ORIENTED_EDGE ( 'NONE', *, *, #845, .F. ) ;
#435 = FACE_OUTER_BOUND ( 'NONE', #482, .T. ) ;
#436 = ORIENTED_EDGE ( 'NONE', *, *, #407, .T. ) ;
#437 = DIRECTION ( 'NONE',  ( 0.0000000000000000000, -1.000000000000000000, 0.0000000000000000000 ) ) ;
#438 = EDGE_CURVE ( 'NONE', #905, #619, #944, .T. ) ;
#439 = ORIENTED_EDGE ( 'NONE', *, *, #160, .T. ) ;
#440 = ADVANCED_FACE ( 'NONE', ( #382 ), #1178, .T. ) ;
#441 = LINE ( 'NONE', #315, #697 ) ;
#442 = DIRECTION ( 'NONE',  ( -0.0000000000000000000, 0.0000000000000000000, 1.000000000000000000 ) ) ;
#443 = PRESENTATION_LAYER_ASSIGNMENT (  '', '', ( #862 ) ) ;
#444 = VECTOR ( 'NONE', #786, 1000.000000000000000 ) ;
#445 = DIRECTION ( 'NONE',  ( 0.0000000000000000000, 1.000000000000000000, 0.0000000000000000000 ) ) ;
#446 = DIRECTION ( 'NONE',  ( 0.0000000000000000000, -1.000000000000000000, 0.0000000000000000000 ) ) ;
#447 = DIRECTION ( 'NONE',  ( 0.0000000000000000000, -1.000000000000000000, 0.0000000000000000000 ) ) ;
#448 = ADVANCED_BREP_SHAPE_REPRESENTATION ( 'WSLP5931 (0.003)', ( #64, #878, #642, #748 ), #274 ) ;
#449 = VECTOR ( 'NONE', #137, 1000.000000000000000 ) ;
#450 = ORIENTED_EDGE ( 'NONE', *, *, #1166, .T. ) ;
#451 = AXIS2_PLACEMENT_3D ( 'NONE', #93, #1125, #180 ) ;
#452 = CARTESIAN_POINT ( 'NONE',  ( -4.923359784710839904, 0.0000000000000000000, 0.1984741528257049914 ) ) ;
#453 = ORIENTED_EDGE ( 'NONE', *, *, #1059, .T. ) ;
#454 = VECTOR ( 'NONE', #248, 1000.000000000000000 ) ;
#455 = EDGE_LOOP ( 'NONE', ( #287, #270, #1214, #1197 ) ) ;
#456 = DIRECTION ( 'NONE',  ( 0.3826834323650896708, 0.0000000000000000000, -0.9238795325112867385 ) ) ;
#457 = EDGE_CURVE ( 'NONE', #966, #874, #991, .T. ) ;
#458 = ADVANCED_FACE ( 'NONE', ( #493 ), #282, .F. ) ;
#459 = CARTESIAN_POINT ( 'NONE',  ( -3.500370849898480241, 0.0000000000000000000, 0.8000000000000000444 ) ) ;
#460 = PLANE ( 'NONE',  #226 ) ;
#461 = ADVANCED_FACE ( 'NONE', ( #1209 ), #687, .F. ) ;
#462 = CARTESIAN_POINT ( 'NONE',  ( 1.250000000000000000, 0.0000000000000000000, 0.7670000000000000151 ) ) ;
#463 = VECTOR ( 'NONE', #147, 1000.000000000000000 ) ;
#464 = ORIENTED_EDGE ( 'NONE', *, *, #780, .T. ) ;
#465 = EDGE_LOOP ( 'NONE', ( #316, #327, #233, #499 ) ) ;
#466 = CARTESIAN_POINT ( 'NONE',  ( 3.012113887320429839, 7.750000000000000000, 0.5344811338331819650 ) ) ;
#467 = VERTEX_POINT ( 'NONE', #224 ) ;
#468 = CARTESIAN_POINT ( 'NONE',  ( 3.279595021153620227, 0.0000000000000000000, 0.2669999999999999596 ) ) ;
#469 = FACE_OUTER_BOUND ( 'NONE', #1042, .T. ) ;
#470 = ORIENTED_EDGE ( 'NONE', *, *, #291, .F. ) ;
#471 = FACE_OUTER_BOUND ( 'NONE', #1119, .T. ) ;
#472 = ADVANCED_FACE ( 'NONE', ( #730 ), #398, .T. ) ;
#473 = CARTESIAN_POINT ( 'NONE',  ( -2.446428462371200041, 7.750000000000000000, -0.03120429111605620143 ) ) ;
#474 = ADVANCED_FACE ( 'NONE', ( #70 ), #139, .T. ) ;
#475 = CARTESIAN_POINT ( 'NONE',  ( -2.316237820303079786, 7.750000000000000000, -0.2786086702015569960 ) ) ;
#476 = CARTESIAN_POINT ( 'NONE',  ( -3.012113887320429839, 0.0000000000000000000, 0.5344811338331819650 ) ) ;
#477 = EDGE_CURVE ( 'NONE', #709, #399, #1194, .T. ) ;
#478 = VECTOR ( 'NONE', #19, 1000.000000000000000 ) ;
#479 = VECTOR ( 'NONE', #1113, 1000.000000000000000 ) ;
#480 = DIRECTION ( 'NONE',  ( 0.0000000000000000000, 1.000000000000000000, 0.0000000000000000000 ) ) ;
#481 = VERTEX_POINT ( 'NONE', #971 ) ;
#482 = EDGE_LOOP ( 'NONE', ( #1181, #464, #539, #144, #765, #142, #228, #369 ) ) ;
#483 = CARTESIAN_POINT ( 'NONE',  ( 2.500000000000000000, 7.750000000000000000, 0.7670000000000000151 ) ) ;
#484 = CARTESIAN_POINT ( 'NONE',  ( 7.500000000000000000, 0.0000000000000000000, 0.2669999999999999596 ) ) ;
#485 = EDGE_LOOP ( 'NONE', ( #904, #340, #663, #345 ) ) ;
#486 = CARTESIAN_POINT ( 'NONE',  ( 7.500000000000000000, 0.0000000000000000000, 0.2669999999999999596 ) ) ;
#487 = EDGE_CURVE ( 'NONE', #731, #212, #39, .T. ) ;
#488 = DIRECTION ( 'NONE',  ( 0.3826834323650901148, 0.0000000000000000000, -0.9238795325112865164 ) ) ;
#489 = DIRECTION ( 'NONE',  ( 0.06696442203600497245, 0.0000000000000000000, 0.9977553638950701353 ) ) ;
#490 = CARTESIAN_POINT ( 'NONE',  ( 2.500000000000000000, 0.0000000000000000000, 0.7670000000000000151 ) ) ;
#491 = PLANE ( 'NONE',  #1204 ) ;
#492 = LINE ( 'NONE', #820, #240 ) ;
#493 = FACE_OUTER_BOUND ( 'NONE', #535, .T. ) ;
#494 = EDGE_CURVE ( 'NONE', #170, #874, #523, .T. ) ;
#495 = ORIENTED_EDGE ( 'NONE', *, *, #887, .F. ) ;
#496 = DIRECTION ( 'NONE',  ( 1.000000000000000000, 0.0000000000000000000, 0.0000000000000000000 ) ) ;
#497 = VERTEX_POINT ( 'NONE', #216 ) ;
#498 = DIRECTION ( 'NONE',  ( 1.000000000000000000, 0.0000000000000000000, -1.387778780781449866E-16 ) ) ;
#499 = ORIENTED_EDGE ( 'NONE', *, *, #118, .F. ) ;
#500 = VECTOR ( 'NONE', #939, 1000.000000000000000 ) ;
#501 = AXIS2_PLACEMENT_3D ( 'NONE', #59, #417, #894 ) ;
#502 = DIRECTION ( 'NONE',  ( 0.0000000000000000000, 1.000000000000000000, 0.0000000000000000000 ) ) ;
#503 = ORIENTED_EDGE ( 'NONE', *, *, #1103, .F. ) ;
#504 = SURFACE_STYLE_USAGE ( .BOTH. , #29 ) ;
#505 = EDGE_CURVE ( 'NONE', #413, #253, #749, .T. ) ;
#506 = UNCERTAINTY_MEASURE_WITH_UNIT (LENGTH_MEASURE( 1.000000000000000082E-05 ), #674, 'distance_accuracy_value', 'NONE');
#507 = CARTESIAN_POINT ( 'NONE',  ( -7.500000000000000000, 0.0000000000000000000, 0.2669999999999999596 ) ) ;
#508 = CARTESIAN_POINT ( 'NONE',  ( 3.500370849898480241, 7.750000000000000000, 0.8000000000000000444 ) ) ;
#509 =( NAMED_UNIT ( * ) PLANE_ANGLE_UNIT ( ) SI_UNIT ( $, .RADIAN. ) );
#510 = AXIS2_PLACEMENT_3D ( 'NONE', #645, #159, #925 ) ;
#511 = CARTESIAN_POINT ( 'NONE',  ( -3.169000000000000039, 0.0000000000000000000, 0.0000000000000000000 ) ) ;
#512 = CARTESIAN_POINT ( 'NONE',  ( -2.316237820303079786, 0.0000000000000000000, -0.2786086702015569960 ) ) ;
#513 = CYLINDRICAL_SURFACE ( 'NONE', #94, 0.8000000000000001554 ) ;
#514 = EDGE_LOOP ( 'NONE', ( #403, #73, #1025, #18 ) ) ;
#515 = CARTESIAN_POINT ( 'NONE',  ( -3.610965871052089771, 0.0000000000000000000, 1.066999999999999948 ) ) ;
#516 = ORIENTED_EDGE ( 'NONE', *, *, #438, .T. ) ;
#517 = LINE ( 'NONE', #175, #1082 ) ;
#518 = ORIENTED_EDGE ( 'NONE', *, *, #232, .F. ) ;
#519 =( GEOMETRIC_REPRESENTATION_CONTEXT ( 3 ) GLOBAL_UNCERTAINTY_ASSIGNED_CONTEXT ( ( #424 ) ) GLOBAL_UNIT_ASSIGNED_CONTEXT ( ( #544, #903, #912 ) ) REPRESENTATION_CONTEXT ( 'NONE', 'WORKASPACE' ) );
#520 = CARTESIAN_POINT ( 'NONE',  ( 2.500000000000000000, 7.750000000000000000, 0.5000000000000000000 ) ) ;
#521 = EDGE_CURVE ( 'NONE', #870, #570, #280, .T. ) ;
#522 = FACE_OUTER_BOUND ( 'NONE', #514, .T. ) ;
#523 = LINE ( 'NONE', #983, #662 ) ;
#524 = VERTEX_POINT ( 'NONE', #906 ) ;
#525 = EDGE_LOOP ( 'NONE', ( #43, #225, #996, #401, #41, #1139, #1079, #1108, #888, #415, #568, #591 ) ) ;
#526 = CARTESIAN_POINT ( 'NONE',  ( 2.934685424949239785, 0.0000000000000000000, 0.2343145750507620029 ) ) ;
#527 = APPLICATION_PROTOCOL_DEFINITION ( 'draft international standard', 'automotive_design', 1998, #1087 ) ;
#528 = ORIENTED_EDGE ( 'NONE', *, *, #699, .T. ) ;
#529 = DIRECTION ( 'NONE',  ( -0.7071067811865480168, 0.0000000000000000000, -0.7071067811865470176 ) ) ;
#530 = PLANE ( 'NONE',  #713 ) ;
#531 = PLANE ( 'NONE',  #378 ) ;
#532 = DIRECTION ( 'NONE',  ( 0.0000000000000000000, -1.000000000000000000, 0.0000000000000000000 ) ) ;
#533 = LINE ( 'NONE', #526, #463 ) ;
#534 = FACE_OUTER_BOUND ( 'NONE', #801, .T. ) ;
#535 = EDGE_LOOP ( 'NONE', ( #868, #358, #994, #436 ) ) ;
#536 = ORIENTED_EDGE ( 'NONE', *, *, #134, .F. ) ;
#537 = DIRECTION ( 'NONE',  ( 0.0000000000000000000, -1.000000000000000000, 0.0000000000000000000 ) ) ;
#538 = EDGE_CURVE ( 'NONE', #918, #860, #1033, .T. ) ;
#539 = ORIENTED_EDGE ( 'NONE', *, *, #1206, .T. ) ;
#540 = FILL_AREA_STYLE ('',( #614 ) ) ;
#541 =( NAMED_UNIT ( * ) PLANE_ANGLE_UNIT ( ) SI_UNIT ( $, .RADIAN. ) );
#542 = MECHANICAL_DESIGN_GEOMETRIC_PRESENTATION_REPRESENTATION (  '', ( #628 ), #603 ) ;
#543 = ADVANCED_FACE ( 'NONE', ( #661 ), #701, .T. ) ;
#544 =( LENGTH_UNIT ( ) NAMED_UNIT ( * ) SI_UNIT ( .MILLI., .METRE. ) );
#545 = CYLINDRICAL_SURFACE ( 'NONE', #631, 0.8000000000000003775 ) ;
#546 = CARTESIAN_POINT ( 'NONE',  ( -2.500000000000000000, 7.750000000000000000, 0.7670000000000000151 ) ) ;
#547 = ORIENTED_EDGE ( 'NONE', *, *, #118, .T. ) ;
#548 = AXIS2_PLACEMENT_3D ( 'NONE', #875, #129, #405 ) ;
#549 = CARTESIAN_POINT ( 'NONE',  ( -1.481490098690585899, 0.7165954002061880601, 0.7670000000000000151 ) ) ;
#550 = ORIENTED_EDGE ( 'NONE', *, *, #893, .F. ) ;
#551 = ADVANCED_FACE ( 'NONE', ( #1020 ), #513, .T. ) ;
#552 = VERTEX_POINT ( 'NONE', #615 ) ;
#553 = VECTOR ( 'NONE', #761, 1000.000000000000000 ) ;
#554 = ORIENTED_EDGE ( 'NONE', *, *, #122, .F. ) ;
#555 = EDGE_CURVE ( 'NONE', #833, #296, #1099, .T. ) ;
#556 = ADVANCED_FACE ( 'NONE', ( #81 ), #1003, .F. ) ;
#557 = DIRECTION ( 'NONE',  ( 1.000000000000000000, 0.0000000000000000000, -1.387778780781449866E-16 ) ) ;
#558 = AXIS2_PLACEMENT_3D ( 'NONE', #452, #532, #1200 ) ;
#559 = ADVANCED_FACE ( 'NONE', ( #825 ), #530, .T. ) ;
#560 = DIRECTION ( 'NONE',  ( -0.06696442203600497245, 0.0000000000000000000, 0.9977553638950701353 ) ) ;
#561 = EDGE_CURVE ( 'NONE', #481, #215, #1165, .T. ) ;
#562 = DIRECTION ( 'NONE',  ( -0.0000000000000000000, 1.000000000000000000, 0.0000000000000000000 ) ) ;
#563 = ADVANCED_FACE ( 'NONE', ( #960 ), #430, .T. ) ;
#564 = VECTOR ( 'NONE', #726, 1000.000000000000000 ) ;
#565 = ADVANCED_FACE ( 'NONE', ( #10 ), #778, .T. ) ;
#566 = ORIENTED_EDGE ( 'NONE', *, *, #760, .T. ) ;
#567 = AXIS2_PLACEMENT_3D ( 'NONE', #1060, #1146, #584 ) ;
#568 = ORIENTED_EDGE ( 'NONE', *, *, #427, .F. ) ;
#569 = VECTOR ( 'NONE', #214, 1000.000000000000000 ) ;
#570 = VERTEX_POINT ( 'NONE', #620 ) ;
#571 = VECTOR ( 'NONE', #40, 1000.000000000000000 ) ;
#572 = PLANE ( 'NONE',  #1093 ) ;
#573 = PRESENTATION_STYLE_ASSIGNMENT (( #223 ) ) ;
#574 = DIRECTION ( 'NONE',  ( -0.0000000000000000000, 1.000000000000000000, 0.0000000000000000000 ) ) ;
#575 = CYLINDRICAL_SURFACE ( 'NONE', #984, 0.7999999999999997113 ) ;
#576 = EDGE_CURVE ( 'NONE', #1122, #899, #252, .T. ) ;
#577 = LINE ( 'NONE', #468, #136 ) ;
#578 = FACE_OUTER_BOUND ( 'NONE', #1085, .T. ) ;
#579 = VERTEX_POINT ( 'NONE', #999 ) ;
#580 =( NAMED_UNIT ( * ) SI_UNIT ( $, .STERADIAN. ) SOLID_ANGLE_UNIT ( ) );
#581 = EDGE_LOOP ( 'NONE', ( #964, #84, #386, #1212 ) ) ;
#582 = ORIENTED_EDGE ( 'NONE', *, *, #1019, .T. ) ;
#583 = DIRECTION ( 'NONE',  ( -0.3826834323650910030, 0.0000000000000000000, -0.9238795325112862944 ) ) ;
#584 = DIRECTION ( 'NONE',  ( -1.000000000000000000, 0.0000000000000000000, 0.0000000000000000000 ) ) ;
#585 = CARTESIAN_POINT ( 'NONE',  ( 3.500370849898480241, 0.0000000000000000000, 0.8000000000000000444 ) ) ;
#586 = DIRECTION ( 'NONE',  ( 0.3826834323650901148, 0.0000000000000000000, -0.9238795325112865164 ) ) ;
#587 = AXIS2_PLACEMENT_3D ( 'NONE', #219, #849, #488 ) ;
#588 = CARTESIAN_POINT ( 'NONE',  ( 2.881923245252319798, 0.0000000000000000000, 0.2870767547476800186 ) ) ;
#589 = DIRECTION ( 'NONE',  ( 0.0000000000000000000, 0.0000000000000000000, -1.000000000000000000 ) ) ;
#590 = DIRECTION ( 'NONE',  ( -1.000000000000000000, 0.0000000000000000000, 0.0000000000000000000 ) ) ;
#591 = ORIENTED_EDGE ( 'NONE', *, *, #21, .F. ) ;
#592 = CARTESIAN_POINT ( 'NONE',  ( 2.500000000000000000, 7.750000000000000000, 0.5000000000000000000 ) ) ;
#593 = ORIENTED_EDGE ( 'NONE', *, *, #831, .T. ) ;
#594 = CARTESIAN_POINT ( 'NONE',  ( 3.169000000000000039, 0.0000000000000000000, 0.0000000000000000000 ) ) ;
#595 = ORIENTED_EDGE ( 'NONE', *, *, #494, .T. ) ;
#596 = VECTOR ( 'NONE', #294, 1000.000000000000000 ) ;
#597 = AXIS2_PLACEMENT_3D ( 'NONE', #1175, #60, #442 ) ;
#598 = ORIENTED_EDGE ( 'NONE', *, *, #1215, .T. ) ;
#599 = DIRECTION ( 'NONE',  ( 0.0000000000000000000, 1.000000000000000000, 0.0000000000000000000 ) ) ;
#600 = DIRECTION ( 'NONE',  ( 0.0000000000000000000, 1.000000000000000000, 0.0000000000000000000 ) ) ;
#601 = EDGE_CURVE ( 'NONE', #366, #1122, #388, .T. ) ;
#602 = DIRECTION ( 'NONE',  ( 0.0000000000000000000, -1.000000000000000000, 0.0000000000000000000 ) ) ;
#603 =( GEOMETRIC_REPRESENTATION_CONTEXT ( 3 ) GLOBAL_UNCERTAINTY_ASSIGNED_CONTEXT ( ( #506 ) ) GLOBAL_UNIT_ASSIGNED_CONTEXT ( ( #674, #865, #385 ) ) REPRESENTATION_CONTEXT ( 'NONE', 'WORKASPACE' ) );
#604 = DIRECTION ( 'NONE',  ( -0.0000000000000000000, -0.0000000000000000000, 1.000000000000000000 ) ) ;
#605 = CARTESIAN_POINT ( 'NONE',  ( 3.610965871052089771, 0.0000000000000000000, 1.066999999999999948 ) ) ;
#606 = CARTESIAN_POINT ( 'NONE',  ( 7.500000000000000000, 0.0000000000000000000, 0.2669999999999999596 ) ) ;
#607 = FACE_OUTER_BOUND ( 'NONE', #933, .T. ) ;
#608 = CARTESIAN_POINT ( 'NONE',  ( -3.169000000000000039, 7.750000000000000000, 0.0000000000000000000 ) ) ;
#609 = VERTEX_POINT ( 'NONE', #1096 ) ;
#610 = EDGE_LOOP ( 'NONE', ( #812, #1141, #736, #1024 ) ) ;
#611 = LINE ( 'NONE', #592, #569 ) ;
#612 = AXIS2_PLACEMENT_3D ( 'NONE', #133, #1062, #685 ) ;
#613 = EDGE_CURVE ( 'NONE', #186, #254, #639, .T. ) ;
#614 = FILL_AREA_STYLE_COLOUR ( '', #633 ) ;
#615 = CARTESIAN_POINT ( 'NONE',  ( 3.012113887320429839, 0.0000000000000000000, 0.5344811338331819650 ) ) ;
#616 = AXIS2_PLACEMENT_3D ( 'NONE', #486, #848, #948 ) ;
#617 = DIRECTION ( 'NONE',  ( 0.0000000000000000000, 0.0000000000000000000, -1.000000000000000000 ) ) ;
#618 = CIRCLE ( 'NONE', #313, 0.7999999999999997113 ) ;
#619 = VERTEX_POINT ( 'NONE', #895 ) ;
#620 = CARTESIAN_POINT ( 'NONE',  ( -3.610965871052089771, 0.0000000000000000000, 0.2669999999999999596 ) ) ;
#621 = EDGE_CURVE ( 'NONE', #899, #570, #1213, .T. ) ;
#622 = EDGE_LOOP ( 'NONE', ( #74, #550, #636, #319 ) ) ;
#623 = CARTESIAN_POINT ( 'NONE',  ( 7.500000000000000000, 0.0000000000000000000, 0.0000000000000000000 ) ) ;
#624 = ORIENTED_EDGE ( 'NONE', *, *, #1187, .F. ) ;
#625 = ORIENTED_EDGE ( 'NONE', *, *, #48, .F. ) ;
#626 = LINE ( 'NONE', #1168, #571 ) ;
#627 = CARTESIAN_POINT ( 'NONE',  ( -2.669000000000000039, 0.0000000000000000000, 0.5000000000000000000 ) ) ;
#628 = STYLED_ITEM ( 'NONE', ( #873 ), #878 ) ;
#629 = ADVANCED_FACE ( 'NONE', ( #708 ), #460, .F. ) ;
#630 = CARTESIAN_POINT ( 'NONE',  ( -2.500000000000000000, 7.750000000000000000, 0.7670000000000000151 ) ) ;
#631 = AXIS2_PLACEMENT_3D ( 'NONE', #1, #932, #275 ) ;
#632 = CARTESIAN_POINT ( 'NONE',  ( -2.500000000000000000, 0.0000000000000000000, 0.7670000000000000151 ) ) ;
#633 = COLOUR_RGB ( '',0.7529411764705882248, 0.7529411764705882248, 0.7529411764705882248 ) ;
#634 = LINE ( 'NONE', #387, #267 ) ;
#635 = ORIENTED_EDGE ( 'NONE', *, *, #176, .T. ) ;
#636 = ORIENTED_EDGE ( 'NONE', *, *, #438, .F. ) ;
#637 = CARTESIAN_POINT ( 'NONE',  ( 2.500000000000000000, 0.0000000000000000000, 0.5000000000000000000 ) ) ;
#638 = EDGE_CURVE ( 'NONE', #766, #481, #517, .T. ) ;
#639 = LINE ( 'NONE', #333, #288 ) ;
#640 = VERTEX_POINT ( 'NONE', #546 ) ;
#641 = FACE_OUTER_BOUND ( 'NONE', #707, .T. ) ;
#642 = MANIFOLD_SOLID_BREP ( 'Cut-Extrude1', #797 ) ;
#643 = DIRECTION ( 'NONE',  ( 0.0000000000000000000, 0.0000000000000000000, 1.000000000000000000 ) ) ;
#644 = CARTESIAN_POINT ( 'NONE',  ( -2.500000000000000000, 0.0000000000000000000, 0.5000000000000000000 ) ) ;
#645 = CARTESIAN_POINT ( 'NONE',  ( 2.446428462371200041, 0.0000000000000000000, -0.03120429111605620143 ) ) ;
#646 = PLANE ( 'NONE',  #451 ) ;
#647 = ADVANCED_FACE ( 'NONE', ( #435 ), #1190, .T. ) ;
#648 = PLANE ( 'NONE',  #1055 ) ;
#649 = ORIENTED_EDGE ( 'NONE', *, *, #1103, .T. ) ;
#650 = AXIS2_PLACEMENT_3D ( 'NONE', #103, #189, #273 ) ;
#651 = FACE_OUTER_BOUND ( 'NONE', #1097, .T. ) ;
#652 = DIRECTION ( 'NONE',  ( 0.0000000000000000000, 1.000000000000000000, 0.0000000000000000000 ) ) ;
#653 = EDGE_LOOP ( 'NONE', ( #949, #1095, #355, #317 ) ) ;
#654 = ORIENTED_EDGE ( 'NONE', *, *, #804, .F. ) ;
#655 = FACE_OUTER_BOUND ( 'NONE', #525, .T. ) ;
#656 = CARTESIAN_POINT ( 'NONE',  ( 2.050010532640732596E-48, -2.732438741655042858, 0.4999999999999993339 ) ) ;
#657 = ORIENTED_EDGE ( 'NONE', *, *, #1044, .F. ) ;
#658 = DIRECTION ( 'NONE',  ( 0.0000000000000000000, -1.000000000000000000, 0.0000000000000000000 ) ) ;
#659 = EDGE_CURVE ( 'NONE', #58, #1167, #745, .T. ) ;
#660 = CARTESIAN_POINT ( 'NONE',  ( 7.500000000000000000, 0.0000000000000000000, 0.0000000000000000000 ) ) ;
#661 = FACE_OUTER_BOUND ( 'NONE', #465, .T. ) ;
#662 = VECTOR ( 'NONE', #589, 1000.000000000000000 ) ;
#663 = ORIENTED_EDGE ( 'NONE', *, *, #383, .F. ) ;
#664 = CARTESIAN_POINT ( 'NONE',  ( 2.500000000000000000, 0.0000000000000000000, 0.5000000000000000000 ) ) ;
#665 = AXIS2_PLACEMENT_3D ( 'NONE', #392, #305, #963 ) ;
#666 = EDGE_LOOP ( 'NONE', ( #31, #689, #203, #976 ) ) ;
#667 = VERTEX_POINT ( 'NONE', #1013 ) ;
#668 = EDGE_CURVE ( 'NONE', #467, #860, #379, .T. ) ;
#669 = VECTOR ( 'NONE', #290, 1000.000000000000000 ) ;
#670 = DIRECTION ( 'NONE',  ( -0.3826834323650901148, 0.0000000000000000000, -0.9238795325112865164 ) ) ;
#671 = AXIS2_PLACEMENT_3D ( 'NONE', #1164, #967, #883 ) ;
#672 = FILL_AREA_STYLE_COLOUR ( '', #1184 ) ;
#673 = EDGE_CURVE ( 'NONE', #138, #731, #972, .T. ) ;
#674 =( LENGTH_UNIT ( ) NAMED_UNIT ( * ) SI_UNIT ( .MILLI., .METRE. ) );
#675 = VECTOR ( 'NONE', #1098, 1000.000000000000000 ) ;
#676 = ORIENTED_EDGE ( 'NONE', *, *, #845, .T. ) ;
#677 = VERTEX_POINT ( 'NONE', #1205 ) ;
#678 = AXIS2_PLACEMENT_3D ( 'NONE', #512, #600, #879 ) ;
#679 = CARTESIAN_POINT ( 'NONE',  ( -3.610965871052089771, 7.750000000000000000, 0.2669999999999999596 ) ) ;
#680 = ORIENTED_EDGE ( 'NONE', *, *, #856, .F. ) ;
#681 = DIRECTION ( 'NONE',  ( 1.000000000000000000, 0.0000000000000000000, 0.0000000000000000000 ) ) ;
#682 = EDGE_CURVE ( 'NONE', #902, #552, #943, .T. ) ;
#683 = DIRECTION ( 'NONE',  ( 0.0000000000000000000, -1.000000000000000000, 0.0000000000000000000 ) ) ;
#684 = COLOUR_RGB ( '',0.7529411764705882248, 0.7529411764705882248, 0.7529411764705882248 ) ;
#685 = DIRECTION ( 'NONE',  ( 1.000000000000000000, 0.0000000000000000000, 0.0000000000000000000 ) ) ;
#686 = PRESENTATION_LAYER_ASSIGNMENT (  '', '', ( #876 ) ) ;
#687 = PLANE ( 'NONE',  #548 ) ;
#688 = VECTOR ( 'NONE', #4, 1000.000000000000000 ) ;
#689 = ORIENTED_EDGE ( 'NONE', *, *, #911, .F. ) ;
#690 = EDGE_LOOP ( 'NONE', ( #892, #1170, #751, #1155, #96, #55, #157, #554, #75, #826, #44, #117 ) ) ;
#691 = DIRECTION ( 'NONE',  ( 0.0000000000000000000, -1.000000000000000000, 0.0000000000000000000 ) ) ;
#692 = EDGE_CURVE ( 'NONE', #552, #709, #988, .T. ) ;
#693 = ADVANCED_FACE ( 'NONE', ( #522 ), #575, .T. ) ;
#694 = ORIENTED_EDGE ( 'NONE', *, *, #102, .F. ) ;
#695 = CARTESIAN_POINT ( 'NONE',  ( -3.279595021153620227, 0.0000000000000000000, 0.2669999999999999596 ) ) ;
#696 = ORIENTED_EDGE ( 'NONE', *, *, #864, .F. ) ;
#697 = VECTOR ( 'NONE', #599, 1000.000000000000000 ) ;
#698 = CARTESIAN_POINT ( 'NONE',  ( -1.481490098690585899, 0.7165954002061880601, 0.5000000000000003331 ) ) ;
#699 = EDGE_CURVE ( 'NONE', #579, #171, #108, .T. ) ;
#700 = CARTESIAN_POINT ( 'NONE',  ( -2.500000000000000000, 7.750000000000000000, 0.7670000000000000151 ) ) ;
#701 = PLANE ( 'NONE',  #1186 ) ;
#702 = CARTESIAN_POINT ( 'NONE',  ( -2.881923245252319798, 7.750000000000000000, 0.2870767547476800186 ) ) ;
#703 = LINE ( 'NONE', #715, #7 ) ;
#704 = FACE_OUTER_BOUND ( 'NONE', #811, .T. ) ;
#705 = CARTESIAN_POINT ( 'NONE',  ( -2.316237820303079786, 0.0000000000000000000, -0.2786086702015569960 ) ) ;
#706 = ORIENTED_EDGE ( 'NONE', *, *, #91, .F. ) ;
#707 = EDGE_LOOP ( 'NONE', ( #680, #947, #404, #829 ) ) ;
#708 = FACE_OUTER_BOUND ( 'NONE', #690, .T. ) ;
#709 = VERTEX_POINT ( 'NONE', #260 ) ;
#710 = DIRECTION ( 'NONE',  ( -0.06696442203600497245, 0.0000000000000000000, 0.9977553638950701353 ) ) ;
#711 = CIRCLE ( 'NONE', #3, 0.7999999999999999334 ) ;
#712 = DIRECTION ( 'NONE',  ( 0.0000000000000000000, 0.0000000000000000000, 1.000000000000000000 ) ) ;
#713 = AXIS2_PLACEMENT_3D ( 'NONE', #1174, #145, #790 ) ;
#714 = LINE ( 'NONE', #767, #339 ) ;
#715 = CARTESIAN_POINT ( 'NONE',  ( 1.250000000000000000, 0.0000000000000000000, 0.7670000000000000151 ) ) ;
#716 = EDGE_CURVE ( 'NONE', #202, #915, #703, .T. ) ;
#717 = ORIENTED_EDGE ( 'NONE', *, *, #856, .T. ) ;
#718 = ORIENTED_EDGE ( 'NONE', *, *, #692, .T. ) ;
#719 = VERTEX_POINT ( 'NONE', #910 ) ;
#720 = DIRECTION ( 'NONE',  ( -1.000000000000000000, 0.0000000000000000000, 2.498001805406600244E-16 ) ) ;
#721 = ORIENTED_EDGE ( 'NONE', *, *, #61, .T. ) ;
#722 = PLANE ( 'NONE',  #131 ) ;
#723 = AXIS2_PLACEMENT_3D ( 'NONE', #46, #602, #877 ) ;
#724 = LINE ( 'NONE', #746, #669 ) ;
#725 = FILL_AREA_STYLE ('',( #83 ) ) ;
#726 = DIRECTION ( 'NONE',  ( 1.000000000000000000, 0.0000000000000000000, 0.0000000000000000000 ) ) ;
#727 = CARTESIAN_POINT ( 'NONE',  ( 2.316237820303079786, 0.0000000000000000000, -0.2786086702015569960 ) ) ;
#728 = AXIS2_PLACEMENT_3D ( 'NONE', #473, #359, #560 ) ;
#729 = FACE_OUTER_BOUND ( 'NONE', #104, .T. ) ;
#730 = FACE_OUTER_BOUND ( 'NONE', #855, .T. ) ;
#731 = VERTEX_POINT ( 'NONE', #163 ) ;
#732 = ORIENTED_EDGE ( 'NONE', *, *, #1206, .F. ) ;
#733 = LINE ( 'NONE', #922, #478 ) ;
#734 = CARTESIAN_POINT ( 'NONE',  ( 4.923359784710830134, 0.0000000000000000000, 0.1984741528257049914 ) ) ;
#735 = EDGE_CURVE ( 'NONE', #467, #902, #67, .T. ) ;
#736 = ORIENTED_EDGE ( 'NONE', *, *, #668, .F. ) ;
#737 = CARTESIAN_POINT ( 'NONE',  ( 1.481490098690585899, 0.0000000000000000000, 0.4999999999999990563 ) ) ;
#738 = VERTEX_POINT ( 'NONE', #6 ) ;
#739 = VECTOR ( 'NONE', #445, 1000.000000000000000 ) ;
#740 = CARTESIAN_POINT ( 'NONE',  ( -2.500000000000000000, 7.750000000000000000, 0.7670000000000000151 ) ) ;
#741 = PLANE ( 'NONE',  #1075 ) ;
#742 = ADVANCED_FACE ( 'NONE', ( #973 ), #78, .T. ) ;
#743 = DIRECTION ( 'NONE',  ( 2.498001805406600244E-16, -0.0000000000000000000, 1.000000000000000000 ) ) ;
#744 = CARTESIAN_POINT ( 'NONE',  ( 7.500000000000000000, 7.750000000000000000, 0.0000000000000000000 ) ) ;
#745 = LINE ( 'NONE', #1203, #880 ) ;
#746 = CARTESIAN_POINT ( 'NONE',  ( 1.481490098690586121, 0.7165954002061880601, -0.001000000000000241147 ) ) ;
#747 = LINE ( 'NONE', #885, #564 ) ;
#748 = AXIS2_PLACEMENT_3D ( 'NONE', #954, #897, #418 ) ;
#749 = LINE ( 'NONE', #871, #11 ) ;
#750 = DIRECTION ( 'NONE',  ( 0.0000000000000000000, 1.000000000000000000, 0.0000000000000000000 ) ) ;
#751 = ORIENTED_EDGE ( 'NONE', *, *, #601, .T. ) ;
#752 = ORIENTED_EDGE ( 'NONE', *, *, #505, .T. ) ;
#753 = DIRECTION ( 'NONE',  ( 0.0000000000000000000, 1.000000000000000000, 0.0000000000000000000 ) ) ;
#754 = VERTEX_POINT ( 'NONE', #660 ) ;
#755 = CARTESIAN_POINT ( 'NONE',  ( 3.304819125160017190, 0.0000000000000000000, 0.3278963739909707131 ) ) ;
#756 = LINE ( 'NONE', #1142, #406 ) ;
#757 = AXIS2_PLACEMENT_3D ( 'NONE', #585, #121, #583 ) ;
#758 = CARTESIAN_POINT ( 'NONE',  ( -3.304819125160017190, 0.0000000000000000000, 0.3278963739909703801 ) ) ;
#759 = DIRECTION ( 'NONE',  ( 0.0000000000000000000, 1.000000000000000000, 0.0000000000000000000 ) ) ;
#760 = EDGE_CURVE ( 'NONE', #13, #799, #618, .T. ) ;
#761 = DIRECTION ( 'NONE',  ( 0.0000000000000000000, 0.0000000000000000000, -1.000000000000000000 ) ) ;
#762 = DIRECTION ( 'NONE',  ( 0.0000000000000000000, 1.000000000000000000, 0.0000000000000000000 ) ) ;
#763 = CYLINDRICAL_SURFACE ( 'NONE', #1000, 0.7999999999999997113 ) ;
#764 = UNCERTAINTY_MEASURE_WITH_UNIT (LENGTH_MEASURE( 1.000000000000000082E-05 ), #146, 'distance_accuracy_value', 'NONE');
#765 = ORIENTED_EDGE ( 'NONE', *, *, #613, .F. ) ;
#766 = VERTEX_POINT ( 'NONE', #187 ) ;
#767 = CARTESIAN_POINT ( 'NONE',  ( 3.500370849898480241, 0.0000000000000000000, 0.0000000000000000000 ) ) ;
#768 = COLOUR_RGB ( '',0.6274509803921568540, 0.6274509803921568540, 0.6274509803921568540 ) ;
#769 = ORIENTED_EDGE ( 'NONE', *, *, #929, .T. ) ;
#770 = LINE ( 'NONE', #484, #500 ) ;
#771 = ORIENTED_EDGE ( 'NONE', *, *, #997, .T. ) ;
#772 = VECTOR ( 'NONE', #421, 1000.000000000000000 ) ;
#773 = CARTESIAN_POINT ( 'NONE',  ( 2.500000000000000000, 0.0000000000000000000, 0.5667499999999999760 ) ) ;
#774 = CARTESIAN_POINT ( 'NONE',  ( 2.500000000000000000, 0.0000000000000000000, 0.7670000000000000151 ) ) ;
#775 = CARTESIAN_POINT ( 'NONE',  ( -1.481490098690585899, 0.0000000000000000000, -0.001000000000000241147 ) ) ;
#776 = LINE ( 'NONE', #1127, #1004 ) ;
#777 = DIRECTION ( 'NONE',  ( 0.0000000000000000000, -1.000000000000000000, 0.0000000000000000000 ) ) ;
#778 = CYLINDRICAL_SURFACE ( 'NONE', #1193, 0.7999999999999999334 ) ;
#779 = ORIENTED_EDGE ( 'NONE', *, *, #1166, .F. ) ;
#780 = EDGE_CURVE ( 'NONE', #82, #413, #209, .T. ) ;
#781 = CARTESIAN_POINT ( 'NONE',  ( 2.779595021153620227, 7.750000000000000000, 0.7670000000000000151 ) ) ;
#782 = EDGE_LOOP ( 'NONE', ( #370, #56, #1094, #271 ) ) ;
#783 = ORIENTED_EDGE ( 'NONE', *, *, #487, .F. ) ;
#784 = DIRECTION ( 'NONE',  ( -0.3826834323650901148, 0.0000000000000000000, -0.9238795325112865164 ) ) ;
#785 = EDGE_CURVE ( 'NONE', #82, #1152, #724, .T. ) ;
#786 = DIRECTION ( 'NONE',  ( -1.000000000000000000, 0.0000000000000000000, 2.498001805406600244E-16 ) ) ;
#787 = CARTESIAN_POINT ( 'NONE',  ( -3.500370849898480241, 0.0000000000000000000, 0.8000000000000000444 ) ) ;
#788 =( GEOMETRIC_REPRESENTATION_CONTEXT ( 3 ) GLOBAL_UNCERTAINTY_ASSIGNED_CONTEXT ( ( #987 ) ) GLOBAL_UNIT_ASSIGNED_CONTEXT ( ( #349, #541, #1008 ) ) REPRESENTATION_CONTEXT ( 'NONE', 'WORKASPACE' ) );
#789 = DIRECTION ( 'NONE',  ( 0.0000000000000000000, 1.000000000000000000, 0.0000000000000000000 ) ) ;
#790 = DIRECTION ( 'NONE',  ( 0.0000000000000000000, -1.000000000000000000, 0.0000000000000000000 ) ) ;
#791 = EDGE_CURVE ( 'NONE', #719, #138, #839, .T. ) ;
#792 = FACE_OUTER_BOUND ( 'NONE', #419, .T. ) ;
#793 = VECTOR ( 'NONE', #866, 1000.000000000000000 ) ;
#794 = CARTESIAN_POINT ( 'NONE',  ( 3.012113887320429839, 0.0000000000000000000, 0.5344811338331819650 ) ) ;
#795 = CYLINDRICAL_SURFACE ( 'NONE', #501, 0.8000000000000003775 ) ;
#796 = CARTESIAN_POINT ( 'NONE',  ( -3.012113887320429839, 0.0000000000000000000, 0.5344811338331819650 ) ) ;
#797 = CLOSED_SHELL ( 'NONE', ( #71, #992, #842, #647, #99, #364, #474, #461, #556, #1133 ) ) ;
#798 = AXIS2_PLACEMENT_3D ( 'NONE', #942, #17, #489 ) ;
#799 = VERTEX_POINT ( 'NONE', #377 ) ;
#800 = LINE ( 'NONE', #1138, #553 ) ;
#801 = EDGE_LOOP ( 'NONE', ( #516, #1009, #155, #1135 ) ) ;
#802 = LINE ( 'NONE', #775, #772 ) ;
#803 = DIRECTION ( 'NONE',  ( 0.3826834323650896708, 0.0000000000000000000, -0.9238795325112867385 ) ) ;
#804 = EDGE_CURVE ( 'NONE', #1092, #609, #420, .T. ) ;
#805 = VECTOR ( 'NONE', #590, 1000.000000000000000 ) ;
#806 = DIRECTION ( 'NONE',  ( 0.3826834323650896708, 0.0000000000000000000, -0.9238795325112867385 ) ) ;
#807 = AXIS2_PLACEMENT_3D ( 'NONE', #393, #207, #958 ) ;
#808 = DIRECTION ( 'NONE',  ( 0.0000000000000000000, 1.000000000000000000, 0.0000000000000000000 ) ) ;
#809 = DIRECTION ( 'NONE',  ( 0.0000000000000000000, -1.000000000000000000, 0.0000000000000000000 ) ) ;
#810 = DIRECTION ( 'NONE',  ( 0.06696442203600497245, 0.0000000000000000000, 0.9977553638950701353 ) ) ;
#811 = EDGE_LOOP ( 'NONE', ( #115, #857, #945, #718 ) ) ;
#812 = ORIENTED_EDGE ( 'NONE', *, *, #341, .T. ) ;
#813 = VERTEX_POINT ( 'NONE', #466 ) ;
#814 = DIRECTION ( 'NONE',  ( 0.7071067811865480168, 0.0000000000000000000, 0.7071067811865470176 ) ) ;
#815 = VERTEX_POINT ( 'NONE', #1217 ) ;
#816 = ADVANCED_FACE ( 'NONE', ( #172 ), #572, .T. ) ;
#817 = SURFACE_STYLE_USAGE ( .BOTH. , #1112 ) ;
#818 = SURFACE_SIDE_STYLE ('',( #26 ) ) ;
#819 = DIRECTION ( 'NONE',  ( -2.498001805406600244E-16, 0.0000000000000000000, -1.000000000000000000 ) ) ;
#820 = CARTESIAN_POINT ( 'NONE',  ( 3.169000000000000039, 7.750000000000000000, 0.0000000000000000000 ) ) ;
#821 = LINE ( 'NONE', #695, #68 ) ;
#822 = VECTOR ( 'NONE', #1001, 1000.000000000000000 ) ;
#823 = VECTOR ( 'NONE', #307, 1000.000000000000000 ) ;
#824 = EDGE_CURVE ( 'NONE', #215, #170, #711, .T. ) ;
#825 = FACE_OUTER_BOUND ( 'NONE', #485, .T. ) ;
#826 = ORIENTED_EDGE ( 'NONE', *, *, #760, .F. ) ;
#827 = EDGE_LOOP ( 'NONE', ( #343, #649, #244, #328 ) ) ;
#828 = VECTOR ( 'NONE', #1157, 1000.000000000000000 ) ;
#829 = ORIENTED_EDGE ( 'NONE', *, *, #361, .T. ) ;
#830 = CARTESIAN_POINT ( 'NONE',  ( 7.500000000000000000, 7.750000000000000000, 0.0000000000000000000 ) ) ;
#831 = EDGE_CURVE ( 'NONE', #738, #889, #770, .T. ) ;
#832 = DIRECTION ( 'NONE',  ( -1.000000000000000000, 0.0000000000000000000, 0.0000000000000000000 ) ) ;
#833 = VERTEX_POINT ( 'NONE', #15 ) ;
#834 = FACE_OUTER_BOUND ( 'NONE', #124, .T. ) ;
#835 = ORIENTED_EDGE ( 'NONE', *, *, #673, .T. ) ;
#836 = CARTESIAN_POINT ( 'NONE',  ( 3.279595021153620227, 0.0000000000000000000, 0.2669999999999999596 ) ) ;
#837 = VERTEX_POINT ( 'NONE', #194 ) ;
#838 = DIRECTION ( 'NONE',  ( 1.000000000000000000, 0.0000000000000000000, 0.0000000000000000000 ) ) ;
#839 = CIRCLE ( 'NONE', #45, 0.7999999999999997113 ) ;
#840 = ADVANCED_FACE ( 'NONE', ( #655 ), #278, .F. ) ;
#841 = ORIENTED_EDGE ( 'NONE', *, *, #824, .F. ) ;
#842 = ADVANCED_FACE ( 'NONE', ( #1216 ), #285, .T. ) ;
#843 = VECTOR ( 'NONE', #1128, 1000.000000000000000 ) ;
#844 = CARTESIAN_POINT ( 'NONE',  ( 1.481490098690586121, 0.7165954002061880601, 0.7670000000000000151 ) ) ;
#845 = EDGE_CURVE ( 'NONE', #1110, #202, #301, .T. ) ;
#846 = DIRECTION ( 'NONE',  ( -0.2297027246211492402, 0.0000000000000000000, 0.9732608377519462728 ) ) ;
#847 = ADVANCED_FACE ( 'NONE', ( #469 ), #648, .T. ) ;
#848 = DIRECTION ( 'NONE',  ( 1.000000000000000000, 0.0000000000000000000, 0.0000000000000000000 ) ) ;
#849 = DIRECTION ( 'NONE',  ( 0.0000000000000000000, 1.000000000000000000, 0.0000000000000000000 ) ) ;
#850 = ADVANCED_FACE ( 'NONE', ( #1027 ), #397, .T. ) ;
#851 = LINE ( 'NONE', #151, #166 ) ;
#852 = AXIS2_PLACEMENT_3D ( 'NONE', #24, #299, #112 ) ;
#853 = CIRCLE ( 'NONE', #156, 0.8000000000000003775 ) ;
#854 = CARTESIAN_POINT ( 'NONE',  ( 7.500000000000000000, 0.0000000000000000000, 0.0000000000000000000 ) ) ;
#855 = EDGE_LOOP ( 'NONE', ( #518, #547, #182, #1116, #168, #582, #694, #300, #721, #450, #127, #783 ) ) ;
#856 = EDGE_CURVE ( 'NONE', #497, #837, #1053, .T. ) ;
#857 = ORIENTED_EDGE ( 'NONE', *, *, #1019, .F. ) ;
#858 = FILL_AREA_STYLE_COLOUR ( '', #684 ) ;
#859 = CARTESIAN_POINT ( 'NONE',  ( 2.500000000000000000, 7.750000000000000000, 0.7670000000000000151 ) ) ;
#860 = VERTEX_POINT ( 'NONE', #588 ) ;
#861 = DIRECTION ( 'NONE',  ( 0.0000000000000000000, 0.0000000000000000000, -1.000000000000000000 ) ) ;
#862 = STYLED_ITEM ( 'NONE', ( #956 ), #642 ) ;
#863 = DIRECTION ( 'NONE',  ( -1.000000000000000000, 0.0000000000000000000, 2.498001805406600244E-16 ) ) ;
#864 = EDGE_CURVE ( 'NONE', #1152, #253, #1121, .T. ) ;
#865 =( NAMED_UNIT ( * ) PLANE_ANGLE_UNIT ( ) SI_UNIT ( $, .RADIAN. ) );
#866 = DIRECTION ( 'NONE',  ( -0.7071067811865470176, 0.0000000000000000000, 0.7071067811865480168 ) ) ;
#867 = FACE_OUTER_BOUND ( 'NONE', #962, .T. ) ;
#868 = ORIENTED_EDGE ( 'NONE', *, *, #477, .T. ) ;
#869 = FILL_AREA_STYLE ('',( #672 ) ) ;
#870 = VERTEX_POINT ( 'NONE', #507 ) ;
#871 = CARTESIAN_POINT ( 'NONE',  ( -1.481490098690585899, 0.7165954002061880601, -0.001000000000000241147 ) ) ;
#872 = VERTEX_POINT ( 'NONE', #402 ) ;
#873 = PRESENTATION_STYLE_ASSIGNMENT (( #504 ) ) ;
#874 = VERTEX_POINT ( 'NONE', #206 ) ;
#875 = CARTESIAN_POINT ( 'NONE',  ( 1.481490098690585899, 0.0000000000000000000, -0.001000000000000241147 ) ) ;
#876 = STYLED_ITEM ( 'NONE', ( #573 ), #448 ) ;
#877 = DIRECTION ( 'NONE',  ( 0.3826834323650896708, 0.0000000000000000000, -0.9238795325112867385 ) ) ;
#878 = MANIFOLD_SOLID_BREP ( 'WSLP5931 (0.003).stp[2]', #354 ) ;
#879 = DIRECTION ( 'NONE',  ( -0.2297027246211492402, 0.0000000000000000000, 0.9732608377519462728 ) ) ;
#880 = VECTOR ( 'NONE', #643, 1000.000000000000000 ) ;
#881 = LINE ( 'NONE', #608, #161 ) ;
#882 = DIRECTION ( 'NONE',  ( -0.0000000000000000000, -0.0000000000000000000, 1.000000000000000000 ) ) ;
#883 = DIRECTION ( 'NONE',  ( 0.0000000000000000000, 0.0000000000000000000, -1.000000000000000000 ) ) ;
#884 = CIRCLE ( 'NONE', #111, 0.7999999999999997113 ) ;
#885 = CARTESIAN_POINT ( 'NONE',  ( 3.279595021153620227, 7.750000000000000000, 0.2669999999999999596 ) ) ;
#886 = ORIENTED_EDGE ( 'NONE', *, *, #1089, .F. ) ;
#887 = EDGE_CURVE ( 'NONE', #467, #58, #891, .T. ) ;
#888 = ORIENTED_EDGE ( 'NONE', *, *, #735, .F. ) ;
#889 = VERTEX_POINT ( 'NONE', #1144 ) ;
#890 = DIRECTION ( 'NONE',  ( 0.0000000000000000000, -1.000000000000000000, 0.0000000000000000000 ) ) ;
#891 = LINE ( 'NONE', #1151, #596 ) ;
#892 = ORIENTED_EDGE ( 'NONE', *, *, #979, .F. ) ;
#893 = EDGE_CURVE ( 'NONE', #619, #113, #611, .T. ) ;
#894 = DIRECTION ( 'NONE',  ( 0.3826834323650901148, 0.0000000000000000000, -0.9238795325112865164 ) ) ;
#895 = CARTESIAN_POINT ( 'NONE',  ( 2.500000000000000000, 7.750000000000000000, 0.5000000000000000000 ) ) ;
#896 = DIRECTION ( 'NONE',  ( 0.0000000000000000000, 0.0000000000000000000, 1.000000000000000000 ) ) ;
#897 = DIRECTION ( 'NONE',  ( 0.0000000000000000000, 0.0000000000000000000, 1.000000000000000000 ) ) ;
#898 = EDGE_CURVE ( 'NONE', #609, #524, #344, .T. ) ;
#899 = VERTEX_POINT ( 'NONE', #679 ) ;
#900 = LINE ( 'NONE', #462, #153 ) ;
#901 = DIRECTION ( 'NONE',  ( 0.0000000000000000000, 1.000000000000000000, 0.0000000000000000000 ) ) ;
#902 = VERTEX_POINT ( 'NONE', #774 ) ;
#903 =( NAMED_UNIT ( * ) PLANE_ANGLE_UNIT ( ) SI_UNIT ( $, .RADIAN. ) );
#904 = ORIENTED_EDGE ( 'NONE', *, *, #1143, .F. ) ;
#905 = VERTEX_POINT ( 'NONE', #859 ) ;
#906 = CARTESIAN_POINT ( 'NONE',  ( 3.304819125160017190, 7.750000000000000000, 0.3278963739909707131 ) ) ;
#907 = LINE ( 'NONE', #483, #843 ) ;
#908 = CARTESIAN_POINT ( 'NONE',  ( 2.050010532640732596E-48, -2.732438741655042858, -0.001000000000000241147 ) ) ;
#909 = DIRECTION ( 'NONE',  ( 0.0000000000000000000, 1.000000000000000000, 0.0000000000000000000 ) ) ;
#910 = CARTESIAN_POINT ( 'NONE',  ( 3.500370849898480241, 0.0000000000000000000, 0.0000000000000000000 ) ) ;
#911 = EDGE_CURVE ( 'NONE', #113, #872, #318, .T. ) ;
#912 =( NAMED_UNIT ( * ) SI_UNIT ( $, .STERADIAN. ) SOLID_ANGLE_UNIT ( ) );
#913 = LINE ( 'NONE', #105, #433 ) ;
#914 = VECTOR ( 'NONE', #777, 1000.000000000000000 ) ;
#915 = VERTEX_POINT ( 'NONE', #201 ) ;
#916 = VERTEX_POINT ( 'NONE', #1050 ) ;
#917 = DIRECTION ( 'NONE',  ( 1.000000000000000000, 0.0000000000000000000, -1.387778780781449866E-16 ) ) ;
#918 = VERTEX_POINT ( 'NONE', #119 ) ;
#919 = CARTESIAN_POINT ( 'NONE',  ( 0.0000000000000000000, 0.0000000000000000000, 0.6334999999999999520 ) ) ;
#920 = AXIS2_PLACEMENT_3D ( 'NONE', #57, #986, #63 ) ;
#921 = ORIENTED_EDGE ( 'NONE', *, *, #613, .T. ) ;
#922 = CARTESIAN_POINT ( 'NONE',  ( 7.500000000000000000, 7.750000000000000000, 0.2669999999999999596 ) ) ;
#923 = CARTESIAN_POINT ( 'NONE',  ( -1.481490098690585899, 0.7165954002061880601, 0.7670000000000000151 ) ) ;
#924 = VECTOR ( 'NONE', #143, 1000.000000000000000 ) ;
#925 = DIRECTION ( 'NONE',  ( 0.06696442203600497245, 0.0000000000000000000, 0.9977553638950701353 ) ) ;
#926 = AXIS2_PLACEMENT_3D ( 'NONE', #1210, #819, #720 ) ;
#927 = DIRECTION ( 'NONE',  ( -0.7071067811865470176, 0.0000000000000000000, -0.7071067811865480168 ) ) ;
#928 = DIRECTION ( 'NONE',  ( -1.000000000000000000, -1.732989848302629892E-15, 2.599484772453944937E-16 ) ) ;
#929 = EDGE_CURVE ( 'NONE', #86, #366, #330, .T. ) ;
#930 = ADVANCED_FACE ( 'NONE', ( #641 ), #218, .F. ) ;
#931 = ORIENTED_EDGE ( 'NONE', *, *, #682, .T. ) ;
#932 = DIRECTION ( 'NONE',  ( 0.0000000000000000000, 1.000000000000000000, 0.0000000000000000000 ) ) ;
#933 = EDGE_LOOP ( 'NONE', ( #439, #717, #432, #125 ) ) ;
#934 = EDGE_LOOP ( 'NONE', ( #230, #1199, #384, #495 ) ) ;
#935 = AXIS2_PLACEMENT_3D ( 'NONE', #508, #310, #50 ) ;
#936 = CARTESIAN_POINT ( 'NONE',  ( -7.500000000000000000, 0.0000000000000000000, 1.734723475976810176E-17 ) ) ;
#937 = EDGE_CURVE ( 'NONE', #640, #799, #800, .T. ) ;
#938 = ADVANCED_FACE ( 'NONE', ( #229 ), #116, .F. ) ;
#939 = DIRECTION ( 'NONE',  ( 0.0000000000000000000, 1.000000000000000000, 0.0000000000000000000 ) ) ;
#940 = DIRECTION ( 'NONE',  ( 0.0000000000000000000, 1.000000000000000000, 0.0000000000000000000 ) ) ;
#941 = PRODUCT_DEFINITION ( 'UNKNOWN', '', #396, #1002 ) ;
#942 = CARTESIAN_POINT ( 'NONE',  ( 2.446428462371200041, 0.0000000000000000000, -0.03120429111605620143 ) ) ;
#943 = CIRCLE ( 'NONE', #510, 0.7999999999999999334 ) ;
#944 = LINE ( 'NONE', #47, #314 ) ;
#945 = ORIENTED_EDGE ( 'NONE', *, *, #961, .F. ) ;
#946 = DIRECTION ( 'NONE',  ( -1.000000000000000000, 0.0000000000000000000, 0.0000000000000000000 ) ) ;
#947 = ORIENTED_EDGE ( 'NONE', *, *, #1072, .T. ) ;
#948 = DIRECTION ( 'NONE',  ( 0.0000000000000000000, 1.000000000000000000, 0.0000000000000000000 ) ) ;
#949 = ORIENTED_EDGE ( 'NONE', *, *, #785, .T. ) ;
#950 = EDGE_LOOP ( 'NONE', ( #422, #28, #769, #16 ) ) ;
#951 = DIRECTION ( 'NONE',  ( 0.0000000000000000000, 0.0000000000000000000, 1.000000000000000000 ) ) ;
#952 = DIRECTION ( 'NONE',  ( 0.0000000000000000000, 1.000000000000000000, 0.0000000000000000000 ) ) ;
#953 = PRODUCT ( 'WSLP5931 (0.003)', 'WSLP5931 (0.003)', '', ( #428 ) ) ;
#954 = CARTESIAN_POINT ( 'NONE',  ( 0.0000000000000000000, 0.0000000000000000000, 0.0000000000000000000 ) ) ;
#955 = EDGE_CURVE ( 'NONE', #978, #366, #881, .T. ) ;
#956 = PRESENTATION_STYLE_ASSIGNMENT (( #817 ) ) ;
#957 = LINE ( 'NONE', #744, #38 ) ;
#958 = DIRECTION ( 'NONE',  ( 0.0000000000000000000, 1.000000000000000000, 0.0000000000000000000 ) ) ;
#959 = CLOSED_SHELL ( 'NONE', ( #458, #286, #693, #543, #840, #938, #177, #847, #374, #165, #375, #816, #304, #472 ) ) ;
#960 = FACE_OUTER_BOUND ( 'NONE', #950, .T. ) ;
#961 = EDGE_CURVE ( 'NONE', #552, #813, #1189, .T. ) ;
#962 = EDGE_LOOP ( 'NONE', ( #1038, #835, #1054, #1069 ) ) ;
#963 = DIRECTION ( 'NONE',  ( -0.3826834323650901148, 0.0000000000000000000, -0.9238795325112865164 ) ) ;
#964 = ORIENTED_EDGE ( 'NONE', *, *, #261, .T. ) ;
#965 = VECTOR ( 'NONE', #1056, 1000.000000000000000 ) ;
#966 = VERTEX_POINT ( 'NONE', #981 ) ;
#967 = DIRECTION ( 'NONE',  ( 0.0000000000000000000, -1.000000000000000000, 0.0000000000000000000 ) ) ;
#968 = DIRECTION ( 'NONE',  ( 0.0000000000000000000, 1.000000000000000000, 0.0000000000000000000 ) ) ;
#969 = DIRECTION ( 'NONE',  ( -0.0000000000000000000, -0.0000000000000000000, 1.000000000000000000 ) ) ;
#970 = DIRECTION ( 'NONE',  ( 2.672764710092222993E-48, 1.925929944387249811E-32, 1.000000000000000000 ) ) ;
#971 = CARTESIAN_POINT ( 'NONE',  ( -3.012113887320429839, 7.750000000000000000, 0.5344811338331819650 ) ) ;
#972 = LINE ( 'NONE', #263, #311 ) ;
#973 = FACE_OUTER_BOUND ( 'NONE', #581, .T. ) ;
#974 = AXIS2_PLACEMENT_3D ( 'NONE', #459, #1031, #1120 ) ;
#975 = LINE ( 'NONE', #737, #479 ) ;
#976 = ORIENTED_EDGE ( 'NONE', *, *, #265, .F. ) ;
#977 = CARTESIAN_POINT ( 'NONE',  ( -2.881923245252319798, 0.0000000000000000000, 0.2870767547476810178 ) ) ;
#978 = VERTEX_POINT ( 'NONE', #325 ) ;
#979 = EDGE_CURVE ( 'NONE', #978, #579, #332, .T. ) ;
#980 = VERTEX_POINT ( 'NONE', #1159 ) ;
#981 = CARTESIAN_POINT ( 'NONE',  ( -2.881923245252319798, 0.0000000000000000000, 0.2870767547476800186 ) ) ;
#982 = ORIENTED_EDGE ( 'NONE', *, *, #324, .F. ) ;
#983 = CARTESIAN_POINT ( 'NONE',  ( -2.500000000000000000, 0.0000000000000000000, 0.7670000000000000151 ) ) ;
#984 = AXIS2_PLACEMENT_3D ( 'NONE', #250, #909, #346 ) ;
#985 = DIRECTION ( 'NONE',  ( 0.3826834323650901148, 0.0000000000000000000, -0.9238795325112865164 ) ) ;
#986 = DIRECTION ( 'NONE',  ( -4.005364756353740102E-18, 0.0000000000000000000, -1.000000000000000000 ) ) ;
#987 = UNCERTAINTY_MEASURE_WITH_UNIT (LENGTH_MEASURE( 1.000000000000000082E-05 ), #349, 'distance_accuracy_value', 'NONE');
#988 = LINE ( 'NONE', #255, #1207 ) ;
#989 = CARTESIAN_POINT ( 'NONE',  ( 3.169000000000000039, 0.0000000000000000000, 0.0000000000000000000 ) ) ;
#990 = LINE ( 'NONE', #65, #1131 ) ;
#991 = CIRCLE ( 'NONE', #678, 0.7999999999999997113 ) ;
#992 = ADVANCED_FACE ( 'NONE', ( #471 ), #1188, .T. ) ;
#993 = ORIENTED_EDGE ( 'NONE', *, *, #898, .T. ) ;
#994 = ORIENTED_EDGE ( 'NONE', *, *, #102, .T. ) ;
#995 = ORIENTED_EDGE ( 'NONE', *, *, #134, .T. ) ;
#996 = ORIENTED_EDGE ( 'NONE', *, *, #53, .F. ) ;
#997 = EDGE_CURVE ( 'NONE', #815, #915, #802, .T. ) ;
#998 = LINE ( 'NONE', #1163, #924 ) ;
#999 = CARTESIAN_POINT ( 'NONE',  ( -3.194224104006408549, 7.750000000000000000, 0.06089637399097063558 ) ) ;
#1000 = AXIS2_PLACEMENT_3D ( 'NONE', #705, #691, #135 ) ;
#1001 = DIRECTION ( 'NONE',  ( 0.0000000000000000000, 1.000000000000000000, 0.0000000000000000000 ) ) ;
#1002 = PRODUCT_DEFINITION_CONTEXT ( 'detailed design', #1087, 'design' ) ;
#1003 = PLANE ( 'NONE',  #597 ) ;
#1004 = VECTOR ( 'NONE', #759, 1000.000000000000000 ) ;
#1005 = VECTOR ( 'NONE', #681, 1000.000000000000000 ) ;
#1006 = DIRECTION ( 'NONE',  ( -1.000000000000000000, 0.0000000000000000000, 4.005364756353740102E-18 ) ) ;
#1007 = LINE ( 'NONE', #632, #822 ) ;
#1008 =( NAMED_UNIT ( * ) SI_UNIT ( $, .STERADIAN. ) SOLID_ANGLE_UNIT ( ) );
#1009 = ORIENTED_EDGE ( 'NONE', *, *, #1101, .T. ) ;
#1010 = VERTEX_POINT ( 'NONE', #132 ) ;
#1011 = ORIENTED_EDGE ( 'NONE', *, *, #160, .F. ) ;
#1012 = EDGE_CURVE ( 'NONE', #399, #524, #33, .T. ) ;
#1013 = CARTESIAN_POINT ( 'NONE',  ( 2.934685424949239785, 0.0000000000000000000, 0.2343145750507630021 ) ) ;
#1014 = CARTESIAN_POINT ( 'NONE',  ( -1.250000000000000000, 0.0000000000000000000, 0.5000000000000000000 ) ) ;
#1015 = SHAPE_DEFINITION_REPRESENTATION ( #100, #448 ) ;
#1016 = MECHANICAL_DESIGN_GEOMETRIC_PRESENTATION_REPRESENTATION (  '', ( #257 ), #519 ) ;
#1017 = CARTESIAN_POINT ( 'NONE',  ( 2.500000000000000000, 0.0000000000000000000, 0.5000000000000000000 ) ) ;
#1018 = DIRECTION ( 'NONE',  ( 0.0000000000000000000, 1.000000000000000000, 0.0000000000000000000 ) ) ;
#1019 = EDGE_CURVE ( 'NONE', #813, #1010, #130, .T. ) ;
#1020 = FACE_OUTER_BOUND ( 'NONE', #110, .T. ) ;
#1021 = FACE_OUTER_BOUND ( 'NONE', #666, .T. ) ;
#1022 = LINE ( 'NONE', #1134, #914 ) ;
#1023 = ORIENTED_EDGE ( 'NONE', *, *, #457, .F. ) ;
#1024 = ORIENTED_EDGE ( 'NONE', *, *, #887, .T. ) ;
#1025 = ORIENTED_EDGE ( 'NONE', *, *, #37, .T. ) ;
#1026 = DIRECTION ( 'NONE',  ( 0.0000000000000000000, 0.0000000000000000000, 1.000000000000000000 ) ) ;
#1027 = FACE_OUTER_BOUND ( 'NONE', #284, .T. ) ;
#1028 = ORIENTED_EDGE ( 'NONE', *, *, #716, .F. ) ;
#1029 = DIRECTION ( 'NONE',  ( 0.0000000000000000000, 0.0000000000000000000, 1.000000000000000000 ) ) ;
#1030 = DIRECTION ( 'NONE',  ( -1.000000000000000000, 0.0000000000000000000, 0.0000000000000000000 ) ) ;
#1031 = DIRECTION ( 'NONE',  ( 0.0000000000000000000, 1.000000000000000000, 0.0000000000000000000 ) ) ;
#1032 = CIRCLE ( 'NONE', #220, 0.8000000000000003775 ) ;
#1033 = LINE ( 'NONE', #72, #409 ) ;
#1034 = DIRECTION ( 'NONE',  ( -0.3826834323650910030, 0.0000000000000000000, -0.9238795325112862944 ) ) ;
#1035 = LINE ( 'NONE', #623, #326 ) ;
#1036 = CYLINDRICAL_SURFACE ( 'NONE', #798, 0.7999999999999999334 ) ;
#1037 = ORIENTED_EDGE ( 'NONE', *, *, #1196, .F. ) ;
#1038 = ORIENTED_EDGE ( 'NONE', *, *, #791, .T. ) ;
#1039 = DIRECTION ( 'NONE',  ( 0.0000000000000000000, -1.000000000000000000, 0.0000000000000000000 ) ) ;
#1040 = AXIS2_PLACEMENT_3D ( 'NONE', #605, #322, #1061 ) ;
#1041 = DIRECTION ( 'NONE',  ( -0.06696442203600497245, 0.0000000000000000000, 0.9977553638950701353 ) ) ;
#1042 = EDGE_LOOP ( 'NONE', ( #654, #635, #593, #1218 ) ) ;
#1043 = CARTESIAN_POINT ( 'NONE',  ( -3.045280446102850203, 0.0000000000000000000, 0.5013145750507620457 ) ) ;
#1044 = EDGE_CURVE ( 'NONE', #296, #86, #391, .T. ) ;
#1045 = DIRECTION ( 'NONE',  ( 0.0000000000000000000, -1.000000000000000000, 0.0000000000000000000 ) ) ;
#1046 = PRESENTATION_LAYER_ASSIGNMENT (  '', '', ( #628 ) ) ;
#1047 = DIRECTION ( 'NONE',  ( 0.2297027246211492402, 0.0000000000000000000, 0.9732608377519462728 ) ) ;
#1048 = LINE ( 'NONE', #1086, #69 ) ;
#1049 = CIRCLE ( 'NONE', #1137, 0.7999999999999997113 ) ;
#1050 = CARTESIAN_POINT ( 'NONE',  ( 2.500000000000000000, 0.0000000000000000000, 0.7670000000000000151 ) ) ;
#1051 = ORIENTED_EDGE ( 'NONE', *, *, #107, .T. ) ;
#1052 = ORIENTED_EDGE ( 'NONE', *, *, #555, .F. ) ;
#1053 = LINE ( 'NONE', #758, #965 ) ;
#1054 = ORIENTED_EDGE ( 'NONE', *, *, #487, .T. ) ;
#1055 = AXIS2_PLACEMENT_3D ( 'NONE', #836, #951, #496 ) ;
#1056 = DIRECTION ( 'NONE',  ( 0.0000000000000000000, 1.000000000000000000, 0.0000000000000000000 ) ) ;
#1057 = CARTESIAN_POINT ( 'NONE',  ( 3.610965871052089771, 0.0000000000000000000, 1.066999999999999948 ) ) ;
#1058 = DIRECTION ( 'NONE',  ( 0.0000000000000000000, -1.000000000000000000, 0.0000000000000000000 ) ) ;
#1059 = EDGE_CURVE ( 'NONE', #874, #799, #441, .T. ) ;
#1060 = CARTESIAN_POINT ( 'NONE',  ( 2.050010532640732596E-48, -2.732438741655042858, 0.7670000000000000151 ) ) ;
#1061 = DIRECTION ( 'NONE',  ( -0.3826834323650901148, 0.0000000000000000000, -0.9238795325112865164 ) ) ;
#1062 = DIRECTION ( 'NONE',  ( -0.0000000000000000000, 1.000000000000000000, 0.0000000000000000000 ) ) ;
#1063 = ORIENTED_EDGE ( 'NONE', *, *, #997, .F. ) ;
#1064 = LINE ( 'NONE', #773, #1150 ) ;
#1065 = EDGE_CURVE ( 'NONE', #1153, #766, #626, .T. ) ;
#1066 = EDGE_LOOP ( 'NONE', ( #625, #1115, #1083, #269 ) ) ;
#1067 = CARTESIAN_POINT ( 'NONE',  ( -3.610965871052089771, 7.750000000000000000, 1.066999999999999948 ) ) ;
#1068 = ORIENTED_EDGE ( 'NONE', *, *, #283, .T. ) ;
#1069 = ORIENTED_EDGE ( 'NONE', *, *, #324, .T. ) ;
#1070 = CARTESIAN_POINT ( 'NONE',  ( -7.500000000000000000, 7.750000000000000000, 0.2669999999999999596 ) ) ;
#1071 = DIRECTION ( 'NONE',  ( 0.0000000000000000000, 0.0000000000000000000, -1.000000000000000000 ) ) ;
#1072 = EDGE_CURVE ( 'NONE', #497, #1153, #1111, .T. ) ;
#1073 = SURFACE_SIDE_STYLE ('',( #205 ) ) ;
#1074 = CARTESIAN_POINT ( 'NONE',  ( 3.500370849898480241, 0.0000000000000000000, 0.8000000000000000444 ) ) ;
#1075 = AXIS2_PLACEMENT_3D ( 'NONE', #90, #373, #652 ) ;
#1076 =( NAMED_UNIT ( * ) SI_UNIT ( $, .STERADIAN. ) SOLID_ANGLE_UNIT ( ) );
#1077 = FACE_OUTER_BOUND ( 'NONE', #184, .T. ) ;
#1078 = DIRECTION ( 'NONE',  ( 0.7071067811865480168, 0.0000000000000000000, -0.7071067811865470176 ) ) ;
#1079 = ORIENTED_EDGE ( 'NONE', *, *, #692, .F. ) ;
#1080 = ORIENTED_EDGE ( 'NONE', *, *, #351, .F. ) ;
#1081 = EDGE_CURVE ( 'NONE', #872, #980, #87, .T. ) ;
#1082 = VECTOR ( 'NONE', #814, 1000.000000000000000 ) ;
#1083 = ORIENTED_EDGE ( 'NONE', *, *, #347, .T. ) ;
#1084 = FACE_OUTER_BOUND ( 'NONE', #653, .T. ) ;
#1085 = EDGE_LOOP ( 'NONE', ( #1023, #1107, #566, #1195 ) ) ;
#1086 = CARTESIAN_POINT ( 'NONE',  ( -2.500000000000000000, 0.0000000000000000000, 0.7002500000000000391 ) ) ;
#1087 = APPLICATION_CONTEXT ( 'automotive_design' ) ;
#1088 = DIRECTION ( 'NONE',  ( 0.0000000000000000000, -1.000000000000000000, 0.0000000000000000000 ) ) ;
#1089 = EDGE_CURVE ( 'NONE', #1153, #215, #821, .T. ) ;
#1090 = CARTESIAN_POINT ( 'NONE',  ( -7.500000000000000000, 7.750000000000000000, 1.734723475976810176E-17 ) ) ;
#1091 = CARTESIAN_POINT ( 'NONE',  ( -7.500000000000000000, 0.0000000000000000000, 1.734723475976810176E-17 ) ) ;
#1092 = VERTEX_POINT ( 'NONE', #1173 ) ;
#1093 = AXIS2_PLACEMENT_3D ( 'NONE', #664, #1030, #1029 ) ;
#1094 = ORIENTED_EDGE ( 'NONE', *, *, #561, .F. ) ;
#1095 = ORIENTED_EDGE ( 'NONE', *, *, #864, .T. ) ;
#1096 = CARTESIAN_POINT ( 'NONE',  ( 3.610965871052089771, 7.750000000000000000, 0.2669999999999999596 ) ) ;
#1097 = EDGE_LOOP ( 'NONE', ( #595, #453, #242, #297 ) ) ;
#1098 = DIRECTION ( 'NONE',  ( -1.000000000000000000, 0.0000000000000000000, 2.498001805406600244E-16 ) ) ;
#1099 = CIRCLE ( 'NONE', #1117, 0.8000000000000001554 ) ;
#1100 = CARTESIAN_POINT ( 'NONE',  ( 1.481490098690585899, 0.0000000000000000000, -0.001000000000000241147 ) ) ;
#1101 = EDGE_CURVE ( 'NONE', #619, #186, #192, .T. ) ;
#1102 = CARTESIAN_POINT ( 'NONE',  ( -3.500370849898480241, 7.750000000000000000, 0.8000000000000000444 ) ) ;
#1103 = EDGE_CURVE ( 'NONE', #980, #1152, #321, .T. ) ;
#1104 = DIRECTION ( 'NONE',  ( 0.0000000000000000000, 0.0000000000000000000, -1.000000000000000000 ) ) ;
#1105 = ORIENTED_EDGE ( 'NONE', *, *, #265, .T. ) ;
#1106 = SURFACE_STYLE_USAGE ( .BOTH. , #818 ) ;
#1107 = ORIENTED_EDGE ( 'NONE', *, *, #383, .T. ) ;
#1108 = ORIENTED_EDGE ( 'NONE', *, *, #682, .F. ) ;
#1109 = DIRECTION ( 'NONE',  ( 0.0000000000000000000, -1.000000000000000000, 0.0000000000000000000 ) ) ;
#1110 = VERTEX_POINT ( 'NONE', #700 ) ;
#1111 = CIRCLE ( 'NONE', #66, 0.8000000000000003775 ) ;
#1112 = SURFACE_SIDE_STYLE ('',( #416 ) ) ;
#1113 = DIRECTION ( 'NONE',  ( 0.0000000000000000000, 1.000000000000000000, 0.0000000000000000000 ) ) ;
#1114 = EDGE_CURVE ( 'NONE', #13, #171, #998, .T. ) ;
#1115 = ORIENTED_EDGE ( 'NONE', *, *, #555, .T. ) ;
#1116 = ORIENTED_EDGE ( 'NONE', *, *, #659, .T. ) ;
#1117 = AXIS2_PLACEMENT_3D ( 'NONE', #1185, #335, #803 ) ;
#1118 = DIRECTION ( 'NONE',  ( 0.0000000000000000000, 0.0000000000000000000, 1.000000000000000000 ) ) ;
#1119 = EDGE_LOOP ( 'NONE', ( #503, #1105, #1037, #1080, #676, #101, #1201, #696 ) ) ;
#1120 = DIRECTION ( 'NONE',  ( 0.3826834323650896708, 0.0000000000000000000, -0.9238795325112867385 ) ) ;
#1121 = CIRCLE ( 'NONE', #567, 3.753751380185251563 ) ;
#1122 = VERTEX_POINT ( 'NONE', #1070 ) ;
#1123 = VECTOR ( 'NONE', #968, 1000.000000000000000 ) ;
#1124 = CARTESIAN_POINT ( 'NONE',  ( 3.610965871052089771, 0.0000000000000000000, 0.2669999999999999596 ) ) ;
#1125 = DIRECTION ( 'NONE',  ( 0.7071067811865470176, 0.0000000000000000000, 0.7071067811865480168 ) ) ;
#1126 = PRODUCT_RELATED_PRODUCT_CATEGORY ( 'part', '', ( #953 ) ) ;
#1127 = CARTESIAN_POINT ( 'NONE',  ( -7.500000000000000000, 0.0000000000000000000, 0.2669999999999999596 ) ) ;
#1128 = DIRECTION ( 'NONE',  ( 0.0000000000000000000, -1.000000000000000000, 0.0000000000000000000 ) ) ;
#1129 = VECTOR ( 'NONE', #95, 1000.000000000000000 ) ;
#1130 = DIRECTION ( 'NONE',  ( 0.0000000000000000000, 1.000000000000000000, 0.0000000000000000000 ) ) ;
#1131 = VECTOR ( 'NONE', #712, 1000.000000000000000 ) ;
#1132 = FACE_OUTER_BOUND ( 'NONE', #389, .T. ) ;
#1133 = ADVANCED_FACE ( 'NONE', ( #1084 ), #1145, .F. ) ;
#1134 = CARTESIAN_POINT ( 'NONE',  ( 3.045280446102850203, 0.0000000000000000000, 0.5013145750507620457 ) ) ;
#1135 = ORIENTED_EDGE ( 'NONE', *, *, #351, .T. ) ;
#1136 = ORIENTED_EDGE ( 'NONE', *, *, #238, .T. ) ;
#1137 = AXIS2_PLACEMENT_3D ( 'NONE', #1074, #1171, #425 ) ;
#1138 = CARTESIAN_POINT ( 'NONE',  ( -2.500000000000000000, 7.750000000000000000, 0.7670000000000000151 ) ) ;
#1139 = ORIENTED_EDGE ( 'NONE', *, *, #477, .F. ) ;
#1140 = VECTOR ( 'NONE', #183, 1000.000000000000000 ) ;
#1141 = ORIENTED_EDGE ( 'NONE', *, *, #538, .T. ) ;
#1142 = CARTESIAN_POINT ( 'NONE',  ( -1.481490098690585899, 0.7165954002061880601, 0.4999999999999997780 ) ) ;
#1143 = EDGE_CURVE ( 'NONE', #171, #128, #1161, .T. ) ;
#1144 = CARTESIAN_POINT ( 'NONE',  ( 7.500000000000000000, 7.750000000000000000, 0.2669999999999999596 ) ) ;
#1145 = CYLINDRICAL_SURFACE ( 'NONE', #213, 3.753751380185251563 ) ;
#1146 = DIRECTION ( 'NONE',  ( 0.0000000000000000000, 0.0000000000000000000, 1.000000000000000000 ) ) ;
#1147 = CARTESIAN_POINT ( 'NONE',  ( -7.500000000000000000, 7.750000000000000000, 0.0000000000000000000 ) ) ;
#1148 = LINE ( 'NONE', #25, #365 ) ;
#1149 = ORIENTED_EDGE ( 'NONE', *, *, #621, .F. ) ;
#1150 = VECTOR ( 'NONE', #861, 1000.000000000000000 ) ;
#1151 = CARTESIAN_POINT ( 'NONE',  ( 2.500000000000000000, 0.0000000000000000000, 0.5000000000000000000 ) ) ;
#1152 = VERTEX_POINT ( 'NONE', #844 ) ;
#1153 = VERTEX_POINT ( 'NONE', #1043 ) ;
#1154 = VECTOR ( 'NONE', #22, 1000.000000000000000 ) ;
#1155 = ORIENTED_EDGE ( 'NONE', *, *, #576, .T. ) ;
#1156 = AXIS2_PLACEMENT_3D ( 'NONE', #1102, #537, #456 ) ;
#1157 = DIRECTION ( 'NONE',  ( 0.0000000000000000000, 1.000000000000000000, 0.0000000000000000000 ) ) ;
#1158 = CARTESIAN_POINT ( 'NONE',  ( 7.500000000000000000, 0.0000000000000000000, 0.0000000000000000000 ) ) ;
#1159 = CARTESIAN_POINT ( 'NONE',  ( 1.481490098690585899, 0.0000000000000000000, 0.7670000000000000151 ) ) ;
#1160 = DIRECTION ( 'NONE',  ( 0.0000000000000000000, 1.000000000000000000, 0.0000000000000000000 ) ) ;
#1161 = LINE ( 'NONE', #376, #429 ) ;
#1162 = PRESENTATION_LAYER_ASSIGNMENT (  '', '', ( #257 ) ) ;
#1163 = CARTESIAN_POINT ( 'NONE',  ( -2.669000000000000039, 7.750000000000000000, 0.5000000000000000000 ) ) ;
#1164 = CARTESIAN_POINT ( 'NONE',  ( 0.0000000000000000000, 0.0000000000000000000, 0.6334999999999999520 ) ) ;
#1165 = LINE ( 'NONE', #796, #381 ) ;
#1166 = EDGE_CURVE ( 'NONE', #889, #258, #733, .T. ) ;
#1167 = VERTEX_POINT ( 'NONE', #292 ) ;
#1168 = CARTESIAN_POINT ( 'NONE',  ( -3.045280446102850203, 0.0000000000000000000, 0.5013145750507620457 ) ) ;
#1169 = ORIENTED_EDGE ( 'NONE', *, *, #457, .T. ) ;
#1170 = ORIENTED_EDGE ( 'NONE', *, *, #955, .T. ) ;
#1171 = DIRECTION ( 'NONE',  ( 0.0000000000000000000, 1.000000000000000000, 0.0000000000000000000 ) ) ;
#1172 = AXIS2_PLACEMENT_3D ( 'NONE', #320, #970, #221 ) ;
#1173 = CARTESIAN_POINT ( 'NONE',  ( 3.610965871052089771, 0.0000000000000000000, 0.2669999999999999596 ) ) ;
#1174 = CARTESIAN_POINT ( 'NONE',  ( -2.669000000000000039, 0.0000000000000000000, 0.5000000000000000000 ) ) ;
#1175 = CARTESIAN_POINT ( 'NONE',  ( -1.481490098690585899, 0.7165954002061880601, -0.001000000000000241147 ) ) ;
#1176 =( GEOMETRIC_REPRESENTATION_CONTEXT ( 3 ) GLOBAL_UNCERTAINTY_ASSIGNED_CONTEXT ( ( #764 ) ) GLOBAL_UNIT_ASSIGNED_CONTEXT ( ( #146, #239, #1076 ) ) REPRESENTATION_CONTEXT ( 'NONE', 'WORKASPACE' ) );
#1177 = VECTOR ( 'NONE', #927, 1000.000000000000000 ) ;
#1178 = CYLINDRICAL_SURFACE ( 'NONE', #357, 0.8000000000000001554 ) ;
#1179 = ORIENTED_EDGE ( 'NONE', *, *, #1012, .F. ) ;
#1180 = DIRECTION ( 'NONE',  ( -0.7071067811865470176, 0.0000000000000000000, 0.7071067811865480168 ) ) ;
#1181 = ORIENTED_EDGE ( 'NONE', *, *, #222, .T. ) ;
#1182 = EDGE_CURVE ( 'NONE', #837, #899, #408, .T. ) ;
#1183 = ORIENTED_EDGE ( 'NONE', *, *, #521, .T. ) ;
#1184 = COLOUR_RGB ( '',0.7529411764705882248, 0.7529411764705882248, 0.7529411764705882248 ) ;
#1185 = CARTESIAN_POINT ( 'NONE',  ( -3.500370849898480241, 0.0000000000000000000, 0.8000000000000000444 ) ) ;
#1186 = AXIS2_PLACEMENT_3D ( 'NONE', #989, #529, #1180 ) ;
#1187 = EDGE_CURVE ( 'NONE', #902, #1167, #256, .T. ) ;
#1188 = PLANE ( 'NONE',  #1172 ) ;
#1189 = LINE ( 'NONE', #794, #371 ) ;
#1190 = PLANE ( 'NONE',  #926 ) ;
#1191 = DIRECTION ( 'NONE',  ( 0.0000000000000000000, -1.000000000000000000, 0.0000000000000000000 ) ) ;
#1192 = CIRCLE ( 'NONE', #193, 0.7999999999999999334 ) ;
#1193 = AXIS2_PLACEMENT_3D ( 'NONE', #423, #809, #710 ) ;
#1194 = CIRCLE ( 'NONE', #1040, 0.8000000000000003775 ) ;
#1195 = ORIENTED_EDGE ( 'NONE', *, *, #1059, .F. ) ;
#1196 = EDGE_CURVE ( 'NONE', #905, #916, #907, .T. ) ;
#1197 = ORIENTED_EDGE ( 'NONE', *, *, #77, .T. ) ;
#1198 = DIRECTION ( 'NONE',  ( 0.7071067811865480168, 0.0000000000000000000, -0.7071067811865470176 ) ) ;
#1199 = ORIENTED_EDGE ( 'NONE', *, *, #1187, .T. ) ;
#1200 = DIRECTION ( 'NONE',  ( 0.0000000000000000000, 0.0000000000000000000, -1.000000000000000000 ) ) ;
#1201 = ORIENTED_EDGE ( 'NONE', *, *, #238, .F. ) ;
#1202 = VECTOR ( 'NONE', #249, 1000.000000000000000 ) ;
#1203 = CARTESIAN_POINT ( 'NONE',  ( 2.500000000000000000, 7.750000000000000000, 0.5000000000000000000 ) ) ;
#1204 = AXIS2_PLACEMENT_3D ( 'NONE', #303, #574, #32 ) ;
#1205 = CARTESIAN_POINT ( 'NONE',  ( 2.934685424949239785, 7.750000000000000000, 0.2343145750507630021 ) ) ;
#1206 = EDGE_CURVE ( 'NONE', #413, #815, #756, .T. ) ;
#1207 = VECTOR ( 'NONE', #1198, 1000.000000000000000 ) ;
#1208 = VECTOR ( 'NONE', #617, 1000.000000000000000 ) ;
#1209 = FACE_OUTER_BOUND ( 'NONE', #827, .T. ) ;
#1210 = CARTESIAN_POINT ( 'NONE',  ( -2.500000000000000000, 7.750000000000000000, 0.5000000000000000000 ) ) ;
#1211 = EDGE_LOOP ( 'NONE', ( #338, #434, #706, #921 ) ) ;
#1212 = ORIENTED_EDGE ( 'NONE', *, *, #929, .F. ) ;
#1213 = LINE ( 'NONE', #234, #200 ) ;
#1214 = ORIENTED_EDGE ( 'NONE', *, *, #824, .T. ) ;
#1215 = EDGE_CURVE ( 'NONE', #754, #719, #276, .T. ) ;
#1216 = FACE_OUTER_BOUND ( 'NONE', #622, .T. ) ;
#1217 = CARTESIAN_POINT ( 'NONE',  ( -1.481490098690585899, 0.0000000000000000000, 0.5000000000000001110 ) ) ;
#1218 = ORIENTED_EDGE ( 'NONE', *, *, #61, .F. ) ;
ENDSEC;
END-ISO-10303-21;
